<svg width="427" height="400" viewBox="0 0 427 400" fill="none" xmlns="http://www.w3.org/2000/svg">
<path d="M12.4901 300.55L26.7001 282.37L8.43008 288.56L7.1001 284.62L33.0701 275.82L34.2901 279.43L20.1201 297.61L38.3501 291.43L39.6801 295.37L13.7201 304.17L12.4901 300.55Z" fill="#1E1E1C"/>
<path d="M30.25 328.24C27.65 327.64 25.4799 326.14 23.9299 323.66C22.3799 321.18 21.99 318.6 22.59 316.01C23.44 312.3 26.0399 310.72 30.5099 307.92C34.9799 305.12 37.54 303.48 41.25 304.33C43.85 304.93 46 306.4 47.55 308.88C49.1 311.36 49.51 313.97 48.91 316.57C48.06 320.28 45.44 321.83 40.97 324.63C36.5 327.42 33.96 329.1 30.25 328.24ZM45.1199 315.22C45.4899 313.85 45.25 312.23 44.39 310.86C43.53 309.49 42.1799 308.57 40.7899 308.3C38.8399 307.93 37.39 308.52 32.72 311.44C28.05 314.36 26.8899 315.4 26.3699 317.32C25.9999 318.69 26.24 320.3 27.1 321.68C27.96 323.05 29.31 323.98 30.7 324.24C32.66 324.61 34.1 324.02 38.77 321.1C43.43 318.18 44.5899 317.13 45.1199 315.22Z" fill="#1E1E1C"/>
<path d="M47.9999 351.96L51.9299 339.65L48.2099 336.02L40.1499 344.29L37.1699 341.39L56.3099 321.76L63.9199 329.18C67.6399 332.81 67.6799 337.52 64.4199 340.86C61.6799 343.67 58.2199 343.8 55.4199 342.25L51.4699 355.35L47.9999 351.96ZM61.0799 331.64L56.6699 327.34L50.6699 333.49L55.0799 337.79C57.0599 339.73 59.5199 339.91 61.3999 337.98C63.2899 336.05 63.0699 333.57 61.0799 331.64Z" fill="#1E1E1C"/>
<path d="M66.26 365.83C62.78 363.63 60.79 361.23 60 357.58L63.8 356.75C64.42 359.51 65.95 361.21 68.32 362.71C71.34 364.62 73.92 364.43 75.35 362.19C75.99 361.18 76.23 360.15 75.96 359.21C75.73 358.29 75.28 357.69 74.04 356.63L71.55 354.51C69.83 353.06 68.74 351.46 68.33 349.88C67.87 348.09 68.24 346.27 69.44 344.39C71.99 340.36 76.67 339.45 81.48 342.49C84.54 344.43 86.19 346.56 87 349.67L83.36 350.46C82.79 348.19 81.4 346.72 79.45 345.48C76.72 343.75 74.23 344.36 72.94 346.41C72.4 347.25 72.19 348.17 72.46 349.11C72.71 350 73.41 350.99 74.38 351.83L76.77 353.89C78.71 355.57 79.58 356.86 80.01 358.35C80.58 360.26 80.15 362.31 78.89 364.29C76.19 368.56 71.1 368.9 66.26 365.83Z" fill="#1E1E1C"/>
<path d="M99.1802 382.02L97.3202 366.58L90.9102 369.9L87.8202 377.25L83.9902 375.64L94.6102 350.37L98.4402 351.98L93.1002 364.69L108.77 356.32L113.46 358.29L101.1 364.75L103.7 383.92L99.1802 382.02Z" fill="#1E1E1C"/>
<path d="M135.51 381.23L129.42 379.87L127.08 390.39L123.02 389.49L128.98 362.74L139.13 365C144.35 366.16 146.93 370.37 145.89 375.02C144.85 379.68 140.73 382.39 135.51 381.23ZM138.09 368.59L132.23 367.28L130.25 376.19L136.11 377.5C138.93 378.13 141.21 376.94 141.83 374.12C142.46 371.3 140.91 369.22 138.09 368.59Z" fill="#1E1E1C"/>
<path d="M166.49 394.42C164.38 396.05 161.84 396.77 158.94 396.39C156.04 396.01 153.81 394.68 152.18 392.56C149.85 389.54 150.28 386.53 150.96 381.3C151.64 376.07 151.99 373.05 155.01 370.73C157.12 369.1 159.62 368.38 162.52 368.75C165.42 369.13 167.69 370.47 169.32 372.58C171.65 375.6 171.18 378.6 170.5 383.83C169.82 389.07 169.51 392.09 166.49 394.42ZM165.87 374.66C165.05 373.51 163.64 372.66 162.04 372.46C160.44 372.25 158.86 372.71 157.78 373.62C156.26 374.9 155.79 376.39 155.08 381.85C154.37 387.31 154.44 388.87 155.59 390.49C156.41 391.64 157.82 392.49 159.42 392.69C161.02 392.9 162.6 392.44 163.68 391.54C165.2 390.26 165.67 388.77 166.38 383.31C167.08 377.85 167.01 376.29 165.87 374.66Z" fill="#1E1E1C"/>
<path d="M177.94 398.2L179.61 370.85L183.76 371.1L182.31 394.72L195.48 395.53L195.25 399.25L177.94 398.2Z" fill="#1E1E1C"/>
<path d="M218.49 399.57L216.66 394.05L205.85 393.94L203.91 399.42L199.49 399.38L209.8 372.09L213.15 372.12L222.92 399.61L218.49 399.57ZM211.51 378.3L207.12 390.41L215.55 390.49L211.51 378.3Z" fill="#1E1E1C"/>
<path d="M244.83 398.58L238.46 387.35L233.27 387.62L233.87 399.15L229.72 399.37L228.29 372L238.9 371.45C244.09 371.18 247.57 374.35 247.81 379C248.02 382.92 245.76 385.54 242.73 386.55L249.67 398.33L244.83 398.58ZM238.79 375.19L232.64 375.51L233.09 384.08L239.24 383.76C242.01 383.62 243.81 381.94 243.67 379.25C243.53 376.56 241.56 375.05 238.79 375.19Z" fill="#1E1E1C"/>
<path d="M257.73 397.48L254.87 370.23L259 369.8L261.86 397.05L257.73 397.48Z" fill="#1E1E1C"/>
<path d="M288.58 393.07L272.81 376.23L276.1 395.23L272.01 395.94L267.33 368.94L271.08 368.29L286.84 385.09L283.55 366.13L287.65 365.42L292.33 392.42L288.58 393.07Z" fill="#1E1E1C"/>
<path d="M310.01 388.14C306.05 389.27 302.94 389.16 299.69 387.32L301.61 383.93C304.08 385.31 306.36 385.3 309.06 384.53C312.5 383.55 314.08 381.5 313.35 378.94C313.02 377.79 312.42 376.92 311.53 376.5C310.68 376.06 309.94 375.99 308.33 376.21L305.09 376.65C302.86 376.97 300.94 376.71 299.49 375.97C297.84 375.12 296.74 373.63 296.13 371.48C294.82 366.89 297.26 362.79 302.74 361.23C306.22 360.24 308.92 360.43 311.78 361.9L309.94 365.15C307.87 364.06 305.84 364.12 303.62 364.75C300.51 365.64 299.31 367.9 299.98 370.23C300.25 371.19 300.79 371.96 301.67 372.39C302.51 372.79 303.71 372.93 304.98 372.77L308.11 372.36C310.66 372.03 312.2 372.24 313.59 372.92C315.39 373.77 316.63 375.45 317.28 377.71C318.66 382.55 315.52 386.56 310.01 388.14Z" fill="#1E1E1C"/>
<path d="M327.82 356.55L336.99 378.38L333.16 379.99L323.99 358.16L317.03 361.08L315.58 357.64L333.33 350.18L334.78 353.62L327.82 356.55Z" fill="#1E1E1C"/>
<path d="M351.53 371.32L338.15 347.4L341.78 345.37L355.16 369.29L351.53 371.32Z" fill="#1E1E1C"/>
<path d="M358.15 338.9L372.32 357.86L368.99 360.35L354.82 341.39L348.78 345.91L346.54 342.92L361.95 331.4L364.19 334.39L358.15 338.9Z" fill="#1E1E1C"/>
<path d="M392.36 339.4C388.69 343.61 383.03 344.29 378.77 340.56L365.09 328.61L367.82 325.48L381.36 337.31C384.11 339.72 387.29 339.53 389.55 336.95C391.8 334.37 391.59 331.16 388.83 328.76L375.29 316.93L378.03 313.8L391.71 325.75C395.97 329.47 396.03 335.2 392.36 339.4Z" fill="#1E1E1C"/>
<path d="M389.19 301.92L410 313.2L408.02 316.85L387.21 305.57L383.61 312.2L380.33 310.42L389.5 293.5L392.78 295.28L389.19 301.92Z" fill="#1E1E1C"/>
<path d="M397.56 281.25L420.1 288.5L418.82 292.46L396.29 285.21L393.98 292.39L390.42 291.25L396.32 272.93L399.87 274.07L397.56 281.25Z" fill="#1E1E1C"/>
<path d="M283.02 146.84C255.17 146.84 230.22 159.35 213.49 179.04V179.36C196.77 159.48 171.72 146.84 143.71 146.84C93.3603 146.84 52.5503 187.66 52.5503 238C52.5503 288.35 93.3603 329.17 143.71 329.17C171.64 329.17 196.63 316.59 213.35 296.81C230.07 316.6 255.07 329.17 283.01 329.17C333.35 329.17 374.17 288.35 374.17 238C374.18 187.66 333.36 146.84 283.02 146.84Z" fill="#54C8E8"/>
<path d="M96.1401 220.01L95.5301 223.99L89.2701 224.13L84.2201 226.13L82.7001 221.85L84.0701 218.8L83.7601 213.76L87.5801 211.15L91.1001 210.7L94.7701 210.85L98.1301 214.52L96.1401 220.01ZM89.2701 230.85L93.5401 231.92L95.8301 227.51L90.0301 227.2L89.2701 230.85ZM85.1401 268.12L84.6801 263.69L86.9701 262.02L90.1801 258.2L93.5401 251.33L94.3101 246.75L94.0001 242.92L94.1501 240.49L96.9001 237.42L94.1501 233L90.9401 236.5L86.5101 239.1L84.8301 242.62L85.2901 248.87L81.3201 254.06L79.1801 250.7L76.1301 254.21L80.1001 255.59L78.8801 257.11L73.6901 255.74L69.5701 252.99L65.9001 270.25L68.3501 271.62L69.7201 272.23L73.6901 271.16L75.8301 266.57L77.2001 268.41L79.4901 272.99L85.1401 268.12ZM103.32 237.27L104.85 233.29L100.73 233.75L99.2001 237.72L97.8201 245.51L101.34 245.82L103.32 237.27ZM108.21 246.13L113.55 245.98L119.51 247.96L124.55 246.28L122.42 239.55L117.23 238.64L112.8 241.24L105.62 239.55L103.48 242.62L105.46 245.83L108.21 246.13ZM108.67 236.67L117.22 236.36L116.15 233.92L112.03 234.22L108.67 236.67ZM106.68 230.55L108.21 232.38H112.18L113.71 227.5L110.35 227.65L106.68 230.55ZM99.8101 231.31L103.78 229.48L100.11 227.95L99.8101 231.31ZM103.62 217.56L99.9501 220.47L102.09 226.58L104.68 225.67L106.52 222.76L106.83 220.17L105.3 216.8L103.62 217.56ZM97.2101 205.81L95.2201 209.32L98.7301 212.23L99.9501 214.68L102.09 214.83L104.38 211.32L102.39 208.26L97.2101 205.81ZM108.36 212.67L106.53 215.58L108.36 220.62L111.72 221.23L110.65 215.58L108.36 212.67ZM108.67 223.21L109.43 225.51L112.18 225.36L111.11 222.61L108.67 223.21ZM82.5401 226.58L80.5601 229.02L82.5401 231L84.5401 235.29L85.9101 235.75L88.3501 232.39L85.4501 229.8V227.35L82.5401 226.58ZM113.4 305.1L113.55 308.46L119.36 315.48L127.61 310.29L117.99 303.41L113.4 305.1ZM134.02 293.79L135.24 295.77L138.14 293.94L135.24 292.4L134.02 293.79ZM155.69 282.2L156.91 284.19L159.81 282.36L156.91 280.82L155.69 282.2ZM148.68 264.31L148.23 269.81L152.06 275L155.41 278.06L156.33 275.76L158.77 275.61L160.9 272.1L157.24 269.81L152.35 265.53L148.68 264.31ZM155.4 263.08L154.64 266.44L159.38 266.59L155.4 263.08ZM162.12 258.66L165.18 258.8L166.25 256.36L163.35 254.83L162.12 258.66ZM165.19 252.86L168.25 255.15L170.08 253.78L166.71 251.63L165.19 252.86ZM189.63 271.79L193.14 268.74L188.71 267.06L183.82 257.74L181.23 251.47L178.94 254.53L180.02 260.79L185.36 271.33L189.63 271.79ZM174.5 205.19L170.53 200.61L167.94 202.45L171.3 207.64L174.5 205.19ZM130.51 157.23L126.84 158.76L130.81 160.29L130.51 157.23ZM140.44 181.52L143.81 182.28V179.84L141.36 178.15L140.44 181.52ZM61.6201 250.4L59.7901 252.39L62.3801 252.54L61.6201 250.4ZM59.9401 246.9L61.4701 249.04L63.4601 248.12L61.7801 245.83L59.9401 246.9ZM66.6601 241.85L63.1501 242.62L63.7601 244.91L65.5901 249.64L70.3201 245.37L66.6601 241.85ZM165.19 199.84L166.11 196.94L163.82 197.86L165.19 199.84ZM139.29 327.55L142.65 325.64L141.05 324.17L139.29 327.55ZM132.5 322.2L134.64 323.26L135.94 321.59L133.65 319.9L132.5 322.2ZM139.37 263.85L135.71 261.1L136.78 256.82L134.03 253.31L128.69 252.4L124.41 250.1L120.29 249.34H115.4L110.66 247.97L108.52 250.58L104.85 252.25L106.22 257.91L102.71 265.85L99.8101 267.53L97.8201 270.12L96.7501 272.41L83.3101 284.94L79.4901 297L79.5001 302.42L83.0601 305.78L85.1301 303.87L95.2101 297.15L101.01 297L109.41 295.17L119.03 296.41L122.55 293.19L125.3 284.79L128.97 282.5L131.57 279.29L131.88 274.7L135.85 267.84L139.37 263.85ZM354.13 242.63L354.28 226.89L347.56 225.51L342.83 222.3L344.66 215.13L342.07 205.5L342.84 197.86L337.95 192.36L321.76 189.31L318.7 185.8L314.43 183.05L284.64 176.18L281.43 174.19L268.89 182.59L259.11 208.1L253.32 212.22L246.45 214.05L231.17 206.42L231.68 214.25C224.73 188.55 206.84 167.32 183.27 155.98L174.5 157.08L174.96 153.57L168.09 155.71L168.54 152.96L170.11 150.88L159.11 148.31L149.91 152.66L144.73 153.11L145.79 159.68L144.87 161.21L140.29 163.04L134.94 160.44L132.04 163.19L130.51 165.79L132.65 169.91L136.47 167.92L139.68 172.35L146.41 176.02L153.73 177.24L156.79 176.63L161.98 178.15L162.74 181.05L174.66 196.48L171.76 197.4L174.96 200.45L176.49 197.55L181.83 198L185.19 201.67L183.35 205.8L182.74 210.22L187.47 211.91L189.76 218.47L187.78 221.07L182.43 219.54L180.6 225.04L175.71 227.02L174.03 231.9L170.52 234.96L175.56 236.48L178.31 234.19L176.33 231.89L179.53 231.74L181.52 229.76L188.85 240.14L192.37 241.05L194.66 245.03H197.87L194.66 249.61L198.79 252.82L207.19 255.56L211.32 258.62L194.67 253.27L191.46 256.48L195.89 260.45L200.32 262.13L200.63 264.28L195.74 273.9L194.52 282.61L193.6 282.91L190.55 282.15L187.96 285.04L192.24 288.1L192.85 289.78L189.95 299.4L183.08 296.51L186.75 295.28L190.11 291L183.55 288.25L178.96 288.41L174.99 286.88L171.63 288.71H169.8L160.33 297.73L156.06 315.89L150.29 322.78L151.87 328.67C159.15 328.03 166.19 326.54 172.88 324.29L170.26 316.05L173.93 305.05V312.67L177.77 322.48C207.64 310.5 229.64 283.11 234.05 250.16L234.26 253.41L243.58 268.23L254.88 272.82L264.96 272.97L268.78 274.35L274.43 271.44L292.92 275.41L294.6 279.99L293.68 283.51L290.31 287.33L289.25 291.76L296.12 294.36L319.18 294.97L329.33 293.25L335.08 287.78L336.7 282.33L340.41 280.44L342.43 274.41L351.12 265.78L350.96 259.52L355.08 257.38L358.14 247.91V242.41L354.13 242.63ZM71.0901 241.25L73.8401 246.9L78.8801 247.21L82.2401 245.52L80.4101 241.7L80.5601 239.87L83.1601 234.37L78.5701 229.93L79.1801 226.72L79.0301 223.52L81.9301 220.92L82.2401 213.89L85.9101 210.23L90.0301 207.94L97.8201 202.44L100.72 191.9L107.13 189.3L117.98 187.01L125.62 180.29L126.23 171.43L123.94 167.76L126.69 163.79L119.81 163.18L121.65 161.04L122.26 153.55L114.39 151.88L102.05 157.16L99.8101 163.48L93.0601 162.5C70.5701 177.65 55.2201 202.57 53.1001 231.19L65.2901 240.15L71.0901 241.25ZM54.4201 254.98C55.4201 260.32 56.8901 265.5 58.7901 270.47L62.2301 269.51L62.9901 264.16V254.53L60.3901 255.29L54.4201 254.98Z" fill="#FFCD00" stroke="#1E1E1C" stroke-width="1.125"/>
<path d="M32.0201 207.21L17.9601 217.51C20.1301 204.15 24.3901 191.49 30.3901 179.85L46.1301 175.63C39.9401 185.28 35.1401 195.9 32.0201 207.21ZM27.8301 238C27.8301 230.02 28.6401 222.23 30.1801 214.71L17.0301 224.3C16.5501 228.8 16.2801 233.37 16.2801 238C16.2801 246.88 17.2001 255.55 18.9401 263.92L28.3901 249.28C28.0301 245.57 27.8301 241.81 27.8301 238ZM56.3401 140.13L58.9801 123.11C46.7801 132.13 36.0901 143.05 27.2901 155.42L30.6601 171.37C37.5801 159.68 46.2601 149.14 56.3401 140.13ZM74.9901 144.77L58.7801 143.1C48.9001 151.96 40.4101 162.33 33.6701 173.85L50.4501 169.31C57.3601 159.96 65.6401 151.68 74.9901 144.77ZM13.2301 223.71L3.79013 209.27C1.89013 218.56 0.890137 228.17 0.890137 238.01C0.890137 243.58 1.24013 249.06 1.87013 254.46L15.0401 264.05C13.3401 255.63 12.4401 246.92 12.4401 238.01C12.4401 233.17 12.7201 228.41 13.2301 223.71ZM421.63 202.55C417.82 187.68 411.63 173.75 403.56 161.16L399.89 178.33C405.96 190.16 410.28 203.01 412.52 216.57L421.63 202.55ZM362.34 119.14C349.86 110.81 335.99 104.41 321.18 100.33L329.82 115.38C342.6 120.27 354.41 127.1 364.92 135.52L362.34 119.14ZM396.24 171.69L399.68 155.42C390.88 143.05 380.19 132.13 367.99 123.11L370.67 140.37C380.72 149.41 389.36 159.98 396.24 171.69ZM376.52 169.32L393.01 173.78C386.28 162.3 377.82 151.96 367.97 143.13L351.99 144.78C361.33 151.68 369.61 159.96 376.52 169.32ZM345.63 140.41L362.74 138.69C352.47 130.43 340.91 123.73 328.4 118.95L313.96 126.28C325.3 129.4 335.95 134.21 345.63 140.41ZM113.02 126.28L98.4701 118.9C85.9201 123.68 74.3201 130.39 64.0201 138.67L81.3501 140.41C91.0201 134.21 101.67 129.4 113.02 126.28ZM105.8 100.33C90.9801 104.42 77.1201 110.81 64.6401 119.14L62.1001 135.29C72.6301 126.91 84.4501 120.1 97.2401 115.25L105.8 100.33ZM23.4201 161.15C15.3401 173.75 9.16014 187.67 5.35014 202.54L14.2701 216.26C16.5401 202.68 20.9101 189.81 27.0201 177.97L23.4201 161.15ZM411.65 264.25L425.11 254.46C425.73 249.06 426.09 243.57 426.09 238.01C426.09 228.17 425.09 218.56 423.19 209.27L413.55 224.03C414.04 228.62 414.3 233.28 414.3 238.01C414.29 246.99 413.38 255.77 411.65 264.25ZM399.14 238C399.14 241.81 398.94 245.57 398.58 249.28L407.85 263.63C409.55 255.35 410.44 246.77 410.44 238C410.44 233.3 410.17 228.67 409.67 224.1L396.79 214.71C398.33 222.24 399.14 230.03 399.14 238ZM380.85 175.63C387.04 185.28 391.84 195.9 394.96 207.21L408.74 217.3C406.56 203.99 402.29 191.37 396.31 179.77L380.85 175.63ZM133.51 109.25L130.46 112.87L127.42 116.49C122.1 117.21 116.49 118.36 111.21 119.8L106.99 117.67L102.77 115.54L105.3 111.15L107.83 106.76C113.55 105.19 119.42 103.98 125.41 103.17L129.46 106.21L133.51 109.25ZM297.52 106.2L301.57 103.16C307.56 103.98 313.43 105.19 319.15 106.75L321.68 111.14L324.21 115.53L319.99 117.66L315.77 119.79C310.49 118.35 304.88 117.2 299.56 116.48L296.52 112.86L293.47 109.24L297.52 106.2Z" fill="#FFCD00" stroke="#1E1E1C" stroke-width="1.5"/>
<path d="M143.73 224.95V147.5" stroke="#1E1E1C" stroke-width="1.5"/>
<path d="M137.2 226.68L98.4805 159.61" stroke="#1E1E1C" stroke-width="1.5"/>
<path d="M132.421 231.45L65.3506 192.72" stroke="#1E1E1C" stroke-width="1.5"/>
<path d="M130.66 237.97H53.2104" stroke="#1E1E1C" stroke-width="1.5"/>
<path d="M132.391 244.5L65.3306 283.21" stroke="#1E1E1C" stroke-width="1.5"/>
<path d="M137.16 249.29L98.4404 316.35" stroke="#1E1E1C" stroke-width="1.5"/>
<path d="M143.69 251.04V328.49" stroke="#1E1E1C" stroke-width="1.5"/>
<path d="M150.22 249.3L188.94 316.38" stroke="#1E1E1C" stroke-width="1.5"/>
<path d="M155 244.54L222.06 283.26" stroke="#1E1E1C" stroke-width="1.5"/>
<path d="M156.76 238.02H234.21" stroke="#1E1E1C" stroke-width="1.5"/>
<path d="M155.03 231.48L222.09 192.77" stroke="#1E1E1C" stroke-width="1.5"/>
<path d="M150.26 226.7L188.98 159.64" stroke="#1E1E1C" stroke-width="1.5"/>
<path d="M283.05 224.95V147.5" stroke="#1E1E1C" stroke-width="1.5"/>
<path d="M276.51 226.68L237.79 159.61" stroke="#1E1E1C" stroke-width="1.5"/>
<path d="M271.73 231.45L229.39 207" stroke="#1E1E1C" stroke-width="1.5"/>
<path d="M269.97 237.97H235.07" stroke="#1E1E1C" stroke-width="1.5"/>
<path d="M271.7 244.5L229.03 269.14" stroke="#1E1E1C" stroke-width="1.5"/>
<path d="M276.46 249.29L237.75 316.35" stroke="#1E1E1C" stroke-width="1.5"/>
<path d="M282.99 251.04V328.49" stroke="#1E1E1C" stroke-width="1.5"/>
<path d="M289.53 249.3L328.25 316.38" stroke="#1E1E1C" stroke-width="1.5"/>
<path d="M294.31 244.54L361.38 283.26" stroke="#1E1E1C" stroke-width="1.5"/>
<path d="M296.07 238.02H373.52" stroke="#1E1E1C" stroke-width="1.5"/>
<path d="M294.34 231.48L361.4 192.77" stroke="#1E1E1C" stroke-width="1.5"/>
<path d="M289.57 226.7L328.28 159.64" stroke="#1E1E1C" stroke-width="1.5"/>
<path d="M143.711 268.67C160.651 268.67 174.391 254.94 174.391 237.99C174.391 221.05 160.651 207.32 143.711 207.32C126.771 207.32 113.041 221.05 113.041 237.99C113.041 254.95 126.771 268.67 143.711 268.67Z" stroke="#1E1E1C" stroke-width="1.5"/>
<path d="M203.681 239.65C204.599 206.52 178.486 178.919 145.357 178.001C112.228 177.083 84.6267 203.196 83.7087 236.325C82.7906 269.454 108.903 297.055 142.032 297.973C175.162 298.891 202.763 272.779 203.681 239.65Z" stroke="#1E1E1C" stroke-width="1.5"/>
<path d="M143.71 329.15C194.06 329.15 234.87 288.34 234.87 238C234.87 187.65 194.05 146.84 143.71 146.84C93.3603 146.84 52.5503 187.65 52.5503 238C52.5503 288.34 93.3603 329.15 143.71 329.15Z" stroke="#1E1E1C" stroke-width="1.5"/>
<path d="M283.02 268.67C299.96 268.67 313.7 254.94 313.7 237.99C313.7 221.05 299.96 207.32 283.02 207.32C266.09 207.32 252.35 221.05 252.35 237.99C252.34 254.95 266.08 268.67 283.02 268.67Z" stroke="#1E1E1C" stroke-width="1.5"/>
<path d="M230.2 266.48C240.34 285.25 260.19 298.01 283.02 298.01C316.17 298.01 343.04 271.13 343.04 238C343.04 204.85 316.17 177.99 283.02 177.99C260.12 177.99 240.2 190.82 230.09 209.7" stroke="#1E1E1C" stroke-width="1.5"/>
<path d="M213.33 296.77C230.05 316.58 255.06 329.15 283.02 329.15C333.36 329.15 374.18 288.34 374.18 238C374.18 187.65 333.36 146.84 283.02 146.84C255.17 146.84 230.22 159.34 213.49 179.04" stroke="#1E1E1C" stroke-width="1.5"/>
<path d="M166.96 83.0294C168.93 83.0294 171.38 84.4395 174.04 87.0995L174.35 87.4095L175.62 86.1395L175.31 85.8295C172.27 82.7895 170.87 80.0494 171.27 77.9194C171.59 76.2094 172.98 75.2694 174.1 74.7794L174.41 74.6395L174.35 74.2995C174.28 73.8695 173.59 69.8895 173.45 69.1395L173.37 68.6895L172.92 68.7894C162.44 71.2094 154.18 75.0395 147.67 80.4895L147.89 80.7495L147.5 80.8094V80.8295C147.79 82.6495 146.92 84.9595 144.99 87.5195L144.76 87.8195L146.18 89.2395L146.49 88.9194C149.44 85.8394 152.14 84.2195 154.31 84.2195C157.44 84.2195 158.87 87.5795 158.87 90.7095C158.87 93.8195 157.45 97.1794 154.33 97.1794C152.16 97.1794 149.45 95.5395 146.49 92.4395L146.18 92.1095L144.8 93.4895L144.95 93.7794C146.47 96.7094 150.87 102.779 151.91 103.549L151.98 103.589C154.16 104.619 157.11 105.189 160.29 105.189C163.42 105.189 166.4 104.639 168.88 103.589L168.98 103.529C171.21 101.759 174.83 94.6194 175.4 92.2894L175.46 92.0495L175.28 91.8795C175.12 91.7195 174.73 91.3294 174.63 91.2294L174.32 90.9194L174.01 91.2294C171.35 93.8894 168.9 95.2895 166.93 95.2995C165.15 95.2995 164.12 94.1695 163.58 93.2095C162.27 90.9395 162.27 87.3895 163.58 85.1295C164.16 84.1595 165.18 83.0294 166.96 83.0294Z" fill="#EA0029"/>
<path d="M202.18 81.9097C204.29 81.9097 206.92 83.6097 209.8 86.8197L210.11 87.1696L211.52 85.7596L211.18 85.4496C206.51 81.1396 205.97 78.2996 206.35 76.6696C206.83 74.5696 208.97 73.6296 210.2 73.2596L210.75 73.0896L210.5 72.6897C210.45 71.9897 210.18 67.9797 210.03 65.7997L210 65.3896H209.59C197.32 65.4896 187.82 66.1396 179.72 67.4496L179.3 67.5296L179.36 67.9597C179.43 68.4897 179.7 70.3596 179.92 71.8896C180.06 72.8796 180.18 73.7296 180.21 73.9496L180.25 74.2397L180.54 74.3096C182.73 74.8596 184.23 76.0696 184.67 77.6196C185.28 79.7896 183.93 82.6197 180.79 85.7997L180.48 86.1096L181.75 87.3797L182.06 87.0697C184.72 84.4097 187.17 82.9996 189.14 82.9996C192.12 82.9996 193.47 86.1797 193.47 89.1297C193.47 92.0797 192.11 95.2596 189.13 95.2596C187.16 95.2596 184.71 93.8497 182.05 91.1897L181.74 90.8797L181.43 91.1996C181.33 91.2996 180.94 91.6896 180.78 91.8396L180.6 92.0096L180.66 92.2496C181.28 94.7996 185.8 101.84 187.87 103.49L187.99 103.56C190.54 104.54 193.19 105.04 195.86 105.04C198.53 105.04 201.28 104.54 204.02 103.56L204.14 103.5C206.93 101.41 210.64 93.6897 211.3 91.4897L211.37 91.2397L211.19 91.0497C211.03 90.8897 210.62 90.4796 210.43 90.2896L210.1 89.9697L209.79 90.3096C206.91 93.5196 204.27 95.2197 202.17 95.2197C199.15 95.2197 197.78 91.7597 197.78 88.5497C197.78 86.7697 198.19 85.1096 198.92 83.8896C199.49 83.0096 200.5 81.9097 202.18 81.9097Z" fill="#EA0029"/>
<path d="M217.09 65.4097H216.67L216.64 65.8297C216.64 65.8297 216.26 71.6997 216.2 72.6597L215.88 73.0597L216.51 73.2397C217.77 73.6097 219.95 74.5397 220.45 76.6597C220.83 78.2897 220.3 81.1297 215.62 85.4497L215.28 85.7597L216.69 87.1697L217 86.8197C219.88 83.6097 222.51 81.9097 224.62 81.9097C227.64 81.9097 229.01 85.3697 229.01 88.5797C229.01 91.7897 227.64 95.2497 224.62 95.2497C222.51 95.2497 219.88 93.5497 217 90.3397L216.69 89.9897L215.42 91.2597L215.49 91.5097C216.13 93.6497 219.91 101.47 222.65 103.52L222.77 103.59C225.63 104.54 228.34 105.01 231.03 105.01C233.72 105.01 236.48 104.55 239.49 103.6L239.57 103.58L239.63 103.53C241.86 101.76 245.48 94.6197 246.05 92.2897L246.11 92.0497L245.94 91.8797C245.85 91.7897 245.69 91.6197 245.54 91.4797L244.98 90.9097L244.67 91.2197C242.01 93.8797 239.56 95.2897 237.59 95.2897C234.61 95.2897 233.25 92.1097 233.25 89.1597C233.25 87.5197 233.65 85.9997 234.37 84.8797C234.92 84.0397 235.92 83.0297 237.58 83.0297C239.55 83.0297 242 84.4397 244.66 87.0997L244.97 87.4097L245.28 87.0997C245.28 87.0997 245.68 86.6897 245.92 86.4497L246.23 86.1397L245.92 85.8297C242.81 82.6797 241.46 79.8797 242.02 77.7197C242.55 75.6697 244.63 74.7797 245.82 74.4297L246.1 74.3497L246.14 74.0697C246.34 72.5197 246.55 71.1097 246.74 69.8097C246.83 69.1797 246.92 68.5697 247 67.9997L247.06 67.5697L246.63 67.4997C238.36 66.2097 228.69 65.5297 217.09 65.4097Z" fill="#EA0029"/>
<path d="M280.16 92.4198C277.2 95.5198 274.49 97.1599 272.32 97.1599C270.47 97.1599 269.4 95.9698 268.82 94.9798C267.43 92.5798 267.43 88.8098 268.82 86.3998C269.4 85.3998 270.48 84.1998 272.34 84.1998C274.51 84.1998 277.21 85.8298 280.16 88.8998L280.47 89.2198L281.89 87.7999L281.66 87.4998C279.77 84.9898 278.9 82.7098 279.13 80.9198L279.16 80.6998L279 80.5499C273.07 75.0099 264.67 71.1298 253.32 68.6898L252.88 68.5898L252.8 69.0398C252.56 70.3898 252.25 72.1898 251.96 74.1198L251.91 74.4698L252.24 74.5898C254.01 75.2498 255.16 76.3798 255.46 77.7898C255.93 79.9398 254.54 82.7098 251.44 85.8098L251.13 86.1198L252.4 87.3898L252.71 87.0798C255.37 84.4198 257.82 83.0098 259.79 83.0098C262.77 83.0098 264.13 86.1898 264.13 89.1398C264.13 92.0898 262.77 95.2699 259.79 95.2699C257.82 95.2699 255.37 93.8598 252.71 91.1998L252.4 90.8898L252.09 91.2099C251.99 91.3099 251.44 91.8499 251.44 91.8499L251.26 92.0199L251.32 92.2598C251.89 94.5898 255.51 101.73 257.74 103.5L257.85 103.56C260.43 104.6 263.33 105.15 266.25 105.15C269.2 105.15 272.1 104.6 274.65 103.56L274.75 103.51C275.79 102.74 280.2 96.6699 281.71 93.7399L281.86 93.4498L280.48 92.0699L280.16 92.4198Z" fill="#EA0029"/>
<path d="M254.73 58.96C254.73 58.93 254.73 58.89 254.73 58.86C254.73 58.59 254.73 58.34 254.72 58.09C254.72 58.07 254.72 58.05 254.72 58.03C254.71 57.8 254.69 57.58 254.66 57.36C254.66 57.33 254.65 57.29 254.65 57.26C254.62 57.04 254.58 56.83 254.54 56.63C254.53 56.59 254.52 56.55 254.51 56.51C254.46 56.31 254.4 56.11 254.34 55.93V55.92C254.27 55.73 254.19 55.55 254.1 55.38C254.08 55.35 254.07 55.31 254.05 55.28C253.96 55.11 253.86 54.95 253.74 54.79C253.73 54.77 253.71 54.76 253.7 54.74C253.59 54.59 253.47 54.45 253.33 54.31C250.15 51.07 240.84 51.69 217.81 54.77L217.51 59.49C251.4 55.24 248.01 56.48 245.75 74C247.86 73.38 250.39 73.45 252.4 74.19C253.32 67.96 254.49 63.24 254.71 59.79C254.71 59.51 254.72 59.23 254.73 58.96Z" fill="#FFCD00" stroke="#1E1E1C" stroke-width="1.5"/>
<path d="M171.68 59.05C171.68 58.99 171.68 58.9201 171.68 58.8501C171.68 58.6101 171.7 58.39 171.71 58.16C171.72 58.09 171.72 58.02 171.73 57.95C171.75 57.73 171.77 57.51 171.81 57.31C171.81 57.28 171.82 57.26 171.82 57.23C171.85 57.03 171.89 56.84 171.94 56.66C171.95 56.61 171.97 56.55 171.98 56.5C172.03 56.31 172.09 56.12 172.16 55.94C172.17 55.91 172.19 55.8801 172.2 55.8501C172.26 55.6901 172.33 55.54 172.41 55.39C172.43 55.35 172.45 55.3101 172.47 55.2701C172.56 55.1101 172.66 54.95 172.76 54.81C172.79 54.77 172.81 54.7401 172.84 54.7101C172.93 54.5901 173.03 54.47 173.14 54.36C173.16 54.34 173.18 54.31 173.2 54.29C134.46 54.85 131.82 53.8101 137.95 76.8801C140.67 76.2701 143.3 76.4301 145.19 77.3201C140.66 59.0701 141.39 59.81 171.7 59.81C171.7 59.75 171.7 59.7 171.7 59.65C171.68 59.44 171.68 59.24 171.68 59.05Z" fill="#FFCD00" stroke="#1E1E1C" stroke-width="1.5"/>
<path d="M253.291 54.2798C253.301 54.2898 253.311 54.2998 253.321 54.3098C253.451 54.4498 253.581 54.5898 253.691 54.7398C253.701 54.7598 253.721 54.7698 253.731 54.7898C253.841 54.9498 253.941 55.1098 254.041 55.2798C254.061 55.3098 254.081 55.3498 254.091 55.3798C254.181 55.5498 254.261 55.7298 254.331 55.9198V55.9298C254.401 56.1198 254.451 56.3098 254.501 56.5098C254.511 56.5498 254.521 56.5898 254.531 56.6298C254.581 56.8298 254.611 57.0398 254.641 57.2598C254.641 57.2898 254.651 57.3298 254.651 57.3598C254.681 57.5798 254.701 57.7998 254.711 58.0298C254.711 58.0498 254.711 58.0698 254.711 58.0898C254.721 58.3398 254.731 58.5998 254.721 58.8598C254.721 58.8898 254.721 58.9298 254.721 58.9598C254.721 59.2298 254.711 59.5098 254.691 59.7998C285.611 59.7998 285.941 59.3598 281.491 77.3098C283.381 76.4198 286.001 76.2598 288.711 76.8698C294.211 55.6398 294.831 54.2798 253.291 54.2798Z" fill="#FFCD00" stroke="#1E1E1C" stroke-width="1.5"/>
<path d="M208.871 54.7299C185.891 51.7599 176.401 50.8799 173.141 54.3499C173.031 54.4599 172.931 54.5799 172.841 54.6999C172.811 54.7299 172.791 54.7699 172.761 54.7999C172.651 54.9499 172.561 55.0999 172.471 55.2599C172.451 55.2999 172.431 55.3399 172.411 55.3799C172.331 55.5299 172.271 55.6799 172.201 55.8399C172.191 55.8699 172.171 55.8999 172.161 55.9299C172.091 56.1099 172.031 56.2999 171.981 56.4899C171.971 56.5399 171.951 56.5999 171.941 56.6499C171.891 56.8399 171.851 57.0299 171.821 57.2199C171.821 57.2499 171.811 57.2699 171.811 57.2999C171.781 57.5099 171.751 57.7199 171.731 57.9399C171.721 58.0099 171.721 58.0799 171.711 58.1499C171.691 58.3699 171.681 58.5999 171.681 58.8399C171.681 58.8999 171.681 58.9699 171.681 59.0399C171.681 59.2299 171.681 59.4199 171.691 59.6199C171.791 63.0799 172.861 67.8899 173.921 74.3599C175.891 73.4999 178.461 73.3399 180.651 73.8899C178.181 55.6499 175.711 55.6099 209.171 59.4099C209.171 59.3299 209.161 59.2399 209.161 59.1599L208.871 54.8299C208.871 54.7699 208.871 54.7299 208.871 54.7299Z" fill="#FFCD00" stroke="#1E1E1C" stroke-width="1.5"/>
<path d="M282.95 115.16C284.29 106.9 290.18 83.0597 292.06 78.0097C283.84 74.1497 273.78 77.7597 281.31 87.7697L280.48 88.5997C262.97 70.3097 262.97 111.1 280.48 92.7197C280.82 93.0597 281.31 93.5497 281.31 93.5497C279.84 96.3797 275.44 102.45 274.47 103.17C269.72 105.12 263.48 105.38 258.01 103.17C255.97 101.55 252.33 94.5597 251.74 92.1697C251.74 92.1697 252.29 91.6197 252.39 91.5197C268.61 107.74 268.61 70.5497 252.39 86.7697C252.39 86.7697 251.98 86.3597 251.74 86.1197C268.48 69.3797 229.09 69.3797 245.64 86.1197C245.4 86.3597 244.99 86.7697 244.99 86.7697C228.77 70.5497 228.77 107.73 244.99 91.5197C245.09 91.6197 245.48 92.0097 245.64 92.1697C245.06 94.5597 241.42 101.55 239.38 103.17C233.63 104.99 228.63 105.07 222.92 103.17C220.3 101.2 216.58 93.5897 215.92 91.3797C216.08 91.2197 216.49 90.8097 216.68 90.6197C233.72 109.65 233.72 67.4997 216.68 86.5197L215.92 85.7697C235.3 67.8997 191.5 67.8997 210.88 85.7697L210.12 86.5197C193.08 67.4897 193.08 109.64 210.12 90.6197C210.31 90.8097 210.72 91.2197 210.88 91.3797C210.22 93.5897 206.5 101.2 203.88 103.17C198.79 104.99 193.48 105.22 188.15 103.17C186.11 101.55 181.67 94.5597 181.09 92.1697C181.25 92.0097 181.64 91.6197 181.74 91.5197C197.95 107.74 197.95 70.5497 181.74 86.7697C181.74 86.7697 181.33 86.3597 181.09 86.1197C197.63 69.3797 158.25 69.3797 174.99 86.1197C174.75 86.3597 174.34 86.7697 174.34 86.7697C158.12 70.5497 158.12 107.73 174.34 91.5197C174.44 91.6197 174.83 92.0097 174.99 92.1697C174.41 94.5597 170.77 101.55 168.72 103.17C163.45 105.38 156.29 105.12 152.18 103.17C151.21 102.45 146.81 96.3797 145.34 93.5497C145.34 93.5497 145.83 93.0597 146.17 92.7197C163.68 111.1 163.68 70.3097 146.17 88.5997L145.34 87.7697C152.87 77.7597 142.82 74.1497 134.59 78.0097C136.47 83.0597 142.36 106.89 143.7 115.16H282.95Z" fill="#FFCD00" stroke="#1E1E1C" stroke-width="1.5"/>
<path d="M216.8 27.1499V16.0199H224.76V9.29987H216.82V0.859863H209.88V9.29987H201.94V16.0199H209.88V27.1499C210.99 26.8699 212.15 26.7099 213.35 26.7099C214.54 26.7199 215.69 26.8799 216.8 27.1499Z" fill="#FFCD00" stroke="#1E1E1C" stroke-width="1.5"/>
<path d="M208.87 54.75L208.88 54.83C208.92 55.31 209.08 57.46 209.17 59.16L210.08 72.84C212.13 72.24 214.58 72.21 216.65 72.81L217.8 54.75C216.4 55.21 214.9 55.46 213.35 55.46C211.78 55.47 210.28 55.21 208.87 54.75Z" fill="#FFCD00" stroke="#1E1E1C" stroke-width="1.5"/>
<path d="M227.554 43.3943C228.827 35.5549 223.503 28.1684 215.664 26.8961C207.824 25.6238 200.438 30.9475 199.165 38.7869C197.893 46.6263 203.217 54.0128 211.056 55.2851C218.896 56.5574 226.282 51.2337 227.554 43.3943Z" fill="#FFCD00" stroke="#1E1E1C" stroke-width="1.5"/>
<path d="M227.72 41.1C227.72 39.88 227.55 38.7 227.27 37.57H216.8V27.16C215.69 26.89 214.54 26.73 213.35 26.73C212.15 26.73 210.99 26.89 209.88 27.17V37.57H199.43C199.14 38.7 198.97 39.88 198.97 41.1C198.97 42.28 199.13 43.41 199.39 44.51H227.3C227.57 43.41 227.72 42.27 227.72 41.1Z" stroke="#1E1E1C" stroke-width="1.5"/>
</svg>
