<svg width="3254" height="930" viewBox="0 0 3254 930" fill="none" xmlns="http://www.w3.org/2000/svg">
<path d="M465.412 644.795C306.049 644.795 176.483 574.38 176.483 487.263C176.483 400.147 305.598 329.732 464.961 329.732V252.095C514.169 252.095 561.572 258.865 602.202 270.601L465.864 407.821V486.812L602.202 347.787C692.944 374.419 754.342 426.779 754.342 486.812C754.342 573.928 625.226 644.795 465.412 644.795ZM0.416016 929.615H929.506V0.676514H0.416016V929.615Z" fill="black"/>
<path d="M1227.92 616.358C1211.21 616.358 1195.41 614.101 1181.87 610.49C1168.32 606.879 1156.59 601.011 1146.65 593.789C1137.17 586.567 1129.5 577.539 1124.08 566.706C1118.66 555.873 1115.96 543.686 1115.5 530.145H1174.19C1176 544.137 1180.96 554.068 1189.99 560.387C1199.02 566.706 1211.66 569.866 1227.92 569.866C1233.33 569.866 1238.75 568.963 1244.17 568.06C1249.13 567.158 1254.1 565.352 1258.16 563.095C1262.23 560.838 1265.39 557.679 1267.64 553.616C1269.9 550.005 1271.26 545.491 1271.26 540.075C1271.26 534.658 1269.9 530.144 1267.64 526.533C1264.93 522.922 1260.87 519.763 1256.36 517.054C1251.39 514.346 1245.52 512.089 1238.3 510.284C1231.08 508.027 1222.95 506.673 1213.92 504.416C1201.28 501.708 1189.99 498.548 1179.16 494.937C1168.32 491.326 1158.84 486.812 1150.72 481.396C1142.59 475.979 1136.27 468.757 1131.3 460.181C1126.79 451.605 1124.53 440.771 1124.53 427.681C1124.53 414.591 1126.79 403.307 1132.21 393.377C1137.17 383.898 1144.4 375.773 1152.97 369.453C1162 363.134 1172.39 358.62 1184.58 355.461C1196.77 352.301 1209.86 350.947 1223.4 350.947C1237.4 350.947 1250.04 352.752 1261.77 355.912C1273.51 359.072 1283.9 364.037 1292.47 369.905C1301.05 375.773 1307.82 383.898 1313.24 393.828C1318.21 403.307 1321.37 414.14 1322.72 426.779H1265.84C1264.03 416.848 1259.52 409.175 1252.29 403.758C1245.07 398.342 1234.69 395.633 1222.05 395.633C1209.86 395.633 1200.38 397.89 1193.15 402.855C1185.93 407.821 1182.32 413.689 1182.32 421.813C1182.32 426.779 1183.67 430.841 1186.38 434.452C1189.09 437.612 1193.15 440.32 1198.57 442.577C1203.54 444.834 1210.31 447.091 1217.98 448.896C1225.66 450.702 1234.69 452.507 1244.17 455.216C1255.45 457.472 1266.74 460.632 1277.12 464.243C1287.96 467.854 1296.99 472.368 1305.11 478.236C1313.24 484.104 1319.56 491.777 1324.53 500.353C1329.49 509.381 1331.75 520.214 1331.75 533.755C1331.75 546.845 1329.04 558.581 1323.62 568.512C1318.21 578.442 1310.98 587.018 1301.95 594.24C1292.47 601.011 1282.09 606.428 1269.45 610.039C1255.91 614.101 1242.36 616.358 1227.92 616.358Z" fill="black"/>
<path d="M1430.62 531.047L1412.56 549.554V610.039H1359.74V356.815H1412.56V435.806C1412.56 449.348 1412.11 460.632 1411.66 470.562C1411.21 480.041 1410.75 488.166 1410.75 494.034L1470.35 429.036H1532.65L1467.64 495.84L1539.87 610.039H1477.57L1430.62 531.047Z" fill="black"/>
<path d="M1625.19 579.796C1637.38 579.796 1646.86 576.185 1653.64 569.866C1660.86 563.095 1664.47 554.97 1664.47 545.04V521.568C1660.86 523.825 1655.89 526.082 1650.48 527.436C1645.06 528.79 1639.19 530.145 1633.32 531.499C1621.58 533.756 1613 536.915 1607.14 540.978C1601.27 545.04 1598.56 550.457 1598.56 558.13C1598.56 565.804 1601.27 571.671 1606.68 574.831C1611.65 578.442 1617.52 579.796 1625.19 579.796ZM1669.89 610.039C1668.53 607.782 1667.18 605.073 1666.28 601.462C1665.37 597.851 1664.02 593.338 1664.02 587.921H1663.12C1657.25 596.046 1650.02 602.817 1641.9 607.782C1633.77 612.747 1622.49 615.004 1608.49 615.004C1599.46 615.004 1591.79 614.101 1583.66 611.393C1575.99 609.136 1569.67 605.525 1563.8 601.011C1558.38 596.497 1553.86 590.629 1550.7 583.859C1547.54 577.088 1546.19 568.963 1546.19 559.936C1546.19 550.005 1548.45 541.88 1551.61 535.11C1554.77 528.339 1560.64 522.922 1566.96 519.311C1573.28 515.249 1580.95 512.089 1589.53 509.832C1598.11 507.576 1607.59 506.221 1617.52 504.867C1633.77 502.61 1645.06 499.902 1652.28 496.742C1659.5 493.583 1663.12 488.618 1663.12 481.847C1663.12 475.076 1660.86 470.111 1656.34 466.049C1651.83 461.986 1645.51 460.181 1636.03 460.181C1625.65 460.181 1617.97 462.438 1613.01 466.951C1608.04 471.465 1604.88 476.882 1604.43 484.104H1555.22C1555.67 476.43 1557.48 468.757 1560.64 461.535C1563.8 454.313 1568.76 447.542 1575.53 442.126C1582.31 436.709 1590.43 432.195 1600.36 428.584C1610.3 425.425 1622.03 423.619 1635.58 423.619C1647.32 423.619 1657.25 424.522 1665.37 425.876C1673.5 427.681 1681.17 430.39 1687.49 434.001C1696.98 439.417 1704.2 446.639 1708.71 456.118C1713.23 465.597 1715.48 475.979 1715.48 488.166V581.15C1715.48 595.143 1717.74 603.719 1722.26 606.428V609.587H1669.89V610.039Z" fill="black"/>
<path d="M1738.96 429.036H1766.05V371.259H1818.42V429.036H1854.08V463.34H1818.42V553.165C1818.42 559.936 1820.22 564.449 1823.38 567.158C1826.99 569.415 1831.51 570.769 1838.28 570.769C1840.09 570.769 1841.89 570.769 1844.6 570.317C1846.86 570.317 1849.11 569.866 1850.92 569.866H1853.63V609.587C1850.47 610.039 1846.86 610.49 1840.99 611.393C1836.02 612.296 1829.7 612.296 1822.48 612.296C1814.35 612.296 1806.68 611.393 1799.91 610.039C1793.13 608.685 1787.27 605.976 1781.85 601.914C1776.88 598.303 1772.82 593.338 1770.11 587.018C1767.4 581.15 1766.05 573.026 1766.05 563.998V462.438H1738.96V429.036Z" fill="black"/>
<path d="M1869.43 429.036H1896.52V371.259H1948.89V429.036H1984.55V463.34H1948.89V553.165C1948.89 559.936 1950.69 564.449 1953.85 567.158C1957.46 569.415 1961.98 570.769 1968.75 570.769C1970.56 570.769 1972.36 570.769 1975.07 570.317C1977.33 570.317 1979.58 569.866 1981.39 569.866H1984.1V609.587C1980.94 610.039 1977.33 610.49 1971.46 611.393C1966.49 612.296 1960.17 612.296 1952.95 612.296C1944.82 612.296 1937.15 611.393 1930.38 610.039C1923.6 608.685 1917.74 605.976 1912.32 601.914C1907.35 598.303 1903.29 593.338 1900.58 587.018C1897.87 581.15 1896.52 573.026 1896.52 563.998V462.438H1869.43V429.036Z" fill="black"/>
<path d="M2096.96 461.986C2084.32 461.986 2075.29 465.597 2068.97 472.819C2062.65 480.041 2058.59 489.972 2056.33 502.61H2133.98C2133.08 489.972 2129.47 480.041 2122.69 472.819C2115.92 466.049 2107.8 461.986 2096.96 461.986ZM2100.12 615.455C2085.22 615.455 2072.13 613.198 2060.39 608.233C2048.66 603.268 2038.72 596.497 2030.6 587.921C2022.47 579.345 2016.15 569.414 2011.64 557.679C2007.12 545.943 2004.87 533.755 2004.87 519.763C2004.87 506.221 2007.12 493.583 2011.64 481.847C2016.15 470.111 2022.47 460.181 2030.6 451.604C2038.72 443.028 2048.66 436.258 2059.94 431.292C2071.23 426.327 2083.87 424.07 2097.87 424.07C2110.96 424.07 2122.24 426.327 2132.63 430.39C2143.01 434.452 2152.04 439.869 2159.71 447.091C2170.1 457.021 2177.32 469.66 2182.29 484.555C2187.25 499.451 2189.06 515.7 2189.06 533.304H2057.23C2059.04 546.845 2063.55 557.227 2070.78 565.352C2078 573.025 2087.93 577.088 2101.03 577.088C2109.15 577.088 2116.37 575.734 2121.79 572.574C2126.76 569.414 2131.27 564.901 2134.43 559.484H2186.35C2184.09 567.609 2180.48 574.831 2175.51 582.053C2170.55 588.824 2164.68 595.143 2157.46 600.108C2150.23 605.073 2142.11 609.136 2132.18 611.844C2121.79 614.101 2111.41 615.455 2100.12 615.455Z" fill="black"/>
<path d="M2300.12 461.986C2287.47 461.986 2278.45 465.597 2272.13 472.819C2265.81 480.041 2261.74 489.972 2259.48 502.61H2336.68C2335.78 489.972 2332.17 480.041 2325.4 472.819C2319.08 465.146 2310.5 461.986 2300.12 461.986ZM2302.82 615.455C2287.93 615.455 2274.83 613.198 2263.1 608.233C2251.36 603.268 2241.43 596.497 2233.3 587.921C2225.17 579.345 2218.85 569.414 2214.34 557.679C2209.83 545.943 2207.57 533.755 2207.57 519.763C2207.57 506.221 2209.83 493.583 2214.34 481.847C2218.85 470.111 2225.17 460.181 2233.3 451.604C2241.43 443.028 2251.36 436.258 2262.65 431.292C2273.93 426.327 2286.57 424.07 2300.57 424.07C2313.66 424.07 2324.95 426.327 2335.33 430.39C2345.71 434.452 2354.74 439.869 2362.87 447.091C2373.25 457.021 2380.47 469.66 2385.44 484.555C2390.41 499.451 2392.21 515.7 2392.21 533.304H2260.39C2262.19 546.845 2266.71 557.227 2273.93 565.352C2281.15 573.025 2291.09 577.088 2304.18 577.088C2312.31 577.088 2319.53 575.734 2324.95 572.574C2329.91 569.414 2334.43 564.901 2337.59 559.484H2389.5C2387.25 567.609 2383.63 574.831 2378.67 582.053C2373.7 588.824 2367.83 595.143 2360.61 600.108C2353.39 605.073 2345.26 609.136 2335.33 611.844C2324.95 614.101 2314.11 615.455 2302.82 615.455Z" fill="black"/>
<path d="M2404.4 429.036H2431.49V371.259H2483.86V429.036H2519.52V463.34H2483.86V553.165C2483.86 559.936 2485.66 564.449 2488.82 567.158C2492.43 569.415 2496.95 570.769 2503.72 570.769C2505.53 570.769 2507.33 570.769 2510.04 570.317C2512.3 570.317 2514.56 569.866 2516.36 569.866H2519.07V609.587C2515.91 610.039 2512.3 610.49 2506.43 611.393C2501.46 612.296 2495.14 612.296 2487.92 612.296C2479.79 612.296 2472.12 611.393 2465.35 610.039C2458.58 608.685 2452.71 605.976 2447.29 601.914C2442.32 598.303 2438.26 593.338 2435.55 587.018C2432.84 581.15 2431.49 573.026 2431.49 563.998V462.438H2404.4V429.036Z" fill="black"/>
<path d="M2622 579.796C2634.19 579.796 2643.67 576.185 2650.44 569.866C2657.67 563.095 2661.28 554.97 2661.28 545.04V521.568C2657.67 523.825 2652.7 526.082 2647.28 527.436C2641.87 528.79 2636 530.145 2630.13 531.499C2618.39 533.756 2609.81 536.915 2603.94 540.978C2598.07 545.04 2595.37 550.457 2595.37 558.13C2595.37 565.804 2598.07 571.671 2603.49 574.831C2608.46 578.442 2614.78 579.796 2622 579.796ZM2667.15 610.039C2665.79 607.782 2664.44 605.073 2663.54 601.462C2662.63 597.851 2661.28 593.338 2661.28 587.921H2660.37C2654.51 596.046 2647.28 602.817 2639.16 607.782C2631.03 612.747 2619.74 615.004 2605.75 615.004C2596.72 615.004 2589.05 614.101 2580.92 611.393C2573.24 609.136 2566.92 605.525 2561.06 601.011C2555.64 596.497 2551.12 590.629 2547.96 583.859C2544.8 577.088 2543.45 568.963 2543.45 559.936C2543.45 550.005 2545.71 541.88 2548.87 535.11C2552.03 528.339 2557.9 522.922 2564.22 519.311C2570.54 515.249 2578.21 512.089 2586.79 509.832C2595.37 507.576 2604.85 506.221 2614.78 504.867C2631.03 502.61 2642.32 499.902 2649.54 496.742C2656.76 493.583 2660.37 488.618 2660.37 481.847C2660.37 475.076 2658.12 470.111 2653.6 466.049C2649.09 461.986 2642.77 460.181 2633.29 460.181C2622.9 460.181 2615.23 462.438 2610.26 466.951C2605.3 471.465 2602.14 476.882 2601.69 484.104H2552.48C2552.93 476.43 2554.74 468.757 2557.9 461.535C2561.51 454.313 2566.02 447.542 2572.79 442.126C2579.56 436.709 2587.69 432.195 2597.62 428.584C2607.56 425.425 2619.29 423.619 2632.84 423.619C2644.57 423.619 2654.51 424.522 2662.63 425.876C2670.76 427.681 2678.43 430.39 2684.75 434.001C2694.23 439.417 2701.46 446.639 2705.97 456.118C2710.49 465.597 2712.74 475.979 2712.74 488.166V581.15C2712.74 595.143 2715 603.719 2719.52 606.428V609.587H2667.15V610.039Z" fill="black"/>
<path d="M2735.77 429.036H2762.85V371.259H2815.67V429.036H2851.34V463.34H2815.67V553.165C2815.67 559.936 2817.48 564.449 2820.64 567.158C2824.25 569.415 2828.77 570.769 2835.54 570.769C2837.34 570.769 2839.15 570.769 2841.86 570.317C2844.12 570.317 2846.37 569.866 2848.18 569.866H2850.89V609.587C2847.73 610.039 2843.66 610.49 2838.25 611.393C2833.28 612.296 2826.96 612.296 2819.74 612.296C2811.61 612.296 2803.94 611.393 2796.71 610.039C2789.94 608.685 2784.07 605.976 2778.66 601.914C2773.69 598.303 2769.63 593.338 2766.92 587.018C2764.21 581.15 2762.85 573.026 2762.85 563.998V462.438H2735.77V429.036Z" fill="black"/>
<path d="M2963.75 461.986C2951.11 461.986 2942.08 465.597 2935.76 472.819C2929.44 480.041 2925.38 489.972 2923.12 502.61H3000.32C2999.42 489.972 2995.8 480.041 2989.03 472.819C2982.71 465.146 2974.13 461.986 2963.75 461.986ZM2966.46 615.455C2951.56 615.455 2938.47 613.198 2926.73 608.233C2914.99 603.268 2905.06 596.497 2896.94 587.921C2888.81 579.345 2882.49 569.414 2877.98 557.679C2873.46 545.943 2871.2 533.755 2871.2 519.763C2871.2 506.221 2873.46 493.583 2877.98 481.847C2882.49 470.111 2888.81 460.181 2896.94 451.604C2905.06 443.028 2914.99 436.258 2926.28 431.292C2937.57 426.327 2950.21 424.07 2964.2 424.07C2977.29 424.07 2988.58 426.327 2998.96 430.39C3009.35 434.452 3018.38 439.869 3026.5 447.091C3036.89 457.021 3044.11 469.66 3049.08 484.555C3054.04 499.451 3055.85 515.7 3055.85 533.304H2922.67C2924.47 546.845 2928.99 557.227 2936.21 565.352C2943.44 573.025 2953.37 577.088 2966.46 577.088C2974.59 577.088 2981.81 575.734 2987.23 572.574C2992.19 569.414 2996.71 564.901 2999.87 559.484H3051.78C3049.53 567.609 3045.92 574.831 3040.95 582.053C3035.98 588.824 3030.11 595.143 3022.89 600.108C3015.67 605.073 3007.54 609.136 2997.61 611.844C2988.58 614.101 2977.75 615.455 2966.46 615.455Z" fill="black"/>
<path d="M3133.5 456.57H3134.4C3139.82 445.737 3147.49 437.612 3156.97 432.195C3166.45 426.779 3177.29 424.07 3189.93 424.07C3209.79 424.07 3225.59 430.39 3236.43 442.125C3247.26 454.313 3253.13 470.562 3253.13 490.874V610.039H3199.86V501.256C3199.86 491.326 3197.6 483.201 3192.19 477.333C3187.22 471.014 3179.55 468.305 3169.61 468.305C3159.23 468.305 3150.65 471.916 3144.33 479.59C3138.01 487.263 3134.85 496.291 3134.85 508.027V610.039H3082.03V429.035H3133.95L3133.5 456.57Z" fill="black"/>
</svg>
