<svg width="66" height="47" viewBox="0 0 66 47" fill="none" xmlns="http://www.w3.org/2000/svg">
<path d="M43.0943 19.0116L44.8309 11.7603C44.8005 11.2119 44.6177 10.6939 44.313 10.2674C42.9724 8.53072 40.2303 9.23148 38.4632 9.74943C37.3359 8.77446 35.6602 9.10961 34.3805 9.44475C34.2282 9.47522 34.0758 9.44475 34.0149 9.32288C33.954 9.20101 34.0454 9.07914 34.1063 9.01821C34.5329 8.71353 34.7766 8.19558 34.7766 7.64716C34.7766 6.855 34.2586 6.18471 33.5274 6.0019V4.41758H34.6243V3.50355H33.5274V2.46765H32.6134V3.50355H31.547V4.41758H32.6134V6.0019C31.8822 6.21518 31.3642 6.855 31.3642 7.64716C31.3642 8.22605 31.6384 8.71353 32.065 9.01821C32.1259 9.04867 32.1564 9.20101 32.1259 9.29242C32.065 9.41429 31.9431 9.47522 31.7908 9.41429C30.5111 9.07914 28.8049 8.77446 27.6471 9.71896C25.88 9.23148 23.1379 8.50025 21.7973 10.2369C21.4927 10.6635 21.3099 11.1814 21.2794 11.7298L23.0161 18.9811H43.0943V19.0116ZM39.56 10.8463C39.621 10.8463 39.6819 10.8158 39.6819 10.8158C40.8397 10.633 42.2717 10.4197 43.2466 11.0595C43.0029 11.1509 42.8201 11.3033 42.6982 11.5775C42.6677 11.6384 42.6677 11.7298 42.6677 11.7908C42.6677 11.9126 42.6677 12.0345 42.7287 12.1564C42.4849 12.1259 42.2717 12.1564 42.0584 12.2782C41.6928 12.522 41.51 13.1618 41.6014 13.8626C41.7232 14.3196 41.9365 14.5938 42.2412 14.7157C42.5459 14.8071 42.8505 14.6547 43.0943 14.5329C42.9724 14.9289 42.5459 15.2946 42.1498 15.4469C41.5709 15.6297 40.8397 15.5992 40.3827 15.3555C40.1998 15.2641 39.6819 14.9594 39.621 14.4719C39.8952 14.6547 40.2608 14.7461 40.5959 14.5938C40.8092 14.4719 41.0225 14.2282 41.1139 13.893C41.2357 13.2227 41.1139 12.6134 40.7787 12.2478C40.535 12.0345 40.2608 12.0345 40.017 12.0954C40.078 11.9736 40.1084 11.8822 40.1084 11.7298C40.1084 11.6689 40.1084 11.6384 40.1084 11.5775C40.0475 11.2423 39.8342 10.9986 39.56 10.9377V10.8463ZM35.0508 14.6852C35.6297 14.3805 35.6602 13.5274 35.5383 12.979C35.4774 12.6439 35.2945 12.4001 35.1422 12.3087C34.9289 12.1564 34.6547 12.1868 34.4719 12.2173C34.5329 12.0954 34.5633 11.9431 34.5633 11.7908C34.5633 11.6384 34.5329 11.4861 34.411 11.3642C34.3196 11.2728 34.2282 11.1509 34.0758 11.09C34.1368 10.9681 34.2586 10.8767 34.411 10.7853C34.8071 10.633 35.325 10.5416 35.843 10.5416C36.3609 10.5416 36.8789 10.633 37.2749 10.7853C37.4273 10.8463 37.5492 10.9681 37.6101 11.09C37.4578 11.1509 37.3664 11.2423 37.2749 11.3642C37.1835 11.4861 37.1226 11.6384 37.1226 11.7908C37.1226 11.9431 37.1531 12.065 37.214 12.2173C37.0007 12.1868 36.757 12.1564 36.5437 12.3087C36.3914 12.4306 36.2086 12.6439 36.1476 12.979C36.0562 13.5579 36.0867 14.3805 36.6351 14.6852C37.0007 14.868 37.3663 14.7157 37.6406 14.5633C37.6101 14.8071 37.3663 15.1422 37.1835 15.2641C36.757 15.5078 36.3 15.6297 35.8125 15.6297C35.3555 15.6297 34.868 15.5078 34.4414 15.2641C34.2586 15.1422 34.0149 14.8071 33.9844 14.5633C34.3196 14.6852 34.6852 14.868 35.0508 14.6852ZM29.9932 12.9485C29.9322 12.6134 29.7494 12.3697 29.5971 12.2782C29.3838 12.1259 29.1096 12.1564 28.9268 12.1868C28.9877 12.065 29.0182 11.9126 29.0182 11.7603C29.0182 11.608 28.9877 11.4556 28.8659 11.3338C28.7745 11.2423 28.6831 11.1205 28.5307 11.0595C28.5917 10.9377 28.7135 10.8463 28.8659 10.7549C29.2619 10.6025 29.7799 10.5111 30.2978 10.5111C30.8158 10.5111 31.3337 10.6025 31.7298 10.7549C31.8822 10.8158 32.004 10.9377 32.065 11.0595C31.9126 11.1205 31.8212 11.2119 31.7298 11.3338C31.6384 11.4556 31.5775 11.608 31.5775 11.7603C31.5775 11.9126 31.608 12.0345 31.6689 12.1868C31.4556 12.1564 31.2119 12.1259 30.9986 12.2782C30.8463 12.4001 30.6635 12.6134 30.6025 12.9485C30.5111 13.5274 30.5111 14.3501 31.09 14.6547C31.4556 14.8375 31.8212 14.6852 32.0954 14.5329C32.065 14.7766 31.8212 15.1117 31.6384 15.2336C31.2119 15.4774 30.7549 15.5992 30.2674 15.5992C29.8104 15.5992 29.3229 15.4774 28.8963 15.2336C28.7135 15.1117 28.4698 14.7766 28.4393 14.5329C28.744 14.6852 29.0791 14.8375 29.4447 14.6547C30.0541 14.3501 30.0846 13.5274 29.9932 12.9485ZM24.0824 12.3087C23.8692 12.1868 23.6559 12.1259 23.4121 12.1868C23.4731 12.065 23.4731 11.9431 23.4731 11.8212C23.4731 11.7603 23.4731 11.6689 23.4426 11.608C23.3512 11.3337 23.1379 11.1814 22.8942 11.09C23.8996 10.4807 25.3011 10.6939 26.4589 10.8463C26.4589 10.8463 26.5198 10.8463 26.5808 10.8767V11.0291C26.3066 11.09 26.0933 11.3338 26.0324 11.6689C26.0324 11.7298 26.0324 11.7603 26.0324 11.8212C26.0324 11.9736 26.0628 12.065 26.1238 12.1868C25.88 12.1259 25.6058 12.0954 25.3621 12.3392C25.0269 12.7048 24.8746 13.3142 25.0269 13.9844C25.1183 14.2891 25.3011 14.5633 25.5449 14.6852C25.88 14.8375 26.2456 14.7461 26.5198 14.5633C26.4589 15.0508 25.941 15.3555 25.7582 15.4469C25.3011 15.6906 24.5699 15.7211 23.991 15.5383C23.6254 15.4164 23.1684 15.0203 23.0465 14.6243C23.2903 14.7461 23.5949 14.8985 23.8996 14.8071C24.2043 14.6852 24.4176 14.411 24.5394 13.954C24.6308 13.1923 24.448 12.5829 24.0824 12.3087ZM43.7341 22.3631C43.6427 22.1803 43.399 21.967 43.0943 21.967H23.0465C22.7418 21.967 22.4981 22.2107 22.4067 22.3631C22.2848 22.7287 22.4067 23.0943 22.5895 23.4294L31.7603 40.0648C32.065 40.5218 32.4611 41.314 33.0399 41.314C33.6188 41.314 34.0149 40.5218 34.3196 40.0648L43.4904 23.4294C43.7341 23.1248 43.856 22.7591 43.7341 22.3631ZM38.0671 26.9637L34.1368 34.0627C34.0149 34.2759 33.7102 34.7939 33.0704 34.7939C32.4001 34.7939 32.1259 34.2759 32.004 34.0322L28.0737 26.9332C27.8604 26.5981 27.7995 26.2325 27.9214 25.8973L27.9518 25.8059L27.9823 25.745C28.1346 25.5012 28.4393 25.1966 28.8659 25.1966H37.2749C37.732 25.1966 38.0976 25.5317 38.2194 25.8059V25.8364V25.8668C38.3413 26.2629 38.2804 26.6285 38.0671 26.9637ZM27.3425 37.3532C28.2565 38.6633 27.6776 39.7601 26.1542 39.6992C24.2348 39.6382 24.509 37.7492 24.4785 37.2922C24.4785 37.2922 23.8996 36.4391 23.3512 35.6165C23.3512 35.6165 19.0248 35.6165 16.1913 35.6165C13.3578 35.6165 14.3023 33.8494 14.7898 32.6916C15.0335 32.0823 14.6374 30.9854 12.8398 30.9854H7.59938C7.17278 30.9854 6.89858 30.6503 6.89858 30.6503L5.40568 28.9745H14.8812C15.2468 28.9745 15.2773 28.2738 14.8507 28.2738C14.8507 28.2738 6.44158 28.2738 4.76588 28.2738L3.21198 26.5371H16.0999C16.4655 26.5067 16.5874 25.8973 16.0999 25.8364C16.0999 25.8364 5.22288 25.8364 2.57218 25.8364L1.20118 24.2825C1.01838 24.0692 1.07928 23.8864 1.35348 23.8864H18.6592C18.9943 23.9169 19.0553 23.9778 19.299 24.4349C19.5732 24.8919 20.213 26.0192 20.3654 26.3543C20.5482 26.7199 20.6396 26.9941 20.274 27.6035C19.9083 28.2129 18.4459 30.7721 18.1717 31.2292C17.8975 31.6557 17.5623 32.6611 18.6896 32.6611H23.991C24.4785 32.6611 24.6613 32.7525 24.8746 33.1486C25.2097 33.5752 27.3425 37.3532 27.3425 37.3532ZM64.879 24.313L63.5076 25.8668C60.8874 25.8668 49.98 25.8668 49.98 25.8668C49.4925 25.9278 49.6144 26.5067 49.98 26.5676H62.8678L61.314 28.3043C59.6382 28.3043 51.2292 28.3043 51.2292 28.3043C50.8026 28.3043 50.8635 29.005 51.1987 29.005H60.6741L59.1812 30.6807C59.1812 30.6807 58.907 31.0159 58.4805 31.0159H53.24C51.4729 31.0159 51.0464 32.0823 51.2901 32.7221C51.7776 33.8798 52.7221 35.647 49.8886 35.647C47.0551 35.647 42.7287 35.647 42.7287 35.647C42.1498 36.4696 41.6014 37.3227 41.6014 37.3227C41.5709 37.7797 41.8451 39.6382 39.9256 39.7296C38.4023 39.7906 37.8234 38.6937 38.7374 37.3836C38.7374 37.3836 40.8701 33.6056 41.0834 33.2096C41.2967 32.8135 41.4795 32.7221 41.967 32.7221H47.2684C48.3957 32.7221 48.0605 31.7166 47.7863 31.2901C47.5121 30.8635 46.0496 28.3043 45.684 27.6644C45.3184 27.0551 45.4098 26.7809 45.5926 26.4153C45.7754 26.0496 46.4153 24.9223 46.659 24.4958C46.9332 24.0692 46.9637 23.9778 47.2988 23.9474H64.604C65.001 23.9474 65.062 24.1302 64.879 24.313Z" fill="#FFD520"/>
<path d="M43.6426 19.6821L45.5621 11.8215C45.5926 11.1816 45.3184 10.4504 44.9528 9.902C43.338 7.79973 40.3826 8.53096 38.6155 9.01844C37.8843 8.53096 36.9398 8.31768 35.8429 8.47002C35.8429 8.47002 35.5382 8.53096 35.2945 8.56142C35.4164 8.28721 35.4773 7.95207 35.4773 7.61692C35.4773 6.67243 34.9289 5.8498 34.1063 5.48419V4.93577C34.2891 4.93577 35.1726 4.93577 35.1726 4.93577V2.98583C35.1726 2.98583 34.2891 2.98583 34.1063 2.98583C34.1063 2.80303 34.1063 1.91947 34.1063 1.91947H32.0954C32.0954 1.91947 32.0954 2.80303 32.0954 2.98583C31.9126 2.98583 30.9986 2.98583 30.9986 2.98583V4.96623C30.9986 4.96623 31.8821 4.96623 32.0954 4.96623V5.51465C31.3032 5.88027 30.7243 6.70289 30.7243 7.64739C30.7243 7.98254 30.7853 8.28721 30.9072 8.59189C30.8158 8.56142 30.4806 8.53096 30.3587 8.50049C29.2924 8.31768 28.3479 8.53096 27.5862 9.04891C25.819 8.56142 22.8941 7.8302 21.2489 9.93247C20.8528 10.4504 20.6091 11.2121 20.6395 11.8519L22.559 19.7126H43.6426V19.6821ZM21.8278 10.2676C23.1684 8.53096 25.9104 9.23171 27.6776 9.74966C28.8049 8.7747 30.5415 9.10984 31.8212 9.44499C31.9735 9.47545 32.0954 9.44499 32.1563 9.32312C32.1868 9.23171 32.1563 9.07937 32.0954 9.04891C31.6688 8.74423 31.3946 8.22628 31.3946 7.67786C31.3946 6.8857 31.9126 6.24588 32.6438 6.0326V4.44828H31.5774V3.53425H32.6438V2.46788H33.5578V3.50379H34.6547V4.41782H33.5578V6.00214C34.2891 6.21541 34.807 6.85523 34.807 7.64739C34.807 8.19581 34.5328 8.71376 34.1367 9.01844C34.0758 9.04891 34.0149 9.20125 34.0453 9.32312C34.1063 9.44499 34.2586 9.47545 34.4109 9.44499C35.6906 9.14031 37.3663 8.80516 38.4936 9.74966C40.2607 9.26218 43.0028 8.53096 44.3434 10.2676C44.6481 10.6942 44.8309 11.2121 44.8614 11.7605L43.1247 19.0118H23.077L21.3403 11.7605C21.3403 11.2121 21.5231 10.6942 21.8278 10.2676ZM33.9235 11.6387C34.0453 11.9129 33.9235 12.1261 33.7711 12.3699C33.6492 12.5527 33.436 12.766 33.5274 12.9488C33.5578 13.0402 33.6492 13.1011 33.7102 13.1011C33.8625 13.1316 34.0149 13.0097 34.1672 12.8878C34.2586 12.8269 34.35 12.7355 34.4414 12.705C34.6242 12.6441 34.807 12.705 34.8984 12.8574C35.0508 13.1316 35.0812 13.6191 34.9594 13.9237C34.7765 14.2589 34.5023 14.137 34.1672 13.9542C34.0149 13.8628 33.893 13.7714 33.7406 13.7714C33.5274 13.7714 33.436 14.137 33.436 14.3198C33.4055 14.9901 33.8625 15.5995 34.5328 15.9041C34.9289 16.0869 35.4164 16.1783 35.9039 16.1479C36.3913 16.1479 36.8788 16.0565 37.2749 15.9041C37.9452 15.5995 38.4022 14.9596 38.3717 14.3198C38.3717 14.137 38.2803 13.7714 38.0671 13.7714C37.9147 13.7714 37.7929 13.8628 37.6405 13.9542C37.3054 14.137 37.0312 14.2589 36.8484 13.9237C36.7265 13.6495 36.757 13.1316 36.9093 12.8574C37.0007 12.705 37.214 12.6441 37.3663 12.705C37.4577 12.7355 37.5491 12.7964 37.6405 12.8878C37.7929 13.0097 37.9452 13.1316 38.0975 13.1011C38.1585 13.1011 38.2499 13.0402 38.2803 12.9488C38.3413 12.766 38.128 12.5527 38.0366 12.3699C37.8843 12.1261 37.7624 11.8824 37.8843 11.6387C37.9757 11.5168 38.128 11.4254 38.3413 11.4254H38.4327C38.3413 10.9379 38.1889 10.3285 37.1835 10.0848C36.9093 10.0239 36.5132 9.93247 35.9343 9.93247C35.3859 9.93247 34.9594 10.0239 34.6851 10.0848C33.6797 10.3285 33.5274 10.9379 33.436 11.4254H33.5274C33.6492 11.4254 33.8016 11.5168 33.9235 11.6387ZM34.4109 10.7856C34.807 10.6332 35.325 10.5418 35.8429 10.5418C36.3609 10.5418 36.8788 10.6332 37.2749 10.7856C37.4272 10.8465 37.5491 10.9684 37.61 11.0902C37.4577 11.1512 37.3663 11.2426 37.2749 11.3645C37.1835 11.4863 37.1226 11.6387 37.1226 11.791C37.1226 11.9433 37.153 12.0652 37.214 12.2175C37.0007 12.1871 36.757 12.1566 36.5437 12.309C36.3913 12.4308 36.2085 12.6441 36.1476 12.9792C36.0562 13.5581 36.0867 14.3808 36.6351 14.6854C37.0007 14.8682 37.3663 14.7159 37.6405 14.5636C37.61 14.8073 37.3663 15.1424 37.1835 15.2643C36.757 15.5081 36.2999 15.6299 35.8125 15.6299C35.3554 15.6299 34.868 15.5081 34.4414 15.2643C34.2586 15.1424 34.0149 14.8073 33.9844 14.5636C34.2891 14.7159 34.6242 14.8682 34.9898 14.6854C35.5687 14.3808 35.5992 13.5277 35.4773 12.9792C35.4164 12.6441 35.2336 12.4004 35.0812 12.309C34.868 12.1566 34.5937 12.1871 34.4109 12.2175C34.4719 12.0957 34.5023 11.9433 34.5023 11.791C34.5023 11.6387 34.4719 11.4863 34.35 11.3645C34.2586 11.273 34.1672 11.1512 34.0149 11.0902C34.1367 10.9684 34.2586 10.8465 34.4109 10.7856ZM44.4348 22.15V22.1195L44.4043 22.0891C44.2215 21.693 43.7341 21.2665 43.0942 21.2665H23.0465C22.4371 21.2665 21.9496 21.693 21.7668 22.0891L21.7364 22.15L21.7059 22.211C21.584 22.5766 21.5231 23.1555 21.9496 23.8562L31.3642 40.8876C31.6384 41.3447 32.0649 42.1064 33.0094 42.1064H33.0399H33.0704C34.0149 42.0759 34.4719 41.3142 34.7461 40.8572L44.1911 23.7648C44.5872 23.0945 44.5567 22.5156 44.4348 22.15ZM43.5512 23.4297L34.3805 40.065C34.0758 40.522 33.6797 41.3142 33.1008 41.3142C32.5219 41.3142 32.0954 40.522 31.8212 40.065L22.6504 23.4297C22.4676 23.125 22.3153 22.7594 22.4676 22.3633C22.559 22.1805 22.8027 21.9672 23.1074 21.9672H43.1552C43.4598 21.9672 43.734 22.211 43.795 22.3633C43.8559 22.7594 43.7341 23.125 43.5512 23.4297ZM38.2194 25.8671V25.8366C38.0975 25.5319 37.7319 25.2273 37.2749 25.2273H28.8658C28.4393 25.2273 28.1041 25.5319 27.9823 25.7757L27.9518 25.8366L27.9213 25.928C27.8299 26.2632 27.8909 26.6288 28.0737 26.9639L32.004 34.0629C32.1259 34.2762 32.4305 34.8246 33.0704 34.8246C33.7406 34.8246 34.0149 34.3066 34.1367 34.0934L38.0671 26.9944C38.2803 26.6592 38.3413 26.2936 38.2499 25.928L38.2194 25.8671ZM37.4577 26.5678L33.6188 33.5449C33.4969 33.7277 33.3446 34.0629 33.0704 34.0629C32.7961 34.0629 32.6438 33.7277 32.5219 33.5449L28.6525 26.5678C28.5611 26.446 28.5307 26.2936 28.5611 26.1413C28.5916 26.0804 28.7135 25.9585 28.8353 25.9585H37.2444C37.3663 25.9585 37.4882 26.0804 37.5186 26.1413C37.5796 26.2632 37.5491 26.4155 37.4577 26.5678ZM65.61 23.7343C65.458 23.3992 65.122 23.1859 64.696 23.1859H56.2867V0H9.88441V23.2164H1.41441C0.987913 23.2164 0.652716 23.4297 0.500416 23.7648C0.439516 23.8867 0.439514 24.0085 0.439514 24.1304C0.439514 24.3742 0.530915 24.6179 0.713715 24.8312L6.35022 31.1989C6.47212 31.3513 6.89861 31.7778 7.59941 31.7778H9.88441V46.4632H56.3172V31.7778H58.5413C59.2116 31.7778 59.6687 31.3208 59.7905 31.1989L65.427 24.8312C65.61 24.6179 65.701 24.3742 65.701 24.1304C65.701 23.9781 65.671 23.8562 65.61 23.7343ZM7.59941 31.0161C7.17281 31.0161 6.89862 30.681 6.89862 30.681L5.40572 29.0052H14.8811C15.2468 29.0052 15.2772 28.3045 14.8507 28.3045C14.8507 28.3045 6.44161 28.3045 4.76591 28.3045L3.21202 26.5678H16.0999C16.4655 26.5374 16.5873 25.928 16.0999 25.8671C16.0999 25.8671 5.22292 25.8671 2.57222 25.8671L1.20111 24.3132C1.01831 24.1 1.07932 23.9171 1.35352 23.9171H18.6591C18.9943 23.9476 19.0552 24.0085 19.299 24.4656C19.5732 24.9226 20.213 26.0499 20.3653 26.385C20.5481 26.7506 20.6395 27.0248 20.2739 27.6342C19.9083 28.2436 18.4459 30.8028 18.1717 31.2599C17.8974 31.6864 17.5623 32.6918 18.6896 32.6918H23.991C24.4785 32.6918 24.6613 32.7832 24.8745 33.1793C25.0878 33.5754 27.2206 37.3534 27.2206 37.3534C28.1346 38.6635 27.5557 39.7603 26.0323 39.6994C24.1129 39.6385 24.3871 37.7495 24.3566 37.2925C24.3566 37.2925 23.7777 36.4394 23.2293 35.6167C23.2293 35.6167 18.9029 35.6167 16.0694 35.6167C13.2359 35.6167 14.1804 33.8496 14.6679 32.6918C14.9116 32.0825 14.5155 30.9856 12.7179 30.9856H7.59941V31.0161ZM55.586 45.6711H10.6157V31.7169H12.8398C13.6929 31.7169 13.9671 31.9606 14.028 32.113C14.089 32.2653 14.089 32.4481 13.9976 32.6309C13.7538 33.1489 13.4796 33.8191 13.4796 34.459C13.4796 34.7941 13.5406 35.0988 13.7538 35.4035C14.1499 36.0128 14.9421 36.3175 16.1608 36.3175C16.1608 36.3175 22.2543 36.3175 22.9551 36.3175C23.1988 36.6831 23.5949 37.2925 23.7472 37.5057V37.5362C23.7472 39.3643 24.5394 40.3392 26.1237 40.4002C27.1292 40.4306 27.8909 40.065 28.2869 39.3947C28.683 38.694 28.5611 37.7799 27.9518 36.9268L25.6362 32.8442C25.2706 32.113 24.7527 31.9606 24.1129 31.9606H18.7505C18.781 31.8692 18.8115 31.7473 18.9029 31.6255L20.2739 29.249L21.0052 27.9998C21.2489 27.5733 21.3403 27.2381 21.3403 26.9334C21.3403 26.5983 21.2184 26.3241 21.0966 26.0803C20.9137 25.6843 20.2435 24.5265 19.9997 24.0999V24.0695C19.695 23.5515 19.3904 23.2164 18.8115 23.1859H10.6157V0.731225H55.586V23.2164H47.3597C46.7808 23.2469 46.4761 23.582 46.1715 24.0999V24.1304C45.9277 24.557 45.2574 25.7147 45.0746 26.1108C44.9528 26.385 44.8309 26.6288 44.8309 26.9639C44.8309 27.2686 44.9223 27.6037 45.166 28.0303L45.8973 29.2795L47.2683 31.6559C47.3292 31.7778 47.3902 31.8997 47.4206 31.9911H42.0583C41.4185 31.9911 40.9006 32.1434 40.5349 32.8746L38.2194 36.9573C37.61 37.8409 37.4882 38.7244 37.8843 39.4252C38.2499 40.0955 39.042 40.4611 40.0475 40.4306C41.6318 40.3697 42.4239 39.4252 42.4239 37.5667V37.5362C42.5763 37.3229 42.9724 36.7136 43.2161 36.348C43.9169 36.348 50.0104 36.348 50.0104 36.348C51.2291 36.348 52.0213 36.0433 52.4173 35.4339C52.6002 35.1293 52.6916 34.8246 52.6916 34.4894C52.6916 33.8496 52.4173 33.1793 52.1736 32.6614C52.0822 32.4786 52.0822 32.2958 52.1431 32.1434C52.2345 31.9911 52.4783 31.7473 53.3314 31.7473H55.586V45.6711ZM64.879 24.3132L63.5076 25.8671C60.8874 25.8671 49.9799 25.8671 49.9799 25.8671C49.4924 25.928 49.6143 26.5069 49.9799 26.5678H62.8678L61.3139 28.3045C59.6382 28.3045 51.2291 28.3045 51.2291 28.3045C50.8026 28.3045 50.8635 29.0052 51.1986 29.0052H60.6741L59.1812 30.681C59.1812 30.681 58.907 31.0161 58.4804 31.0161H53.24C51.4728 31.0161 51.0463 32.0825 51.29 32.7223C51.7775 33.8801 52.722 35.6472 49.8885 35.6472C47.055 35.6472 42.7286 35.6472 42.7286 35.6472C42.1497 36.4698 41.6013 37.3229 41.6013 37.3229C41.5708 37.7799 41.8451 39.6385 39.9256 39.7299C38.4022 39.7908 37.8233 38.694 38.7374 37.3839C38.7374 37.3839 40.8701 33.6059 41.0834 33.2098C41.2966 32.8137 41.4794 32.7223 41.9669 32.7223H47.2683C48.3956 32.7223 48.0605 31.7169 47.7863 31.2903C47.512 30.8638 46.0496 28.3045 45.684 27.6647C45.3184 27.0553 45.4098 26.7811 45.5926 26.4155C45.7754 26.0499 46.4152 24.9226 46.6589 24.496C46.9332 24.0695 46.9636 23.9781 47.2988 23.9476H64.604C65.001 23.9476 65.061 24.1304 64.879 24.3132ZM28.3479 11.6387C28.4697 11.9129 28.3479 12.1261 28.1955 12.3699C28.0737 12.5527 27.8604 12.766 27.9518 12.9488C27.9823 13.0402 28.0737 13.1011 28.1346 13.1011C28.2869 13.1316 28.4393 13.0097 28.5916 12.8878C28.683 12.8269 28.7744 12.7355 28.8658 12.705C29.0486 12.6441 29.2314 12.705 29.3228 12.8574C29.4752 13.1316 29.5056 13.6191 29.3838 13.9237C29.201 14.2589 28.9268 14.137 28.5916 13.9542C28.4393 13.8628 28.3174 13.7714 28.1651 13.7714C27.9518 13.7714 27.8604 14.137 27.8604 14.3198C27.8299 14.9901 28.2869 15.5995 28.9572 15.9041C29.3533 16.0869 29.8408 16.1783 30.3283 16.1479C30.8157 16.1479 31.3032 16.0565 31.6993 15.9041C32.3696 15.5995 32.8266 14.9596 32.7962 14.3198C32.7962 14.137 32.7047 13.7714 32.4915 13.7714C32.3391 13.7714 32.2173 13.8628 32.0649 13.9542C31.7298 14.137 31.4556 14.2589 31.2728 13.9237C31.1509 13.6495 31.1814 13.1316 31.3337 12.8574C31.4251 12.705 31.6384 12.6441 31.7907 12.705C31.8821 12.7355 31.9735 12.7964 32.0649 12.8878C32.2173 13.0097 32.3696 13.1316 32.5219 13.1011C32.5829 13.1011 32.6743 13.0402 32.7047 12.9488C32.7657 12.766 32.5524 12.5527 32.461 12.3699C32.3087 12.1261 32.1868 11.8824 32.3087 11.6387C32.4001 11.5168 32.5524 11.4254 32.7657 11.4254H32.8571C32.7657 10.9379 32.6133 10.3285 31.6079 10.0848C31.3337 10.0239 30.9376 9.93247 30.3587 9.93247C29.8103 9.93247 29.3838 10.0239 29.1096 10.0848C28.1041 10.3285 27.9518 10.9379 27.8604 11.4254H27.9518C28.0737 11.4254 28.2565 11.5168 28.3479 11.6387ZM28.8658 10.7856C29.2619 10.6332 29.7798 10.5418 30.2978 10.5418C30.8158 10.5418 31.3337 10.6332 31.7298 10.7856C31.8821 10.8465 32.004 10.9684 32.0649 11.0902C31.9126 11.1512 31.8212 11.2426 31.7298 11.3645C31.6384 11.4863 31.5774 11.6387 31.5774 11.791C31.5774 11.9433 31.6079 12.0652 31.6688 12.2175C31.4556 12.1871 31.2118 12.1566 30.9986 12.309C30.8462 12.4308 30.6634 12.6441 30.6025 12.9792C30.5111 13.5581 30.5111 14.3808 31.09 14.6854C31.4556 14.8682 31.8212 14.7159 32.0954 14.5636C32.0649 14.8073 31.8212 15.1424 31.6384 15.2643C31.2118 15.5081 30.7548 15.6299 30.2673 15.6299C29.8103 15.6299 29.3228 15.5081 28.8963 15.2643C28.7135 15.1424 28.4697 14.8073 28.4393 14.5636C28.7439 14.7159 29.0791 14.8682 29.4447 14.6854C30.0236 14.3808 30.0541 13.5277 29.9322 12.9792C29.8712 12.6441 29.6884 12.4004 29.5361 12.309C29.3228 12.1566 29.0486 12.1871 28.8658 12.2175C28.9268 12.0957 28.9572 11.9433 28.9572 11.791C28.9572 11.6387 28.9268 11.4863 28.8049 11.3645C28.7135 11.273 28.6221 11.1512 28.4697 11.0902C28.5916 10.9684 28.7135 10.8465 28.8658 10.7856ZM26.7026 15.4776C27.0682 15.051 27.2206 14.5026 27.0987 14.0151C27.0073 13.68 26.6112 13.8323 26.3979 13.9847C26.2151 14.0761 26.0628 14.1979 25.88 14.137C25.7581 14.1065 25.6667 13.9542 25.6362 13.8628C25.5144 13.4972 25.5753 13.0402 25.7581 12.766C25.819 12.6746 25.9409 12.6746 26.0628 12.6746C26.2151 12.6746 26.3675 12.7964 26.4893 12.8878C26.6721 13.0402 26.9464 13.1925 27.0987 13.0097C27.251 12.8269 27.0682 12.5832 26.9159 12.4004C26.794 12.2175 26.6721 12.0652 26.6721 11.8519C26.6721 11.6996 26.7331 11.5777 26.8549 11.4863C26.9768 11.3645 27.1596 11.3645 27.1596 11.3645H27.2206V11.3035C27.2206 11.0598 27.2815 10.7856 27.3729 10.4504C26.3675 10.1153 25.3316 9.99341 24.1129 10.0543C22.9856 10.1762 22.2543 10.6332 21.9801 11.334C21.9801 11.334 22.3457 11.3645 22.5285 11.4559C22.6199 11.5168 22.8941 11.6691 22.8637 11.9738C22.8332 12.1261 22.7418 12.2785 22.6504 12.4308C22.559 12.6136 22.3457 12.8574 22.4371 13.0097C22.5895 13.2839 22.8637 13.0706 23.0465 12.9183C23.1684 12.8269 23.2902 12.766 23.3816 12.7355C23.473 12.705 23.6863 12.705 23.8082 12.8574C23.991 13.1011 24.0519 13.7409 23.8386 14.0761C23.6254 14.2589 23.4426 14.137 23.1988 14.0151C23.016 13.9542 22.8941 13.8628 22.7113 13.8323C22.6199 13.8019 22.4371 13.8323 22.4371 14.1065C22.4676 14.8987 22.8027 15.569 23.534 15.8737C24.4785 16.3612 25.88 16.3002 26.7026 15.4776ZM23.0465 14.5636C23.2902 14.6854 23.5949 14.8378 23.8996 14.7464C24.2043 14.6245 24.4175 14.3503 24.5394 13.8933C24.6308 13.1925 24.448 12.5832 24.0824 12.309C23.8691 12.1871 23.6558 12.1261 23.4121 12.1871C23.473 12.0652 23.473 11.9433 23.473 11.8215C23.473 11.7605 23.473 11.6691 23.4426 11.6082C23.3512 11.334 23.1379 11.1816 22.8941 11.0902C23.8996 10.4809 25.3011 10.6942 26.4589 10.8465C26.4589 10.8465 26.5198 10.8465 26.5807 10.877V11.0293C26.3065 11.0902 26.0933 11.334 26.0323 11.6691C26.0323 11.7301 26.0323 11.7605 26.0323 11.8215C26.0323 11.9738 26.0628 12.0652 26.1237 12.1871C25.88 12.1261 25.6058 12.0957 25.362 12.3394C25.0269 12.705 24.8745 13.3144 25.0269 13.9847C25.1183 14.2894 25.3011 14.5636 25.5448 14.6854C25.88 14.8378 26.2456 14.7464 26.5198 14.5636C26.4589 15.051 25.9409 15.3557 25.7581 15.4471C25.3011 15.6909 24.5699 15.7213 23.991 15.5385C23.5949 15.3557 23.1684 14.9596 23.0465 14.5636ZM38.9811 11.3645H39.042C39.042 11.3645 39.2248 11.3645 39.3467 11.4863C39.4686 11.5777 39.499 11.6996 39.5295 11.8519C39.56 12.0652 39.4076 12.2175 39.2858 12.4004C39.1639 12.5832 38.9506 12.8269 39.103 13.0097C39.2858 13.223 39.5295 13.0402 39.7123 12.8878C39.8342 12.7964 39.9865 12.6746 40.1389 12.6746C40.2303 12.6746 40.3826 12.6746 40.4435 12.766C40.6263 13.0402 40.6568 13.4972 40.5654 13.8628C40.5349 13.9237 40.4435 14.1065 40.3217 14.137C40.1389 14.1979 39.9865 14.0761 39.8037 13.9847C39.5905 13.8628 39.1639 13.7105 39.103 14.0151C38.9811 14.5026 39.1334 15.051 39.499 15.4776C40.2912 16.3002 41.6927 16.3612 42.6677 15.9346C43.3989 15.5995 43.734 14.9596 43.7645 14.1675C43.7645 13.8933 43.5817 13.8628 43.4903 13.8933C43.3075 13.9237 43.1856 14.0151 43.0028 14.0761C42.7591 14.1675 42.5763 14.3198 42.363 14.137C42.1497 13.8019 42.2107 13.162 42.3935 12.9183C42.4849 12.766 42.6982 12.766 42.82 12.7964C42.9114 12.8269 43.0333 12.9183 43.1552 12.9792C43.338 13.1316 43.6122 13.3144 43.7645 13.0706C43.8559 12.9183 43.6731 12.6746 43.5512 12.4918C43.4598 12.3394 43.3684 12.1871 43.338 12.0347C43.3075 11.7301 43.5817 11.5777 43.6731 11.5168C43.8559 11.4254 44.2215 11.3949 44.2215 11.3949C43.9473 10.6637 43.2466 10.2371 42.0888 10.1153C40.9006 10.0239 39.8647 10.1762 38.8288 10.5114C38.9202 10.8465 38.9811 11.1207 38.9811 11.3645ZM39.56 10.8465C39.6209 10.8465 39.6818 10.816 39.6818 10.816C40.8396 10.6332 42.2716 10.42 43.2466 11.0598C43.0028 11.1512 42.82 11.3035 42.6981 11.5777C42.6677 11.6387 42.6677 11.7301 42.6677 11.791C42.6677 11.9129 42.6677 12.0347 42.7286 12.1566C42.4849 12.1261 42.2716 12.1566 42.0583 12.2785C41.6927 12.5222 41.5099 13.162 41.6013 13.8628C41.7232 14.3198 41.9365 14.594 42.2411 14.7159C42.5458 14.8073 42.8505 14.655 43.0942 14.5331C42.9724 14.9292 42.5458 15.2948 42.1497 15.4471C41.5708 15.6299 40.8396 15.5995 40.3826 15.3557C40.1998 15.2643 39.6819 14.9596 39.6209 14.4722C39.8951 14.655 40.2607 14.7464 40.5959 14.594C40.8092 14.4722 41.0224 14.2284 41.1138 13.8933C41.2357 13.223 41.1138 12.6136 40.7787 12.248C40.5349 12.0347 40.2607 12.0347 40.017 12.0957C40.0779 11.9738 40.1084 11.8824 40.1084 11.7301C40.1084 11.6691 40.1084 11.6387 40.1084 11.5777C40.0475 11.2426 39.8342 10.9988 39.56 10.9379V10.8465Z" fill="black"/>
<path d="M37.5477 26.1107C37.6086 26.263 37.5477 26.4154 37.4563 26.5372L33.6174 33.5143C33.4955 33.6971 33.3432 34.0323 33.0689 34.0323C32.7947 34.0323 32.6424 33.6971 32.5205 33.5143L28.6511 26.5372C28.5597 26.4154 28.5293 26.263 28.5597 26.1107C28.5902 26.0497 28.7121 25.9279 28.8339 25.9279H37.243C37.3954 25.9279 37.5172 26.0497 37.5477 26.1107ZM45.0428 26.0802C44.9209 26.3544 44.799 26.5982 44.799 26.9333C44.799 27.238 44.8904 27.5731 45.1342 27.9997L45.8654 29.2488L47.2364 31.6253C47.2974 31.7472 47.3583 31.8691 47.3888 31.9605H42.0265C41.3866 31.9605 40.8687 32.1128 40.5031 32.844L38.1875 36.9267C37.5782 37.8103 37.4563 38.6938 37.8524 39.3946C38.218 40.0649 39.0101 40.4305 40.0156 40.4C41.5999 40.3391 42.3921 39.3946 42.3921 37.5361V37.5056C42.5444 37.2923 42.9405 36.683 43.1842 36.3174C43.885 36.3174 49.9785 36.3174 49.9785 36.3174C51.1972 36.3174 51.9894 36.0127 52.3855 35.4033C52.5683 35.0986 52.6597 34.794 52.6597 34.4588C52.6597 33.819 52.3855 33.1487 52.1417 32.6308C52.0503 32.448 52.0503 32.2652 52.1113 32.1128C52.2027 31.9605 52.4464 31.7167 53.2995 31.7167H55.5541V45.6709H10.6143V31.7167H12.8384C13.6915 31.7167 13.9657 31.9605 14.0266 32.1128C14.0876 32.2652 14.0876 32.448 13.9962 32.6308C13.7524 33.1487 13.4782 33.819 13.4782 34.4588C13.4782 34.794 13.5392 35.0986 13.7524 35.4033C14.1485 36.0127 14.9407 36.3174 16.1594 36.3174C16.1594 36.3174 22.2529 36.3174 22.9537 36.3174C23.1974 36.683 23.5935 37.2923 23.7458 37.5056V37.5361C23.7458 39.3641 24.538 40.3391 26.1223 40.4C27.1277 40.4305 27.8894 40.0649 28.2855 39.3946C28.6816 38.6938 28.5597 37.7798 27.9504 36.9267L25.6348 32.844C25.2692 32.1128 24.7513 31.9605 24.1114 31.9605H18.7491C18.7796 31.8691 18.8101 31.7472 18.9015 31.6253L20.2725 29.2488L21.0037 27.9997C21.2475 27.5731 21.3389 27.238 21.3389 26.9333C21.3389 26.5982 21.217 26.3239 21.0951 26.0802C20.9123 25.6841 20.2421 24.5264 19.9983 24.0998V24.0693C19.6936 23.5514 19.389 23.2162 18.8101 23.1858H10.6143V0.731079H55.5846V23.2162H47.3583C46.7794 23.2467 46.4747 23.5819 46.1701 24.0998V24.1303C45.8959 24.5264 45.2256 25.6841 45.0428 26.0802ZM44.4334 22.1499V22.1194L44.4029 22.0889C44.2201 21.6929 43.7326 21.2663 43.0928 21.2663H23.0451C22.4357 21.2663 21.9482 21.6929 21.7654 22.0889L21.735 22.1499L21.7045 22.2108C21.5826 22.5764 21.5217 23.1553 21.9482 23.8561L31.3628 40.8875C31.637 41.3445 32.0635 42.1062 33.008 42.1062H33.0385H33.0689C34.0134 42.0758 34.4705 41.3141 34.7447 40.857L44.1897 23.7647C44.5857 23.0944 44.5553 22.5155 44.4334 22.1499ZM45.5302 11.8518C45.5607 11.212 45.2865 10.4807 44.9209 9.93233C43.3061 7.83005 40.3507 8.56128 38.5836 9.04876C37.8524 8.56128 36.9079 8.34801 35.811 8.50034C35.811 8.50034 35.5064 8.56128 35.2626 8.59175C35.3845 8.31754 35.4454 7.98239 35.4454 7.64725C35.4454 6.70275 34.897 5.88012 34.0744 5.51451V4.96609C34.2572 4.96609 35.1408 4.96609 35.1408 4.96609V2.98569C35.1408 2.98569 34.2572 2.98569 34.0744 2.98569C34.0744 2.80288 34.0744 1.91932 34.0744 1.91932H32.0635C32.0635 1.91932 32.0635 2.80288 32.0635 2.98569C31.8807 2.98569 30.9667 2.98569 30.9667 2.98569V4.96609C30.9667 4.96609 31.8502 4.96609 32.0635 4.96609V5.51451C31.2714 5.88012 30.6925 6.70275 30.6925 7.64725C30.6925 7.98239 30.7534 8.28707 30.8753 8.59175C30.7839 8.56128 30.4487 8.53081 30.3269 8.50034C29.2605 8.31754 28.316 8.53081 27.5543 9.04876C25.7872 8.56128 22.8623 7.83005 21.217 9.93233C20.8209 10.4503 20.5772 11.212 20.6077 11.8518L22.5271 19.7125H43.6108L45.5302 11.8518ZM22.8927 11.0596C23.1365 11.151 23.3193 11.3034 23.4412 11.5776C23.4716 11.6385 23.4716 11.7299 23.4716 11.7909C23.4716 11.9127 23.4716 12.0346 23.4107 12.1565C23.6544 12.126 23.8677 12.1565 24.081 12.2783C24.4466 12.5221 24.6294 13.1619 24.538 13.8627C24.4161 14.3197 24.2029 14.5939 23.8982 14.7158C23.5935 14.8072 23.2888 14.6548 23.0451 14.5329C23.1669 14.929 23.5935 15.2946 23.9896 15.447C24.5685 15.6298 25.2997 15.5993 25.7567 15.3556C25.9395 15.2642 26.4575 14.9595 26.5184 14.472C26.2442 14.6548 25.8786 14.7462 25.5434 14.5939C25.3302 14.472 25.1169 14.2283 25.0255 13.8931C24.9036 13.2228 25.0255 12.6135 25.3606 12.2479C25.6044 12.0346 25.8786 12.0346 26.1223 12.0955C26.0614 11.9737 26.0309 11.8823 26.0309 11.7299C26.0309 11.669 26.0309 11.6385 26.0309 11.5776C26.0918 11.2424 26.3051 10.9987 26.5793 10.9378V10.7854C26.5184 10.7854 26.4575 10.755 26.4575 10.755C25.2997 10.6635 23.8982 10.4503 22.8927 11.0596ZM43.2452 11.0596C42.2397 10.4503 40.8382 10.6636 39.6804 10.8159C39.6804 10.8159 39.6195 10.8159 39.5586 10.8464V10.9987C39.8328 11.0596 40.0461 11.3034 40.107 11.6385C40.107 11.6995 40.107 11.7299 40.107 11.7909C40.107 11.9432 40.0765 12.0346 40.0156 12.1565C40.2593 12.0955 40.5335 12.0651 40.7773 12.3088C41.1124 12.6744 41.2648 13.2838 41.1124 13.9541C41.021 14.2587 40.8382 14.5329 40.5945 14.6548C40.2593 14.8072 39.8937 14.7158 39.6195 14.5329C39.6804 15.0204 40.1984 15.3251 40.3812 15.4165C40.8382 15.6603 41.5694 15.6907 42.1483 15.5079C42.5139 15.386 42.971 14.99 43.0928 14.5939C42.8491 14.7158 42.5444 14.8681 42.2397 14.7767C41.935 14.6548 41.7218 14.3806 41.5999 13.9236C41.5085 13.2228 41.6913 12.6135 42.0569 12.3393C42.2702 12.2174 42.4835 12.1565 42.7272 12.2174C42.6663 12.0955 42.6663 11.9737 42.6663 11.8518C42.6663 11.7909 42.6663 11.6995 42.6967 11.6385C42.8186 11.3034 43.0014 11.151 43.2452 11.0596ZM31.0885 14.6853C30.5097 14.3806 30.4792 13.5275 30.6011 12.9791C30.662 12.644 30.8448 12.4002 30.9971 12.3088C31.2104 12.1565 31.4846 12.1869 31.6674 12.2174C31.6065 12.0955 31.576 11.9432 31.576 11.7909C31.576 11.6385 31.6065 11.4862 31.7284 11.3643C31.8198 11.2729 31.9112 11.151 32.0635 11.0901C32.0026 10.9682 31.8807 10.8768 31.7284 10.7854C31.3323 10.6331 30.8143 10.5417 30.2964 10.5417C29.7784 10.5417 29.2605 10.6331 28.8644 10.7854C28.7121 10.8464 28.5902 10.9682 28.5293 11.0901C28.6816 11.151 28.773 11.2424 28.8644 11.3643C28.9558 11.4862 29.0167 11.6385 29.0167 11.7909C29.0167 11.9432 28.9863 12.0651 28.9253 12.2174C29.1386 12.1869 29.3824 12.1565 29.5956 12.3088C29.748 12.4307 29.9308 12.644 29.9917 12.9791C30.0831 13.558 30.0526 14.3806 29.5042 14.6853C29.1386 14.8681 28.773 14.7158 28.4988 14.5634C28.5293 14.8072 28.773 15.1423 28.9558 15.2642C29.3824 15.5079 29.8698 15.6298 30.3269 15.6298C30.7839 15.6298 31.2714 15.5079 31.6979 15.2642C31.8807 15.1423 32.1244 14.8072 32.1549 14.5634C31.8198 14.6853 31.4542 14.8376 31.0885 14.6853ZM36.6641 14.6853C36.0853 14.3806 36.0548 13.5275 36.1767 12.9791C36.2376 12.644 36.4204 12.4002 36.5727 12.3088C36.786 12.1565 37.0602 12.1869 37.243 12.2174C37.1821 12.0955 37.1516 11.9432 37.1516 11.7909C37.1516 11.6385 37.1821 11.4862 37.304 11.3643C37.3954 11.2729 37.4868 11.151 37.6391 11.0901C37.5782 10.9682 37.4563 10.8768 37.304 10.7854C36.9079 10.6331 36.3899 10.5417 35.872 10.5417C35.354 10.5417 34.8361 10.6331 34.44 10.7854C34.2877 10.8464 34.1658 10.9682 34.1049 11.0901C34.2572 11.151 34.3486 11.2424 34.44 11.3643C34.5314 11.4862 34.5923 11.6385 34.5923 11.7909C34.5923 11.9432 34.5619 12.0651 34.5009 12.2174C34.7142 12.1869 34.9579 12.1565 35.1712 12.3088C35.3236 12.4307 35.5064 12.644 35.5673 12.9791C35.6587 13.558 35.6282 14.3806 35.0798 14.6853C34.7142 14.8681 34.3486 14.7158 34.0744 14.5634C34.1049 14.8072 34.3486 15.1423 34.5314 15.2642C34.9579 15.5079 35.415 15.6298 35.9024 15.6298C36.3595 15.6298 36.8469 15.5079 37.2735 15.2642C37.4563 15.1423 37.7 14.8072 37.7305 14.5634C37.3954 14.6853 37.0297 14.8681 36.6641 14.6853Z" fill="#ED1C2E"/>
</svg>
