<svg width="1942" height="1037" viewBox="0 0 1942 1037" fill="none" xmlns="http://www.w3.org/2000/svg">
<path d="M473.046 1037L1024.24 0.171143H991.333L440.138 1037H473.046Z" fill="#4E3629"/>
<path d="M384.602 1037L935.8 0.171143H904.95L351.694 1037H384.602Z" fill="#4E3629"/>
<path d="M296.169 1037L849.424 0.171143H816.517L263.261 1037H296.169Z" fill="#4E3629"/>
<path d="M207.728 1037L760.984 0.171143H728.076L176.877 1037H207.728Z" fill="#4E3629"/>
<path d="M121.345 1037L672.545 0.171143H639.637L88.4385 1037H121.345Z" fill="#4E3629"/>
<path d="M1466.44 744.878H1433.53L1587.78 1037H1620.69L1466.44 744.878Z" fill="#00AFD7"/>
<path d="M1377.99 744.878H1345.09L1501.4 1037H1532.25L1377.99 744.878Z" fill="#00AFD7"/>
<path d="M1256.66 744.878L1412.96 1037H1443.82L1289.56 744.878H1256.66Z" fill="#00AFD7"/>
<path d="M1168.21 744.878L1324.53 1037H1357.43L1201.12 744.878H1168.21Z" fill="#00AFD7"/>
<path d="M1079.78 744.878L1236.08 1037H1268.99L1112.68 744.878H1079.78Z" fill="#00AFD7"/>
<path d="M32.9074 1037L584.107 0.171143C561.482 4.28555 540.915 18.6859 530.631 41.3151L0 1037H32.9074Z" fill="#4E3629"/>
<path d="M1024.24 744.878H991.332L1125.02 995.86C1137.36 1018.49 1155.87 1032.88 1178.49 1037L1024.24 744.878Z" fill="#00AFD7"/>
<path d="M1908.63 516.528L1649.49 1006.15L1665.94 1037L1941.54 516.528H1908.63Z" fill="#00AFD7"/>
<path d="M1820.19 516.528L1606.29 921.798L1622.74 952.653L1853.1 516.528H1820.19Z" fill="#00AFD7"/>
<path d="M1731.75 516.528L1561.04 839.507L1577.5 870.366L1764.66 516.528H1731.75Z" fill="#00AFD7"/>
<path d="M1645.37 516.528L1517.85 757.219L1534.31 788.078L1676.22 516.528H1645.37Z" fill="#00AFD7"/>
<path d="M1556.94 516.528L1472.61 672.874L1489.07 703.733L1589.84 516.528H1556.94Z" fill="#00AFD7"/>
<path d="M1468.49 516.528L1429.42 590.587L1445.86 621.444L1501.4 516.528H1468.49Z" fill="#00AFD7"/>
<path d="M1090.06 703.733L894.67 333.438L878.217 364.296L1059.2 703.733H1090.06Z" fill="#4E3629"/>
<path d="M1178.49 703.733L937.858 251.149L921.402 279.951L1145.59 703.733H1178.49Z" fill="#4E3629"/>
<path d="M1266.94 703.733L981.051 166.804L966.653 197.662L1234.02 703.733H1266.94Z" fill="#4E3629"/>
<path d="M1443.81 703.733L1069.49 2.22827L1053.04 33.0862L1410.9 703.733H1443.81Z" fill="#4E3629"/>
<path d="M1355.37 703.734L1026.3 84.5164L1009.85 115.374L1322.47 703.734H1355.37Z" fill="#4E3629"/>
<path d="M1001.62 703.733L849.422 415.726L832.968 446.584L970.77 703.733H1001.62Z" fill="#4E3629"/>
</svg>
