<svg width="992" height="1142" viewBox="0 0 992 1142" fill="none" xmlns="http://www.w3.org/2000/svg">
<path d="M495.489 1025.6H493.634C390.289 954.1 308.241 855.94 256.208 741.546C207.053 628.158 203.343 359.643 203.111 357.092V352.687H786.708V357.092C786.708 359.643 782.534 628.158 733.843 742.242C681.722 855.872 599.944 953.355 497.112 1024.44H495.489V1025.6ZM209.835 360.107C209.835 391.41 216.791 633.723 262.236 739.459C313.513 851.525 394.101 947.661 495.489 1017.71C596.753 947.525 677.31 851.426 728.742 739.459C775.114 633.723 780.447 391.642 780.911 360.107H209.835Z" fill="#1D1D1B"/>
<path d="M492.011 441.728L470.679 439.409C466.89 438.949 463.205 437.852 459.782 436.163C457.927 436.163 456.304 438.714 456.768 440.337C460.899 442.228 465.266 443.554 469.752 444.279L495.488 446.365L492.011 441.728Z" fill="#1D1D1B"/>
<path d="M326.23 415.294C312.401 414.685 298.837 411.294 286.349 405.323C271.278 396.28 249.251 378.889 249.251 378.889C248.108 395.327 249.043 411.843 252.034 428.047C257.169 444.68 263.604 460.885 271.278 476.51C271.278 476.51 278.698 467.93 294.464 453.322C303.344 445.121 315.074 440.711 327.157 441.032H353.589V415.294H326.23Z" fill="#1D1D1B"/>
<path d="M483.664 175.764C487.39 176.634 491.199 177.1 495.025 177.155C499.536 177.024 504.031 176.559 508.473 175.764L505.459 219.821C502.296 218.507 498.914 217.799 495.489 217.734C492.232 217.75 489.007 218.38 485.983 219.589L483.664 175.764Z" fill="#1D1D1B"/>
<path d="M271.742 228.4C268.99 227.395 266.092 226.847 263.163 226.777C260.542 226.513 257.901 226.513 255.28 226.777C250.124 211.885 248.847 195.924 251.57 180.401C256.207 169.271 279.625 166.489 299.797 165.561C326.23 165.561 359.618 165.561 359.618 165.561C358.202 167.338 357.175 169.391 356.603 171.59C356.038 173.575 355.574 175.587 355.212 177.619C355.212 177.619 325.998 175.764 312.782 177.619C299.161 177.441 285.68 180.376 273.365 186.198C271.112 188.899 269.502 192.077 268.659 195.492C267.815 198.906 267.76 202.468 268.496 205.908C269.655 215.647 271.742 228.4 271.742 228.4Z" fill="#1D1D1B"/>
<path d="M386.282 223.067C384.355 222.86 382.412 222.86 380.485 223.067C375.522 223.175 370.694 224.704 366.574 227.472C361.175 209.671 359.984 190.858 363.096 172.517C367.269 163.242 386.282 160.46 412.714 161.387C434.869 163.665 456.714 168.33 477.867 175.3V182.256C460.059 177.272 441.812 174.011 423.38 172.517C400.194 172.517 392.31 173.677 388.137 178.082C383.854 185.002 382.284 193.262 383.731 201.27C384.659 209.618 386.282 223.067 386.282 223.067Z" fill="#1D1D1B"/>
<path d="M720.395 228.4C723.139 227.365 726.042 226.816 728.974 226.777C731.592 226.452 734.239 226.452 736.857 226.777C741.934 211.868 743.21 195.928 740.567 180.401C735.93 169.271 712.512 166.489 692.34 165.561C665.907 165.561 632.056 165.561 632.056 165.561C633.471 167.338 634.498 169.391 635.07 171.59C635.635 173.575 636.099 175.587 636.461 177.619C636.461 177.619 666.139 175.764 679.355 177.619C692.976 177.441 706.457 180.376 718.772 186.198C721.117 188.842 722.768 192.027 723.578 195.468C724.387 198.908 724.329 202.495 723.409 205.908C722.25 215.647 720.395 228.4 720.395 228.4Z" fill="#1D1D1B"/>
<path d="M606.319 222.835C608.241 222.565 610.192 222.565 612.115 222.835C617.078 222.944 621.906 224.472 626.027 227.241C631.224 209.553 632.256 190.902 629.041 172.749C624.404 161.851 605.855 159.764 579.423 161.851C557.283 164.098 535.443 168.683 514.27 175.532V182.488C532.178 177.642 550.495 174.459 568.989 172.981C592.175 172.981 600.058 174.141 604.232 178.546C608.384 185.518 610.02 193.702 608.869 201.734C608.174 211.009 606.319 222.835 606.319 222.835Z" fill="#1D1D1B"/>
<path d="M436.364 356.165H717.148L743.349 237.211C738.689 234.704 733.554 233.203 728.278 232.806C725.287 232.479 722.265 233.001 719.559 234.314C716.852 235.626 714.57 237.675 712.975 240.226C707.874 250.892 721.09 262.254 721.09 262.254L714.366 271.066C710.084 263.922 703.794 258.196 696.281 254.602C691.875 254.602 683.528 257.153 683.528 272.921C683.528 288.688 686.774 291.471 694.658 291.007C702.541 290.543 717.148 277.79 717.148 277.79L720.858 286.138L706.251 315.122C694.131 319.44 681.319 321.484 668.457 321.151C633.91 321.151 630.664 314.659 630.664 314.659L616.288 286.138L619.998 277.79C619.998 277.79 633.446 292.166 643.184 293.094C652.923 294.022 654.777 287.993 654.777 275.008C654.777 262.022 647.358 255.762 641.561 256.921C635.765 258.08 623.012 271.993 623.012 271.993L616.52 263.182C616.52 263.182 629.736 252.515 628.577 243.008C627.418 233.501 611.187 229.559 611.187 229.559C611.187 229.559 597.044 229.559 593.798 240.458C590.552 251.356 605.391 263.645 605.391 263.645L598.667 272.457C598.667 272.457 589.161 258.776 579.422 257.153C576.176 257.153 566.902 258.544 567.134 276.399C567.134 288.688 570.612 294.022 578.263 293.558C585.914 293.094 601.449 278.254 601.449 278.254L605.391 286.601L590.784 315.122C590.784 315.122 587.538 321.615 555.772 321.615C524.007 321.615 520.529 316.977 520.529 316.977L503.372 284.978L508.009 276.631C508.009 276.631 520.993 292.398 529.572 292.862C538.151 293.326 542.788 287.761 543.484 275.008C544.179 262.254 535.6 253.675 529.804 254.834C521.565 258.263 514.197 263.492 508.241 270.138L503.372 262.022C503.372 262.022 519.138 247.414 515.197 236.284C511.255 225.154 498.039 225.849 498.039 225.849C498.039 225.849 484.127 227.009 480.881 236.284C477.635 245.559 492.706 262.022 492.706 262.022L485.286 268.515C485.286 268.515 471.607 253.907 462.1 253.211C452.594 252.515 448.652 259.472 449.116 271.529C449.58 283.587 455.144 291.471 463.028 291.239C470.911 291.007 484.823 274.776 484.823 274.776L489.228 283.123L472.534 314.891C472.534 314.891 472.534 319.992 436.132 319.992C404.367 319.992 401.121 313.499 401.121 313.499L386.513 284.978L390.455 276.631C390.455 276.631 404.135 291.471 413.641 291.935C423.147 292.398 424.77 287.065 424.77 274.776C424.77 256.921 415.728 255.066 412.482 255.53C402.744 257.153 393.237 270.834 393.237 270.834L386.513 262.022C386.513 262.022 401.584 250.197 398.106 238.835C394.628 227.472 380.717 227.936 380.717 227.936C380.717 227.936 364.95 227.936 363.327 241.385C361.704 254.834 375.384 261.559 375.384 261.559L369.356 270.834C369.356 270.834 359.849 257.617 350.807 255.762C341.764 253.907 337.59 259.24 337.59 273.848C337.59 288.456 341.3 292.862 349.184 291.935C357.067 291.007 369.356 277.79 369.356 277.79L373.297 286.138L358.922 314.659C358.922 314.659 355.676 320.688 321.128 321.151C308.265 321.516 295.446 319.471 283.335 315.122L268.727 286.138L272.437 277.79C272.437 277.79 286.117 292.862 295.623 293.094C305.13 293.326 306.753 288.225 306.753 275.008C306.753 261.79 299.797 254.602 294.232 254.602C286.587 257.833 280.058 263.234 275.451 270.138L268.727 261.327C268.727 261.327 281.944 249.965 276.843 239.298C275.247 236.748 272.966 234.699 270.259 233.386C267.552 232.074 264.53 231.551 261.54 231.878C256.263 232.275 251.129 233.776 246.469 236.284L273.365 355.237H554.845" fill="#1D1D1B"/>
<path d="M496.184 82.5486C487.333 82.5486 478.682 85.1733 471.323 90.0908C463.964 95.0083 458.228 101.998 454.841 110.175C451.454 118.353 450.568 127.351 452.294 136.032C454.021 144.713 458.283 152.687 464.541 158.946C470.8 165.205 478.773 169.467 487.454 171.194C496.134 172.92 505.132 172.034 513.309 168.647C521.486 165.26 528.475 159.524 533.392 152.164C538.309 144.805 540.933 136.152 540.933 127.301C540.872 115.451 536.138 104.103 527.759 95.7237C519.38 87.3441 508.033 82.6096 496.184 82.5486Z" fill="#1D1D1B"/>
<path d="M508.473 78.8386V47.3032H531.659V25.9704H506.85V-0.463745H485.287V25.9704H460.478V47.3032H483.664V78.8386C491.268 76.8751 499.246 76.8751 506.85 78.8386H508.473Z" fill="#1D1D1B"/>
<path d="M357.299 208.227C343.497 210.867 330.04 215.068 317.187 220.748C304.96 225.889 293.367 232.425 282.64 240.226C283.183 242.904 283.183 245.664 282.64 248.342C294.163 238.984 306.871 231.187 320.433 225.154C332.389 220.138 344.817 216.332 357.531 213.792L357.299 208.227Z" fill="#1D1D1B"/>
<path d="M389.296 202.893V209.386C389.296 209.386 435.668 204.517 478.331 203.821V197.56C453.29 197.792 407.149 200.807 389.296 202.893Z" fill="#1D1D1B"/>
<path d="M634.606 208.227C648.509 210.527 662.065 214.578 674.95 220.284C686.515 225.019 697.486 231.089 707.643 238.371C706.585 240.695 706.107 243.241 706.251 245.791C695.415 237.276 683.483 230.256 670.776 224.922C658.692 219.875 646.098 216.143 633.215 213.792L634.606 208.227Z" fill="#1D1D1B"/>
<path d="M602.609 203.125V209.386C602.609 209.386 556.237 204.517 512.646 204.053V197.56C537.919 197.792 584.755 200.806 602.609 203.125Z" fill="#1D1D1B"/>
<path d="M526.559 423.873L528.414 419.931L519.371 418.54C519.371 418.54 519.371 423.41 520.53 423.641C522.524 423.955 524.547 424.033 526.559 423.873ZM727.351 590.826C720.972 592.538 714.254 592.538 707.875 590.826C703.312 589.12 698.565 587.953 693.731 587.347C689.092 587.698 684.505 588.553 680.051 589.898C687.931 576.998 697.789 565.418 709.266 555.58C730.133 537.03 758.421 498.074 750.305 462.829C742.19 427.583 723.177 416.453 698.832 416.453C674.487 416.453 657.561 423.873 648.982 444.279C647.244 452.77 646.082 461.369 645.504 470.017C642.164 475.969 638.447 481.7 634.374 487.176C629.569 496.491 625.537 506.186 622.318 516.161H625.332L645.736 495.292L647.127 507.118C647.127 507.118 637.62 519.639 623.941 536.566C614.538 549.736 606.899 564.08 601.218 579.232L606.551 578.072C617.758 563.934 631.049 551.58 645.968 541.436C655.242 534.479 671.24 523.813 674.487 513.378C676.292 505.754 676.292 497.814 674.487 490.19C679.575 494.561 683.348 500.262 685.384 506.654C687.2 512.664 687.597 519.014 686.543 525.204C691.072 513.903 693.583 501.895 693.963 489.727C691.181 470.017 686.08 466.539 676.805 463.293C674.487 463.293 666.139 463.293 666.139 463.293C665.107 460.297 664.699 457.121 664.942 453.962C665.184 450.803 666.072 447.727 667.549 444.924C669.027 442.121 671.063 439.65 673.532 437.665C676.001 435.679 678.851 434.221 681.906 433.38C690.115 429.602 699.445 429.055 708.039 431.848C716.633 434.642 723.859 440.57 728.278 448.452C733.587 457.928 736.079 468.723 735.463 479.567C734.847 490.412 731.148 500.854 724.801 509.668C704.454 532.758 681.052 552.963 655.242 569.725C627.419 588.739 604.696 613.782 608.87 639.288C618.025 673.47 633.778 705.53 655.242 733.663C662.573 742.205 667.247 752.705 668.689 763.869C670.13 775.034 668.277 786.376 663.357 796.501C656.873 805.112 647.415 810.998 636.827 813.013C626.239 815.028 615.28 813.027 606.087 807.4C584.18 785.49 568.22 758.356 559.715 728.561C553.361 710.492 544.376 693.459 533.051 678.012L535.369 566.478L543.485 570.188C544.087 563.551 545.488 557.012 547.658 550.711C551.832 539.349 566.207 520.335 575.018 498.77C580.855 482.075 583.834 464.515 583.829 446.829C587.27 443.764 590.378 440.344 593.103 436.627V426.192L584.06 420.395L601.218 394.193C598.204 392.802 590.553 396.512 590.553 396.512C590.553 396.512 583.365 387.468 578.728 396.512C578.268 397.297 577.999 398.18 577.944 399.088C577.889 399.997 578.048 400.906 578.41 401.741C578.771 402.576 579.324 403.315 580.024 403.897C580.723 404.479 581.55 404.888 582.437 405.091L579.191 409.961L560.642 405.323L559.251 398.599C559.251 398.599 567.598 404.164 569.917 395.584C572.235 387.005 562.729 388.628 562.729 388.628C562.729 388.628 565.511 383.063 557.628 380.976C549.745 378.889 549.977 385.381 549.977 385.381C549.977 385.381 542.093 380.048 540.239 387.7C538.384 395.352 546.731 395.352 546.731 395.352L541.63 400.917L524.24 397.439L522.153 391.178C522.153 391.178 531.892 391.178 530.5 383.526C529.109 375.874 519.603 379.353 519.603 379.353C518.936 377.777 517.729 376.492 516.199 375.727C514.669 374.962 512.916 374.767 511.256 375.179L514.038 403.004L575.25 417.381L568.294 419.931L512.647 406.946L493.634 420.627L495.489 435.235L504.532 446.829L496.88 459.351L525.863 462.365L522.617 469.785C510.569 471.389 498.64 473.79 486.91 476.973C467.815 487.172 449.861 499.376 433.35 513.378C429.287 517.603 426.061 522.56 423.844 527.987L380.718 504.799L378.399 495.987L368.661 498.77L358.459 492.741C364.113 485.753 368.65 477.931 371.907 469.553C373.38 462.277 372.486 454.72 369.356 447.989L365.647 445.67V461.438L355.213 465.379L346.17 486.48L342.692 484.162V401.613H328.317V474.655C328.317 474.655 327.158 472.8 316.956 471.64C310.524 471.17 304.075 472.284 298.175 474.886L294.929 479.06L311.159 481.147L313.941 491.582L328.317 495.524V504.335C325.618 504.076 322.896 504.444 320.362 505.409C317.829 506.374 315.552 507.911 313.71 509.9C307.737 515.18 303.326 521.997 300.957 529.61V533.784C303.508 531.001 308.145 523.349 310.232 523.813C314.275 524.368 318.151 525.792 321.593 527.987L327.158 523.349V635.81C322.678 634.598 317.957 634.598 313.478 635.81C309.985 636.579 306.57 637.665 303.276 639.056L300.957 643.694C300.957 643.694 311.855 640.911 315.796 643.694C319.738 646.476 317.651 649.491 319.274 652.505C320.897 655.52 324.375 655.52 325.534 657.606V675.693L317.187 689.838V697.49L328.317 688.446V727.634H342.692V690.765H348.953L367.27 670.592C367.27 670.592 377.24 670.592 379.79 675.461C382.341 680.331 379.79 684.272 382.109 686.823C383.287 687.551 384.529 688.172 385.819 688.678L479.954 575.753L441.465 622.129L448.885 641.839L466.97 661.78L472.999 698.649L426.626 720.445C423.211 729.841 420.726 739.549 419.207 749.43C415.961 768.212 414.106 782.589 414.106 782.589L417.815 798.125L361.473 792.096L357.531 777.024C362.335 771.135 366.385 764.67 369.588 757.778C372.643 749.55 372.643 740.499 369.588 732.271L365.878 728.097L364.719 745.025L354.981 747.111L352.894 764.502H346.17C343.059 756.977 337.719 750.585 330.867 746.184C323.903 742.018 315.631 740.611 307.681 742.242L305.594 744.793L322.057 749.894L319.506 761.024L338.519 768.908L335.968 773.082L318.579 776.096L316.724 782.125H300.262L301.885 785.139C307.592 789.549 314.613 791.917 321.825 791.864C328.811 792.005 335.704 790.242 341.765 786.763L348.953 804.385L340.142 813.197L342.924 816.443H351.039L413.874 829.66L425.699 839.863L446.334 830.588C446.339 825.088 447.693 819.674 450.276 814.82C452.827 811.11 457.696 804.617 460.942 800.443C460.942 800.443 451.204 783.284 449.581 779.806C445.822 767.344 444.407 754.293 445.407 741.314C447.726 729.952 482.505 700.504 482.505 700.504L492.243 680.562L496.417 682.417L486.678 703.75C471.684 713.545 458.957 726.431 449.349 741.546C448.608 753.374 450.022 765.238 453.522 776.56L463.492 794.646C470.413 803.637 478.177 811.945 486.678 819.457C497.057 827.338 504.684 838.293 508.473 850.761C512.665 871.667 514.454 892.983 513.806 914.296C513.806 922.179 513.806 929.368 513.806 929.368L500.126 932.614C500.126 932.614 489.461 913.368 484.36 911.281C473.462 906.412 464.188 902.702 464.188 902.702L459.551 904.325L471.607 914.064L470.216 928.672L489.229 940.73C484.098 942.805 478.721 944.207 473.23 944.904C461.869 944.904 453.059 963.222 453.059 963.222V967.164L465.347 960.439L476.013 966.236L492.243 952.787L495.489 955.338C493.788 962.395 493.395 969.704 494.33 976.903C496.225 983.787 499.283 990.296 503.373 996.149H508.242L503.604 978.294L513.806 969.483L509.401 953.251L524.008 943.048L537.224 953.483L539.079 951.164C538.479 923.947 540.107 896.726 543.948 869.775C547.302 866.501 549.774 862.434 551.136 857.949C551.963 851.405 551.963 844.783 551.136 838.24C548.257 834.563 546.058 830.401 544.644 825.95C540.897 808.28 539.571 790.182 540.702 772.154C540.702 765.43 540.702 759.401 540.702 753.604C549.805 769.813 560.113 785.316 571.54 799.98C578.663 810.509 588.643 818.785 600.308 823.838C611.972 828.89 624.837 830.508 637.389 828.501C645.392 826.702 652.956 823.325 659.638 818.568C666.32 813.81 671.986 807.767 676.304 800.793C680.622 793.818 683.506 786.052 684.786 777.95C686.067 769.847 685.718 761.57 683.761 753.604C660.575 695.866 664.748 686.359 664.748 686.359L704.629 669.432V666.882H689.789L670.777 664.795H659.647V658.766L716.917 633.259L715.758 630.013L704.86 631.404L681.674 626.303L661.502 630.477L663.589 620.506L727.351 590.826ZM577.568 428.511L582.669 431.062V436.627L576.641 441.96L575.018 435.931L570.612 431.062L577.568 428.511ZM343.156 674.302V658.07C343.156 658.07 353.822 658.07 354.053 663.635C354.285 669.2 343.156 674.302 343.156 674.302ZM379.095 653.201L369.356 646.013V620.506L355.677 597.318H350.807L357.531 611.231L350.807 623.289L356.836 638.824L351.967 643.694L343.388 633.027V506.886L354.749 513.378L350.807 520.798L357.531 525.668L362.864 523.581L415.729 564.623L412.251 577.377L428.481 575.753L379.095 653.201ZM455.841 518.711C448.234 527.876 441.628 537.825 436.133 548.392L431.959 546.305C437.595 534.797 444.772 524.11 453.29 514.538C464.406 511.509 475.855 509.874 487.374 509.668V514.306C476.735 514.637 466.163 516.114 455.841 518.711ZM504.764 420.395L515.197 413.207L548.354 420.395L549.745 425.728C544.373 423.797 538.872 422.247 533.283 421.091C531.66 427.12 529.341 427.815 527.95 428.279C524.99 429.088 521.867 429.088 518.907 428.279C514.966 426.424 514.966 419.236 514.966 419.236C511.993 420.145 509.233 421.644 506.85 423.641L504.764 420.395ZM510.328 448.22L508.473 440.105L531.66 442.887L533.515 451.003L510.328 448.22Z" fill="#1D1D1B"/>
<path d="M887.103 352.687H856.266L876.206 296.34L837.021 189.908L798.764 296.34L818.704 352.687H786.707V354.774C786.088 354.954 785.537 355.316 785.124 355.811C784.711 356.307 784.455 356.914 784.388 357.556V380.744V413.903V924.034V957.193V980.381C784.443 981.224 784.803 982.018 785.4 982.616C785.997 983.213 786.792 983.573 787.635 983.627H821.486V1043.22C806.135 1045.13 792.002 1052.56 781.722 1064.12C771.441 1075.68 765.714 1090.59 765.608 1106.06V1115.57H224.442V1106.06C224.351 1090.72 218.714 1075.93 208.571 1064.42C198.428 1052.92 184.465 1045.47 169.259 1043.45V984.555H203.111C203.591 984.66 204.089 984.655 204.567 984.54C205.046 984.425 205.491 984.203 205.871 983.89C206.251 983.577 206.554 983.182 206.759 982.735C206.964 982.288 207.064 981.8 207.053 981.308V357.556C207.006 356.749 206.679 355.983 206.129 355.391C205.579 354.799 204.84 354.416 204.038 354.31V352.687H172.505L192.445 296.572L154.188 189.908L115.931 296.572L136.103 352.687H103.874C75.1946 354.536 48.3486 367.432 28.978 388.663C9.60736 409.894 -0.779647 437.808 -0.000107408 466.539C-0.670462 494.671 9.29485 522.02 27.9057 543.125C46.5166 564.231 72.4033 577.538 100.396 580.391V987.801H137.494V1068.03H165.317C174.931 1069.06 183.824 1073.61 190.287 1080.8C196.75 1087.99 200.326 1097.32 200.329 1106.99V1142H789.953V1106.99C789.798 1101.98 790.648 1096.99 792.452 1092.31C794.255 1087.63 796.977 1083.36 800.455 1079.75C803.934 1076.15 808.1 1073.27 812.708 1071.3C817.315 1069.32 822.271 1068.29 827.283 1068.26H853.251V987.801H890.813V580.623C918.848 577.825 944.791 564.541 963.45 543.43C982.109 522.319 992.106 494.939 991.441 466.771C992.218 437.941 981.774 409.936 962.311 388.655C942.848 367.374 915.886 354.479 887.103 352.687ZM101.787 570.42C93.241 568.703 85.6025 563.956 80.2773 557.054C74.952 550.152 72.2984 541.559 72.8045 532.856C72.5621 524.291 75.329 515.912 80.6242 509.176C85.9194 502.44 93.4078 497.774 101.787 495.987V570.42ZM101.787 490.422C91.8186 492.173 82.7902 497.393 76.2983 505.158C69.8064 512.923 66.2693 522.734 66.3124 532.856C66.2763 538.967 67.492 545.02 69.8846 550.643C72.2772 556.266 75.796 561.34 80.2241 565.551C59.7808 558.119 42.12 544.574 29.64 526.757C17.16 508.94 10.4654 487.713 10.4654 465.959C10.4654 444.205 17.16 422.979 29.64 405.161C42.12 387.344 59.7808 373.8 80.2241 366.367C75.8931 370.531 72.4644 375.541 70.151 381.085C67.8376 386.63 66.6888 392.591 66.7761 398.599C66.5283 409.007 70.0538 419.154 76.7018 427.166C83.3499 435.178 92.6716 440.515 102.947 442.192L101.787 490.422ZM101.787 380.048V436.627C93.2392 434.978 85.5577 430.338 80.1193 423.54C74.6809 416.741 71.8412 408.228 72.1089 399.526C71.9098 391.556 74.2829 383.735 78.8767 377.219C83.4705 370.704 90.0406 365.842 97.6137 363.353H101.787V380.048ZM199.865 883.92L169.955 841.254L199.865 797.661V883.92ZM153.492 474.191L111.757 413.439H196.155L153.492 474.191ZM199.865 420.395V441.96L165.781 491.118L157.898 479.988L199.865 420.395ZM199.865 550.015V573.203L109.439 443.815V420.627L199.865 550.015ZM199.865 593.84V615.405L165.781 664.795L157.898 653.665L199.865 593.84ZM199.865 583.637L153.956 648.795L110.134 584.565V582.71L153.956 519.407L199.865 583.637ZM199.865 722.764V745.952L110.134 619.115V595.927L199.865 722.764ZM199.865 764.966V786.763L165.781 835.689L158.13 824.559L199.865 764.966ZM153.492 818.066L110.134 756.387L153.956 693.084L198.01 756.387L153.492 818.066ZM137.494 670.592L110.134 712.098V629.549L137.494 670.592ZM141.436 676.157L149.087 687.287L110.134 744.793V722.764L141.436 676.157ZM198.242 893.427V916.614L110.134 790.936V767.749L198.242 893.427ZM195.228 923.803H111.757L153.956 863.978L195.228 923.803ZM137.494 841.254L110.134 882.065V801.371L137.494 841.254ZM141.436 847.051L149.319 858.181L110.134 914.991V891.803L141.436 847.051ZM199.169 930.295V950.237H110.134V929.831L199.169 930.295ZM199.169 713.953L169.027 670.36L199.865 625.607L199.169 713.953ZM199.169 540.508L169.027 496.915L199.169 452.394V540.508ZM156.738 352.687V300.978H179.925L161.144 353.846L156.738 352.687ZM156.738 227.472L179.925 293.326H156.738V227.472ZM150.014 227.472V292.398H126.828L150.014 227.472ZM127.524 300.978H150.71V353.846H146.537L127.524 300.978ZM108.279 363.585H199.865V381.208H108.279V363.585ZM108.279 386.773H199.865V407.178H108.279V386.773ZM108.279 453.786L137.494 496.915L107.352 540.972L108.279 453.786ZM108.279 571.116V551.87L142.363 502.712L150.014 513.842L109.439 572.507L108.279 571.116ZM162.071 1058.06H147.696V984.555H162.767L162.071 1058.06ZM142.595 978.062H110.134V957.193H199.865V978.062H142.595ZM821.486 1058.99C809.955 1060.62 799.41 1066.39 791.817 1075.22C784.224 1084.05 780.1 1095.34 780.215 1106.99V1132.26H210.299V1106.99C210.285 1095.39 206.151 1084.17 198.634 1075.33C191.117 1066.5 180.706 1060.62 169.259 1058.76V1050.87C182.74 1052.87 195.061 1059.62 203.992 1069.91C212.924 1080.21 217.875 1093.36 217.95 1106.99V1119.74C217.95 1120.17 218.034 1120.59 218.197 1120.98C218.36 1121.38 218.599 1121.73 218.901 1122.04C219.202 1122.34 219.56 1122.58 219.954 1122.74C220.348 1122.9 220.77 1122.99 221.196 1122.99H768.854C769.28 1122.99 769.702 1122.9 770.096 1122.74C770.49 1122.58 770.848 1122.34 771.149 1122.04C771.45 1121.73 771.69 1121.38 771.853 1120.98C772.016 1120.59 772.1 1120.17 772.1 1119.74V1106.99C772.199 1093.25 777.248 1080.02 786.321 1069.71C795.393 1059.4 807.879 1052.71 821.486 1050.87V1058.99ZM840.035 352.687V299.587H863.221L844.441 352.687H840.035ZM840.035 227.472L863.221 293.094H840.035V227.472ZM833.543 227.472V292.166H809.893L833.543 227.472ZM810.357 298.659H833.543V351.759H829.138L810.357 298.659ZM791.344 452.394L821.486 495.987L791.344 540.276V452.394ZM825.428 501.552L833.079 512.683L791.344 573.435V551.87L825.428 501.552ZM791.344 625.839L821.486 669.432L791.344 713.721V625.839ZM791.344 745.952V725.315L825.428 676.157L833.079 687.287L791.344 745.952ZM837.717 691.924L881.539 755.459L837.717 817.834L793.895 755.459L837.717 691.924ZM791.344 797.661L821.255 840.558L791.344 884.152V797.661ZM791.344 916.383V894.586L825.196 846.123L833.079 857.485L791.344 916.383ZM837.717 863.051L879.452 923.803H794.822L837.717 863.051ZM844.441 1057.36H829.138V984.555H844.441V1057.36ZM882.002 977.135H791.112V956.266H881.075L882.002 977.135ZM882.002 949.773H791.112V929.368H881.075L882.002 949.773ZM882.002 914.759L792.504 788.154V764.734L882.002 891.34V914.759ZM882.002 880.905L853.483 840.558L882.002 799.284V880.905ZM882.002 788.154L849.542 834.53L841.658 823.399L882.002 766.126V788.154ZM882.002 743.865L792.504 615.868V592.681L882.002 720.677V743.865ZM882.002 710.243L853.251 668.969L882.002 626.999V710.243ZM882.002 616.332L849.31 662.708L841.658 651.809L882.002 593.608V616.332ZM882.002 582.71L836.789 648.795L792.272 584.565L836.789 520.335L881.075 584.101L882.002 582.71ZM882.002 569.725L792.504 441.728V418.54L882.93 547.928L882.002 569.725ZM794.59 411.816H879.452L837.253 472.8L794.59 411.816ZM882.466 538.653L852.324 495.524L882.466 451.235V538.653ZM882.466 440.8L848.382 491.118L840.731 479.988L882.234 420.163V442.192L882.466 440.8ZM882.466 405.323H791.112V385.15H882.466V405.323ZM882.466 378.657H791.112V361.034H882.466V378.657ZM888.958 411.816V362.657H893.827C901.636 365.431 908.325 370.68 912.876 377.605C917.427 384.53 919.592 392.753 919.041 401.022C918.49 409.29 915.253 417.153 909.822 423.412C904.392 429.672 897.066 433.986 888.958 435.699V411.816ZM893.363 568.333H888.958V496.915C896.954 498.759 904.139 503.141 909.44 509.406C914.741 515.67 917.873 523.482 918.369 531.673C918.864 539.865 916.697 547.997 912.19 554.855C907.683 561.713 901.079 566.93 893.363 569.725V568.333ZM911.681 564.623C920.337 556.27 925.408 544.879 925.824 532.856C926.023 522.46 922.48 512.338 915.841 504.336C909.201 496.334 899.908 490.985 889.654 489.263V442.887C899.867 441.171 909.13 435.855 915.764 427.902C922.399 419.949 925.967 409.883 925.824 399.526C925.712 387.44 920.887 375.876 912.376 367.295C932.765 374.717 950.378 388.232 962.823 406.007C975.268 423.782 981.944 444.956 981.944 466.655C981.944 488.354 975.268 509.528 962.823 527.303C950.378 545.078 932.765 558.593 912.376 566.015L911.681 564.623Z" fill="#1D1D1B"/>
<path d="M348.024 1008.9H320.896C320.036 1008.9 319.21 1008.56 318.601 1007.95C317.992 1007.34 317.65 1006.52 317.65 1005.66V978.294C317.65 977.433 317.992 976.607 318.601 975.998C319.21 975.39 320.036 975.048 320.896 975.048H348.024C348.885 975.048 349.711 975.39 350.32 975.998C350.928 976.607 351.27 977.433 351.27 978.294V1005.66C351.27 1006.52 350.928 1007.34 350.32 1007.95C349.711 1008.56 348.885 1008.9 348.024 1008.9ZM324.838 1002.41H345.474V981.54H324.838V1002.41Z" fill="#1D1D1B"/>
<path d="M428.248 1086.35H400.889C400.028 1086.35 399.202 1086.01 398.593 1085.4C397.985 1084.79 397.643 1083.96 397.643 1083.1V1055.74C397.643 1054.88 397.985 1054.05 398.593 1053.45C399.202 1052.84 400.028 1052.49 400.889 1052.49H428.248C429.091 1052.55 429.886 1052.91 430.483 1053.51C431.08 1054.1 431.44 1054.9 431.494 1055.74V1083.1C431.494 1083.96 431.152 1084.79 430.544 1085.4C429.935 1086.01 429.109 1086.35 428.248 1086.35ZM405.062 1079.86H425.93V1058.99H405.062V1079.86Z" fill="#1D1D1B"/>
<path d="M267.801 930.991H240.673C240.247 930.991 239.824 930.907 239.431 930.744C239.037 930.581 238.679 930.341 238.377 930.04C238.076 929.739 237.837 929.381 237.674 928.987C237.511 928.593 237.427 928.171 237.427 927.745V900.615C237.427 899.754 237.769 898.928 238.377 898.319C238.986 897.711 239.812 897.369 240.673 897.369H267.801C268.662 897.369 269.487 897.711 270.096 898.319C270.705 898.928 271.047 899.754 271.047 900.615V927.049C271.047 927.91 270.705 928.736 270.096 929.344C269.487 929.953 268.662 930.295 267.801 930.295V930.991ZM244.614 924.498H265.25V903.861H244.614V924.498Z" fill="#1D1D1B"/>
<path d="M268.033 1086.35H240.673C239.812 1086.35 238.986 1086.01 238.377 1085.4C237.769 1084.79 237.427 1083.96 237.427 1083.1V1055.74C237.427 1054.88 237.769 1054.05 238.377 1053.45C238.986 1052.84 239.812 1052.49 240.673 1052.49H268.033C268.876 1052.55 269.67 1052.91 270.267 1053.51C270.865 1054.1 271.224 1054.9 271.279 1055.74V1083.1C271.279 1083.96 270.937 1084.79 270.328 1085.4C269.719 1086.01 268.893 1086.35 268.033 1086.35ZM244.846 1079.86H265.714V1058.99H244.846V1079.86Z" fill="#1D1D1B"/>
<path d="M588.002 1086.35H560.874C560.013 1086.35 559.187 1086.01 558.579 1085.4C557.97 1084.79 557.628 1083.96 557.628 1083.1V1055.74C557.628 1054.88 557.97 1054.05 558.579 1053.45C559.187 1052.84 560.013 1052.49 560.874 1052.49H588.002C588.863 1052.49 589.688 1052.84 590.297 1053.45C590.906 1054.05 591.248 1054.88 591.248 1055.74V1083.1C591.248 1083.96 590.906 1084.79 590.297 1085.4C589.688 1086.01 588.863 1086.35 588.002 1086.35ZM564.816 1079.86H585.451V1058.99H564.12V1079.86H564.816Z" fill="#1D1D1B"/>
<path d="M668.226 1008.9H640.866C640.005 1008.9 639.18 1008.56 638.571 1007.95C637.962 1007.34 637.62 1006.52 637.62 1005.66V978.294C637.62 977.433 637.962 976.607 638.571 975.998C639.18 975.39 640.005 975.048 640.866 975.048H668.226C669.087 975.048 669.912 975.39 670.521 975.998C671.13 976.607 671.472 977.433 671.472 978.294V1005.66C671.417 1006.5 671.058 1007.29 670.461 1007.89C669.863 1008.49 669.069 1008.85 668.226 1008.9ZM645.04 1002.41H665.907V981.54H645.04V1002.41Z" fill="#1D1D1B"/>
<path d="M748.45 930.991H721.09C720.545 931.128 719.974 931.122 719.433 930.973C718.891 930.823 718.398 930.536 718.001 930.139C717.603 929.741 717.316 929.248 717.167 928.706C717.017 928.165 717.011 927.594 717.148 927.049V900.615C717.148 899.754 717.49 898.928 718.099 898.319C718.708 897.711 719.534 897.369 720.395 897.369H747.754C748.615 897.369 749.441 897.711 750.05 898.319C750.658 898.928 751 899.754 751 900.615V927.049C751 927.91 750.658 928.736 750.05 929.344C749.441 929.953 748.615 930.295 747.754 930.295L748.45 930.991ZM725.264 924.498H745.899V903.861H725.264V924.498Z" fill="#1D1D1B"/>
<path d="M748.218 1086.35H721.09C720.229 1086.35 719.404 1086.01 718.795 1085.4C718.186 1084.79 717.844 1083.96 717.844 1083.1V1055.74C717.844 1054.88 718.186 1054.05 718.795 1053.45C719.404 1052.84 720.229 1052.49 721.09 1052.49H748.218C749.079 1052.49 749.905 1052.84 750.513 1053.45C751.122 1054.05 751.464 1054.88 751.464 1055.74V1083.1C751.464 1083.96 751.122 1084.79 750.513 1085.4C749.905 1086.01 749.079 1086.35 748.218 1086.35ZM725.032 1079.86H745.668V1058.99H725.032V1079.86Z" fill="#1D1D1B"/>
<path d="M263.627 743.865C263.393 743.254 262.981 742.728 262.443 742.355C261.905 741.983 261.267 741.782 260.613 741.778H240.673C239.812 741.778 238.986 742.12 238.377 742.729C237.769 743.338 237.427 744.164 237.427 745.025V772.386C237.427 773.247 237.769 774.073 238.377 774.682C238.986 775.29 239.812 775.632 240.673 775.632H267.801C268.662 775.632 269.487 775.29 270.096 774.682C270.705 774.073 271.047 773.247 271.047 772.386V759.401C268.496 754.3 265.946 749.198 263.627 743.865ZM263.627 769.14H242.991V748.271H257.599C259.382 752.55 261.394 756.73 263.627 760.792V769.14Z" fill="#1D1D1B"/>
<path d="M748.45 741.546H729.437C728.775 741.514 728.121 741.702 727.577 742.079C727.032 742.456 726.626 743.002 726.423 743.633L717.844 762.879V772.154C717.844 772.581 717.928 773.003 718.091 773.397C718.254 773.791 718.494 774.148 718.795 774.45C719.096 774.751 719.454 774.99 719.848 775.154C720.242 775.317 720.664 775.401 721.09 775.401H748.45C748.876 775.401 749.298 775.317 749.692 775.154C750.086 774.99 750.444 774.751 750.745 774.45C751.047 774.148 751.286 773.791 751.449 773.397C751.612 773.003 751.696 772.581 751.696 772.154V745.025C751.698 744.141 751.364 743.29 750.761 742.644C750.158 741.998 749.332 741.605 748.45 741.546ZM744.972 768.908H724.104V764.734C726.655 759.401 729.205 753.836 731.524 748.271H744.972V768.908Z" fill="#1D1D1B"/>
<path d="M376.775 927.049V916.383C376.994 915.625 376.994 914.821 376.775 914.064L362.4 897.832C361.734 897.127 360.818 896.711 359.849 896.673H357.067L353.357 892.267V887.63C353.557 886.948 353.557 886.224 353.357 885.543L343.155 873.021C342.922 872.557 342.553 872.176 342.097 871.927C341.642 871.678 341.121 871.575 340.605 871.63H322.983C322.122 871.63 321.297 871.972 320.688 872.581C320.079 873.19 319.737 874.015 319.737 874.876V895.977H298.638C297.777 895.977 296.951 896.319 296.342 896.928C295.734 897.537 295.392 898.363 295.392 899.223V927.049C295.392 927.91 295.734 928.736 296.342 929.344C296.951 929.953 297.777 930.295 298.638 930.295H319.737V950.237C319.737 951.098 320.079 951.923 320.688 952.532C321.297 953.141 322.122 953.483 322.983 953.483H350.111C350.972 953.483 351.798 953.141 352.406 952.532C353.015 951.923 353.357 951.098 353.357 950.237V929.136H374.456C374.987 929.011 375.478 928.754 375.883 928.389C376.288 928.024 376.595 927.563 376.775 927.049ZM369.356 923.107H348.488C347.66 923.325 346.951 923.862 346.517 924.6C346.082 925.339 345.958 926.219 346.169 927.049V948.15H325.302V927.049C325.247 926.206 324.888 925.411 324.29 924.814C323.693 924.217 322.899 923.857 322.056 923.803H300.956V903.165H322.983C323.844 903.165 324.67 902.823 325.278 902.215C325.887 901.606 326.229 900.78 326.229 899.919V878.818H338.286C341.068 882.528 344.083 886.006 346.865 889.485V899.919C346.865 900.78 347.207 901.606 347.816 902.215C348.424 902.823 349.25 903.165 350.111 903.165H358.458C362.632 908.267 366.805 912.904 370.979 917.542L369.356 923.107Z" fill="#1D1D1B"/>
<path d="M438.914 973.425C438.586 973.277 438.23 973.201 437.871 973.201C437.511 973.201 437.155 973.277 436.827 973.425H432.886V970.642C433.187 969.819 433.187 968.915 432.886 968.091C426.625 962.526 420.133 956.729 413.409 950.237C412.733 950.007 411.999 950.007 411.323 950.237H401.816C400.955 950.237 400.13 950.579 399.521 951.188C398.912 951.796 398.57 952.622 398.57 953.483V973.425H377.703C376.819 973.423 375.968 973.757 375.322 974.36C374.676 974.963 374.284 975.789 374.225 976.671V1004.03C374.284 1004.91 374.676 1005.74 375.322 1006.34C375.968 1006.95 376.819 1007.28 377.703 1007.28H398.57V1028.15C398.57 1029.01 398.912 1029.83 399.521 1030.44C400.13 1031.05 400.955 1031.39 401.816 1031.39H429.176C430.037 1031.39 430.862 1031.05 431.471 1030.44C432.08 1029.83 432.422 1029.01 432.422 1028.15V1007.28H453.29C454.15 1007.28 454.976 1006.94 455.585 1006.33C456.194 1005.72 456.536 1004.89 456.536 1004.03V990.815C456.497 989.846 456.081 988.931 455.376 988.265L438.914 973.425ZM450.507 999.627H429.64C428.758 999.686 427.932 1000.08 427.329 1000.72C426.726 1001.37 426.392 1002.22 426.394 1003.1V1023.97H405.526V1003.1C405.528 1002.22 405.194 1001.37 404.591 1000.72C403.988 1000.08 403.162 999.686 402.28 999.627H381.412V978.99H402.28C403.141 978.99 403.966 978.648 404.575 978.039C405.184 977.43 405.526 976.604 405.526 975.743V954.874H408.772L426.394 970.874V975.743C426.394 976.604 426.736 977.43 427.344 978.039C427.953 978.648 428.779 978.99 429.64 978.99H435.668C440.769 983.627 445.87 987.569 450.507 991.511V999.627Z" fill="#1D1D1B"/>
<path d="M238.818 720.677C238.818 721.104 238.902 721.526 239.065 721.92C239.228 722.313 239.467 722.671 239.769 722.973C240.07 723.274 240.428 723.513 240.822 723.677C241.216 723.84 241.638 723.924 242.064 723.924H251.107C251.65 723.943 252.189 723.826 252.675 723.583C253.162 723.34 253.579 722.979 253.889 722.532C254.115 722.062 254.233 721.547 254.233 721.025C254.233 720.503 254.115 719.988 253.889 719.518C249.02 704.91 244.383 687.751 239.977 668.505C239.866 667.788 239.5 667.136 238.946 666.667C238.392 666.199 237.688 665.945 236.963 665.954H217.719C216.858 665.954 216.032 666.296 215.423 666.905C214.815 667.514 214.473 668.339 214.473 669.2V696.33C214.473 697.191 214.815 698.017 215.423 698.626C216.032 699.234 216.858 699.576 217.719 699.576H238.818V720.677ZM220.965 693.084V671.983H234.413C236.036 679.171 237.891 686.127 239.514 692.62L220.965 693.084Z" fill="#1D1D1B"/>
<path d="M613.043 973.425H592.175V952.555C592.175 951.695 591.833 950.869 591.225 950.26C590.616 949.651 589.79 949.309 588.929 949.309H580.582C579.832 949.044 579.014 949.044 578.264 949.309C571.771 955.57 565.511 961.367 559.483 966.468C559.16 967.288 559.16 968.199 559.483 969.019V973.425H558.323H554.846C554.517 973.277 554.162 973.201 553.802 973.201C553.443 973.201 553.087 973.277 552.759 973.425L536.528 986.874C535.823 987.54 535.407 988.455 535.369 989.424V1003.1C535.369 1003.97 535.711 1004.79 536.32 1005.4C536.929 1006.01 537.754 1006.35 538.615 1006.35H559.715V1027.22C559.715 1028.08 560.057 1028.91 560.665 1029.52C561.274 1030.12 562.1 1030.47 562.961 1030.47H590.089C590.949 1030.47 591.775 1030.12 592.384 1029.52C592.993 1028.91 593.335 1028.08 593.335 1027.22V1006.35H614.202C615.063 1006.35 615.889 1006.01 616.497 1005.4C617.106 1004.79 617.448 1003.97 617.448 1003.1V976.671C617.485 976.127 617.383 975.582 617.154 975.088C616.924 974.593 616.574 974.164 616.135 973.841C615.696 973.517 615.183 973.309 614.642 973.237C614.102 973.164 613.552 973.229 613.043 973.425ZM609.797 1000.55H588.929C588.048 1000.61 587.221 1001.01 586.619 1001.65C586.016 1002.3 585.681 1003.15 585.683 1004.03V1024.9H565.047V1004.03C565.049 1003.15 564.715 1002.3 564.112 1001.65C563.509 1001.01 562.683 1000.61 561.801 1000.55H540.702V991.975C545.107 988.265 549.976 984.323 554.846 979.917H561.801C562.662 979.917 563.488 979.575 564.097 978.966C564.705 978.358 565.047 977.532 565.047 976.671V971.106C570.38 966.468 575.945 961.135 581.742 955.802H585.683V976.671C585.683 977.532 586.025 978.358 586.634 978.966C587.243 979.575 588.068 979.917 588.929 979.917H609.797V1000.55Z" fill="#1D1D1B"/>
<path d="M693.962 895.977H673.095V874.876C673.036 873.995 672.643 873.168 671.997 872.565C671.351 871.963 670.5 871.628 669.617 871.63H651.995C651.487 871.628 650.987 871.755 650.541 871.998C650.095 872.241 649.718 872.593 649.445 873.021L639.938 884.847C639.705 885.444 639.705 886.106 639.938 886.702V890.644L635.533 895.977H632.751C631.782 896.016 630.866 896.432 630.2 897.137L616.52 912.673C616.344 913.357 616.344 914.075 616.52 914.759V927.049C616.52 927.91 616.862 928.736 617.471 929.344C618.08 929.953 618.905 930.295 619.766 930.295H640.866V950.237C640.866 951.098 641.208 951.923 641.816 952.532C642.425 953.141 643.251 953.483 644.112 953.483H671.24C672.123 953.485 672.974 953.151 673.62 952.548C674.266 951.945 674.659 951.118 674.718 950.237V929.136H693.962C694.493 929.011 694.983 928.754 695.388 928.389C695.794 928.024 696.101 927.564 696.281 927.049V899.224C696.311 898.502 696.099 897.79 695.679 897.202C695.259 896.614 694.655 896.183 693.962 895.977ZM690.716 923.107H669.617C668.774 923.162 667.979 923.521 667.382 924.118C666.785 924.716 666.425 925.51 666.371 926.353V947.454H645.735V927.049C645.735 926.188 645.393 925.362 644.784 924.753C644.175 924.145 643.35 923.803 642.489 923.803H621.621V916.846L633.446 903.166H642.489C643.35 903.166 644.175 902.823 644.784 902.215C645.393 901.606 645.735 900.78 645.735 899.919V888.557C648.285 885.543 651.068 882.296 653.618 878.818H666.371V899.919C666.371 900.78 666.713 901.606 667.321 902.215C667.93 902.823 668.756 903.166 669.617 903.166H690.716V923.107Z" fill="#1D1D1B"/>
<path d="M773.027 665.954H752.855C752.142 665.989 751.461 666.257 750.916 666.718C750.371 667.179 749.993 667.807 749.841 668.505C746.081 685.836 741.36 702.944 735.697 719.75C735.337 720.642 735.337 721.64 735.697 722.532C736.008 722.979 736.425 723.34 736.911 723.583C737.397 723.826 737.937 723.943 738.48 723.924H748.218C749.079 723.924 749.905 723.582 750.513 722.973C751.122 722.364 751.464 721.538 751.464 720.677V699.808H772.564C773.424 699.808 774.25 699.466 774.859 698.857C775.468 698.249 775.81 697.423 775.81 696.562V669.2C775.818 668.414 775.54 667.652 775.028 667.054C774.517 666.457 773.806 666.066 773.027 665.954ZM769.781 693.316H750.537C752.16 686.591 754.015 679.635 755.638 672.447H769.781V693.316Z" fill="#1D1D1B"/>
<path d="M217.719 852.152H238.818V873.021C238.818 873.882 239.16 874.708 239.769 875.317C240.378 875.926 241.203 876.268 242.064 876.268H269.192C270.053 876.268 270.879 875.926 271.487 875.317C272.096 874.708 272.438 873.882 272.438 873.021V852.152H293.538C294.419 852.093 295.245 851.701 295.848 851.055C296.451 850.409 296.786 849.558 296.784 848.674V821.544C296.784 820.683 296.442 819.858 295.833 819.249C295.224 818.64 294.398 818.298 293.538 818.298H272.438V797.429C272.44 796.545 272.106 795.694 271.503 795.048C270.9 794.402 270.074 794.01 269.192 793.951H242.064C241.183 794.01 240.356 794.402 239.754 795.048C239.151 795.694 238.816 796.545 238.818 797.429V818.298H217.719C216.858 818.298 216.032 818.64 215.423 819.249C214.815 819.858 214.473 820.683 214.473 821.544V848.674C214.471 849.558 214.805 850.409 215.408 851.055C216.011 851.701 216.837 852.093 217.719 852.152ZM220.965 824.791H242.064C242.925 824.791 243.751 824.449 244.36 823.84C244.968 823.231 245.31 822.405 245.31 821.544V800.675H265.946V821.544C265.946 822.405 266.288 823.231 266.897 823.84C267.506 824.449 268.331 824.791 269.192 824.791H290.291V845.66H269.192C268.777 845.628 268.36 845.682 267.967 845.819C267.574 845.956 267.214 846.173 266.909 846.456C266.604 846.739 266.361 847.083 266.195 847.464C266.03 847.846 265.945 848.258 265.946 848.674V869.775H245.31V848.674C245.312 848.258 245.227 847.846 245.061 847.464C244.895 847.083 244.652 846.739 244.347 846.456C244.042 846.173 243.682 845.956 243.289 845.819C242.896 845.682 242.479 845.628 242.064 845.66H220.965V824.791Z" fill="#1D1D1B"/>
<path d="M217.719 1007.28H238.818V1028.15C238.818 1029.01 239.16 1029.83 239.769 1030.44C240.378 1031.05 241.203 1031.39 242.064 1031.39H269.192C270.053 1031.39 270.879 1031.05 271.487 1030.44C272.096 1029.83 272.438 1029.01 272.438 1028.15V1007.28H293.538C294.398 1007.28 295.224 1006.94 295.833 1006.33C296.442 1005.72 296.784 1004.89 296.784 1004.03V976.671C296.784 975.81 296.442 974.984 295.833 974.375C295.224 973.767 294.398 973.425 293.538 973.425H272.438V952.555C272.438 951.695 272.096 950.869 271.487 950.26C270.879 949.651 270.053 949.309 269.192 949.309H242.064C241.638 949.309 241.216 949.393 240.822 949.556C240.428 949.719 240.07 949.959 239.769 950.26C239.467 950.561 239.228 950.919 239.065 951.313C238.902 951.707 238.818 952.129 238.818 952.555V973.425H217.719C216.876 973.479 216.081 973.839 215.484 974.436C214.887 975.033 214.527 975.828 214.473 976.671V1004.03C214.527 1004.88 214.887 1005.67 215.484 1006.27C216.081 1006.86 216.876 1007.22 217.719 1007.28ZM220.965 979.917H242.064C242.925 979.917 243.751 979.575 244.36 978.966C244.968 978.358 245.31 977.532 245.31 976.671V955.802H265.946V976.671C265.946 977.532 266.288 978.358 266.897 978.966C267.505 979.575 268.331 979.917 269.192 979.917H290.291V1000.55H269.192C268.31 1000.61 267.484 1001.01 266.881 1001.65C266.278 1002.3 265.944 1003.15 265.946 1004.03V1024.9H245.31V1004.03C245.312 1003.15 244.978 1002.3 244.375 1001.65C243.772 1001.01 242.946 1000.61 242.064 1000.55H220.965V979.917Z" fill="#1D1D1B"/>
<path d="M617.216 1084.49H638.315V1105.36C638.313 1106.25 638.648 1107.1 639.251 1107.74C639.853 1108.39 640.68 1108.78 641.561 1108.84H668.689C669.612 1108.84 670.496 1108.47 671.148 1107.82C671.801 1107.17 672.167 1106.29 672.167 1105.36V1084.49H693.962C694.823 1084.49 695.649 1084.15 696.257 1083.54C696.866 1082.93 697.208 1082.11 697.208 1081.25V1054.12C697.208 1053.26 696.866 1052.43 696.257 1051.82C695.649 1051.21 694.823 1050.87 693.962 1050.87H673.095V1029.77C673.036 1028.89 672.643 1028.06 671.997 1027.46C671.351 1026.86 670.5 1026.52 669.617 1026.52H641.561C640.7 1026.52 639.875 1026.87 639.266 1027.48C638.657 1028.08 638.315 1028.91 638.315 1029.77V1050.87H617.216C616.355 1050.87 615.529 1051.21 614.921 1051.82C614.312 1052.43 613.97 1053.26 613.97 1054.12V1081.25C613.97 1081.67 614.054 1082.1 614.217 1082.49C614.38 1082.88 614.619 1083.24 614.921 1083.54C615.222 1083.84 615.58 1084.08 615.974 1084.25C616.367 1084.41 616.79 1084.49 617.216 1084.49ZM620.694 1057.36H641.561C642.422 1057.36 643.248 1057.02 643.857 1056.41C644.465 1055.8 644.807 1054.98 644.807 1054.12V1033.02H665.443V1054.12C665.498 1054.96 665.857 1055.76 666.454 1056.35C667.052 1056.95 667.846 1057.31 668.689 1057.36H689.789V1078H668.689C667.828 1078 667.003 1078.34 666.394 1078.95C665.785 1079.56 665.443 1080.39 665.443 1081.25V1102.12H644.807V1081.25C644.807 1080.39 644.465 1079.56 643.857 1078.95C643.248 1078.34 642.422 1078 641.561 1078H620.694V1057.36Z" fill="#1D1D1B"/>
<path d="M457.464 1084.49H478.563V1105.36C478.561 1106.25 478.896 1107.1 479.499 1107.74C480.102 1108.39 480.928 1108.78 481.809 1108.84H508.473C509.355 1108.78 510.181 1108.39 510.784 1107.74C511.387 1107.1 511.721 1106.25 511.719 1105.36V1084.49H532.819C533.68 1084.49 534.505 1084.15 535.114 1083.54C535.723 1082.93 536.065 1082.11 536.065 1081.25V1054.12C536.065 1053.26 535.723 1052.43 535.114 1051.82C534.505 1051.21 533.68 1050.87 532.819 1050.87H511.719V1029.77C511.719 1028.91 511.378 1028.08 510.769 1027.48C510.16 1026.87 509.334 1026.52 508.473 1026.52H481.809C480.948 1026.52 480.123 1026.87 479.514 1027.48C478.905 1028.08 478.563 1028.91 478.563 1029.77V1050.87H457.464C456.603 1050.87 455.777 1051.21 455.169 1051.82C454.56 1052.43 454.218 1053.26 454.218 1054.12V1081.25C454.218 1082.11 454.56 1082.93 455.169 1083.54C455.777 1084.15 456.603 1084.49 457.464 1084.49ZM460.71 1057.36H481.809C482.236 1057.36 482.658 1057.28 483.052 1057.12C483.445 1056.95 483.803 1056.72 484.105 1056.41C484.406 1056.11 484.645 1055.75 484.808 1055.36C484.971 1054.97 485.055 1054.54 485.055 1054.12V1033.02H505.691V1054.12C505.691 1054.98 506.033 1055.8 506.642 1056.41C507.251 1057.02 508.076 1057.36 508.937 1057.36H530.037V1078H508.473C507.613 1078 506.787 1078.34 506.178 1078.95C505.569 1079.56 505.227 1080.39 505.227 1081.25V1102.12H485.287V1081.25C485.287 1080.82 485.203 1080.4 485.04 1080.01C484.877 1079.61 484.638 1079.25 484.337 1078.95C484.035 1078.65 483.677 1078.41 483.283 1078.25C482.89 1078.09 482.467 1078 482.041 1078H460.942L460.71 1057.36Z" fill="#1D1D1B"/>
<path d="M294.465 1054.12V1081.25C294.465 1082.11 294.807 1082.93 295.416 1083.54C296.024 1084.15 296.85 1084.49 297.711 1084.49H318.81V1105.36C318.808 1106.25 319.143 1107.1 319.746 1107.74C320.349 1108.39 321.175 1108.78 322.056 1108.84H349.184C350.066 1108.78 350.892 1108.39 351.495 1107.74C352.098 1107.1 352.432 1106.25 352.43 1105.36V1084.49H373.53C374.391 1084.49 375.216 1084.15 375.825 1083.54C376.434 1082.93 376.776 1082.11 376.776 1081.25V1054.12C376.776 1053.26 376.434 1052.43 375.825 1051.82C375.216 1051.21 374.391 1050.87 373.53 1050.87H352.43V1029.77C352.43 1028.91 352.088 1028.08 351.479 1027.48C350.871 1026.87 350.045 1026.52 349.184 1026.52H322.984C322.123 1026.52 321.297 1026.87 320.688 1027.48C320.08 1028.08 319.738 1028.91 319.738 1029.77V1050.87H298.638C298.143 1050.72 297.619 1050.7 297.11 1050.79C296.602 1050.89 296.123 1051.1 295.715 1051.42C295.307 1051.74 294.98 1052.15 294.763 1052.62C294.545 1053.09 294.443 1053.6 294.465 1054.12ZM300.957 1057.36H322.984C323.827 1057.31 324.621 1056.95 325.218 1056.35C325.816 1055.76 326.175 1054.96 326.23 1054.12V1033.02H346.17V1054.12C346.17 1054.98 346.512 1055.8 347.121 1056.41C347.729 1057.02 348.555 1057.36 349.416 1057.36H369.356V1078H348.489C347.628 1078 346.802 1078.34 346.193 1078.95C345.584 1079.56 345.243 1080.39 345.243 1081.25V1102.12H325.302V1081.25C325.302 1080.39 324.96 1079.56 324.352 1078.95C323.743 1078.34 322.917 1078 322.056 1078H300.957V1057.36Z" fill="#1D1D1B"/>
<path d="M697.208 852.152H718.308V873.021C718.308 873.882 718.65 874.708 719.259 875.317C719.867 875.926 720.693 876.268 721.554 876.268H748.682C749.543 876.268 750.368 875.926 750.977 875.317C751.586 874.708 751.928 873.882 751.928 873.021V852.152H773.027C773.909 852.093 774.735 851.701 775.338 851.055C775.941 850.409 776.275 849.558 776.273 848.674V821.544C776.273 820.683 775.931 819.858 775.323 819.249C774.714 818.64 773.888 818.298 773.027 818.298H751.928V797.429C751.93 796.545 751.595 795.694 750.993 795.048C750.39 794.402 749.563 794.01 748.682 793.951H721.554C720.672 794.01 719.846 794.402 719.243 795.048C718.64 795.694 718.306 796.545 718.308 797.429V818.298H697.208C696.348 818.298 695.522 818.64 694.913 819.249C694.304 819.858 693.962 820.683 693.962 821.544V848.674C693.96 849.558 694.295 850.409 694.898 851.055C695.501 851.701 696.327 852.093 697.208 852.152ZM700.455 824.791H721.554C722.415 824.791 723.241 824.449 723.849 823.84C724.458 823.231 724.8 822.405 724.8 821.544V800.675H745.436V821.544C745.436 822.405 745.778 823.231 746.387 823.84C746.995 824.449 747.821 824.791 748.682 824.791H769.781V845.66H748.682C748.267 845.628 747.85 845.682 747.457 845.819C747.064 845.956 746.704 846.173 746.399 846.456C746.094 846.739 745.851 847.083 745.685 847.464C745.519 847.846 745.435 848.258 745.436 848.674V869.775H724.8V848.674C724.741 847.854 724.374 847.087 723.771 846.527C723.169 845.968 722.376 845.658 721.554 845.66H700.455V824.791Z" fill="#1D1D1B"/>
<path d="M697.208 1007.28H718.308V1028.15C718.308 1029.01 718.65 1029.83 719.259 1030.44C719.867 1031.05 720.693 1031.39 721.554 1031.39H748.682C749.543 1031.39 750.368 1031.05 750.977 1030.44C751.586 1029.83 751.928 1029.01 751.928 1028.15V1007.28H773.027C773.888 1007.28 774.714 1006.94 775.323 1006.33C775.931 1005.72 776.273 1004.89 776.273 1004.03V976.671C776.273 975.81 775.931 974.984 775.323 974.375C774.714 973.767 773.888 973.425 773.027 973.425H751.928V952.555C751.928 951.695 751.586 950.869 750.977 950.26C750.368 949.651 749.543 949.309 748.682 949.309H721.554C720.693 949.309 719.867 949.651 719.259 950.26C718.65 950.869 718.308 951.695 718.308 952.555V973.425H697.208C696.348 973.425 695.522 973.767 694.913 974.375C694.304 974.984 693.962 975.81 693.962 976.671V1004.03C693.962 1004.89 694.304 1005.72 694.913 1006.33C695.522 1006.94 696.348 1007.28 697.208 1007.28ZM700.455 979.917H721.554C722.415 979.917 723.241 979.575 723.849 978.966C724.458 978.358 724.8 977.532 724.8 976.671V955.802H745.436V976.671C745.436 977.532 745.778 978.358 746.386 978.966C746.995 979.575 747.821 979.917 748.682 979.917H769.781V1000.55H748.682C747.8 1000.61 746.974 1001.01 746.371 1001.65C745.768 1002.3 745.434 1003.15 745.436 1004.03V1024.9H724.8V1004.03C724.802 1003.15 724.468 1002.3 723.865 1001.65C723.262 1001.01 722.436 1000.61 721.554 1000.55H700.455V979.917Z" fill="#1D1D1B"/>
</svg>
