<svg width="107" height="106" viewBox="0 0 107 106" fill="none" xmlns="http://www.w3.org/2000/svg">
<path d="M83.4 22.8C71.8 11.1 48.4 8.4 2.9 28C2.7 28.1 2 28.4 2 28.4C0.8 29.2 0 30.5 0 32C0 34.3 1.9 36.4 4.2 36.2C5 36.1 5.5 35.9 6.2 35.6C12.9 33.2 45.8 24.2 63.1 39.8C63.7 40.3 64.2 40.7 64.7 41.2C65.2 41.7 65.7 42.3 66.1 42.8C81.7 60.1 72.7 93 70.2 99.7C70 100.4 69.7 101 69.6 101.7C69.4 104.1 71.5 105.9 73.8 105.9C75.3 105.9 76.6 105.1 77.4 103.9C77.4 103.9 77.7 103.3 77.8 103C97.7 57.9 95.1 34.5 83.4 22.8ZM81.8 33C81.4 37.2 77.7 40.3 73.5 39.9C69.3 39.5 66.2 35.8 66.6 31.6C67 27.4 70.7 24.3 74.9 24.6C79.1 25.1 82.2 28.8 81.8 33Z" fill="#393C61"/>
<path d="M96.9995 0.100057C91.4995 -0.399943 86.6995 3.60006 86.1995 9.10006C85.6995 14.6001 89.7995 19.4001 95.1995 19.9001C100.7 20.4001 105.5 16.3001 106 10.9001C106.5 5.40006 102.4 0.600057 96.9995 0.100057Z" fill="#393C61"/>
<path d="M56.0003 45.8C53.1003 45.5 50.6003 47.7 50.3003 50.5C50.1003 53.4 52.2003 55.9 55.0003 56.2C57.9003 56.5 60.4003 54.4 60.7003 51.5C61.0003 48.6 58.9003 46 56.0003 45.8Z" fill="#393C61"/>
<path d="M42.5001 60.4C40.3001 60.2 38.4001 61.8 38.3001 63.9C38.1001 66.1 39.7001 68 41.8001 68.1C44.0001 68.3 45.9001 66.7 46.0001 64.5C46.2001 62.4 44.7001 60.6 42.5001 60.4Z" fill="#393C61"/>
</svg>
