<svg width="470" height="754" viewBox="0 0 470 754" fill="none" xmlns="http://www.w3.org/2000/svg">
<path d="M468.999 430.319C465.202 444.597 459.234 458.151 451.096 470.441C443.139 486.707 389.248 555.384 385.269 560.806C385.269 560.806 385.269 560.987 385.269 561.168C386.535 566.951 385.992 572.734 384.184 578.337C383.28 580.867 381.471 582.855 379.12 584.12C378.216 584.843 377.131 585.024 376.046 584.663C375.323 583.94 376.769 583.578 376.95 582.675C377.674 580.506 377.493 578.337 376.227 576.349C375.684 575.626 375.142 575.084 374.599 574.542C374.418 574.542 374.057 574.542 373.876 574.542C346.026 615.387 333.91 667.799 359.228 691.294C364.291 696.715 371.163 700.149 378.578 700.692C378.578 700.692 408.417 701.414 411.491 684.245C411.853 681.715 411.13 679.185 409.864 677.197C407.332 673.04 404.077 669.244 400.279 666.353L399.556 665.811C390.694 658.581 385.812 663.28 384.184 665.268C384.184 665.268 384.184 665.268 384.003 665.268C383.822 665.268 383.461 665.268 383.28 665.088C382.918 664.365 382.737 663.823 382.737 663.1C383.461 650.268 402.268 646.111 408.598 644.846C414.927 643.581 421.438 649.906 425.416 641.231C427.767 637.074 430.841 633.46 434.458 630.387C436.99 627.857 439.16 624.966 440.788 621.893C440.788 621.893 440.788 621.893 440.969 621.712C441.15 621.712 441.511 621.712 441.692 622.074C446.213 634.002 446.756 647.015 443.139 659.304C442.054 662.919 440.607 666.533 439.16 669.967C438.437 671.775 437.533 673.401 436.448 675.028C434.458 678.462 432.107 681.715 429.576 684.787C426.682 688.04 423.608 691.294 420.353 694.185C408.417 707.921 391.418 716.234 373.333 716.957C361.036 716.776 349.462 711.355 341.143 702.137C295.209 651.352 319.08 557.734 320.527 552.854C321.974 547.974 324.144 539.841 324.144 539.841C324.144 539.841 324.506 538.938 324.867 537.673C325.229 536.046 324.506 534.239 323.059 533.155C322.336 532.612 321.431 532.07 320.527 531.889C318.357 531.347 316.187 531.889 314.379 533.155C313.655 533.697 313.655 534.962 312.751 534.6C312.028 533.697 311.847 532.612 312.208 531.709C312.751 529.178 314.198 526.829 316.187 525.022C320.889 521.407 326.495 519.238 332.463 518.696H333.005C355.068 481.104 385.631 449.476 422.342 426.343C435.905 417.306 452 412.607 468.276 412.969C472.074 415.499 442.054 447.127 448.022 452.368C450.192 454.356 461.404 438.633 465.744 427.427C466.648 425.259 469.18 426.162 469.18 430.319H468.999ZM435.363 444.235C435.363 440.621 432.469 437.729 428.852 437.729C425.235 437.729 422.342 440.621 422.342 444.235C422.342 447.85 425.235 450.741 428.852 450.741C432.469 450.741 435.363 447.85 435.363 444.235ZM428.671 440.982C426.863 440.982 425.416 442.428 425.416 444.235C425.416 446.043 426.863 447.488 428.671 447.488C430.48 447.488 431.927 446.043 431.927 444.235C431.927 442.428 430.48 440.982 428.671 440.982ZM280.199 437.006C284.178 438.09 288.337 437.187 291.411 434.656C294.667 431.946 298.284 418.029 285.805 415.318C273.689 412.607 271.7 419.837 261.392 420.017C251.083 420.198 251.626 412.065 251.988 406.101C251.988 402.125 249.998 398.33 246.743 395.98C249.275 399.414 249.637 404.113 247.828 407.908C245.839 414.053 247.828 420.74 253.073 424.716C258.679 428.15 265.551 428.15 271.157 424.897C275.678 422.367 285.986 417.668 288.156 427.066C290.326 436.464 279.838 436.825 279.838 436.825L280.199 437.006ZM306.241 397.426C306.241 397.426 299.549 400.679 291.05 392.366C282.369 383.871 273.508 385.136 272.785 393.089C272.061 400.86 280.018 411.162 265.37 411.884C265.37 411.884 276.221 413.872 277.667 407.547C279.114 401.402 274.412 392.185 282.188 392.366C288.88 392.366 293.943 404.475 306.241 397.426ZM75.6657 354.954C75.6657 354.954 19.4235 189.767 19.7851 172.778C20.1468 155.609 34.6143 149.103 56.6771 147.476C76.7507 146.03 97.0051 148.741 115.994 155.428C120.876 150.368 127.568 147.837 134.621 148.199C164.46 148.199 194.299 152.356 222.872 160.669V142.054C207.139 139.885 194.841 127.596 192.671 111.872C189.959 92.3532 203.341 74.4609 222.872 71.75V41.0258H192.49V30.182H222.872V0H232.818V30.182H263.2V41.0258H232.818V71.75C248.552 73.9187 261.03 86.3891 263.2 102.113C265.913 121.632 252.349 139.524 232.818 142.235V160.85C261.572 152.536 291.231 148.38 321.07 148.38C327.942 147.837 334.814 150.548 339.697 155.428C358.685 148.741 378.94 146.03 399.013 147.476C421.076 149.103 435.543 155.79 435.905 172.778C436.267 189.767 380.025 354.954 380.025 354.954H75.6657ZM331.016 226.274C345.484 226.274 347.835 231.877 347.292 236.395C346.569 241.817 328.484 259.529 325.772 262.601C322.878 265.493 324.867 267.119 325.772 266.939C326.676 266.577 327.942 266.939 338.792 256.999C349.643 246.697 353.441 254.107 352.717 262.42C351.994 270.734 346.569 293.687 338.792 292.783C331.016 291.88 326.314 280.132 325.41 277.783C324.325 275.433 323.24 273.626 320.708 280.493C318.538 288.265 318.9 296.578 321.793 303.988C324.506 310.133 331.197 313.386 354.164 313.386C374.961 314.29 392.864 298.928 395.035 278.325C396.481 270.915 391.779 275.614 389.609 278.325C387.439 281.036 376.227 296.036 371.163 290.976C366.1 278.686 366.823 264.589 373.153 253.022C382.195 243.986 391.418 271.818 395.035 268.023C399.194 263.866 379.663 246.697 383.461 235.853C387.077 225.009 406.789 229.889 406.789 229.889L405.885 229.528C405.885 229.528 417.097 197.177 419.81 183.803C421.618 178.019 420.714 171.694 417.097 166.633C410.225 160.489 401.002 157.778 391.779 158.862C364.11 158.862 350.366 162.477 345.664 170.609C343.494 174.405 334.995 208.563 330.654 226.274H331.016ZM258.317 287.181C255.243 296.398 247.467 292.06 244.392 289.53C242.041 287.361 234.084 274.349 232.095 275.252C230.829 275.795 229.563 278.144 231.914 290.795C234.265 303.446 237.882 309.049 242.946 311.398C251.264 313.206 259.764 313.929 268.264 313.567C277.848 315.013 287.614 313.567 296.475 309.772C303.347 303.446 308.953 295.675 312.57 287C314.017 283.566 316.549 274.529 314.74 274.529C312.932 274.349 303.709 290.253 296.837 290.253C294.486 290.253 289.241 286.096 289.241 271.457C289.241 247.058 296.113 250.312 298.826 251.034C301.539 251.938 314.017 266.577 316.006 266.035C318.176 265.493 317.091 261.698 317.091 261.698C312.389 252.3 308.953 242.359 307.145 232.058C308.23 225.19 321.251 226.094 321.251 226.094H320.166C324.144 206.936 327.038 187.779 329.027 168.441C328.665 164.645 323.602 162.838 319.442 161.934C309.496 160.489 299.369 160.308 289.241 161.934C269.71 163.922 243.126 167.356 237.882 173.501C233.903 190.671 232.276 208.382 232.999 226.094H231.914C246.02 227.359 246.382 232.6 246.382 236.215C241.68 245.07 236.435 253.745 230.829 262.059C230.287 264.589 232.637 268.204 236.254 264.77C239.871 261.336 249.637 252.842 256.328 255.914C263.019 258.806 261.03 278.144 257.775 287.361L258.317 287.181ZM126.121 168.441C128.11 187.779 131.004 206.936 134.982 225.913H133.897C133.897 225.913 146.918 225.19 148.003 232.058C146.194 242.359 142.758 252.48 138.057 261.698C138.057 261.698 137.152 265.493 139.142 266.035C141.312 266.577 153.609 251.938 156.322 251.034C159.215 250.131 165.906 247.058 165.906 271.457C165.906 286.096 160.843 290.253 158.311 290.253C151.439 290.253 142.216 274.349 140.407 274.529C138.599 274.529 141.131 283.566 142.578 287C146.194 295.675 151.801 303.446 158.673 309.772C167.534 313.567 177.299 314.832 186.884 313.567C195.384 313.929 203.883 313.206 212.383 311.398C217.447 308.868 221.244 303.446 223.414 290.795C225.765 278.144 224.319 275.795 223.234 275.252C221.244 274.349 213.287 287.542 210.936 289.53C207.862 292.241 200.267 296.398 197.011 287.181C193.937 277.963 191.767 258.806 198.458 255.733C205.149 252.842 214.915 261.155 218.532 264.589C222.149 268.023 224.5 264.589 223.957 261.878C218.351 253.565 213.106 244.89 208.405 236.034C208.405 232.419 208.766 227.178 222.872 225.913H221.787C222.51 208.201 220.883 190.671 216.723 173.32C211.479 167.176 184.895 163.742 165.364 161.754C139.322 159.043 130.642 162.657 127.748 165.007C126.663 165.73 125.94 166.995 125.759 168.441H126.121ZM101.165 313.206C124.132 313.206 131.004 309.953 133.535 303.808C136.61 296.217 136.971 288.084 134.621 280.313C132.089 273.626 130.823 275.433 129.919 277.602C128.834 279.951 124.132 291.699 116.355 292.602C108.579 293.506 103.154 270.373 102.611 262.24C101.888 254.107 105.686 246.697 116.536 256.818C127.387 266.939 128.653 266.577 129.557 266.758C130.642 267.119 132.45 265.493 129.557 262.42C126.844 259.529 108.76 241.636 108.037 236.215C107.494 231.696 109.664 225.913 124.312 226.094C119.972 208.382 111.473 174.043 109.483 170.429C104.781 162.115 90.8565 158.681 63.3683 158.681C54.1453 157.597 44.9223 160.308 38.0503 166.453C34.6143 171.513 33.5292 177.839 35.3376 183.622C38.0503 196.996 49.0817 228.985 49.0817 229.347L47.9967 229.708C47.9967 229.708 67.7086 224.829 71.5063 235.672C75.1231 246.516 55.5921 263.686 59.9323 267.842C63.5492 271.638 72.7722 243.805 81.8143 252.842C88.1438 264.589 88.8672 278.505 83.8036 290.795C78.74 295.856 67.5277 280.855 65.3576 278.144C63.1875 275.433 58.4856 270.734 59.9323 278.144C62.2833 298.747 80.1867 314.109 100.803 313.206H101.165ZM272.604 466.284C277.487 469.537 282.188 473.152 286.71 476.947C293.943 482.008 301.9 486.345 310.219 489.599C311.847 489.96 313.293 490.141 314.921 489.96C315.464 489.96 316.006 489.598 316.368 489.056C320.889 485.984 325.229 482.369 329.027 478.393C331.559 475.321 336.984 468.272 339.516 465.2C341.867 462.308 346.93 456.706 349.1 453.633C350.366 452.368 352.175 451.464 353.983 451.103C355.43 450.922 356.696 450.561 358.143 450.561C358.866 450.561 359.77 450.38 360.494 450.199C361.217 449.838 361.759 449.115 362.483 448.392C362.483 448.392 364.11 447.85 364.834 447.85C366.642 447.669 368.089 447.488 369.717 447.127C370.44 447.127 371.525 446.765 372.068 446.223C372.972 445.139 372.068 444.054 370.802 443.693C369.536 443.512 368.27 443.512 366.823 443.693C365.919 443.693 364.834 444.054 363.93 444.054C363.749 444.054 363.025 444.054 363.025 444.054C363.025 443.693 363.749 442.789 363.93 442.428C364.291 441.886 364.653 441.343 365.015 440.801C365.376 440.259 365.738 439.717 366.1 439.175C366.1 439.175 366.281 438.813 366.461 438.633C366.642 438.09 367.185 437.548 367.546 437.187H367.727C367.727 437.187 368.27 436.464 368.631 436.102C369.355 435.56 369.897 435.741 370.621 435.56C370.802 435.56 370.982 435.56 371.344 435.379C371.525 435.379 371.706 435.199 372.068 435.018C372.248 435.018 372.61 435.199 372.791 435.199C373.333 435.199 373.876 435.199 374.238 435.018C374.78 435.018 375.323 434.656 375.684 434.295C375.684 433.934 375.684 433.572 375.684 433.391C375.323 433.03 374.599 433.391 374.238 433.391C373.695 433.391 373.153 433.391 372.791 433.03C373.333 432.668 373.876 432.668 374.418 432.126C374.961 431.765 375.684 431.223 376.046 430.68C376.408 430.138 376.95 429.957 377.674 429.777C377.854 429.777 378.216 429.596 378.397 429.415C379.482 428.512 378.94 427.247 377.854 427.608C377.854 427.247 377.312 427.247 376.95 427.247C376.589 427.247 376.227 427.789 375.865 427.789C375.323 427.969 374.599 427.789 373.876 428.15C373.153 428.331 372.61 428.512 371.887 428.692C371.163 428.692 370.621 429.054 369.897 429.235C369.174 429.235 368.451 429.596 367.908 430.138C367.366 430.5 366.642 431.042 366.1 431.403C365.557 431.946 364.834 432.307 364.291 432.849C363.025 433.572 361.759 434.476 360.674 435.379C358.685 438.09 356.334 440.621 353.802 442.97C351.813 444.416 349.462 445.5 346.93 446.042C344.76 446.946 342.771 448.392 341.505 450.38C336.08 456.163 330.293 461.585 323.963 466.465C321.793 467.911 316.368 471.345 312.57 473.875C311.847 474.236 311.123 474.236 310.581 473.875C308.953 472.429 307.145 470.08 305.698 468.814C303.347 466.646 296.113 460.682 293.943 458.874C291.592 456.706 289.603 454.537 287.614 452.187C285.082 449.476 282.369 446.765 279.657 444.235C271.7 437.187 258.679 440.078 255.785 437.548C248.19 432.488 242.946 424.536 241.137 415.499C241.137 409.896 247.828 391.462 241.499 384.233C237.159 378.449 230.467 375.015 223.053 374.835C198.458 374.835 196.288 386.221 193.214 391.823C189.416 398.872 187.608 394.173 186.342 390.558C185.618 388.57 184.714 386.763 183.448 385.317C178.023 379.895 172.778 390.558 172.778 390.558C182.544 382.787 180.916 389.293 185.799 398.149C190.501 407.005 196.107 399.233 197.916 396.342C199.724 393.45 200.99 391.1 200.99 391.1L200.628 393.089C200.628 394.173 200.628 395.257 200.628 396.342C200.628 396.703 200.628 397.245 200.628 397.607C200.628 398.691 200.628 399.595 200.99 400.679C201.352 401.764 201.713 402.848 202.256 403.932L202.618 405.017C202.618 405.017 202.979 406.643 202.979 407.547C202.979 408.451 202.979 409.354 202.618 410.077C202.256 411.161 201.894 412.246 201.352 413.33C200.809 414.234 200.809 414.595 200.809 415.138C200.809 415.499 201.171 415.861 201.532 416.041C202.075 416.222 202.798 416.403 203.341 416.583C203.883 416.583 204.607 416.583 204.788 417.306C204.788 417.668 204.788 417.849 204.788 418.21C204.788 418.21 204.245 419.656 204.788 420.198C204.968 420.379 205.33 420.56 205.511 420.56C205.692 420.56 205.873 420.56 206.054 420.921C206.054 420.921 205.692 421.463 205.692 421.644C205.692 421.644 205.149 423.27 206.777 423.451C207.319 423.451 207.681 423.813 207.862 424.355C208.043 424.716 208.224 425.258 208.043 425.62C207.862 426.704 208.043 427.789 208.947 428.692C209.309 429.054 209.67 429.415 210.213 429.596C210.755 429.957 211.479 430.138 212.202 430.138C213.649 430.138 215.096 429.596 216.542 429.054C219.978 427.427 223.234 424.897 225.042 426.885C227.212 429.415 231.01 438.994 209.128 441.344C204.426 441.163 199.543 441.886 195.203 443.512C194.118 443.874 193.033 444.597 192.129 445.32C189.235 447.488 186.703 450.019 184.172 452.729C184.172 452.729 179.289 457.79 177.119 459.597C174.949 461.405 167.715 467.369 165.364 469.537C163.555 471.164 161.204 474.236 159.396 475.501C155.598 473.152 149.088 469.176 146.737 467.549C140.408 462.67 134.621 457.248 129.195 451.464C127.929 449.476 125.94 447.85 123.77 447.127C121.238 446.585 119.068 445.5 116.898 443.874C114.366 441.705 112.015 439.175 110.026 436.283C108.941 435.199 107.675 434.295 106.409 433.753C105.866 433.391 105.143 432.849 104.601 432.307C104.058 431.765 103.335 431.403 102.792 431.042C102.25 430.5 101.526 430.319 100.803 430.138C100.079 430.138 99.5369 429.777 98.8136 429.596C98.0902 429.596 97.5477 429.235 96.8243 429.054C96.1009 428.873 95.3776 429.054 94.835 428.692C94.4733 428.692 94.1117 428.15 93.75 428.15C93.5691 428.15 93.0266 428.15 92.8457 428.512C91.7607 428.15 91.2182 429.596 92.3032 430.319C92.4841 430.319 92.6649 430.68 93.0266 430.68C93.5691 430.68 94.1117 431.223 94.6542 431.584C95.1967 432.126 95.7392 432.668 96.2818 433.03C96.8243 433.391 97.3668 433.391 97.9094 433.934C97.3668 434.114 97.0051 434.295 96.4626 434.295C96.1009 434.295 95.3776 434.295 95.0159 434.295C94.835 434.476 94.6542 434.837 95.0159 435.199C95.3776 435.56 95.9201 435.922 96.4626 435.922C97.0051 435.922 97.5477 435.922 97.9094 436.102C98.271 436.102 98.4519 435.922 98.6327 435.922C98.8136 435.922 98.9944 435.922 99.3561 436.283C99.5369 436.283 99.7178 436.283 100.079 436.464C100.803 436.464 101.526 436.464 102.069 437.006C102.43 437.187 102.611 437.548 102.973 437.91H103.154C103.154 437.91 104.058 438.994 104.239 439.536C104.239 439.717 104.42 439.898 104.601 440.078C104.962 440.621 105.324 441.163 105.686 441.705C106.047 442.247 106.59 442.789 106.771 443.332C106.952 443.693 107.856 444.777 107.675 444.958C107.675 444.958 106.952 445.139 106.771 444.958C105.866 444.958 104.781 444.777 103.877 444.597C102.611 444.416 101.345 444.416 99.8986 444.597C98.8136 444.958 97.7285 446.043 98.6327 447.127C99.1753 447.669 100.26 447.85 100.984 448.031C102.611 448.392 104.058 448.573 105.866 448.753C106.771 448.753 107.494 448.934 108.217 449.296C108.217 449.296 109.483 450.922 110.207 451.103C110.93 451.284 111.834 451.464 112.558 451.464C114.004 451.464 115.27 451.826 116.717 452.007C118.525 452.368 120.334 453.091 121.6 454.537C123.77 457.609 128.653 463.212 131.184 466.104C133.716 468.995 138.961 476.044 141.673 479.297C145.471 483.273 149.631 486.888 154.332 489.96C154.513 490.321 154.875 490.502 155.237 490.683C157.045 490.683 158.853 490.683 160.481 490.321C168.8 487.61 176.757 483.634 183.81 478.574C183.81 478.574 192.852 470.441 194.841 468.995C196.65 467.549 198.82 466.826 200.99 467.007C202.075 467.007 203.16 467.369 204.064 467.911C206.596 469.537 207.139 473.513 204.426 478.755C204.426 478.755 204.426 478.755 204.426 478.935C199.905 485.622 201.713 494.659 208.405 499.177C208.405 499.177 208.585 499.177 208.585 499.358C208.766 501.165 209.128 503.876 210.032 508.394C210.394 510.202 210.755 512.371 211.298 515.081C212.564 525.564 204.426 532.612 194.118 554.842C181.821 581.41 185.799 642.135 185.799 642.135C187.246 662.738 191.586 682.98 198.82 702.318C208.766 732.862 239.871 759.61 271.338 752.923C280.923 750.031 289.241 743.344 294.124 734.488C297.741 728.524 299.911 721.837 300.815 714.969C301.358 710.27 301.9 705.933 302.081 701.957C302.081 697.981 302.081 694.005 301.358 690.028C301.177 688.221 300.815 686.233 300.273 684.426C299.007 679.004 297.018 673.943 294.667 669.064C293.039 665.811 291.231 662.738 289.241 659.666C288.156 658.22 286.89 656.955 285.625 655.509C284.359 653.702 282.912 652.075 281.284 650.448C280.018 649.545 278.752 648.822 277.487 648.099C276.04 647.195 274.593 646.472 273.508 645.93L272.423 645.569C272.423 645.569 271.519 646.292 271.338 646.834C271.7 649.183 271.88 651.533 271.88 653.882C272.061 656.413 273.327 658.22 272.785 660.931C271.88 664.184 271.519 667.618 271.7 671.052C271.7 677.377 263.742 681.896 263.742 681.896C261.392 683.522 259.583 685.51 258.136 687.86C257.775 688.402 257.232 688.763 256.87 689.306C256.509 689.848 256.147 690.39 255.785 690.932C252.349 695.812 250.36 701.414 249.818 707.379C249.818 710.089 250.541 712.62 252.169 714.789C252.711 715.873 253.615 716.415 254.7 716.415C255.605 716.054 254.7 715.15 254.7 714.246C254.7 712.078 255.966 710.089 257.956 708.824C258.86 708.282 259.764 707.921 260.849 707.74C261.392 707.74 261.753 707.198 262.296 707.017C263.923 706.656 265.551 706.475 267.179 706.475C272.423 706.475 277.487 707.198 282.369 708.824C284.72 709.909 286.71 711.355 288.156 713.343C290.688 715.511 291.954 718.945 291.05 722.198C290.507 725.09 289.241 727.982 287.252 730.151C286.529 730.873 285.625 731.596 284.72 732.319C279.295 735.753 273.146 737.741 266.817 738.103C261.03 738.103 255.605 735.753 251.807 731.596C239.69 719.307 238.424 707.198 239.329 682.98C240.595 662.015 245.296 641.412 253.615 622.074C253.615 622.074 276.944 579.964 265.551 552.673C256.87 531.889 252.711 527.19 254.52 519.057C257.232 511.828 258.86 506.587 259.764 503.334C260.126 502.069 260.487 500.804 260.668 499.9C260.668 499.539 261.211 499.177 261.572 498.996C264.285 498.093 272.604 492.49 266.998 478.574C263.2 469.357 268.264 464.658 272.604 466.826V466.284ZM40.0396 440.982C38.2311 440.982 36.7844 442.428 36.7844 444.235C36.7844 446.043 38.2311 447.488 40.0396 447.488C41.848 447.488 43.2947 446.043 43.2947 444.235C43.2947 442.428 41.848 440.982 40.0396 440.982ZM152.886 525.022C154.875 526.648 156.322 528.998 156.864 531.709C157.226 532.793 157.045 533.877 156.322 534.6C155.417 534.962 155.417 533.697 154.694 533.155C152.886 531.889 150.716 531.347 148.545 531.889C147.641 532.07 146.737 532.612 146.014 533.155C144.567 534.058 143.844 535.865 144.205 537.673C144.567 538.938 144.929 539.841 144.929 539.841C144.929 539.841 147.099 547.974 148.545 552.854C149.992 557.734 173.863 651.352 127.929 702.137C119.791 711.355 108.037 716.776 95.7392 716.957C77.4741 716.054 60.4748 707.921 48.5392 694.185C45.284 691.294 42.2097 688.04 39.3162 684.787C36.7844 681.715 34.4334 678.462 32.4442 675.028C31.3591 673.401 30.4549 671.775 29.7315 669.967C28.1039 666.533 26.838 662.919 25.753 659.304C22.1361 647.015 22.6786 634.002 27.1997 622.074C27.1997 622.074 27.1997 621.893 27.3805 621.893C27.5614 621.893 27.9231 621.893 28.1039 622.074C29.9124 625.146 32.0825 628.038 34.4334 630.568C38.0503 633.641 41.3055 637.255 43.4756 641.412C47.2733 650.087 53.9645 643.761 60.294 645.027C66.6235 646.292 85.4312 650.449 86.1546 663.28C86.1546 663.28 85.7929 664.726 85.612 665.449C85.612 665.449 85.612 665.449 85.612 665.63C85.4312 665.63 85.0695 665.63 84.8887 665.63C83.4419 663.823 78.3783 659.124 69.517 666.172L68.7936 666.714C64.9959 669.787 61.7407 673.401 59.2089 677.558C57.7622 679.727 57.2197 682.257 57.5813 684.607C60.4748 701.776 90.4948 701.053 90.4948 701.053C97.9094 700.511 104.781 697.077 109.845 691.655C135.163 668.16 123.047 615.748 95.1967 574.903C95.0159 574.722 94.6542 574.722 94.4733 574.903C93.75 575.445 93.2074 575.988 92.8457 576.711C91.7607 578.518 91.399 580.867 92.1224 583.036C92.4841 583.759 93.75 584.301 93.0266 585.024C91.9415 585.386 90.8565 585.205 89.9523 584.482C87.6013 583.217 85.7929 581.048 84.8887 578.699C82.8994 573.096 82.5377 567.313 83.8036 561.529C83.8036 561.529 83.8036 561.348 83.8036 561.168C80.0059 555.746 25.9338 487.068 17.9767 470.803C9.83877 458.513 3.87095 444.958 0.0732422 430.68C0.0732422 426.524 2.60504 425.62 3.50926 427.789C7.84949 438.994 19.0618 454.537 21.2319 452.729C27.1997 447.488 -2.82025 415.86 0.977457 413.33C17.2533 412.969 33.3484 417.668 46.9116 426.704C83.6228 449.838 114.366 481.466 136.248 519.057H136.791C142.758 519.78 148.365 521.949 153.067 525.383L152.886 525.022ZM46.5499 444.235C46.5499 440.621 43.6564 437.729 40.0396 437.729C36.4227 437.729 33.5292 440.621 33.5292 444.235C33.5292 447.85 36.4227 450.741 40.0396 450.741C43.6564 450.741 46.5499 447.85 46.5499 444.235Z" fill="#094169"/>
<path d="M451.096 470.441C459.234 458.151 465.202 444.597 468.999 430.319H469.18C469.18 426.162 466.648 425.259 465.744 427.427C461.404 438.633 450.192 454.356 448.022 452.368C442.054 447.127 472.074 415.499 468.276 412.969C452 412.607 435.905 417.306 422.342 426.343C385.631 449.476 355.068 481.104 333.005 518.696H332.463C326.495 519.238 320.889 521.407 316.187 525.022C314.198 526.829 312.751 529.178 312.208 531.709C311.847 532.612 312.028 533.697 312.751 534.6C313.655 534.962 313.655 533.697 314.379 533.155C316.187 531.889 318.357 531.347 320.527 531.889C321.431 532.07 322.336 532.612 323.059 533.155C324.506 534.239 325.229 536.046 324.867 537.673C324.506 538.938 324.144 539.841 324.144 539.841C324.144 539.841 321.974 547.974 320.527 552.854C319.08 557.734 295.209 651.352 341.143 702.137C349.462 711.355 361.036 716.776 373.333 716.957C391.418 716.234 408.417 707.921 420.353 694.185C423.608 691.294 426.682 688.04 429.576 684.787C432.107 681.715 434.458 678.462 436.448 675.028C437.533 673.401 438.437 671.775 439.16 669.967C440.607 666.533 442.054 662.919 443.139 659.304C446.756 647.015 446.213 634.002 441.692 622.074C441.511 621.712 441.15 621.712 440.969 621.712L440.788 621.893C439.16 624.966 436.99 627.857 434.458 630.387C430.841 633.46 427.767 637.074 425.416 641.231C421.438 649.906 414.927 643.581 408.598 644.846C402.268 646.111 383.461 650.268 382.737 663.1C382.737 663.823 382.918 664.365 383.28 665.088C383.461 665.268 383.822 665.268 384.003 665.268H384.184C385.812 663.28 390.694 658.581 399.556 665.811L400.279 666.353C404.077 669.244 407.332 673.04 409.864 677.197C411.13 679.185 411.853 681.715 411.491 684.245C408.417 701.414 378.578 700.692 378.578 700.692C371.163 700.149 364.291 696.715 359.228 691.294C333.91 667.799 346.026 615.387 373.876 574.542H374.599C375.142 575.084 375.684 575.626 376.227 576.349C377.493 578.337 377.674 580.506 376.95 582.675C376.769 583.578 375.323 583.94 376.046 584.663C377.131 585.024 378.216 584.843 379.12 584.12C381.471 582.855 383.28 580.867 384.184 578.337C385.992 572.734 386.535 566.951 385.269 561.168V560.806C389.248 555.384 443.139 486.707 451.096 470.441Z" fill="#094169"/>
<path d="M291.411 434.656C288.337 437.187 284.178 438.09 280.199 437.006L279.838 436.825C279.838 436.825 290.326 436.464 288.156 427.066C285.986 417.668 275.678 422.367 271.157 424.897C265.551 428.15 258.679 428.15 253.073 424.716C247.828 420.74 245.839 414.053 247.828 407.908C249.637 404.113 249.275 399.414 246.743 395.98C249.998 398.33 251.988 402.125 251.988 406.101L251.983 406.186C251.621 412.142 251.132 420.197 261.392 420.017C271.7 419.837 273.689 412.607 285.805 415.318C298.284 418.029 294.667 431.946 291.411 434.656Z" fill="#094169"/>
<path d="M291.05 392.366C299.549 400.679 306.241 397.426 306.241 397.426C293.943 404.475 288.88 392.366 282.188 392.366C274.412 392.185 279.114 401.402 277.667 407.547C276.221 413.872 265.37 411.884 265.37 411.884C280.018 411.162 272.061 400.86 272.785 393.089C273.508 385.136 282.369 383.871 291.05 392.366Z" fill="#094169"/>
<path d="M286.71 476.947C282.188 473.152 277.487 469.537 272.604 466.284V466.826C268.264 464.658 263.2 469.357 266.998 478.574C272.604 492.49 264.285 498.093 261.572 498.996C261.211 499.177 260.668 499.539 260.668 499.9C260.487 500.804 260.126 502.069 259.764 503.334C258.86 506.587 257.232 511.828 254.52 519.057C252.711 527.19 256.87 531.889 265.551 552.673C276.944 579.964 253.615 622.074 253.615 622.074C245.296 641.412 240.595 662.015 239.329 682.98C238.424 707.198 239.69 719.307 251.807 731.596C255.605 735.753 261.03 738.103 266.817 738.103C273.146 737.741 279.295 735.753 284.72 732.319C285.625 731.596 286.529 730.873 287.252 730.151C289.241 727.982 290.507 725.09 291.05 722.198C291.954 718.945 290.688 715.511 288.156 713.343C286.71 711.355 284.72 709.909 282.369 708.824C277.487 707.198 272.423 706.475 267.179 706.475C265.551 706.475 263.923 706.656 262.296 707.017C261.753 707.198 261.392 707.74 260.849 707.74C259.764 707.921 258.86 708.282 257.956 708.824C255.966 710.089 254.7 712.078 254.7 714.246C254.7 715.15 255.605 716.054 254.7 716.415C253.615 716.415 252.711 715.873 252.169 714.789C250.541 712.62 249.818 710.089 249.818 707.379C250.36 701.414 252.349 695.812 255.785 690.932L256.87 689.306C257.232 688.763 257.775 688.402 258.136 687.86C259.583 685.51 261.392 683.522 263.742 681.896C263.742 681.896 271.7 677.377 271.7 671.052C271.519 667.618 271.88 664.184 272.785 660.931C273.327 658.22 272.061 656.413 271.88 653.882C271.88 651.533 271.7 649.183 271.338 646.834C271.519 646.292 272.423 645.569 272.423 645.569L273.508 645.93C274.593 646.472 276.04 647.195 277.487 648.099C278.752 648.822 280.018 649.545 281.284 650.448C282.912 652.075 284.359 653.702 285.625 655.509C286.89 656.955 288.156 658.22 289.241 659.666C291.231 662.738 293.039 665.811 294.667 669.064C297.018 673.943 299.007 679.004 300.273 684.426C300.815 686.233 301.177 688.221 301.358 690.028C302.081 694.005 302.081 697.981 302.081 701.957C301.9 705.933 301.358 710.27 300.815 714.969C299.911 721.837 297.741 728.524 294.124 734.488C289.241 743.344 280.923 750.031 271.338 752.923C239.871 759.61 208.766 732.862 198.82 702.318C191.586 682.98 187.246 662.738 185.799 642.135C185.799 642.135 181.821 581.41 194.118 554.842C204.426 532.612 212.564 525.564 211.298 515.081C210.755 512.371 210.394 510.202 210.032 508.394C209.128 503.876 208.766 501.165 208.585 499.358C208.585 499.177 208.405 499.177 208.405 499.177C201.713 494.659 199.905 485.622 204.426 478.935V478.755C207.139 473.513 206.596 469.537 204.064 467.911C203.16 467.369 202.075 467.007 200.99 467.007C198.82 466.826 196.65 467.549 194.841 468.995C192.852 470.441 183.81 478.574 183.81 478.574C176.757 483.634 168.8 487.61 160.481 490.321C158.853 490.683 157.045 490.683 155.237 490.683C154.875 490.502 154.513 490.321 154.332 489.96C149.631 486.888 145.471 483.273 141.673 479.297C138.961 476.044 133.716 468.995 131.184 466.104C128.653 463.212 123.77 457.609 121.6 454.537C120.334 453.091 118.525 452.368 116.717 452.007C115.27 451.826 114.004 451.464 112.558 451.464C111.834 451.464 110.93 451.284 110.207 451.103C109.483 450.922 108.217 449.296 108.217 449.296C107.494 448.934 106.771 448.753 105.866 448.753C104.058 448.573 102.611 448.392 100.984 448.031C100.26 447.85 99.1753 447.669 98.6327 447.127C97.7285 446.043 98.8136 444.958 99.8986 444.597C101.345 444.416 102.611 444.416 103.877 444.597C104.781 444.777 105.866 444.958 106.771 444.958C106.952 445.139 107.675 444.958 107.675 444.958C107.856 444.777 106.952 443.693 106.771 443.332C106.59 442.789 106.047 442.247 105.686 441.705L104.601 440.078C104.42 439.898 104.239 439.717 104.239 439.536C104.058 438.994 103.154 437.91 103.154 437.91H102.973C102.611 437.548 102.43 437.187 102.069 437.006C101.526 436.464 100.803 436.464 100.079 436.464C99.7178 436.283 99.5369 436.283 99.3561 436.283C98.9944 435.922 98.8136 435.922 98.6327 435.922C98.4519 435.922 98.271 436.102 97.9094 436.102C97.5477 435.922 97.0051 435.922 96.4626 435.922C95.9201 435.922 95.3776 435.56 95.0159 435.199C94.6542 434.837 94.835 434.476 95.0159 434.295H96.4626C97.0051 434.295 97.3668 434.114 97.9094 433.934C97.3668 433.391 96.8243 433.391 96.2818 433.03C95.7392 432.668 95.1967 432.126 94.6542 431.584C94.1117 431.223 93.5691 430.68 93.0266 430.68C92.6649 430.68 92.4841 430.319 92.3032 430.319C91.2182 429.596 91.7607 428.15 92.8457 428.512C93.0266 428.15 93.5691 428.15 93.75 428.15C94.1117 428.15 94.4733 428.692 94.835 428.692C95.3776 429.054 96.1009 428.873 96.8243 429.054C97.5477 429.235 98.0902 429.596 98.8136 429.596C99.5369 429.777 100.079 430.138 100.803 430.138C101.526 430.319 102.25 430.5 102.792 431.042C103.335 431.403 104.058 431.765 104.601 432.307C105.143 432.849 105.866 433.391 106.409 433.753C107.675 434.295 108.941 435.199 110.026 436.283C112.015 439.175 114.366 441.705 116.898 443.874C119.068 445.5 121.238 446.585 123.77 447.127C125.94 447.85 127.929 449.476 129.195 451.464C134.621 457.248 140.408 462.67 146.737 467.549C149.088 469.176 155.598 473.152 159.396 475.501C161.204 474.236 163.555 471.164 165.364 469.537C167.715 467.369 174.949 461.405 177.119 459.597C179.289 457.79 184.172 452.729 184.172 452.729C186.703 450.019 189.235 447.488 192.129 445.32C193.033 444.597 194.118 443.874 195.203 443.512C199.543 441.886 204.426 441.163 209.128 441.344C231.01 438.994 227.212 429.415 225.042 426.885C223.234 424.897 219.978 427.427 216.542 429.054C215.096 429.596 213.649 430.138 212.202 430.138C211.479 430.138 210.755 429.957 210.213 429.596C209.67 429.415 209.309 429.054 208.947 428.692C208.043 427.789 207.862 426.704 208.043 425.62C208.224 425.258 208.043 424.716 207.862 424.355C207.681 423.813 207.319 423.451 206.777 423.451C205.149 423.27 205.692 421.644 205.692 421.644C205.692 421.463 206.054 420.921 206.054 420.921C205.873 420.56 205.692 420.56 205.511 420.56C205.33 420.56 204.968 420.379 204.788 420.198C204.245 419.656 204.788 418.21 204.788 418.21V417.306C204.607 416.583 203.883 416.583 203.341 416.583C202.798 416.403 202.075 416.222 201.532 416.041C201.171 415.861 200.809 415.499 200.809 415.138C200.809 414.595 200.809 414.234 201.352 413.33C201.894 412.246 202.256 411.161 202.618 410.077C202.979 409.354 202.979 408.451 202.979 407.547C202.979 406.643 202.618 405.017 202.618 405.017L202.256 403.932C201.713 402.848 201.352 401.764 200.99 400.679C200.628 399.595 200.628 398.691 200.628 397.607V396.342V393.089L200.99 391.1C200.99 391.1 199.724 393.45 197.916 396.342C196.107 399.233 190.501 407.005 185.799 398.149C180.916 389.293 182.544 382.787 172.778 390.558C172.778 390.558 178.023 379.895 183.448 385.317C184.714 386.763 185.618 388.57 186.342 390.558C187.608 394.173 189.416 398.872 193.214 391.823C196.288 386.221 198.458 374.835 223.053 374.835C230.467 375.015 237.159 378.449 241.499 384.233C247.828 391.462 241.137 409.896 241.137 415.499C242.946 424.536 248.19 432.488 255.785 437.548C258.679 440.078 271.7 437.187 279.657 444.235C282.369 446.765 285.082 449.476 287.614 452.187C289.603 454.537 291.592 456.706 293.943 458.874C296.113 460.682 303.347 466.646 305.698 468.814C307.145 470.08 308.953 472.429 310.581 473.875C311.123 474.236 311.847 474.236 312.57 473.875C316.368 471.345 321.793 467.911 323.963 466.465C330.293 461.585 336.08 456.163 341.505 450.38C342.771 448.392 344.76 446.946 346.93 446.042C349.462 445.5 351.813 444.416 353.802 442.97C356.334 440.621 358.685 438.09 360.674 435.379C361.759 434.476 363.025 433.572 364.291 432.849C364.834 432.307 365.557 431.946 366.1 431.403C366.642 431.042 367.366 430.5 367.908 430.138C368.451 429.596 369.174 429.235 369.897 429.235C370.621 429.054 371.163 428.692 371.887 428.692C372.61 428.512 373.153 428.331 373.876 428.15C374.599 427.789 375.323 427.969 375.865 427.789C376.227 427.789 376.589 427.247 376.95 427.247C377.312 427.247 377.854 427.247 377.854 427.608C378.94 427.247 379.482 428.512 378.397 429.415C378.216 429.596 377.854 429.777 377.674 429.777C376.95 429.957 376.408 430.138 376.046 430.68C375.684 431.223 374.961 431.765 374.418 432.126C373.876 432.668 373.333 432.668 372.791 433.03C373.153 433.391 373.695 433.391 374.238 433.391C374.599 433.391 375.323 433.03 375.684 433.391V434.295C375.323 434.656 374.78 435.018 374.238 435.018C373.876 435.199 373.333 435.199 372.791 435.199C372.61 435.199 372.248 435.018 372.068 435.018C371.706 435.199 371.525 435.379 371.344 435.379C370.982 435.56 370.802 435.56 370.621 435.56C369.897 435.741 369.355 435.56 368.631 436.102C368.27 436.464 367.727 437.187 367.727 437.187H367.546C367.185 437.548 366.642 438.09 366.461 438.633C366.281 438.813 366.1 439.175 366.1 439.175L365.015 440.801L363.93 442.428C363.749 442.789 363.025 443.693 363.025 444.054H363.93C364.834 444.054 365.919 443.693 366.823 443.693C368.27 443.512 369.536 443.512 370.802 443.693C372.068 444.054 372.972 445.139 372.068 446.223C371.525 446.765 370.44 447.127 369.717 447.127C368.089 447.488 366.642 447.669 364.834 447.85C364.11 447.85 362.483 448.392 362.483 448.392C361.759 449.115 361.217 449.838 360.494 450.199C359.77 450.38 358.866 450.561 358.143 450.561C356.696 450.561 355.43 450.922 353.983 451.103C352.175 451.464 350.366 452.368 349.1 453.633C346.93 456.706 341.867 462.308 339.516 465.2C336.984 468.272 331.559 475.321 329.027 478.393C325.229 482.369 320.889 485.984 316.368 489.056C316.006 489.598 315.464 489.96 314.921 489.96C313.293 490.141 311.847 489.96 310.219 489.599C301.9 486.345 293.943 482.008 286.71 476.947Z" fill="#094169"/>
<path d="M156.864 531.709C156.322 528.998 154.875 526.648 152.886 525.022L153.067 525.383C148.365 521.949 142.758 519.78 136.791 519.057H136.248C114.366 481.466 83.6228 449.838 46.9116 426.704C33.3484 417.668 17.2533 412.969 0.977457 413.33C-2.82025 415.86 27.1997 447.488 21.2319 452.729C19.0618 454.537 7.84949 438.994 3.50926 427.789C2.60504 425.62 0.0732422 426.524 0.0732422 430.68C3.87095 444.958 9.83877 458.513 17.9767 470.803C25.9338 487.068 80.0059 555.746 83.8036 561.168V561.529C82.5377 567.313 82.8994 573.096 84.8887 578.699C85.7929 581.048 87.6013 583.217 89.9523 584.482C90.8565 585.205 91.9415 585.386 93.0266 585.024C93.75 584.301 92.4841 583.759 92.1224 583.036C91.399 580.867 91.7607 578.518 92.8457 576.711C93.2074 575.988 93.75 575.445 94.4733 574.903C94.6542 574.722 95.0159 574.722 95.1967 574.903C123.047 615.748 135.163 668.16 109.845 691.655C104.781 697.077 97.9094 700.511 90.4948 701.053C90.4948 701.053 60.4748 701.776 57.5813 684.607C57.2197 682.257 57.7622 679.727 59.2089 677.558C61.7407 673.401 64.9959 669.787 68.7936 666.714L69.517 666.172C78.3783 659.124 83.4419 663.823 84.8887 665.63H85.612V665.449L86.1546 663.28C85.4312 650.449 66.6235 646.292 60.294 645.027C53.9645 643.761 47.2733 650.087 43.4756 641.412C41.3055 637.255 38.0503 633.641 34.4334 630.568C32.0825 628.038 29.9124 625.146 28.1039 622.074C27.9231 621.893 27.5614 621.893 27.3805 621.893C27.1997 621.893 27.1997 622.074 27.1997 622.074C22.6786 634.002 22.1361 647.015 25.753 659.304C26.838 662.919 28.1039 666.533 29.7315 669.967C30.4549 671.775 31.3591 673.401 32.4442 675.028C34.4334 678.462 36.7844 681.715 39.3162 684.787C42.2097 688.04 45.284 691.294 48.5392 694.185C60.4748 707.921 77.4741 716.054 95.7392 716.957C108.037 716.776 119.791 711.355 127.929 702.137C173.863 651.352 149.992 557.734 148.545 552.854C147.099 547.974 144.929 539.841 144.929 539.841C144.929 539.841 144.567 538.938 144.205 537.673C143.844 535.865 144.567 534.058 146.014 533.155C146.737 532.612 147.641 532.07 148.545 531.889C150.716 531.347 152.886 531.889 154.694 533.155C155.417 533.697 155.417 534.962 156.322 534.6C157.045 533.877 157.226 532.793 156.864 531.709Z" fill="#094169"/>
</svg>
