<svg width="3653" height="755" viewBox="0 0 3653 755" fill="none" xmlns="http://www.w3.org/2000/svg">
<path d="M664.852 312.716H831.409V355.007H712.595V433.806H815.133V476.097H712.595V597.367H664.852V312.536V312.716ZM1309.56 379.225H1261.82L1197.44 471.036V297.535H1152.95V597.728H1197.44V527.605L1217.33 503.929L1263.44 597.728H1312.81L1245.18 468.687L1309.56 379.406V379.225ZM1079.71 477.362C1069.04 472.482 1057.82 468.687 1046.43 465.614C1035.94 463.084 1026 459.108 1016.59 454.047C1010.26 450.252 1006.65 443.204 1007.01 435.794C1007.01 429.287 1009.36 422.962 1014.06 418.444C1019.49 413.564 1026.72 410.853 1033.95 411.395C1051.13 411.395 1059.99 421.335 1060.54 441.216V442.842H1105.75L1106.11 433.806C1106.65 417.178 1099.42 401.274 1086.58 390.792C1072.29 379.406 1054.21 373.622 1035.94 374.345C1016.41 373.442 997.423 379.406 981.87 391.334C967.765 403.262 959.988 421.155 961.073 439.408C960.531 451.517 963.424 463.445 969.754 473.928C974.998 482.061 982.232 488.567 990.913 492.724C1001.4 497.603 1012.25 501.76 1023.28 505.013C1034.5 507.905 1045.35 512.243 1055.29 518.026C1056.74 519.11 1058.19 520.375 1059.45 521.821C1068.86 532.846 1067.59 549.292 1056.56 558.69C1050.23 563.389 1042.63 565.739 1035.04 565.558C1026.72 565.739 1018.76 562.847 1012.61 557.244C1006.1 550.557 1002.67 541.34 1003.39 531.942V528.689H957.638C957.638 528.689 957.637 529.773 957.457 530.316C957.457 531.761 957.276 533.388 957.276 534.834C956.552 553.268 963.786 570.98 976.988 583.812C992.54 597.186 1012.79 603.873 1033.23 602.427C1053.48 603.511 1073.56 597.728 1090.01 585.8C1105.02 572.606 1112.8 552.907 1110.99 533.027C1111.72 520.195 1108.46 507.544 1101.59 496.7C1095.98 488.386 1088.39 481.518 1079.34 477.181L1079.71 477.362ZM867.216 597.547H911.703V379.225H867.216V597.547ZM866.493 342.175H911.703V297.354H866.493V342.175ZM468.999 430.372C465.202 444.649 459.234 458.204 451.096 470.494C443.139 486.76 389.248 555.437 385.269 560.859C385.269 560.859 385.269 561.04 385.269 561.221C386.535 567.004 385.992 572.787 384.184 578.39C383.28 580.92 381.471 582.908 379.12 584.173C378.216 584.896 377.131 585.077 376.046 584.715C375.323 583.993 376.769 583.631 376.95 582.727C377.674 580.559 377.493 578.39 376.227 576.402C375.684 575.679 375.142 575.137 374.599 574.595C374.418 574.595 374.057 574.595 373.876 574.595C346.026 615.44 333.91 667.851 359.228 691.346C364.291 696.768 371.163 700.202 378.578 700.744C378.578 700.744 408.417 701.467 411.491 684.298C411.853 681.768 411.13 679.237 409.864 677.249C407.332 673.093 404.077 669.297 400.279 666.406L399.556 665.863C390.694 658.634 385.812 663.333 384.184 665.321C384.184 665.321 384.184 665.321 384.003 665.321C383.822 665.321 383.461 665.321 383.28 665.14C382.918 664.418 382.737 663.875 382.737 663.152C383.461 650.321 402.268 646.164 408.598 644.899C414.927 643.634 421.438 649.959 425.416 641.284C427.767 637.127 430.841 633.513 434.458 630.44C436.99 627.91 439.16 625.018 440.788 621.946C440.788 621.946 440.788 621.946 440.969 621.765C441.15 621.765 441.511 621.765 441.692 622.127C446.213 634.055 446.756 647.067 443.139 659.357C442.054 662.972 440.607 666.586 439.16 670.02C438.437 671.827 437.533 673.454 436.448 675.081C434.458 678.515 432.107 681.768 429.576 684.84C426.682 688.093 423.608 691.346 420.353 694.238C408.417 707.974 391.418 716.287 373.333 717.01C361.036 716.829 349.462 711.407 341.143 702.19C295.209 651.405 319.08 557.787 320.527 552.907C321.974 548.027 324.144 539.894 324.144 539.894C324.144 539.894 324.506 538.991 324.867 537.726C325.229 536.099 324.506 534.292 323.059 533.207C322.336 532.665 321.431 532.123 320.527 531.942C318.357 531.4 316.187 531.942 314.379 533.207C313.655 533.75 313.655 535.015 312.751 534.653C312.028 533.749 311.847 532.665 312.208 531.761C312.751 529.231 314.198 526.882 316.187 525.074C320.889 521.46 326.495 519.291 332.463 518.749H333.005C355.068 481.157 385.631 449.529 422.342 426.396C435.905 417.359 452 412.66 468.276 413.022C472.074 415.552 442.054 447.18 448.022 452.421C450.192 454.409 461.404 438.685 465.744 427.48C466.648 425.311 469.18 426.215 469.18 430.372H468.999ZM435.363 444.288C435.363 440.673 432.469 437.782 428.852 437.782C425.235 437.782 422.342 440.673 422.342 444.288C422.342 447.903 425.235 450.794 428.852 450.794C432.469 450.794 435.363 447.903 435.363 444.288ZM428.671 441.035C426.863 441.035 425.416 442.481 425.416 444.288C425.416 446.095 426.863 447.541 428.671 447.541C430.48 447.541 431.927 446.095 431.927 444.288C431.927 442.481 430.48 441.035 428.671 441.035ZM280.199 437.059C284.178 438.143 288.337 437.239 291.411 434.709C294.667 431.998 298.284 418.082 285.805 415.371C273.689 412.66 271.7 419.889 261.392 420.07C251.083 420.251 251.626 412.118 251.988 406.154C251.988 402.178 249.998 398.382 246.743 396.033C249.275 399.467 249.637 404.166 247.828 407.961C245.839 414.106 247.828 420.793 253.073 424.769C258.679 428.203 265.551 428.203 271.157 424.95C275.678 422.42 285.986 417.721 288.156 427.119C290.326 436.517 279.838 436.878 279.838 436.878L280.199 437.059ZM306.241 397.479C306.241 397.479 299.549 400.732 291.05 392.418C282.369 383.924 273.508 385.189 272.785 393.141C272.061 400.913 280.018 411.214 265.37 411.937C265.37 411.937 276.221 413.925 277.667 407.6C279.114 401.455 274.412 392.238 282.188 392.418C288.88 392.418 293.943 404.527 306.241 397.479ZM1470.51 400.732C1485.16 426.034 1491.85 455.132 1489.68 484.229V499.953H1375.93C1375.2 516.942 1378.46 533.93 1385.51 549.292C1391.3 559.955 1402.51 566.281 1414.63 565.558C1423.67 565.558 1432.17 561.22 1437.23 553.811C1443.38 544.051 1446.46 532.665 1445.73 521.279H1489.86C1491.31 543.328 1483.89 565.197 1469.06 581.643C1434.52 612.006 1381.9 609.114 1351.15 574.775C1335.06 548.931 1327.64 518.749 1329.99 488.386C1329.99 412.299 1357.66 374.165 1413 374.165C1435.61 372.719 1457.31 382.659 1470.69 400.732H1470.51ZM1442.66 465.976C1443.38 452.059 1440.85 438.143 1435.24 425.311C1431.27 416.455 1422.4 411.034 1412.82 411.214C1402.33 410.672 1392.2 415.913 1386.6 424.95C1379.91 437.601 1376.29 451.698 1376.29 465.976H1442.84H1442.66ZM75.6657 355.007C75.6657 355.007 19.4235 189.82 19.7851 172.831C20.1468 155.662 34.6143 149.155 56.6771 147.529C76.7507 146.083 97.0051 148.794 115.994 155.481C120.876 150.42 127.568 147.89 134.621 148.252C164.46 148.252 194.299 152.408 222.872 160.722V142.107C207.139 139.938 194.841 127.648 192.671 111.925C189.959 92.406 203.341 74.5137 222.872 71.8027V41.0786H192.49V30.2348H222.872V0.0527954H232.818V30.2348H263.2V41.0786H232.818V71.8027C248.552 73.9715 261.03 86.4419 263.2 102.165C265.913 121.684 252.349 139.577 232.818 142.288V160.903C261.572 152.589 291.231 148.432 321.07 148.432C327.942 147.89 334.814 150.601 339.697 155.481C358.685 148.794 378.94 146.083 399.013 147.529C421.076 149.155 435.543 155.842 435.905 172.831C436.267 189.82 380.025 355.007 380.025 355.007H75.6657ZM331.016 226.327C345.484 226.327 347.835 231.93 347.292 236.448C346.569 241.87 328.484 259.582 325.772 262.654C322.878 265.546 324.867 267.172 325.772 266.992C326.676 266.63 327.942 266.992 338.792 257.051C349.643 246.75 353.441 254.16 352.717 262.473C351.994 270.787 346.569 293.74 338.792 292.836C331.016 291.932 326.314 280.185 325.41 277.835C324.325 275.486 323.24 273.679 320.708 280.546C318.538 288.318 318.9 296.631 321.793 304.041C324.506 310.186 331.197 313.439 354.164 313.439C374.961 314.343 392.864 298.981 395.035 278.378C396.481 270.968 391.779 275.667 389.609 278.378C387.439 281.088 376.227 296.089 371.163 291.029C366.1 278.739 366.823 264.642 373.153 253.075C382.195 244.039 391.418 271.871 395.035 268.076C399.194 263.919 379.663 246.75 383.461 235.906C387.077 225.062 406.789 229.942 406.789 229.942L405.885 229.58C405.885 229.58 417.097 197.23 419.81 183.856C421.618 178.072 420.714 171.747 417.097 166.686C410.225 160.541 401.002 157.83 391.779 158.915C364.11 158.915 350.366 162.529 345.664 170.662C343.494 174.458 334.995 208.616 330.654 226.327H331.016ZM258.317 287.233C255.243 296.451 247.467 292.113 244.392 289.583C242.041 287.414 234.084 274.401 232.095 275.305C230.829 275.847 229.563 278.197 231.914 290.848C234.265 303.499 237.882 309.102 242.946 311.451C251.264 313.258 259.764 313.981 268.264 313.62C277.848 315.066 287.614 313.62 296.475 309.825C303.347 303.499 308.953 295.728 312.57 287.053C314.017 283.619 316.549 274.582 314.74 274.582C312.932 274.401 303.709 290.306 296.837 290.306C294.486 290.306 289.241 286.149 289.241 271.51C289.241 247.111 296.113 250.364 298.826 251.087C301.539 251.991 314.017 266.63 316.006 266.088C318.176 265.546 317.091 261.75 317.091 261.75C312.389 252.352 308.953 242.412 307.145 232.111C308.23 225.243 321.251 226.146 321.251 226.146H320.166C324.144 206.989 327.038 187.832 329.027 168.493C328.665 164.698 323.602 162.891 319.442 161.987C309.496 160.541 299.369 160.361 289.241 161.987C269.71 163.975 243.126 167.409 237.882 173.554C233.903 190.723 232.276 208.435 232.999 226.146H231.914C246.02 227.412 246.382 232.653 246.382 236.267C241.68 245.123 236.435 253.798 230.829 262.112C230.287 264.642 232.637 268.257 236.254 264.823C239.871 261.389 249.637 252.895 256.328 255.967C263.019 258.859 261.03 278.197 257.775 287.414L258.317 287.233ZM126.121 168.493C128.11 187.832 131.004 206.989 134.982 225.966H133.897C133.897 225.966 146.918 225.243 148.003 232.111C146.194 242.412 142.758 252.533 138.057 261.75C138.057 261.75 137.152 265.546 139.142 266.088C141.312 266.63 153.609 251.991 156.322 251.087C159.215 250.184 165.906 247.111 165.906 271.51C165.906 286.149 160.843 290.306 158.311 290.306C151.439 290.306 142.216 274.401 140.407 274.582C138.599 274.582 141.131 283.619 142.578 287.053C146.194 295.728 151.801 303.499 158.673 309.825C167.534 313.62 177.299 314.885 186.884 313.62C195.384 313.981 203.883 313.258 212.383 311.451C217.447 308.921 221.244 303.499 223.414 290.848C225.765 278.197 224.319 275.847 223.234 275.305C221.244 274.401 213.287 287.595 210.936 289.583C207.862 292.294 200.267 296.451 197.011 287.233C193.937 278.016 191.767 258.859 198.458 255.786C205.149 252.895 214.915 261.208 218.532 264.642C222.149 268.076 224.5 264.642 223.957 261.931C218.351 253.617 213.106 244.942 208.405 236.087C208.405 232.472 208.766 227.231 222.872 225.966H221.787C222.51 208.254 220.883 190.723 216.723 173.373C211.479 167.228 184.895 163.794 165.364 161.806C139.322 159.095 130.642 162.71 127.748 165.06C126.663 165.783 125.94 167.048 125.759 168.493H126.121ZM101.165 313.259C124.132 313.259 131.004 310.005 133.535 303.861C136.61 296.27 136.971 288.137 134.621 280.366C132.089 273.679 130.823 275.486 129.919 277.655C128.834 280.004 124.132 291.752 116.355 292.655C108.579 293.559 103.154 270.425 102.611 262.293C101.888 254.16 105.686 246.75 116.536 256.871C127.387 266.992 128.653 266.63 129.557 266.811C130.642 267.172 132.45 265.546 129.557 262.473C126.844 259.582 108.76 241.689 108.037 236.267C107.494 231.749 109.664 225.966 124.312 226.146C119.972 208.435 111.473 174.096 109.483 170.482C104.781 162.168 90.8565 158.734 63.3683 158.734C54.1453 157.65 44.9223 160.361 38.0503 166.505C34.6143 171.566 33.5292 177.891 35.3376 183.675C38.0503 197.049 49.0817 229.038 49.0817 229.4L47.9967 229.761C47.9967 229.761 67.7086 224.881 71.5063 235.725C75.1231 246.569 55.5921 263.738 59.9323 267.895C63.5492 271.691 72.7722 243.858 81.8143 252.895C88.1438 264.642 88.8672 278.558 83.8036 290.848C78.74 295.908 67.5277 280.908 65.3576 278.197C63.1875 275.486 58.4856 270.787 59.9323 278.197C62.2833 298.8 80.1867 314.162 100.803 313.259H101.165ZM272.604 466.337C277.487 469.59 282.188 473.205 286.71 477C293.943 482.061 301.9 486.398 310.219 489.651C311.847 490.013 313.293 490.193 314.921 490.013C315.464 490.013 316.006 489.651 316.368 489.109C320.889 486.037 325.229 482.422 329.027 478.446C331.559 475.374 336.984 468.325 339.516 465.253C341.867 462.361 346.93 456.758 349.1 453.686C350.366 452.421 352.175 451.517 353.983 451.156C355.43 450.975 356.696 450.614 358.143 450.614C358.866 450.614 359.77 450.433 360.494 450.252C361.217 449.891 361.759 449.168 362.483 448.445C362.483 448.445 364.11 447.903 364.834 447.903C366.642 447.722 368.089 447.541 369.717 447.18C370.44 447.18 371.525 446.818 372.068 446.276C372.972 445.192 372.068 444.107 370.802 443.746C369.536 443.565 368.27 443.565 366.823 443.746C365.919 443.746 364.834 444.107 363.93 444.107C363.749 444.107 363.025 444.107 363.025 444.107C363.025 443.746 363.749 442.842 363.93 442.481C364.291 441.938 364.653 441.396 365.015 440.854C365.376 440.312 365.738 439.77 366.1 439.228C366.1 439.228 366.281 438.866 366.461 438.685C366.642 438.143 367.185 437.601 367.546 437.239H367.727C367.727 437.239 368.27 436.517 368.631 436.155C369.355 435.613 369.897 435.794 370.621 435.613C370.802 435.613 370.982 435.613 371.344 435.432C371.525 435.432 371.706 435.251 372.068 435.071C372.248 435.071 372.61 435.251 372.791 435.251C373.333 435.251 373.876 435.251 374.238 435.071C374.78 435.071 375.323 434.709 375.684 434.348C375.684 433.986 375.684 433.625 375.684 433.444C375.323 433.083 374.599 433.444 374.238 433.444C373.695 433.444 373.153 433.444 372.791 433.083C373.333 432.721 373.876 432.721 374.418 432.179C374.961 431.818 375.684 431.275 376.046 430.733C376.408 430.191 376.95 430.01 377.674 429.83C377.854 429.83 378.216 429.649 378.397 429.468C379.482 428.564 378.94 427.299 377.854 427.661C377.854 427.299 377.312 427.299 376.95 427.299C376.589 427.299 376.227 427.842 375.865 427.842C375.323 428.022 374.599 427.841 373.876 428.203C373.153 428.384 372.61 428.564 371.887 428.745C371.163 428.745 370.621 429.107 369.897 429.287C369.174 429.287 368.451 429.649 367.908 430.191C367.366 430.552 366.642 431.095 366.1 431.456C365.557 431.998 364.834 432.36 364.291 432.902C363.025 433.625 361.759 434.529 360.674 435.432C358.685 438.143 356.334 440.673 353.802 443.023C351.813 444.469 349.462 445.553 346.93 446.095C344.76 446.999 342.771 448.445 341.505 450.433C336.08 456.216 330.293 461.638 323.963 466.518C321.793 467.964 316.368 471.397 312.57 473.928C311.847 474.289 311.123 474.289 310.581 473.928C308.953 472.482 307.145 470.132 305.698 468.867C303.347 466.699 296.113 460.734 293.943 458.927C291.592 456.758 289.603 454.59 287.614 452.24C285.082 449.529 282.369 446.818 279.657 444.288C271.7 437.24 258.679 440.131 255.785 437.601C248.19 432.541 242.946 424.588 241.137 415.552C241.137 409.949 247.828 391.515 241.499 384.285C237.159 378.502 230.467 375.068 223.053 374.888C198.458 374.888 196.288 386.274 193.214 391.876C189.416 398.925 187.608 394.226 186.342 390.611C185.618 388.623 184.714 386.816 183.448 385.37C178.023 379.948 172.778 390.611 172.778 390.611C182.544 382.84 180.916 389.346 185.799 398.202C190.501 407.058 196.107 399.286 197.916 396.394C199.724 393.503 200.99 391.153 200.99 391.153L200.628 393.141C200.628 394.226 200.628 395.31 200.628 396.394C200.628 396.756 200.628 397.298 200.628 397.66C200.628 398.744 200.628 399.648 200.99 400.732C201.352 401.816 201.713 402.901 202.256 403.985L202.618 405.069C202.618 405.069 202.979 406.696 202.979 407.6C202.979 408.503 202.979 409.407 202.618 410.13C202.256 411.214 201.894 412.299 201.352 413.383C200.809 414.287 200.809 414.648 200.809 415.19C200.809 415.552 201.171 415.913 201.532 416.094C202.075 416.275 202.798 416.456 203.341 416.636C203.883 416.636 204.607 416.636 204.788 417.359C204.788 417.721 204.788 417.901 204.788 418.263C204.788 418.263 204.245 419.709 204.788 420.251C204.968 420.432 205.33 420.612 205.511 420.612C205.692 420.612 205.873 420.612 206.054 420.974C206.054 420.974 205.692 421.516 205.692 421.697C205.692 421.697 205.149 423.323 206.777 423.504C207.319 423.504 207.681 423.865 207.862 424.408C208.043 424.769 208.224 425.311 208.043 425.673C207.862 426.757 208.043 427.842 208.947 428.745C209.309 429.107 209.67 429.468 210.213 429.649C210.755 430.01 211.479 430.191 212.202 430.191C213.649 430.191 215.096 429.649 216.542 429.107C219.978 427.48 223.234 424.95 225.042 426.938C227.212 429.468 231.01 439.047 209.128 441.396C204.426 441.216 199.543 441.938 195.203 443.565C194.118 443.927 193.033 444.649 192.129 445.372C189.235 447.541 186.703 450.071 184.172 452.782C184.172 452.782 179.289 457.843 177.119 459.65C174.949 461.457 167.715 467.421 165.364 469.59C163.555 471.217 161.204 474.289 159.396 475.554C155.598 473.205 149.088 469.229 146.737 467.602C140.408 462.722 134.621 457.301 129.195 451.517C127.929 449.529 125.94 447.903 123.77 447.18C121.238 446.637 119.068 445.553 116.898 443.927C114.366 441.758 112.015 439.228 110.026 436.336C108.941 435.251 107.675 434.348 106.409 433.806C105.866 433.444 105.143 432.902 104.601 432.36C104.058 431.818 103.335 431.456 102.792 431.095C102.25 430.552 101.526 430.372 100.803 430.191C100.079 430.191 99.5369 429.83 98.8136 429.649C98.0902 429.649 97.5477 429.287 96.8243 429.107C96.1009 428.926 95.3776 429.107 94.835 428.745C94.4733 428.745 94.1117 428.203 93.75 428.203C93.5691 428.203 93.0266 428.203 92.8457 428.564C91.7607 428.203 91.2182 429.649 92.3032 430.372C92.4841 430.372 92.6649 430.733 93.0266 430.733C93.5691 430.733 94.1117 431.275 94.6542 431.637C95.1967 432.179 95.7392 432.721 96.2818 433.083C96.8243 433.444 97.3668 433.444 97.9094 433.986C97.3668 434.167 97.0051 434.348 96.4626 434.348C96.1009 434.348 95.3776 434.348 95.0159 434.348C94.835 434.529 94.6542 434.89 95.0159 435.251C95.3776 435.613 95.9201 435.974 96.4626 435.974C97.0051 435.974 97.5477 435.974 97.9094 436.155C98.271 436.155 98.4519 435.974 98.6327 435.974C98.8136 435.974 98.9944 435.974 99.3561 436.336C99.5369 436.336 99.7178 436.336 100.079 436.517C100.803 436.517 101.526 436.517 102.069 437.059C102.43 437.24 102.611 437.601 102.973 437.962H103.154C103.154 437.962 104.058 439.047 104.239 439.589C104.239 439.77 104.42 439.95 104.601 440.131C104.962 440.673 105.324 441.216 105.686 441.758C106.047 442.3 106.59 442.842 106.771 443.384C106.952 443.746 107.856 444.83 107.675 445.011C107.675 445.011 106.952 445.192 106.771 445.011C105.866 445.011 104.781 444.83 103.877 444.649C102.611 444.469 101.345 444.469 99.8986 444.649C98.8136 445.011 97.7285 446.095 98.6327 447.18C99.1753 447.722 100.26 447.903 100.984 448.083C102.611 448.445 104.058 448.626 105.866 448.806C106.771 448.806 107.494 448.987 108.217 449.348C108.217 449.348 109.483 450.975 110.207 451.156C110.93 451.336 111.834 451.517 112.558 451.517C114.004 451.517 115.27 451.879 116.717 452.059C118.525 452.421 120.334 453.144 121.6 454.59C123.77 457.662 128.653 463.265 131.184 466.156C133.716 469.048 138.961 476.097 141.673 479.35C145.471 483.326 149.631 486.94 154.332 490.013C154.513 490.374 154.875 490.555 155.237 490.736C157.045 490.736 158.853 490.736 160.481 490.374C168.8 487.663 176.757 483.687 183.81 478.627C183.81 478.627 192.852 470.494 194.841 469.048C196.65 467.602 198.82 466.879 200.99 467.06C202.075 467.06 203.16 467.421 204.064 467.964C206.596 469.59 207.139 473.566 204.426 478.807C204.426 478.807 204.426 478.807 204.426 478.988C199.905 485.675 201.713 494.712 208.405 499.23C208.405 499.23 208.585 499.23 208.585 499.411C208.766 501.218 209.128 503.929 210.032 508.447C210.394 510.255 210.755 512.423 211.298 515.134C212.564 525.617 204.426 532.665 194.118 554.895C181.821 581.462 185.799 642.188 185.799 642.188C187.246 662.791 191.586 683.033 198.82 702.371C208.766 732.914 239.871 759.662 271.338 752.975C280.923 750.084 289.241 743.397 294.124 734.541C297.741 728.577 299.911 721.89 300.815 715.022C301.358 710.323 301.9 705.986 302.081 702.009C302.081 698.033 302.081 694.057 301.358 690.081C301.177 688.274 300.815 686.286 300.273 684.479C299.007 679.057 297.018 673.996 294.667 669.117C293.039 665.863 291.231 662.791 289.241 659.719C288.156 658.273 286.89 657.008 285.625 655.562C284.359 653.754 282.912 652.128 281.284 650.501C280.018 649.598 278.752 648.875 277.487 648.152C276.04 647.248 274.593 646.525 273.508 645.983L272.423 645.622C272.423 645.622 271.519 646.345 271.338 646.887C271.7 649.236 271.88 651.586 271.88 653.935C272.061 656.465 273.327 658.273 272.785 660.984C271.88 664.237 271.519 667.671 271.7 671.105C271.7 677.43 263.742 681.948 263.742 681.948C261.392 683.575 259.583 685.563 258.136 687.912C257.775 688.455 257.232 688.816 256.87 689.358C256.509 689.901 256.147 690.443 255.785 690.985C252.349 695.865 250.36 701.467 249.818 707.431C249.818 710.142 250.541 712.673 252.169 714.841C252.711 715.926 253.615 716.468 254.7 716.468C255.605 716.106 254.7 715.203 254.7 714.299C254.7 712.13 255.966 710.142 257.956 708.877C258.86 708.335 259.764 707.974 260.849 707.793C261.392 707.793 261.753 707.251 262.296 707.07C263.923 706.708 265.551 706.528 267.179 706.528C272.423 706.528 277.487 707.251 282.369 708.877C284.72 709.962 286.71 711.407 288.156 713.395C290.688 715.564 291.954 718.998 291.05 722.251C290.507 725.143 289.241 728.035 287.252 730.203C286.529 730.926 285.625 731.649 284.72 732.372C279.295 735.806 273.146 737.794 266.817 738.156C261.03 738.156 255.605 735.806 251.807 731.649C239.69 719.36 238.424 707.251 239.329 683.033C240.595 662.068 245.296 641.465 253.615 622.127C253.615 622.127 276.944 580.016 265.551 552.726C256.87 531.942 252.711 527.243 254.52 519.11C257.232 511.881 258.86 506.64 259.764 503.387C260.126 502.122 260.487 500.857 260.668 499.953C260.668 499.591 261.211 499.23 261.572 499.049C264.285 498.146 272.604 492.543 266.998 478.627C263.2 469.409 268.264 464.71 272.604 466.879V466.337ZM40.0396 441.035C38.2311 441.035 36.7844 442.481 36.7844 444.288C36.7844 446.095 38.2311 447.541 40.0396 447.541C41.848 447.541 43.2947 446.095 43.2947 444.288C43.2947 442.481 41.848 441.035 40.0396 441.035ZM152.886 525.074C154.875 526.701 156.322 529.05 156.864 531.761C157.226 532.846 157.045 533.93 156.322 534.653C155.417 535.015 155.417 533.75 154.694 533.207C152.886 531.942 150.716 531.4 148.545 531.942C147.641 532.123 146.737 532.665 146.014 533.207C144.567 534.111 143.844 535.918 144.205 537.726C144.567 538.991 144.929 539.894 144.929 539.894C144.929 539.894 147.099 548.027 148.545 552.907C149.992 557.787 173.863 651.405 127.929 702.19C119.791 711.407 108.037 716.829 95.7392 717.01C77.4741 716.106 60.4748 707.974 48.5392 694.238C45.284 691.346 42.2097 688.093 39.3162 684.84C36.7844 681.768 34.4334 678.515 32.4442 675.081C31.3591 673.454 30.4549 671.827 29.7315 670.02C28.1039 666.586 26.838 662.972 25.753 659.357C22.1361 647.067 22.6786 634.055 27.1997 622.127C27.1997 622.127 27.1997 621.946 27.3805 621.946C27.5614 621.946 27.9231 621.946 28.1039 622.127C29.9124 625.199 32.0825 628.091 34.4334 630.621C38.0503 633.693 41.3055 637.308 43.4756 641.465C47.2733 650.14 53.9645 643.814 60.294 645.079C66.6235 646.344 85.4312 650.501 86.1546 663.333C86.1546 663.333 85.7929 664.779 85.612 665.502C85.612 665.502 85.612 665.502 85.612 665.683C85.4312 665.683 85.0695 665.683 84.8887 665.683C83.4419 663.875 78.3783 659.176 69.517 666.225L68.7936 666.767C64.9959 669.839 61.7407 673.454 59.2089 677.611C57.7622 679.78 57.2197 682.31 57.5813 684.659C60.4748 701.829 90.4948 701.106 90.4948 701.106C97.9094 700.564 104.781 697.13 109.845 691.708C135.163 668.213 123.047 615.801 95.1967 574.956C95.0159 574.775 94.6542 574.775 94.4733 574.956C93.75 575.498 93.2074 576.04 92.8457 576.763C91.7607 578.571 91.399 580.92 92.1224 583.089C92.4841 583.812 93.75 584.354 93.0266 585.077C91.9415 585.438 90.8565 585.258 89.9523 584.535C87.6013 583.27 85.7929 581.101 84.8887 578.751C82.8994 573.149 82.5377 567.365 83.8036 561.582C83.8036 561.582 83.8036 561.401 83.8036 561.221C80.0059 555.799 25.9338 487.121 17.9767 470.855C9.83877 458.566 3.87095 445.011 0.0732422 430.733C0.0732422 426.576 2.60504 425.673 3.50926 427.842C7.84949 439.047 19.0618 454.59 21.2319 452.782C27.1997 447.541 -2.82025 415.913 0.977457 413.383C17.2533 413.022 33.3484 417.721 46.9116 426.757C83.6228 449.891 114.366 481.518 136.248 519.11H136.791C142.758 519.833 148.365 522.002 153.067 525.436L152.886 525.074ZM46.5499 444.288C46.5499 440.673 43.6564 437.782 40.0396 437.782C36.4227 437.782 33.5292 440.673 33.5292 444.288C33.5292 447.903 36.4227 450.794 40.0396 450.794C43.6564 450.794 46.5499 447.903 46.5499 444.288ZM3621.28 318.138H3584.38L3576.97 379.225H3556.17V416.998H3576.97V546.581C3576.43 560.678 3580.22 574.595 3588 586.523C3596.68 597.728 3610.24 603.692 3624.35 602.246C3629.23 602.246 3634.12 601.704 3638.82 600.8C3643.34 600.077 3647.86 598.812 3652.2 597.367V565.016H3639.72C3638.27 565.197 3636.65 565.197 3635.02 565.016C3626.16 563.57 3620.01 555.256 3621.28 546.401V417.359H3652.02V379.587H3621.28V318.5V318.138ZM1581 409.949H1578.47L1573.05 379.225H1536.88V597.547H1581.37V471.759C1580.1 457.843 1584.08 443.927 1592.58 432.902C1600.35 424.95 1611.02 420.612 1622.06 421.154H1637.43V377.598C1631.28 375.249 1624.77 374.165 1618.26 374.345C1600.9 374.345 1588.42 386.274 1580.82 410.13L1581 409.949ZM2565.15 379.225H2517.41L2453.03 471.036V297.535H2408.54V597.728H2453.03V527.605L2472.92 503.929L2519.04 597.728H2568.41L2500.77 468.687L2565.15 379.406V379.225ZM2970.6 409.949H2968.07L2962.64 379.225H2926.48V597.547H2970.96V471.759C2969.7 457.843 2973.68 443.927 2982.18 432.902C2989.95 424.95 3000.62 420.612 3011.65 421.154H3027.03V377.598C3020.88 375.249 3014.37 374.165 3007.86 374.345C2990.49 374.345 2978.02 386.274 2970.42 410.13L2970.6 409.949ZM2653.95 318.138H2617.05L2609.64 379.225H2588.84V416.998H2609.64V546.581C2609.1 560.678 2612.89 574.595 2620.67 586.523C2629.35 597.728 2642.91 603.692 2657.02 602.246C2661.9 602.246 2666.79 601.704 2671.49 600.8C2676.01 600.077 2680.53 598.812 2684.87 597.367V565.016H2672.39C2670.95 565.197 2669.32 565.197 2667.69 565.016C2658.83 563.57 2652.68 555.256 2653.95 546.401V417.359H2684.69V379.587H2653.95V318.5V318.138ZM3507.53 400.732C3522.17 426.034 3528.86 455.132 3526.69 484.229V499.953H3412.94C3412.22 516.942 3415.48 533.93 3422.53 549.292C3428.32 559.955 3439.53 566.281 3451.64 565.558C3460.69 565.558 3469.19 561.22 3474.25 553.811C3480.4 544.051 3483.47 532.665 3482.75 521.279H3526.88C3528.32 543.328 3520.91 565.197 3506.08 581.643C3471.54 612.006 3418.91 609.114 3388.17 574.775C3372.07 548.931 3364.66 518.749 3367.01 488.386C3367.01 412.299 3394.68 374.165 3450.02 374.165C3472.62 372.719 3494.32 382.659 3507.71 400.732H3507.53ZM3479.68 465.976C3480.4 452.059 3477.87 438.143 3472.26 425.311C3468.28 416.455 3459.42 411.034 3449.84 411.214C3439.35 410.672 3429.22 415.913 3423.61 424.95C3416.92 437.601 3413.31 451.698 3413.31 465.976H3479.86H3479.68ZM3212.75 564.654H3223.96V595.74C3215.64 599.897 3206.24 602.066 3197.02 601.885C3188.34 602.066 3180.02 599.355 3173.15 594.113C3166.64 588.872 3161.75 581.643 3159.58 573.51H3157.59C3151.81 582.366 3144.21 589.595 3135.17 594.836C3125.22 599.897 3114.37 602.427 3103.16 602.066C3089.23 602.066 3075.49 597.186 3064.82 588.33C3051.98 575.86 3045.65 558.329 3047.64 540.617C3045.29 517.303 3056.32 494.712 3076.03 482.061C3100.99 469.59 3128.84 463.988 3156.87 465.433V440.493C3157.41 432.721 3155.24 424.95 3151.08 418.444C3145.66 412.479 3137.88 409.588 3129.92 410.491C3121.79 409.768 3113.83 412.66 3108.04 418.444C3103.52 423.685 3100.99 430.552 3101.17 437.601V443.384H3057.59C3057.23 440.312 3057.05 437.239 3057.23 434.348C3056.5 417.178 3063.92 400.732 3077.12 389.888C3092.31 378.502 3110.94 372.719 3129.92 373.622C3149.28 372.177 3168.44 377.96 3183.45 390.069C3195.93 402.359 3202.44 419.347 3201.36 436.697V549.654C3201 553.63 3202.26 557.606 3204.61 560.678C3206.78 563.028 3209.86 564.293 3212.93 564.112L3212.75 564.654ZM3156.51 499.953C3140.59 499.23 3124.68 501.941 3110.03 508.086C3098.82 513.327 3091.95 525.074 3093.03 537.364C3093.03 555.618 3101.71 564.835 3119.26 564.835C3130.11 565.197 3140.41 560.136 3146.74 551.1C3153.8 540.436 3157.41 527.785 3156.69 514.953V499.953H3156.51ZM3306.25 318.138H3269.35L3261.94 379.225H3241.14V416.998H3261.94V546.581C3261.4 560.678 3265.2 574.595 3272.97 586.523C3281.65 597.728 3295.22 603.692 3309.32 602.246C3314.2 602.246 3319.09 601.704 3323.79 600.8C3328.31 600.077 3332.83 598.812 3337.17 597.367V565.016H3324.69C3323.25 565.197 3321.62 565.197 3319.99 565.016C3311.13 563.57 3304.98 555.256 3306.25 546.401V417.359H3336.99V379.587H3306.25V318.5V318.138ZM2862.82 402.178C2878.73 428.022 2885.97 458.204 2883.8 488.386C2885.97 518.568 2878.73 548.75 2862.82 574.595C2831.17 609.475 2777.28 612.186 2742.2 580.559C2740.21 578.751 2738.22 576.763 2736.41 574.775C2720.5 548.931 2713.08 518.749 2715.43 488.386C2713.08 458.024 2720.5 427.842 2736.41 401.997C2768.24 367.116 2822.13 364.767 2857.03 396.394C2859.02 398.202 2861.01 400.19 2862.82 402.178ZM2837.32 480.434C2838.41 462.722 2835.15 445.192 2828.1 428.926C2819.42 413.022 2799.71 407.238 2783.79 415.913C2778.18 418.986 2773.66 423.504 2770.77 428.926C2763.72 445.192 2760.64 462.722 2761.55 480.434V496.158C2760.46 513.869 2763.72 531.4 2770.77 547.666C2779.45 563.57 2799.16 569.353 2815.08 560.678C2820.68 557.606 2825.2 553.088 2828.1 547.666C2835.15 531.4 2838.23 513.869 2837.32 496.158V480.434ZM1880.48 297.354H1924.97V597.547H1888.8L1883.73 570.98H1881.75C1877.41 580.559 1870.35 588.691 1861.31 594.475C1852.81 599.897 1843.05 602.608 1833.1 602.608C1812.12 603.331 1792.41 592.487 1781.74 574.414C1767.81 547.846 1761.67 518.026 1763.66 488.025C1761.67 458.385 1768.18 428.926 1782.1 402.72C1791.87 385.189 1810.49 374.345 1830.57 374.345C1840.69 374.345 1850.64 376.695 1859.68 381.394C1868 385.731 1874.51 392.78 1878.31 401.274H1880.3V297.535L1880.48 297.354ZM1880.48 496.158V481.699C1881.38 464.53 1878.49 447.18 1871.98 431.275C1864.75 416.456 1846.66 410.311 1831.83 417.54C1826.05 420.432 1821.34 424.95 1818.45 430.733C1811.76 446.457 1808.87 463.445 1809.95 480.615V496.338C1808.87 513.327 1811.76 530.496 1818.45 546.22C1826.23 561.04 1844.31 566.642 1859.14 559.052C1864.75 556.16 1869.09 551.642 1871.98 546.039C1878.49 530.316 1881.38 513.327 1880.48 496.519V496.158ZM2342.17 400.732C2356.82 426.034 2363.51 455.132 2361.34 484.229V499.953H2247.59C2246.87 516.942 2250.12 533.93 2257.18 549.292C2262.96 559.955 2274.18 566.281 2286.29 565.558C2295.33 565.558 2303.83 561.22 2308.9 553.811C2315.05 544.051 2318.12 532.665 2317.4 521.279H2361.52C2362.97 543.328 2355.55 565.197 2340.73 581.643C2306.18 612.006 2253.56 609.114 2222.82 574.775C2206.72 548.931 2199.31 518.749 2201.66 488.386C2201.66 412.299 2229.33 374.165 2284.66 374.165C2307.27 372.719 2328.97 382.659 2342.35 400.732H2342.17ZM2314.32 465.976C2315.05 452.059 2312.51 438.143 2306.91 425.311C2302.93 416.455 2294.07 411.034 2284.48 411.214C2273.99 410.672 2263.87 415.913 2258.26 424.95C2251.57 437.601 2247.95 451.698 2247.95 465.976H2314.5H2314.32ZM1674.86 597.547H1719.35V379.225H1674.86V597.547ZM1674.14 342.175H1719.35V297.354H1674.14V342.175ZM2125.34 409.949H2122.81L2117.38 379.225H2081.22V597.547H2125.7V471.759C2124.44 457.843 2128.42 443.927 2136.92 432.902C2144.69 424.95 2155.36 420.612 2166.39 421.154H2181.76V377.598C2175.62 375.249 2169.11 374.165 2162.6 374.345C2145.23 374.345 2132.76 386.274 2125.16 410.13L2125.34 409.949ZM1979.22 342.175H2024.43V297.354H1979.22V342.175ZM1979.94 597.547H2024.43V379.225H1979.94V597.547Z" fill="#094169"/>
<path d="M451.096 470.494C459.234 458.204 465.202 444.649 468.999 430.372H469.18C469.18 426.215 466.648 425.311 465.744 427.48C461.404 438.685 450.192 454.409 448.022 452.421C442.054 447.18 472.074 415.552 468.276 413.022C452 412.66 435.905 417.359 422.342 426.396C385.631 449.529 355.068 481.157 333.005 518.749H332.463C326.495 519.291 320.889 521.46 316.187 525.074C314.198 526.882 312.751 529.231 312.208 531.761C311.847 532.665 312.028 533.749 312.751 534.653C313.655 535.015 313.655 533.75 314.379 533.207C316.187 531.942 318.357 531.4 320.527 531.942C321.431 532.123 322.336 532.665 323.059 533.207C324.506 534.292 325.229 536.099 324.867 537.726C324.506 538.991 324.144 539.894 324.144 539.894C324.144 539.894 321.974 548.027 320.527 552.907C319.08 557.787 295.209 651.405 341.143 702.19C349.462 711.407 361.036 716.829 373.333 717.01C391.418 716.287 408.417 707.974 420.353 694.238C423.608 691.346 426.682 688.093 429.576 684.84C432.107 681.768 434.458 678.515 436.448 675.081C437.533 673.454 438.437 671.827 439.16 670.02C440.607 666.586 442.054 662.972 443.139 659.357C446.756 647.067 446.213 634.055 441.692 622.127C441.511 621.765 441.15 621.765 440.969 621.765L440.788 621.946C439.16 625.018 436.99 627.91 434.458 630.44C430.841 633.513 427.767 637.127 425.416 641.284C421.438 649.959 414.927 643.634 408.598 644.899C402.268 646.164 383.461 650.321 382.737 663.152C382.737 663.875 382.918 664.418 383.28 665.14C383.461 665.321 383.822 665.321 384.003 665.321H384.184C385.812 663.333 390.694 658.634 399.556 665.863L400.279 666.406C404.077 669.297 407.332 673.093 409.864 677.249C411.13 679.237 411.853 681.768 411.491 684.298C408.417 701.467 378.578 700.744 378.578 700.744C371.163 700.202 364.291 696.768 359.228 691.346C333.91 667.851 346.026 615.44 373.876 574.595H374.599C375.142 575.137 375.684 575.679 376.227 576.402C377.493 578.39 377.674 580.559 376.95 582.727C376.769 583.631 375.323 583.993 376.046 584.715C377.131 585.077 378.216 584.896 379.12 584.173C381.471 582.908 383.28 580.92 384.184 578.39C385.992 572.787 386.535 567.004 385.269 561.221V560.859C389.248 555.437 443.139 486.76 451.096 470.494Z" fill="#094169"/>
<path d="M291.411 434.709C288.337 437.239 284.178 438.143 280.199 437.059L279.838 436.878C279.838 436.878 290.326 436.517 288.156 427.119C285.986 417.721 275.678 422.42 271.157 424.95C265.551 428.203 258.679 428.203 253.073 424.769C247.828 420.793 245.839 414.106 247.828 407.961C249.637 404.166 249.275 399.467 246.743 396.033C249.998 398.382 251.988 402.178 251.988 406.154L251.983 406.239C251.621 412.195 251.132 420.25 261.392 420.07C271.7 419.889 273.689 412.66 285.805 415.371C298.284 418.082 294.667 431.998 291.411 434.709Z" fill="#094169"/>
<path d="M291.05 392.418C299.549 400.732 306.241 397.479 306.241 397.479C293.943 404.527 288.88 392.418 282.188 392.418C274.412 392.238 279.114 401.455 277.667 407.6C276.221 413.925 265.37 411.937 265.37 411.937C280.018 411.214 272.061 400.913 272.785 393.141C273.508 385.189 282.369 383.924 291.05 392.418Z" fill="#094169"/>
<path d="M286.71 477C282.188 473.205 277.487 469.59 272.604 466.337V466.879C268.264 464.71 263.2 469.409 266.998 478.627C272.604 492.543 264.285 498.146 261.572 499.049C261.211 499.23 260.668 499.591 260.668 499.953C260.487 500.857 260.126 502.122 259.764 503.387C258.86 506.64 257.232 511.881 254.52 519.11C252.711 527.243 256.87 531.942 265.551 552.726C276.944 580.016 253.615 622.127 253.615 622.127C245.296 641.465 240.595 662.068 239.329 683.033C238.424 707.251 239.69 719.36 251.807 731.649C255.605 735.806 261.03 738.156 266.817 738.156C273.146 737.794 279.295 735.806 284.72 732.372C285.625 731.649 286.529 730.926 287.252 730.203C289.241 728.035 290.507 725.143 291.05 722.251C291.954 718.998 290.688 715.564 288.156 713.395C286.71 711.407 284.72 709.962 282.369 708.877C277.487 707.251 272.423 706.528 267.179 706.528C265.551 706.528 263.923 706.708 262.296 707.07C261.753 707.251 261.392 707.793 260.849 707.793C259.764 707.974 258.86 708.335 257.956 708.877C255.966 710.142 254.7 712.13 254.7 714.299C254.7 715.203 255.605 716.106 254.7 716.468C253.615 716.468 252.711 715.926 252.169 714.841C250.541 712.673 249.818 710.142 249.818 707.431C250.36 701.467 252.349 695.865 255.785 690.985L256.87 689.358C257.232 688.816 257.775 688.455 258.136 687.912C259.583 685.563 261.392 683.575 263.742 681.948C263.742 681.948 271.7 677.43 271.7 671.105C271.519 667.671 271.88 664.237 272.785 660.984C273.327 658.273 272.061 656.465 271.88 653.935C271.88 651.586 271.7 649.236 271.338 646.887C271.519 646.345 272.423 645.622 272.423 645.622L273.508 645.983C274.593 646.525 276.04 647.248 277.487 648.152C278.752 648.875 280.018 649.598 281.284 650.501C282.912 652.128 284.359 653.754 285.625 655.562C286.89 657.008 288.156 658.273 289.241 659.719C291.231 662.791 293.039 665.863 294.667 669.117C297.018 673.996 299.007 679.057 300.273 684.479C300.815 686.286 301.177 688.274 301.358 690.081C302.081 694.057 302.081 698.033 302.081 702.009C301.9 705.986 301.358 710.323 300.815 715.022C299.911 721.89 297.741 728.577 294.124 734.541C289.241 743.397 280.923 750.084 271.338 752.975C239.871 759.662 208.766 732.914 198.82 702.371C191.586 683.033 187.246 662.791 185.799 642.188C185.799 642.188 181.821 581.462 194.118 554.895C204.426 532.665 212.564 525.617 211.298 515.134C210.755 512.423 210.394 510.255 210.032 508.447C209.128 503.929 208.766 501.218 208.585 499.411C208.585 499.23 208.405 499.23 208.405 499.23C201.713 494.712 199.905 485.675 204.426 478.988V478.807C207.139 473.566 206.596 469.59 204.064 467.964C203.16 467.421 202.075 467.06 200.99 467.06C198.82 466.879 196.65 467.602 194.841 469.048C192.852 470.494 183.81 478.627 183.81 478.627C176.757 483.687 168.8 487.663 160.481 490.374C158.853 490.736 157.045 490.736 155.237 490.736C154.875 490.555 154.513 490.374 154.332 490.013C149.631 486.94 145.471 483.326 141.673 479.35C138.961 476.097 133.716 469.048 131.184 466.156C128.653 463.265 123.77 457.662 121.6 454.59C120.334 453.144 118.525 452.421 116.717 452.059C115.27 451.879 114.004 451.517 112.558 451.517C111.834 451.517 110.93 451.336 110.207 451.156C109.483 450.975 108.217 449.348 108.217 449.348C107.494 448.987 106.771 448.806 105.866 448.806C104.058 448.626 102.611 448.445 100.984 448.083C100.26 447.903 99.1753 447.722 98.6327 447.18C97.7285 446.095 98.8136 445.011 99.8986 444.649C101.345 444.469 102.611 444.469 103.877 444.649C104.781 444.83 105.866 445.011 106.771 445.011C106.952 445.192 107.675 445.011 107.675 445.011C107.856 444.83 106.952 443.746 106.771 443.384C106.59 442.842 106.047 442.3 105.686 441.758L104.601 440.131C104.42 439.95 104.239 439.77 104.239 439.589C104.058 439.047 103.154 437.962 103.154 437.962H102.973C102.611 437.601 102.43 437.24 102.069 437.059C101.526 436.517 100.803 436.517 100.079 436.517C99.7178 436.336 99.5369 436.336 99.3561 436.336C98.9944 435.974 98.8136 435.974 98.6327 435.974C98.4519 435.974 98.271 436.155 97.9094 436.155C97.5477 435.974 97.0051 435.974 96.4626 435.974C95.9201 435.974 95.3776 435.613 95.0159 435.251C94.6542 434.89 94.835 434.529 95.0159 434.348H96.4626C97.0051 434.348 97.3668 434.167 97.9094 433.986C97.3668 433.444 96.8243 433.444 96.2818 433.083C95.7392 432.721 95.1967 432.179 94.6542 431.637C94.1117 431.275 93.5691 430.733 93.0266 430.733C92.6649 430.733 92.4841 430.372 92.3032 430.372C91.2182 429.649 91.7607 428.203 92.8457 428.564C93.0266 428.203 93.5691 428.203 93.75 428.203C94.1117 428.203 94.4733 428.745 94.835 428.745C95.3776 429.107 96.1009 428.926 96.8243 429.107C97.5477 429.287 98.0902 429.649 98.8136 429.649C99.5369 429.83 100.079 430.191 100.803 430.191C101.526 430.372 102.25 430.552 102.792 431.095C103.335 431.456 104.058 431.818 104.601 432.36C105.143 432.902 105.866 433.444 106.409 433.806C107.675 434.348 108.941 435.251 110.026 436.336C112.015 439.228 114.366 441.758 116.898 443.927C119.068 445.553 121.238 446.637 123.77 447.18C125.94 447.903 127.929 449.529 129.195 451.517C134.621 457.301 140.408 462.722 146.737 467.602C149.088 469.229 155.598 473.205 159.396 475.554C161.204 474.289 163.555 471.217 165.364 469.59C167.715 467.421 174.949 461.457 177.119 459.65C179.289 457.843 184.172 452.782 184.172 452.782C186.703 450.071 189.235 447.541 192.129 445.372C193.033 444.649 194.118 443.927 195.203 443.565C199.543 441.938 204.426 441.216 209.128 441.396C231.01 439.047 227.212 429.468 225.042 426.938C223.234 424.95 219.978 427.48 216.542 429.107C215.096 429.649 213.649 430.191 212.202 430.191C211.479 430.191 210.755 430.01 210.213 429.649C209.67 429.468 209.309 429.107 208.947 428.745C208.043 427.842 207.862 426.757 208.043 425.673C208.224 425.311 208.043 424.769 207.862 424.408C207.681 423.865 207.319 423.504 206.777 423.504C205.149 423.323 205.692 421.697 205.692 421.697C205.692 421.516 206.054 420.974 206.054 420.974C205.873 420.612 205.692 420.612 205.511 420.612C205.33 420.612 204.968 420.432 204.788 420.251C204.245 419.709 204.788 418.263 204.788 418.263V417.359C204.607 416.636 203.883 416.636 203.341 416.636C202.798 416.456 202.075 416.275 201.532 416.094C201.171 415.913 200.809 415.552 200.809 415.19C200.809 414.648 200.809 414.287 201.352 413.383C201.894 412.299 202.256 411.214 202.618 410.13C202.979 409.407 202.979 408.503 202.979 407.6C202.979 406.696 202.618 405.069 202.618 405.069L202.256 403.985C201.713 402.901 201.352 401.816 200.99 400.732C200.628 399.648 200.628 398.744 200.628 397.66V396.394V393.141L200.99 391.153C200.99 391.153 199.724 393.503 197.916 396.394C196.107 399.286 190.501 407.058 185.799 398.202C180.916 389.346 182.544 382.84 172.778 390.611C172.778 390.611 178.023 379.948 183.448 385.37C184.714 386.816 185.618 388.623 186.342 390.611C187.608 394.226 189.416 398.925 193.214 391.876C196.288 386.274 198.458 374.888 223.053 374.888C230.467 375.068 237.159 378.502 241.499 384.285C247.828 391.515 241.137 409.949 241.137 415.552C242.946 424.588 248.19 432.541 255.785 437.601C258.679 440.131 271.7 437.24 279.657 444.288C282.369 446.818 285.082 449.529 287.614 452.24C289.603 454.59 291.592 456.758 293.943 458.927C296.113 460.734 303.347 466.699 305.698 468.867C307.145 470.132 308.953 472.482 310.581 473.928C311.123 474.289 311.847 474.289 312.57 473.928C316.368 471.397 321.793 467.964 323.963 466.518C330.293 461.638 336.08 456.216 341.505 450.433C342.771 448.445 344.76 446.999 346.93 446.095C349.462 445.553 351.813 444.469 353.802 443.023C356.334 440.673 358.685 438.143 360.674 435.432C361.759 434.529 363.025 433.625 364.291 432.902C364.834 432.36 365.557 431.998 366.1 431.456C366.642 431.095 367.366 430.552 367.908 430.191C368.451 429.649 369.174 429.287 369.897 429.287C370.621 429.107 371.163 428.745 371.887 428.745C372.61 428.564 373.153 428.384 373.876 428.203C374.599 427.841 375.323 428.022 375.865 427.842C376.227 427.842 376.589 427.299 376.95 427.299C377.312 427.299 377.854 427.299 377.854 427.661C378.94 427.299 379.482 428.564 378.397 429.468C378.216 429.649 377.854 429.83 377.674 429.83C376.95 430.01 376.408 430.191 376.046 430.733C375.684 431.275 374.961 431.818 374.418 432.179C373.876 432.721 373.333 432.721 372.791 433.083C373.153 433.444 373.695 433.444 374.238 433.444C374.599 433.444 375.323 433.083 375.684 433.444V434.348C375.323 434.709 374.78 435.071 374.238 435.071C373.876 435.251 373.333 435.251 372.791 435.251C372.61 435.251 372.248 435.071 372.068 435.071C371.706 435.251 371.525 435.432 371.344 435.432C370.982 435.613 370.802 435.613 370.621 435.613C369.897 435.794 369.355 435.613 368.631 436.155C368.27 436.517 367.727 437.239 367.727 437.239H367.546C367.185 437.601 366.642 438.143 366.461 438.685C366.281 438.866 366.1 439.228 366.1 439.228L365.015 440.854L363.93 442.481C363.749 442.842 363.025 443.746 363.025 444.107H363.93C364.834 444.107 365.919 443.746 366.823 443.746C368.27 443.565 369.536 443.565 370.802 443.746C372.068 444.107 372.972 445.192 372.068 446.276C371.525 446.818 370.44 447.18 369.717 447.18C368.089 447.541 366.642 447.722 364.834 447.903C364.11 447.903 362.483 448.445 362.483 448.445C361.759 449.168 361.217 449.891 360.494 450.252C359.77 450.433 358.866 450.614 358.143 450.614C356.696 450.614 355.43 450.975 353.983 451.156C352.175 451.517 350.366 452.421 349.1 453.686C346.93 456.758 341.867 462.361 339.516 465.253C336.984 468.325 331.559 475.374 329.027 478.446C325.229 482.422 320.889 486.037 316.368 489.109C316.006 489.651 315.464 490.013 314.921 490.013C313.293 490.193 311.847 490.013 310.219 489.651C301.9 486.398 293.943 482.061 286.71 477Z" fill="#094169"/>
<path d="M156.864 531.761C156.322 529.05 154.875 526.701 152.886 525.074L153.067 525.436C148.365 522.002 142.758 519.833 136.791 519.11H136.248C114.366 481.518 83.6228 449.891 46.9116 426.757C33.3484 417.721 17.2533 413.022 0.977457 413.383C-2.82025 415.913 27.1997 447.541 21.2319 452.782C19.0618 454.59 7.84949 439.047 3.50926 427.842C2.60504 425.673 0.0732422 426.576 0.0732422 430.733C3.87095 445.011 9.83877 458.566 17.9767 470.855C25.9338 487.121 80.0059 555.799 83.8036 561.221V561.582C82.5377 567.365 82.8994 573.149 84.8887 578.751C85.7929 581.101 87.6013 583.27 89.9523 584.535C90.8565 585.258 91.9415 585.438 93.0266 585.077C93.75 584.354 92.4841 583.812 92.1224 583.089C91.399 580.92 91.7607 578.571 92.8457 576.763C93.2074 576.04 93.75 575.498 94.4733 574.956C94.6542 574.775 95.0159 574.775 95.1967 574.956C123.047 615.801 135.163 668.213 109.845 691.708C104.781 697.13 97.9094 700.564 90.4948 701.106C90.4948 701.106 60.4748 701.829 57.5813 684.659C57.2197 682.31 57.7622 679.78 59.2089 677.611C61.7407 673.454 64.9959 669.839 68.7936 666.767L69.517 666.225C78.3783 659.176 83.4419 663.875 84.8887 665.683H85.612V665.502L86.1546 663.333C85.4312 650.501 66.6235 646.344 60.294 645.079C53.9645 643.814 47.2733 650.14 43.4756 641.465C41.3055 637.308 38.0503 633.693 34.4334 630.621C32.0825 628.091 29.9124 625.199 28.1039 622.127C27.9231 621.946 27.5614 621.946 27.3805 621.946C27.1997 621.946 27.1997 622.127 27.1997 622.127C22.6786 634.055 22.1361 647.067 25.753 659.357C26.838 662.972 28.1039 666.586 29.7315 670.02C30.4549 671.827 31.3591 673.454 32.4442 675.081C34.4334 678.515 36.7844 681.768 39.3162 684.84C42.2097 688.093 45.284 691.346 48.5392 694.238C60.4748 707.974 77.4741 716.106 95.7392 717.01C108.037 716.829 119.791 711.407 127.929 702.19C173.863 651.405 149.992 557.787 148.545 552.907C147.099 548.027 144.929 539.894 144.929 539.894C144.929 539.894 144.567 538.991 144.205 537.726C143.844 535.918 144.567 534.111 146.014 533.207C146.737 532.665 147.641 532.123 148.545 531.942C150.716 531.4 152.886 531.942 154.694 533.207C155.417 533.75 155.417 535.015 156.322 534.653C157.045 533.93 157.226 532.846 156.864 531.761Z" fill="#094169"/>
</svg>
