<svg width="952" height="281" viewBox="0 0 952 281" fill="none" xmlns="http://www.w3.org/2000/svg">
<path d="M187.3 0.199951L140.7 46.8L94.0002 0.199951H0.700195V280.1H94.0002V249H187.3V280.1H280.7V0.199951H187.3Z" fill="#005E5D"/>
<path d="M952 195.5H940.5V175.5H929.3V195.5H919.7V204.9H929.3V249H940.5V204.9H952V195.5ZM869.9 217.7C872 200.3 899.9 200.5 901.4 217.7H869.9ZM912.6 222C913.8 185.3 857.3 185.9 858.2 222.1C856.8 251.2 897.4 260.2 910.3 236.6L901.4 232.1C894.3 243.8 871.4 241.9 869.8 226.7H912.4C912.5 225.1 912.6 223.5 912.6 222ZM852 195.5H840.5V175.5H829.3V195.5H819.7V204.9H829.3V249H840.5V204.9H852V195.5ZM779.7 239.5C758.2 240.2 758 204.1 779.7 205C801.7 204.4 802.2 240 779.7 239.5ZM796.9 195.5V203.4C783.2 184.5 750.5 196.9 751.9 222.2C750.6 247.3 783 260.2 796.9 241V249H808.1V195.5H796.9ZM737.9 194.4C731 194.4 725.6 198.2 722.9 207.6V195.6H711.6V249H722.9C722.2 232.4 721.2 195.7 745.1 207L747 196.3C745.3 195.3 741.6 194.4 737.9 194.4ZM674.2 239.5C652.5 240.5 652.2 203.9 674.2 204.9C696.2 203.9 696 240.5 674.2 239.5ZM674.2 250.2C711 251 711.3 193.4 674.2 194.4C637.2 193.3 637.5 251 674.2 250.2ZM639.9 195.5H628.4V175.5H617.2V195.5H607.6V204.9H617.2V249H628.4V204.9H639.9V195.5ZM605.4 249L577.6 218.6L600.2 195.5H585L567.5 213.7V166.5H556.3V249H567.5V223.6L590.9 249H605.4ZM500.4 217.7C502.5 200.3 530.4 200.5 531.9 217.7H500.4ZM543.1 222C544.3 185.3 487.8 185.9 488.7 222.1C487.3 251.2 527.9 260.2 540.8 236.6L531.9 232.1C524.8 243.8 501.9 241.9 500.3 226.7H542.9C543 225.1 543.1 223.5 543.1 222ZM476.9 194.4C470 194.4 464.6 198.2 461.9 207.6V195.6H450.6V249H461.9C461.2 232.4 460.2 195.7 484.1 207L486 196.3C484.3 195.3 480.6 194.4 476.9 194.4ZM422.5 249H433.7V195.5H422.5V249ZM428.1 183.3C438.1 183.6 438.1 168.6 428.1 168.9C418.1 168.6 418.1 183.5 428.1 183.3ZM377.3 239.5C355.8 240.2 355.6 204.1 377.3 205C399.3 204.4 399.9 240 377.3 239.5ZM394.5 166.5V203.4C380.8 184.5 348.1 196.9 349.5 222.2C348.2 247.3 380.6 260.2 394.5 241V249H405.7V166.5H394.5Z" fill="#005E5D"/>
<path d="M592.2 107.8H628.4V97.1001H592.2V107.8ZM569 102.4C569.3 116.5 554.3 124 543.3 117.4L566.7 93.3C568.2 96 569 98.9 569 102.4ZM535.3 102.4C535 88.1 550.7 80.9 561.5 88L538 112.1C536.4 109.4 535.3 106.2 535.3 102.4ZM580.4 79.4L575 74.2L569.4 79.9C543.8 60.7 509.3 94.6 530.1 120.2L523.7 126.7L529.1 132L535.6 125.4C560.9 144 594.4 110.5 574.8 85.2L580.4 79.4ZM483.6 155.3C499.9 157.3 511.5 149.6 510.5 132V75.8H499.3V131.9C500.2 142.3 493.8 146 483.6 144.7V155.3ZM504.9 63.5C514.9 63.8 514.9 48.8001 504.9 49.1001C494.9 48.9001 494.9 63.8 504.9 63.5ZM470.3 129.3H481.5V46.8H470.3V129.3ZM442.2 129.3H453.4V75.8H442.2V129.3ZM447.8 63.5C457.8 63.8 457.8 48.8001 447.8 49.1001C437.9 48.9001 437.9 63.8 447.8 63.5Z" fill="#005E5D"/>
<path d="M426.2 129.3V46.8H415.7L388.5 103.6L361.4 46.8H350.8V129.3H362V72.9L383.6 117H393.7L415 73V129.3H426.2Z" fill="#005E5D"/>
</svg>
