<svg width="1088" height="1670" viewBox="0 0 1088 1670" fill="none" xmlns="http://www.w3.org/2000/svg">
<g clip-path="url(#clip0_14_25)">
<path d="M543.33 360.003C368.552 360.003 258.143 404.012 258.143 404.012H828.069C828.069 404.012 717.66 360.003 542.883 360.003H543.33ZM915.234 313.984V314.654C918.537 315.275 921.498 317.084 923.557 319.739C925.617 322.394 926.631 325.711 926.409 329.063C926.686 331.794 926.244 334.551 925.127 337.058C924.01 339.566 922.256 341.739 920.039 343.36C915.011 347.493 911.77 347.605 906.965 352.073C903.355 355.025 900.471 358.765 898.534 363.006C896.596 367.247 895.658 371.875 895.79 376.535C895.79 384.465 899.366 388.71 899.366 396.752C899.45 399.221 898.568 401.625 896.907 403.454V404.124H1088V1126.25C1088 1270.46 1030.69 1408.77 928.666 1510.74C826.646 1612.71 688.278 1670 544 1670C399.722 1670 261.354 1612.71 159.334 1510.74C57.3141 1408.77 0 1270.46 0 1126.25V404.012H190.646V403.342C188.985 401.513 188.103 399.109 188.187 396.64C188.187 388.71 191.763 384.465 191.763 376.423C191.895 371.763 190.957 367.135 189.019 362.894C187.082 358.654 184.198 354.913 180.588 351.961C175.895 347.493 172.542 347.381 167.514 343.249C165.297 341.627 163.543 339.455 162.426 336.947C161.309 334.439 160.867 331.683 161.144 328.951C160.948 325.541 161.961 322.171 164.005 319.434C166.048 316.696 168.992 314.766 172.319 313.984L86.0477 88.2416L101.804 81.7631L119.573 74.9495L137.565 121.751L147.063 117.953L131.418 70.2582L147.622 64.5616L164.72 58.9767L180.253 105.443L190.311 102.092L176.23 54.9555L192.993 49.7057L213.443 43.674L274.906 280.363L302.061 274.107L330.557 268.076L284.293 25.6906L311.448 19.994C322.623 17.76 340.391 14.6325 340.391 14.6325L350.449 64.3382L370.675 61.2106L364.864 11.1698L393.249 7.14869L423.086 3.79774L429.121 54.6204L448.007 53.1684L445.883 2.01057L475.497 0.893586L505.67 0L510.14 248.529C521.315 248.529 532.49 248.529 543.665 248.529H544.447C555.622 248.529 566.797 248.529 577.972 248.529L581.883 0L612.056 0.893586L641.67 2.12227L639.435 53.3917L658.32 54.8438L664.467 3.79774L694.304 7.14869L722.689 11.1698L716.878 61.6574L737.216 64.4499L747.274 14.7442C747.274 14.7442 764.93 17.9834 776.217 20.1057L803.372 25.8023L756.996 268.076L785.492 274.219L812.647 280.474L874.11 43.7857L894.56 49.8174L911.323 55.0672L897.242 102.092L907.3 105.443L922.833 58.9767L939.931 64.5616L956.135 70.2582L940.49 117.953L949.988 121.751L967.98 74.9495L985.749 81.7631L1001.51 88.2416L915.234 313.984Z" fill="#1A1918"/>
<path d="M1077.83 413.954V1124.58C1077.85 1194.69 1064.04 1264.13 1037.21 1328.91C1010.37 1393.7 971.031 1452.56 921.433 1502.15C871.835 1551.73 812.95 1591.07 748.141 1617.9C683.333 1644.74 613.87 1658.55 543.721 1658.55C473.571 1658.55 404.108 1644.74 339.3 1617.9C274.492 1591.07 215.607 1551.73 166.009 1502.15C116.41 1452.56 77.0704 1393.7 50.2354 1328.91C23.4004 1264.13 9.59601 1194.69 9.61061 1124.58V413.954H1077.83Z" fill="#005D9B"/>
<path d="M654.968 1308.66H670.501C692.851 1268.11 713.749 1233.04 722.353 1217.29C727.829 1207.23 744.703 1204.78 767.054 1204.78C791.862 1204.78 811.754 1210.47 811.754 1218.63C811.754 1224.55 772.306 1261.85 753.196 1307.99C842.597 1307.99 917.693 1275.71 934.344 1275.71C935.461 1275.71 936.69 1275.71 936.69 1277.38C936.69 1279.06 935.014 1280.17 934.008 1281.96C926.359 1289.93 919.784 1298.87 914.452 1308.54C892.102 1339.49 821.699 1489.83 760.125 1478.55C695.586 1467.14 630.299 1460.46 564.786 1458.56C575.632 1483.81 588.8 1508 604.122 1530.82C614.626 1545.46 567.468 1553.16 556.181 1553.16C542.324 1553.16 533.831 1551.15 531.037 1546.13C503.546 1489.5 494.271 1453.98 452.812 1453.98C441.637 1453.98 268.983 1450.62 157.121 1463.92C207.855 1416.78 201.821 1368.86 243.504 1315.47C251.531 1304.84 261.593 1295.91 273.103 1289.2C284.614 1282.49 297.344 1278.13 310.554 1276.38C310.554 1276.38 325.305 1281.74 337.709 1287.55C337.709 1287.55 373.581 1237.95 373.581 1194.17C373.581 1143.9 340.838 1094.31 287.869 1094.31C257.473 1094.31 237.804 1104.81 226.294 1127.82C235.29 1123.04 245.392 1120.72 255.573 1121.12C282.952 1121.12 295.132 1140.33 295.132 1163.9C295.405 1170.94 293.682 1177.91 290.163 1184.02C286.644 1190.12 281.471 1195.11 275.241 1198.41C276.621 1203.73 275.994 1209.36 273.479 1214.25C270.965 1219.13 266.738 1222.92 261.607 1224.88C262.09 1227.46 262.055 1230.11 261.504 1232.67C260.954 1235.23 259.9 1237.66 258.402 1239.81C256.905 1241.96 254.994 1243.79 252.782 1245.2C250.57 1246.61 248.099 1247.56 245.515 1248C246.111 1250.97 246.065 1254.03 245.381 1256.98C244.697 1259.92 243.391 1262.69 241.55 1265.09C239.708 1267.49 237.374 1269.47 234.705 1270.9C232.035 1272.33 229.091 1273.16 226.071 1273.36C230.429 1291.45 212.214 1297.71 197.239 1292.68C184.611 1307.32 184.388 1320.5 180.924 1338.48C178.138 1352.43 170.545 1364.96 159.468 1373.89C157.903 1373.89 168.743 1353.34 168.743 1341.16C168.743 1328.99 168.743 1324.29 168.743 1313.57C168.439 1302.47 172.082 1291.63 179.024 1282.97C176.772 1281.01 174.967 1278.58 173.73 1275.87C172.493 1273.15 171.853 1270.2 171.853 1267.22C171.853 1264.23 172.493 1261.28 173.73 1258.56C174.967 1255.85 176.772 1253.43 179.024 1251.47C176.269 1246.57 175.352 1240.86 176.437 1235.35C177.523 1229.84 180.541 1224.9 184.947 1221.42C178.8 1199.08 191.205 1190.7 195.451 1188.47C193.565 1181.42 193.288 1174.03 194.642 1166.86C195.996 1159.69 198.946 1152.91 203.274 1147.03C203.274 1089.95 249.426 1073.87 294.909 1073.87C343.297 1073.87 395.484 1122.57 395.484 1192.16C395.484 1246.11 360.506 1295.25 360.506 1295.25L363.523 1295.92C387.997 1257.05 408.224 1228.23 408.224 1175.96C408.224 1073.31 249.65 1036.22 218.248 942.733C212.884 954.796 200.815 982.944 170.643 982.944C136 982.944 137.9 985.513 134.547 990.317C133.152 989.673 131.981 988.627 131.185 987.314C130.388 986 130.003 984.479 130.077 982.944C130.119 981.36 130.344 979.786 130.748 978.253C115.103 980.599 112.98 971.886 103.145 964.403C96.3225 959.26 88.1028 956.301 79.5662 955.913C76.9245 955.735 74.2737 955.735 71.6319 955.913C72.5854 951.702 74.7395 947.858 77.8334 944.844C80.9273 941.831 84.8285 939.779 89.065 938.935C88.171 936.255 84.4832 936.478 82.4717 934.467C95.5465 932.122 96.4405 927.542 106.163 924.303C111.832 922.115 117.854 920.979 123.931 920.952C131.754 920.952 136.112 922.627 143.934 922.627C151.757 922.627 161.256 921.175 161.256 915.255C161.256 909.335 155.668 908.888 150.975 908.888C132.871 908.888 138.459 918.383 105.38 918.383C96.664 918.383 91.5235 917.154 85.489 917.154C82.0993 916.713 78.654 917.036 75.4054 918.099C72.1569 919.162 69.1875 920.938 66.7149 923.298C66.1252 922.869 65.6596 922.291 65.3652 921.624C65.0708 920.957 64.9581 920.224 65.0387 919.5C64.5957 916.125 64.9626 912.694 66.1091 909.489C67.2556 906.284 69.1487 903.398 71.6319 901.07C66.8711 900.476 62.3337 898.704 58.431 895.915C54.5282 893.126 51.3835 889.408 49.2819 885.097C42.6886 870.464 44.3649 857.284 31.4019 847.79C34.1956 843.322 46.8234 844.215 53.7519 850.582C50.3994 842.316 47.0469 839.412 47.0469 832.152C48.0298 824.252 48.0298 816.26 47.0469 808.36C45.7292 805.021 44.8284 801.532 44.3649 797.972C44.3303 797.377 44.3303 796.78 44.3649 796.185C49.2819 796.185 50.7346 800.653 55.5399 803.222C61.5634 806.091 67.8034 808.481 74.2022 810.371C74.4145 806.852 75.2864 803.404 76.7724 800.206C77.7782 797.079 77.7782 794.174 80.3485 792.834C82.9187 791.494 83.8127 796.297 85.2655 798.754C86.7182 801.211 90.853 803.557 94.9877 805.791C106.424 809.49 117.62 813.891 128.513 818.971C135.61 823.712 142.038 829.385 147.622 835.838C151.422 839.412 154.551 843.098 158.797 843.433C159.367 843.554 159.956 843.542 160.52 843.399C161.085 843.255 161.608 842.984 162.051 842.606C162.494 842.229 162.844 841.754 163.074 841.22C163.304 840.685 163.409 840.105 163.379 839.524C162.341 835.872 160.193 832.632 157.233 830.253C150.304 823.104 149.745 817.966 140.023 814.168C125.831 808.695 113.203 808.919 100.463 800.429C95.301 797.483 90.6575 793.71 86.7182 789.26C81.7813 783.018 78.7197 775.503 77.8899 767.59C76.2159 760.411 73.742 753.442 70.5144 746.814C79.2309 746.814 82.9187 754.298 91.6352 754.298C92.8428 754.231 94.0407 754.044 95.2112 753.74C91.8587 746.256 86.383 743.128 86.383 734.751C86.383 715.092 96.4405 708.278 96.4405 690.63C96.8446 685.993 95.7897 681.346 93.4232 677.338C100.685 678.198 107.313 681.892 111.862 687.614C111.761 686.612 111.761 685.601 111.862 684.598C111.862 662.259 129.295 650.531 129.295 635.004C128.711 630.216 127.509 625.522 125.719 621.042C148.069 628.973 183.047 654.552 183.047 682.923C183.047 690.742 181.706 695.433 181.706 701.018C181.706 706.603 182.823 712.188 185.394 712.188C187.964 712.188 188.634 708.949 187.964 704.928C185.995 697.075 185.019 689.007 185.058 680.912C185.058 667.285 200.368 652.429 204.279 648.52C204.096 656.574 206.657 664.452 211.543 670.86C224.171 685.045 235.346 689.848 237.246 707.161C248.421 704.592 252.109 702.805 257.137 695.21C256.243 702.47 259.484 726.039 259.484 730.953C259.484 739.219 252.444 746.368 245.068 757.649C239.592 766.138 216.572 784.01 216.572 808.919C216.572 811.711 217.801 814.727 220.595 814.727C223.134 814.445 225.467 813.197 227.111 811.243C228.754 809.288 229.582 806.776 229.423 804.227C229.223 797.7 230.725 791.233 233.781 785.462C239.785 774.999 246.39 764.892 253.561 755.192C255.976 756.458 257.844 758.564 258.814 761.112C268.759 754.745 279.264 751.282 282.84 740.001C284.104 740.492 285.259 741.229 286.237 742.168C287.215 743.107 287.997 744.231 288.539 745.474C296.138 735.421 307.313 736.873 314.912 726.82C311.113 739.554 317.371 749.16 317.371 757.537C317.549 762.87 317.023 768.203 315.806 773.399C317.728 772.598 319.765 772.108 321.841 771.946C323.43 771.846 325.017 772.177 326.433 772.905C327.85 773.632 329.043 774.729 329.887 776.079C328.434 778.76 326.199 777.755 323.964 781.106C313.571 797.19 326.422 822.881 318.488 834.721C324.14 837.921 330.189 840.362 336.48 841.981C325.305 845.332 320.164 856.837 305.525 868.23C294.909 876.384 263.731 877.836 254.008 881.634C252.112 882.137 250.399 883.173 249.073 884.617C247.746 886.062 246.86 887.856 246.521 889.788C246.654 891.666 247.424 893.443 248.704 894.824C249.984 896.205 251.698 897.108 253.561 897.384C261.943 897.384 264.736 889.453 272.671 885.32C283.854 880.842 295.643 878.056 307.648 877.055C311.828 876.361 315.714 874.458 318.823 871.581C319.73 873.31 320.406 875.15 320.835 877.055C322.229 875.928 323.959 875.299 325.752 875.267H340.838C343.63 875.245 346.394 874.715 348.996 873.704C346.984 879.735 341.956 880.741 338.491 885.99C335.027 891.24 334.58 898.612 329.44 903.974C330.776 905.044 331.874 906.382 332.663 907.902C333.452 909.422 333.915 911.089 334.021 912.798H328.881C315.359 912.798 308.766 949.993 264.96 949.993C257.907 950.807 250.786 949.234 244.733 945.526C260.937 975.126 285.298 997.465 329.775 1028.74C394.367 1074.2 435.267 1114.41 435.267 1175.4C435.267 1222.43 414.482 1258.28 387.215 1299.94H393.361C413.798 1271.49 435.848 1244.23 459.405 1218.29C466.445 1210.59 476.056 1211.14 494.942 1211.14C513.827 1211.14 531.596 1214.94 524.109 1223.77C497.384 1246.56 475.4 1274.38 459.405 1305.64C459.405 1305.64 481.755 1305.64 494.942 1306.53C532.49 1252.25 557.857 1196.4 557.857 1146.69C557.857 1104.14 546.682 1073.76 531.596 1035C514.539 997.564 505.299 957.048 504.44 915.926C504.765 900.911 506.448 885.957 509.469 871.246C496.283 878.842 479.185 920.617 437.502 920.617C403.977 920.617 407.218 905.984 385.762 905.984C376.74 906.259 368.014 909.258 360.73 914.585C360.081 908.517 361.714 902.426 365.311 897.495C369.558 892.581 371.681 888.671 377.939 886.325C366.764 882.304 349.778 876.943 344.414 839.077C343.073 830.476 336.256 823.663 333.239 814.057C346.426 813.051 345.867 825.227 364.082 826.343C361.616 824.357 359.66 821.81 358.377 818.915C357.094 816.02 356.522 812.861 356.707 809.7C367.882 809.7 370.005 813.61 378.386 813.61C386.767 813.61 394.814 814.95 407.218 814.95C420.622 816.149 433.634 820.104 445.436 826.567C447.224 826.567 447.783 825.673 447.783 824.445C447.783 813.275 416.717 806.126 408.224 806.126C375.816 806.126 358.495 782.334 337.15 780.771C342.934 777.618 349.145 775.323 355.589 773.957C341.35 761.158 332.754 743.25 331.675 724.14C331.987 710.822 331.39 697.499 329.887 684.263C336.937 694.248 346.341 702.343 357.265 707.832C350.773 695.594 346.963 682.115 346.09 668.291C346.214 651.329 350.027 634.597 357.265 619.255C358.954 628.531 362.893 637.252 368.738 644.652C374.583 652.052 382.155 657.906 390.791 661.7C390.694 657.238 391.657 652.817 393.599 648.798C395.541 644.779 398.408 641.277 401.966 638.579C406.547 647.18 405.989 658.014 416.27 664.828C426.951 671.539 436.558 679.824 444.766 689.401C457.69 700.543 466.439 715.748 469.574 732.517C469.574 734.639 471.139 736.65 473.262 736.65C477.732 736.65 477.397 731.623 477.397 727.937C476.263 717.587 472.407 707.721 466.222 699.343C444.989 672.535 422.639 671.418 422.639 629.42C422.045 618.992 423.177 608.538 425.992 598.479C428.652 603.319 431.837 607.852 435.491 611.995C434.829 608.311 434.604 604.561 434.82 600.825C435.531 587.801 440.699 575.418 449.459 565.752C452.173 562.603 454.396 559.063 456.053 555.252C458.511 557.821 457.17 568.321 461.975 571.225C462.11 558.587 465.464 546.191 471.721 535.208C477.977 524.225 486.931 515.016 497.735 508.45C499.188 513.7 498.741 517.945 500.082 522.859C510.587 489.35 528.914 479.744 551.823 465.558C559.242 461.282 565.053 454.689 568.362 446.793C571.54 450.565 573.212 455.379 573.055 460.308C573.055 475.946 562.551 483.653 562.551 502.084C562.284 506.919 563.706 511.696 566.574 515.599C573.39 499.961 587.136 506.998 593.729 497.839C589.918 505.087 588.142 513.231 588.588 521.407C588.588 530.455 591.494 533.136 591.494 544.864C591.485 548.105 591.072 551.332 590.265 554.47C592.562 553.251 595.158 552.709 597.752 552.906C604.233 552.906 603.451 554.693 608.927 554.693H616.191C611.817 560.249 609.559 567.176 609.821 574.241C609.821 584.293 617.085 593.341 616.079 608.532C626.065 601.818 635.251 593.985 643.458 585.187C643.332 594.942 642.586 604.68 641.223 614.34C641.223 620.26 642.34 622.494 642.34 629.531C642.329 633.301 641.841 637.054 640.887 640.701C643.46 639.565 645.806 637.976 647.816 636.01C647.816 674.992 633.512 683.481 608.033 698.002C597.894 702.09 588.134 707.061 578.866 712.858C571.714 718.331 564.562 726.374 564.562 731.512C564.562 732.964 564.562 737.432 566.909 737.432C576.158 735.271 584.418 730.081 590.376 722.688C597.17 715.157 604.653 708.276 612.726 702.135C637.87 682.811 651.392 685.38 664.243 662.035C665.63 663.532 666.7 665.292 667.392 667.211C668.083 669.13 668.38 671.169 668.266 673.205C668.423 677.822 667.384 682.4 665.249 686.497C681.565 684.375 707.044 673.429 711.737 665.163C711.945 668.896 711.758 672.64 711.178 676.333C711.178 681.583 711.737 684.487 711.737 689.737C711.737 705.374 702.685 712.076 694.192 721.235C696.37 723.28 698.937 724.867 701.739 725.903C704.541 726.939 707.523 727.403 710.508 727.267C715.847 726.86 721.089 725.616 726.041 723.581C710.396 734.081 712.296 770.048 681.341 783.898C683.464 786.691 691.399 786.467 691.399 787.919C691.399 792.052 685.811 791.494 682.012 793.169C672.577 801.137 660.816 805.839 648.487 806.573C634.539 805.875 620.578 807.652 607.251 811.823C597.305 815.397 580.766 828.019 580.766 833.38C580.766 834.833 580.766 837.067 583.336 837.067C594.511 837.067 604.345 812.716 652.286 812.716C659.193 812.698 665.946 810.68 671.731 806.908C672.243 808.79 672.348 810.759 672.04 812.685C671.732 814.611 671.017 816.45 669.943 818.078C681.706 819.196 693.575 818.289 705.032 815.397C691.734 830.588 693.857 843.545 677.653 856.837H682.235L692.851 854.156C690.39 860.638 687.203 866.82 683.353 872.587C675.418 885.879 673.854 900.288 658.991 903.974C661.887 906.273 664.347 909.073 666.255 912.239H658.768C647.592 912.239 627.477 930.335 605.239 930.335C560.539 930.335 544.224 888.001 537.072 876.496C533.939 887.417 532.064 898.659 531.484 910.005C531.484 977.024 561.21 1028.18 579.201 1089.5C584.83 1107.3 587.879 1125.8 588.253 1144.46C588.253 1213.94 567.691 1253.03 536.736 1308.32C559.086 1308.32 581.436 1308.32 600.434 1308.32C605.28 1261.54 618.013 1215.92 638.094 1173.39C650.402 1144.03 668.491 1117.44 691.287 1095.2C709.837 1077.44 730.399 1063.59 755.208 1041.03C782.855 1017.93 805.321 989.275 821.141 956.919C815.06 961.171 807.594 962.967 800.243 961.945C741.574 961.945 747.385 926.313 713.19 926.313C715.404 922.36 718.656 919.085 722.594 916.841C726.532 914.597 731.008 913.47 735.54 913.58C729.396 905.974 726.433 896.288 727.27 886.549C727.27 875.379 721.571 863.427 712.966 863.427C712.966 863.427 707.491 861.864 707.491 860.076C711.852 857.586 716.773 856.241 721.795 856.167C733.153 855.919 744.337 858.986 753.979 864.991C752.085 861.897 750.972 858.389 750.739 854.769C750.505 851.149 751.157 847.527 752.638 844.215C759.901 856.39 762.919 854.491 774.317 858.624C780.337 861.006 785.538 865.08 789.292 870.353C790.725 872.542 792.616 874.395 794.835 875.783C797.053 877.172 799.547 878.063 802.143 878.395C802.684 878.286 803.178 878.013 803.558 877.613C803.938 877.213 804.185 876.706 804.266 876.161C801.856 867.148 795.996 859.444 787.951 854.715C780.24 850.247 756.102 840.976 756.102 819.53C756.102 801.882 754.09 792.946 744.927 786.02C751.431 785.55 757.9 787.325 763.254 791.047C762.605 787.171 762.268 783.249 762.248 779.319C762.248 769.936 764.26 768.149 764.26 760.33C764.243 748.452 760.831 736.825 754.426 726.82C759.085 726.898 763.654 728.126 767.724 730.395C767.469 727.981 767.469 725.548 767.724 723.134C767.724 709.842 777.558 705.263 777.558 688.62C783.816 707.943 799.908 707.05 811.642 724.922C816.593 721.788 820.821 717.638 824.046 712.746C824.075 717.221 824.599 721.679 825.611 726.038C829.857 741.006 840.809 746.256 844.161 761.558C846.641 772.968 846.641 784.776 844.161 796.185C843.602 802.105 849.749 819.307 855.336 819.307C860.924 819.307 863.606 809.924 863.606 801.546C863.606 772.505 841.256 756.085 841.256 720.789C841.256 693.311 856.789 684.375 859.918 660.248C867.852 661.812 868.634 667.062 868.634 673.094C868.634 675.328 864.835 693.981 873.663 699.231C873.975 691.724 876.001 684.389 879.586 677.785C887.775 666.912 896.698 656.611 906.294 646.956C908.858 643.482 911.032 639.736 912.776 635.786C916.426 638.141 919.312 641.508 921.078 645.475C922.844 649.443 923.415 653.839 922.721 658.126C922.721 639.919 962.169 617.58 964.963 598.591C968.539 618.585 984.966 627.409 984.966 655.222C985.345 665.885 983.598 676.516 979.826 686.497C984.88 685.82 989.621 683.667 993.458 680.31C997.294 676.952 1000.05 672.538 1001.39 667.62C1001.39 685.045 1009.89 691.859 1009.89 709.731C1010 718.247 1007.67 726.618 1003.18 733.857C1011.6 734.041 1020.01 732.949 1028.1 730.618L1013.8 762.34C1004.52 780.994 1006.31 794.845 995.136 805.679C986.084 814.503 977.703 813.945 960.605 813.945C940.043 813.945 922.498 821.54 922.498 829.136C922.459 829.955 922.722 830.759 923.237 831.397C923.752 832.036 924.483 832.463 925.292 832.599C933.114 832.599 938.031 823.216 962.952 823.216C974.127 823.216 996.477 824.556 1011.9 807.802C1013.16 811.971 1013.4 816.386 1012.58 820.666C1011.76 824.947 1009.92 828.965 1007.2 832.375C1009.05 831.982 1010.91 831.721 1012.79 831.593C1018.04 831.593 1020.28 831.593 1025.53 831.593C1030.16 831.656 1034.75 830.662 1038.94 828.689C1022.4 846.002 1026.43 869.459 1010.89 879.847C1020.65 885.291 1032.09 886.885 1042.96 884.315C1029.67 906.655 1018.83 927.207 999.27 927.207C996.482 927.229 993.703 926.891 991.001 926.202C992.467 927.667 994.21 928.827 996.128 929.613C998.047 930.399 1000.1 930.796 1002.18 930.781C994.502 935.902 985.477 938.623 976.25 938.6C952.894 938.6 926.633 921.175 905.4 921.175C902.048 921.175 897.019 923.298 897.019 926.872C897.019 930.446 899.813 931.563 905.065 931.563C910.317 931.563 914.229 933.239 920.151 933.239C949.989 933.239 947.977 944.409 967.422 948.876C963.922 953.249 959.732 957.022 955.017 960.046C962.073 963.584 968.869 967.615 975.356 972.11C964.181 972.11 961.499 990.875 940.155 990.875C940.669 996.078 942.559 1001.05 945.63 1005.28C929.985 1005.28 928.309 1012.54 914.229 1012.54C910.434 1012.52 906.666 1011.92 903.054 1010.76C903.7 1013.23 903.712 1015.83 903.086 1018.31C902.461 1020.79 901.22 1023.07 899.477 1024.94C892.695 1016.52 884.05 1009.79 874.222 1005.28C867.973 1002.03 862.648 997.258 858.74 991.399C854.833 985.541 852.47 978.79 851.872 971.775C850.978 967.083 849.972 961.275 845.614 961.275C841.256 961.275 840.362 964.626 837.456 970.211C818.906 1005.28 805.16 1031.42 768.73 1061.13C745.217 1078.66 724.004 1099.08 705.591 1121.9C667.037 1170.15 647.928 1212.6 631.5 1308.32C663.908 1128.15 757.89 1092.41 791.415 1092.41C798.155 1091.97 804.909 1093.02 811.203 1095.47C817.497 1097.92 823.177 1101.72 827.846 1106.59C833.911 1105.41 840.188 1105.99 845.932 1108.27C851.677 1110.55 856.647 1114.42 860.253 1119.44C865.874 1118.8 871.568 1119.47 876.882 1121.41C882.197 1123.35 886.987 1126.5 890.873 1130.61C896.03 1130.11 901.224 1131.04 905.892 1133.28C910.561 1135.53 914.526 1139.01 917.358 1143.34C923.085 1142.8 928.849 1143.9 933.974 1146.51C939.1 1149.12 943.376 1153.14 946.301 1158.09H949.206C957.923 1158.09 971.556 1176.74 1006.53 1178.75C981.167 1194.84 950.659 1175.96 950.659 1175.96C950.659 1181.88 948.304 1187.57 944.113 1191.76C939.921 1195.94 934.237 1198.3 928.309 1198.3C925.235 1198.62 922.129 1198.3 919.186 1197.35C916.243 1196.41 913.528 1194.87 911.211 1192.83C906.708 1196.64 901.028 1198.79 895.127 1198.91C889.225 1199.03 883.461 1197.12 878.804 1193.5C874.567 1196.24 869.656 1197.76 864.609 1197.9C859.563 1198.04 854.576 1196.79 850.196 1194.28C845.269 1197.58 839.509 1199.43 833.578 1199.61C827.647 1199.79 821.787 1198.29 816.671 1195.28C811.83 1198.34 806.191 1199.9 800.467 1199.75C795.506 1199.85 790.578 1198.93 785.994 1197.03C781.409 1195.13 777.269 1192.3 773.835 1188.72C770.401 1185.14 767.747 1180.89 766.041 1176.23C764.335 1171.57 763.614 1166.61 763.924 1161.66C764.229 1152.09 766.989 1142.76 771.94 1134.57C776.891 1126.37 783.866 1119.58 792.197 1114.86H790.186C772.753 1114.86 677.653 1150.83 654.968 1309.1" fill="#1A1918"/>
<path d="M649.604 1315.69H646.251C668.601 1149.82 767.165 1107.6 789.85 1107.6C821.141 1107.6 829.745 1125.25 829.745 1148.15C829.745 1165.35 819.241 1184.22 802.031 1184.22C798.638 1184.13 795.3 1183.34 792.222 1181.92C789.144 1180.49 786.39 1178.44 784.13 1175.91C781.87 1173.38 780.151 1170.42 779.079 1167.2C778.006 1163.98 777.603 1160.57 777.893 1157.19C777.893 1139.66 794.097 1125.25 811.418 1120.11C809.514 1118.75 807.45 1117.62 805.272 1116.76C794.097 1116.76 770.629 1138.54 770.629 1160.43C770.465 1164.5 771.108 1168.56 772.522 1172.38C773.935 1176.2 776.091 1179.7 778.865 1182.68C781.639 1185.66 784.976 1188.06 788.684 1189.74C792.392 1191.43 796.396 1192.36 800.467 1192.49C810.515 1191.26 819.703 1186.21 826.131 1178.39C832.558 1170.57 835.733 1160.58 834.998 1150.49C834.998 1115.75 817.453 1098.89 791.415 1098.89C762.583 1098.89 669.607 1133.4 636.529 1315.8H633.288H627.254H624.013C632.283 1240.41 654.856 1172.27 700.562 1114.75C721.795 1088.05 748.615 1071.63 772.306 1048.51C796.71 1024.84 816.792 997.098 831.645 966.525C833.095 963.053 834.932 959.756 837.121 956.695C839.867 955.226 842.947 954.495 846.061 954.573C847.424 954.435 848.8 954.574 850.108 954.981C851.416 955.387 852.628 956.054 853.671 956.941C854.715 957.828 855.569 958.916 856.181 960.141C856.794 961.365 857.152 962.701 857.236 964.067C862.935 989.758 867.182 994.896 887.967 1004.95C890.694 1006.19 893.279 1007.73 895.678 1009.53C895.319 1007.79 895.058 1006.04 894.896 1004.28V998.694C900.342 1002.6 906.763 1004.91 913.446 1005.4C920.632 1004.84 927.63 1002.83 934.008 999.476C931.773 993.779 929.426 988.306 927.415 982.609C931.666 983.849 936.062 984.525 940.49 984.62C947.973 982.569 954.693 978.376 959.822 972.556C957.596 970.163 954.893 968.26 951.888 966.971C948.54 965.646 945.383 963.88 942.501 961.722L953.676 952.004C943.842 944.007 931.349 940.017 918.698 940.834C911.658 940.834 908.864 938.935 903.165 938.935C895.231 938.935 888.302 935.361 888.302 927.765C888.302 920.17 897.913 915.143 903.947 915.143C928.979 915.143 948.647 932.122 975.356 932.122C978.932 932.122 983.625 933.574 986.531 932.122C982.605 928.509 979.778 923.863 978.373 918.718C985.115 919.963 991.97 920.488 998.823 920.282C1008.88 920.282 1019.72 909.112 1028.1 893.474C1016.79 891.029 1005.8 887.28 995.359 882.304C1013.8 876.161 1013.13 854.491 1021.96 838.965H1010.78H996.141C996.141 838.965 1002.4 826.678 1004.3 821.652C996.444 825.562 987.905 827.914 979.155 828.577C972.115 828.577 967.98 829.918 960.94 829.918C940.937 829.918 934.679 839.077 925.403 839.077C924.141 839.168 922.872 839.009 921.671 838.609C920.47 838.208 919.36 837.575 918.405 836.745C917.45 835.914 916.668 834.903 916.105 833.77C915.541 832.637 915.207 831.404 915.122 830.141C915.122 811.488 945.407 806.685 958.146 806.685C976.809 806.685 981.614 808.472 990.33 799.424C999.047 790.377 1001.51 770.271 1008.43 756.867L1016.59 739.777C1012.9 740.447 990.777 741.006 992.677 738.325C998.24 729.052 1001.57 718.612 1002.4 707.832C1002.18 700.501 1000.63 693.272 997.818 686.497C993.012 690.407 967.198 696.997 968.986 693.981C976.171 681.82 979.411 667.734 978.261 653.658C978.261 636.233 970.551 630.425 964.74 616.686C959.459 624.169 953.18 630.896 946.077 636.68C936.222 647.423 928.622 660.033 923.727 673.764C921.388 667.374 919.447 660.846 917.916 654.216C917.402 651.524 916.577 648.9 915.458 646.398C909.558 654.607 903.019 662.338 895.901 669.519C882.268 683.258 882.603 691.189 879.809 709.06C863.494 703.699 861.147 695.768 862.376 680.466C855.135 692.579 850.563 706.098 848.966 720.118C848.966 749.942 870.534 772.393 870.534 803.222C870.534 810.929 866.623 826.567 855.671 826.567C844.72 826.567 837.791 805.791 837.791 796.743C837.791 775.632 843.379 769.154 831.198 748.378C826.365 742.44 822.379 735.862 819.352 728.831V727.714C815.812 731.805 813.183 736.602 811.642 741.788C807.163 728.681 797.851 717.775 785.604 711.294C783.476 709.853 781.525 708.166 779.793 706.268C776.363 711.476 774.324 717.474 773.87 723.693C774.01 728.792 775.189 733.809 777.334 738.437C774.205 739.408 770.854 739.408 767.724 738.437C772.104 748.023 773.128 758.804 770.629 769.042C768.609 779.301 768.082 789.797 769.065 800.206C765.86 799.269 762.724 798.112 759.678 796.743C761.897 803.983 763.026 811.512 763.03 819.083C763.03 844.55 810.971 845.109 810.971 874.932C810.971 891.128 788.621 887.554 783.034 876.049C777.446 864.544 768.506 864.432 758.449 860.076C758.408 866.796 760.102 873.413 763.366 879.288C758.679 874.447 753.072 870.589 746.873 867.942C740.675 865.295 734.011 863.912 727.27 863.874H726.041C730.677 870.397 733.14 878.213 733.081 886.214C732.972 892.394 734.298 898.515 736.954 904.096C739.611 909.678 743.525 914.568 748.391 918.383C741.692 918.89 735.064 920.088 728.611 921.957C737.131 925.977 744.854 931.501 751.408 938.265C764.953 949.762 782.388 955.638 800.131 954.685C813.43 954.685 822.482 947.536 828.404 947.536C830.975 947.536 832.092 950.217 831.533 950.999C815.405 986.17 792.067 1017.56 763.03 1043.15C738.11 1065.49 717.66 1080.35 698.998 1099C676.963 1120.68 659.186 1146.29 646.587 1174.51C625.902 1219.18 612.942 1267.03 608.256 1316.03H606.804C576.855 1316.03 549.364 1316.03 525.896 1315.47C553.163 1262.19 580.766 1213.82 580.766 1144.57C580.766 1071.3 524.891 1002.71 524.891 910.005C525.525 895.637 528.158 881.426 532.713 867.783C532.847 867.38 533.065 867.009 533.352 866.695C533.639 866.382 533.989 866.132 534.38 865.964C534.77 865.795 535.192 865.71 535.617 865.716C536.043 865.722 536.462 865.817 536.848 865.996C539.957 868.598 542.472 871.836 544.223 875.491C558.863 900.288 571.714 923.297 605.91 923.297C626.025 923.297 634.518 911.122 650.61 906.654C648.899 904.201 647.439 901.581 646.251 898.836H651.615C668.49 898.836 673.965 876.496 680.559 863.986C672.458 864.776 664.282 863.902 656.532 861.417C679.441 851.029 680.223 848.795 689.499 827.907L690.616 825.561H686.705C681.006 825.561 665.696 825.561 661.338 825.561C659.773 827.237 663.014 819.865 663.573 818.748C659.489 819.656 655.342 820.254 651.168 820.535C608.927 820.535 596.634 844.885 583.336 844.885C582.074 844.915 580.818 844.696 579.641 844.24C578.463 843.785 577.387 843.102 576.474 842.23C575.561 841.359 574.828 840.317 574.318 839.162C573.808 838.008 573.531 836.764 573.502 835.503C573.502 823.328 595.852 810.259 604.904 806.238C635.635 792.499 645.022 807.913 676.871 790.041C673.854 790.041 670.725 788.925 670.725 785.127C670.799 783.861 671.272 782.65 672.074 781.667C672.877 780.685 673.969 779.98 675.195 779.654C698.774 771.946 699.668 752.176 710.508 734.304C702.015 734.304 698.662 728.719 693.075 728.719H676.089C686.593 719.672 705.032 704.146 705.032 688.955C705.032 686.497 705.032 684.487 705.032 682.588V680.242C688.254 688.752 670.34 694.808 651.839 698.226C655.802 691.535 658.989 684.415 661.338 677.003C649.279 687.361 636.083 696.317 622.002 703.699C611.719 710.931 602.339 719.369 594.064 728.831C587.21 737.048 577.596 742.488 567.02 744.134C564.561 743.907 562.28 742.754 560.64 740.908C559 739.061 558.125 736.66 558.192 734.192C558.192 699.566 616.526 690.295 629.936 674.099C636.158 666.722 640.048 657.663 641.111 648.073C637.728 650.049 633.851 651.018 629.936 650.866C633.416 643.919 635.323 636.292 635.523 628.526C635.523 622.941 634.629 619.813 634.629 614.228C634.4 609.913 634.4 605.587 634.629 601.271C626.807 607.415 607.921 620.93 607.921 620.93C613.173 600.266 603.116 589.767 603.116 573.012C602.938 568.795 603.583 564.584 605.016 560.613C602.523 560.439 600.021 560.439 597.528 560.613C592.608 561.019 587.741 561.917 583.001 563.294C585.216 558.157 586.173 552.567 585.795 546.986C585.795 535.816 582.889 532.577 582.889 523.53C582.826 519.498 583.05 515.466 583.56 511.466C573.502 514.482 573.167 522.636 572.385 532.019C563.556 521.966 557.41 516.493 557.41 501.748C557.41 487.004 566.015 476.84 567.691 463.324C557.9 471.729 547.351 479.208 536.177 485.664C517.515 498.733 510.81 516.828 503.993 538.162C499.003 533.688 495.658 527.671 494.495 521.072C486.476 528.4 480.107 537.349 475.811 547.324C471.515 557.299 469.389 568.073 469.574 578.932L468.233 584.405C461.305 580.607 458.288 579.155 455.159 572.453C447.95 580.945 443.782 591.597 443.313 602.724C443.313 610.878 443.313 618.92 443.313 627.074C439.071 624.573 435.29 621.362 432.138 617.579C432.138 622.718 432.138 626.962 432.138 633.329C432.138 678.008 485.89 677.45 485.89 728.719C485.89 735.644 485.108 743.575 476.279 743.91C474.744 743.914 473.224 743.601 471.814 742.992C470.405 742.382 469.136 741.489 468.087 740.367C467.039 739.246 466.233 737.92 465.719 736.473C465.206 735.027 464.997 733.49 465.104 731.958C460.389 718.21 452.766 705.638 442.754 695.098C426.662 677.338 407.776 675.104 401.295 653.211C399.011 659.743 397.876 666.621 397.942 673.54C381.074 667.42 366.75 655.816 357.265 640.589C354.72 649.338 353.403 658.398 353.354 667.509C354.14 679.811 357.329 691.84 362.741 702.917C363.563 706.846 363.938 710.855 363.859 714.869C359.306 714.782 354.848 713.553 350.896 711.294L346.649 708.725C343.81 707.004 341.085 705.101 338.491 703.029L337.597 702.247C337.597 709.06 337.597 714.869 337.597 723.916C338.491 733.893 341.469 743.571 346.339 752.326C351.209 761.08 357.863 768.716 365.87 774.739C362.423 776.286 359.192 778.276 356.26 780.659C372.463 789.148 388.444 800.318 408.223 800.318C420.628 800.318 454.823 808.137 454.823 826.008C454.853 828.152 454.038 830.221 452.553 831.768C451.068 833.315 449.033 834.215 446.889 834.274C434.038 834.274 427.78 822.322 406.659 822.322C396.043 822.322 389.114 820.312 377.939 820.312C373.091 820.332 368.28 819.461 363.747 817.743C366.46 822.07 370.331 825.552 374.922 827.795C371.813 830.577 367.899 832.298 363.747 832.71C357.902 832.697 352.162 831.157 347.096 828.242C348.174 830.789 348.962 833.449 349.443 836.173C355.701 870.241 365.2 875.714 394.813 885.32C393.025 886.325 390.12 888.448 387.661 889.565H386.656C380.123 891.734 374.499 896.018 370.675 901.74C375.275 899.737 380.194 898.564 385.203 898.277C405.094 898.277 410.794 913.803 436.943 913.803C478.738 913.803 488.348 865.661 514.051 862.534C515.504 862.534 516.733 862.534 517.18 863.316C517.627 864.097 517.18 864.768 517.18 865.773C514.33 882.341 512.835 899.114 512.71 915.925C512.71 1016.45 565.68 1054.43 565.68 1147.25C565.68 1204.44 532.154 1262.41 500.306 1314.24C482.984 1313.57 465.663 1313.01 448.342 1312.01C463.935 1282.12 484.319 1254.99 508.687 1231.7C492.865 1232.87 476.965 1230.98 461.864 1226.11C438.495 1252.08 416.702 1279.42 396.601 1307.99L378.274 1305.53C401.295 1261.52 427.668 1224.88 427.668 1176.96C427.668 1120.33 391.014 1082.13 327.093 1037.68C283.175 1006.96 247.75 970.657 233.334 940.611L231.099 936.031C231.099 936.031 231.099 934.244 232.552 933.797C234.005 933.35 235.346 934.356 235.346 934.356C243.407 940.986 253.635 944.407 264.066 943.962C286.416 943.962 295.803 934.914 308.766 919.611C313.348 915.174 318.541 911.412 324.187 908.442C321.952 906.096 321.617 903.862 315.359 903.75C330.222 898.724 323.517 895.038 332.68 882.193C330.669 882.193 328.322 882.193 325.975 882.193C325.243 882.184 324.516 882.328 323.842 882.617C323.169 882.905 322.563 883.331 322.064 883.868L321.394 884.538C319.634 886.181 317.683 887.606 315.583 888.783C314.831 886.586 314.417 884.289 314.353 881.969C312.108 883.261 309.568 883.954 306.978 883.98C294.343 882.563 281.657 886.174 271.665 894.032C269.486 896.951 266.699 899.362 263.496 901.098C260.293 902.834 256.75 903.853 253.114 904.085C251.285 904.088 249.475 903.718 247.795 902.996C246.115 902.274 244.6 901.216 243.344 899.887C242.088 898.559 241.117 896.987 240.491 895.27C239.865 893.552 239.597 891.725 239.704 889.9C239.704 868.23 287.869 872.922 300.273 863.986C308.13 858.665 315.138 852.188 321.058 844.774C314.457 841.649 307.521 839.288 300.385 837.737C313.348 832.375 314.689 832.934 313.906 818.636C313.236 806.685 310.107 791.94 315.918 780.994C312.56 784.083 308.359 786.105 303.849 786.802C306.616 778.601 308.746 770.199 310.219 761.67C310.219 752.958 306.643 747.708 306.531 741.676C298.786 744.411 292.256 749.791 288.092 756.867L285.745 752.064L285.187 750.947C279.599 758.989 267.53 762.117 260.601 769.824L256.802 774.292C256.02 771.723 255.126 768.707 254.12 766.026C244.174 778.648 235.681 788.366 235.681 805.121C235.7 809.129 234.221 813 231.534 815.975C228.847 818.95 225.145 820.816 221.154 821.205C219.618 821.209 218.098 820.896 216.688 820.287C215.279 819.677 214.01 818.784 212.962 817.662C211.913 816.541 211.107 815.215 210.594 813.769C210.081 812.322 209.871 810.785 209.979 809.254C209.979 788.031 221.154 775.744 232.329 761.67C239.257 752.958 250.432 744.58 251.55 734.192C252.088 726.383 252.088 718.545 251.55 710.736C244.827 714.268 237.884 717.364 230.764 720.007V714.869C230.764 682.699 205.397 686.832 199.921 663.376C194.574 669.2 191.587 676.805 191.54 684.71C191.54 692.417 194.557 699.566 194.557 707.05C194.557 711.964 192.099 718.22 186.176 718.22C180.253 718.22 176.118 710.736 176.118 703.587C176.118 696.438 177.571 694.204 177.571 686.386C177.571 664.828 156.339 642.712 136 633.217C136 633.999 136 635.004 136 636.01C136 654.44 119.014 666.168 119.014 684.152C119.215 692.415 120.187 700.642 121.919 708.725C116.27 701.376 110.069 694.468 103.369 688.061C103.369 704.034 94.5407 717.773 94.5407 733.634C96.4751 743.638 101.069 752.936 107.839 760.553C99.3932 762.72 90.4977 762.371 82.2481 759.548C89.9589 791.494 106.274 795.068 142.37 806.908C151.088 810.333 158.433 816.536 163.267 824.556C166.701 829.127 169.207 834.326 170.643 839.859C170.417 842.664 169.141 845.28 167.069 847.186C164.998 849.091 162.283 850.144 159.468 850.135C147.734 850.135 135.888 831.817 125.942 825.45C115.368 820.261 104.378 815.964 93.0879 812.605C89.1104 810.73 85.361 808.407 81.9129 805.679C81.3968 812.226 82.0784 818.812 83.9244 825.115C75.5974 817.977 65.6677 812.957 54.9811 810.482H54.1988C54.1988 816.849 53.6401 823.216 53.6401 829.583C53.6401 842.316 63.3623 852.816 70.1791 863.092H63.9211C58.3336 863.092 51.0698 856.614 45.7058 854.156C50.3993 863.204 51.4051 873.703 56.0986 882.974C61.6861 894.144 75.5431 895.596 86.3829 897.719C80.1704 900.937 75.2425 906.177 72.4141 912.574C75.3141 911.538 78.3899 911.083 81.4659 911.234H86.6064C92.6409 911.234 100.016 912.574 108.956 912.574C124.49 912.574 136.223 902.633 151.757 902.633C162.15 902.633 168.408 908.33 168.408 915.479C168.408 926.648 156.227 929.776 147.734 929.776C139.241 929.776 133.094 927.542 125.384 927.542C115.284 927.574 105.472 930.908 97.4462 937.036C98.544 938.962 99.3713 941.029 99.9047 943.18C93.868 944.201 88.1388 946.568 83.1421 950.105C92.3375 951.401 100.978 955.274 108.062 961.275C121.249 973.673 124.043 976.354 140.47 969.205C137.48 973.242 135.558 977.967 134.882 982.944C133.094 982.944 142.928 976.354 171.425 976.354C193.775 976.354 201.486 958.036 209.643 941.393C211.32 938.042 214.225 932.792 216.795 932.792C217.689 932.792 219.813 935.584 220.483 937.818C276.358 1048.85 416.046 1069.62 416.046 1176.07C416.046 1231.92 393.696 1261.85 366.988 1303.41C358.495 1301.73 353.913 1300.61 353.913 1300.61L351.454 1299.83C351.454 1299.83 388.555 1241.19 388.555 1192.38C388.555 1128.26 339.944 1081.35 295.468 1081.35C240.486 1081.35 210.202 1103.69 210.202 1147.36C209.81 1153.65 210.681 1159.94 212.763 1165.88C214.845 1171.82 218.096 1177.29 222.325 1181.95C226.554 1186.62 231.675 1190.39 237.385 1193.04C243.095 1195.69 249.279 1197.18 255.573 1197.4C264.367 1197.1 272.717 1193.47 278.939 1187.25C285.162 1181.03 288.792 1172.69 289.098 1163.9C289.098 1143.57 277.923 1128.04 256.355 1128.04C245.267 1127.92 234.427 1131.32 225.4 1137.76V1145.58C233.466 1138.7 243.868 1135.18 254.455 1135.75C258.144 1135.56 261.83 1136.16 265.265 1137.52C268.7 1138.87 271.805 1140.95 274.368 1143.61C276.931 1146.26 278.895 1149.44 280.125 1152.92C281.355 1156.4 281.823 1160.11 281.499 1163.78C281.654 1167.01 281.14 1170.24 279.988 1173.26C278.836 1176.29 277.071 1179.04 274.804 1181.34C272.537 1183.65 269.817 1185.47 266.816 1186.67C263.814 1187.88 260.595 1188.45 257.361 1188.36C225.847 1188.36 218.248 1166.02 218.248 1144.46C218.248 1112.51 245.292 1086.94 289.098 1086.94C346.09 1086.94 381.403 1136.31 381.403 1194.05C378.746 1231.34 365.141 1267.01 342.291 1296.59L340.726 1295.81C329.551 1290.11 314.353 1284.64 311.113 1283.3C286.639 1285.42 267.195 1302.29 252.332 1320.83C211.878 1371.1 212.884 1417.23 176.454 1455.54C294.462 1441.13 442.084 1446.49 452.924 1446.49C496.506 1446.49 506.34 1472.41 519.974 1501.22C524.555 1510.83 529.137 1521.44 534.166 1532.95C550.034 1519.65 577.637 1521.78 593.952 1525.02C580.774 1505.42 569.545 1484.58 560.427 1462.8C557.969 1458.56 558.863 1451.63 565.232 1451.63C623.959 1452.27 682.546 1457.5 740.457 1467.27C737.845 1461.86 736.218 1456.04 735.652 1450.07C735.652 1423.15 752.079 1394.22 794.656 1362.38C821.811 1341.72 916.463 1286.2 916.463 1286.2C899.924 1290.78 892.549 1293.91 875.786 1298.27C834.188 1309.09 791.374 1314.53 748.391 1314.46H743.362C757.493 1283.54 775.764 1254.68 797.673 1228.68C788.497 1230.45 779.19 1231.46 769.847 1231.7C755.035 1232.85 740.183 1230.04 726.823 1223.54C708.355 1252.99 691.638 1283.5 676.759 1314.91H647.928H649.604" fill="#B59930"/>
<path d="M183.606 1265.99C183.556 1263.82 184.139 1261.69 185.282 1259.84C184.56 1258.76 183.776 1257.71 182.935 1256.72C181.767 1257.87 180.839 1259.24 180.206 1260.76C179.573 1262.27 179.247 1263.9 179.247 1265.54C179.247 1278.83 190.422 1287.21 208.861 1287.21C217.689 1287.21 220.036 1283.86 221.154 1278.61C221.568 1277.11 221.568 1275.53 221.154 1274.03H215.566C214.672 1279.61 211.543 1282.07 204.391 1282.07C194.781 1282.07 183.27 1274.48 183.27 1266.32" fill="#B59930"/>
<path d="M171.76 1350.43C176.343 1340.76 178.71 1330.19 178.689 1319.49C179.303 1308.58 183.197 1298.11 189.864 1289.44C187.779 1288.58 185.793 1287.49 183.941 1286.21C177.572 1293.5 174.111 1302.88 174.219 1312.57C174.219 1319.04 174.219 1320.38 174.219 1326.86C173.843 1334.79 173.06 1342.7 171.872 1350.54" fill="#B59930"/>
<path d="M191.316 1265.65L189.64 1264.42C186.511 1274.25 207.297 1283.97 207.632 1274.59L205.397 1273.92C199.948 1272.48 194.976 1269.63 190.981 1265.65" fill="#005D9B"/>
<path d="M228.194 1250.13C216.67 1248.65 205.831 1243.84 197.016 1236.28C191.987 1238.62 197.016 1256.6 218.695 1256.6C220.52 1256.56 222.311 1256.1 223.936 1255.27C225.56 1254.44 226.978 1253.25 228.082 1251.8C228.082 1251.02 228.082 1250.46 228.082 1250.13" fill="#005D9B"/>
<path d="M200.815 1263.75C225.4 1274.92 241.045 1261.63 239.034 1249.79H235.458C235.458 1249.79 235.458 1250.46 235.458 1250.8C235.458 1257.72 226.182 1262.86 218.36 1262.86C211.31 1263.58 204.262 1261.48 198.755 1257.02C193.248 1252.57 189.73 1246.11 188.97 1239.07C188.988 1236.49 189.987 1234.01 191.763 1232.14L190.646 1230.69C189.752 1229.57 188.746 1228.12 187.852 1226.67C179.247 1232.93 180.812 1254.82 200.703 1263.53" fill="#B59930"/>
<path d="M242.61 1228.01C241.492 1229.02 221.936 1228.01 203.609 1207.12C203.086 1208.64 202.749 1210.22 202.603 1211.81C202.603 1220.08 215.454 1232.59 235.011 1232.59C235.681 1232.59 242.721 1231.14 242.721 1228.12" fill="#005D9B"/>
<path d="M249.315 1228.68V1229.46C249.315 1234.38 241.045 1237.5 235.793 1237.5C216.907 1237.5 196.68 1225.11 196.68 1211.37C196.856 1207.71 198.23 1204.22 200.592 1201.43C200.592 1201.43 201.262 1202.54 200.592 1200.53C199.499 1198.56 198.565 1196.51 197.798 1194.39C193.44 1196.4 191.093 1201.65 191.093 1209.47C191.093 1226.11 208.526 1243.76 235.793 1243.76C248.085 1243.76 257.025 1235.49 255.349 1227.68L249.315 1228.57" fill="#B59930"/>
<path d="M246.968 1222.2C249.801 1222.57 252.682 1222.33 255.411 1221.48C258.14 1220.63 260.653 1219.21 262.777 1217.3C264.901 1215.38 266.585 1213.04 267.715 1210.41C268.844 1207.79 269.391 1204.95 269.318 1202.1C267.226 1202.85 265.049 1203.33 262.837 1203.55C261.943 1212.26 253.45 1214.72 246.074 1214.72C236.122 1214.88 226.496 1211.17 219.222 1204.38C211.948 1197.59 207.593 1188.24 207.073 1178.3C206.949 1175.17 207.326 1172.04 208.191 1169.03C207.101 1166.18 206.168 1163.27 205.397 1160.32C202.706 1165.24 201.466 1170.81 201.821 1176.41C201.85 1188.52 206.672 1200.14 215.234 1208.72C223.796 1217.3 235.404 1222.14 247.527 1222.2" fill="#B59930"/>
<path d="M255.349 1203.88C246.755 1203.75 238.349 1201.35 230.987 1196.92C223.625 1192.48 217.572 1186.17 213.443 1178.64V1179.76C214.302 1187.63 218.06 1194.91 223.987 1200.18C229.914 1205.44 237.587 1208.31 245.515 1208.24C248.309 1208.24 254.902 1208.24 255.796 1203.88" fill="#005D9B"/>
<path d="M225.735 1153.4C225.32 1157.32 225.796 1161.29 227.127 1165.01C228.459 1168.72 230.611 1172.09 233.425 1174.86C236.239 1177.63 239.641 1179.73 243.379 1181C247.117 1182.27 251.094 1182.69 255.014 1182.21C257.447 1182.4 259.893 1182.08 262.194 1181.27C264.495 1180.45 266.602 1179.17 268.379 1177.5C270.157 1175.83 271.566 1173.81 272.516 1171.56C273.467 1169.31 273.938 1166.89 273.9 1164.45C274.268 1161.55 273.989 1158.6 273.083 1155.81C272.177 1153.02 270.667 1150.47 268.659 1148.34C266.652 1146.2 264.198 1144.54 261.472 1143.46C258.746 1142.39 255.816 1141.93 252.891 1142.11C247.843 1142.04 242.833 1142.99 238.164 1144.91C233.496 1146.83 229.267 1149.68 225.735 1153.28" fill="#005D9B"/>
<path d="M593.617 1532.05C585.055 1529.75 576.221 1528.63 567.356 1528.7C553.722 1528.7 536.96 1533.95 536.96 1541.77C536.96 1547.36 550.817 1547.91 553.164 1547.91C568.199 1548.71 583.165 1545.35 596.411 1538.2C601.104 1536.07 600.881 1533.5 593.617 1532.05Z" fill="#B59930"/>
<path d="M745.262 1450.4C745.015 1452.8 745.244 1455.22 745.937 1457.54C746.629 1459.85 747.772 1462 749.298 1463.86C750.824 1465.73 752.705 1467.28 754.831 1468.42C756.957 1469.56 759.288 1470.27 761.689 1470.51C822.035 1473.41 882.827 1331.44 918.14 1291.79C862.265 1333.01 744.815 1388.19 744.815 1450.29" fill="#B59930"/>
<path d="M731.964 1215.05C728.947 1216.73 728.947 1217.85 731.964 1219.52C744.815 1226.89 790.968 1227.56 804.043 1220.75C807.172 1219.19 807.172 1218.07 804.043 1216.28C790.856 1208.69 745.262 1207.68 731.964 1215.05Z" fill="#B59930"/>
<path d="M465.551 1221.42C465.551 1221.42 469.239 1225.55 487.901 1228.23C502.429 1230.24 515.168 1231.81 518.856 1224.55C525.45 1213.38 465.328 1213.38 465.328 1221.42" fill="#B59930"/>
<path d="M922.721 1152.61C923.538 1152.51 924.364 1152.51 925.18 1152.61C929.793 1153.63 933.923 1156.18 936.888 1159.86C939.854 1163.53 941.479 1168.11 941.496 1172.83C941.555 1175.67 940.807 1178.46 939.338 1180.89C937.868 1183.32 935.738 1185.28 933.196 1186.55C930.655 1187.81 927.805 1188.33 924.981 1188.03C922.157 1187.74 919.474 1186.65 917.246 1184.89L915.793 1186.68C918.363 1189.59 920.71 1190.81 927.527 1190.81C929.826 1190.79 932.095 1190.3 934.198 1189.37C936.301 1188.44 938.194 1187.09 939.761 1185.41C941.328 1183.73 942.538 1181.75 943.316 1179.59C944.095 1177.42 944.426 1175.13 944.289 1172.83C944.55 1169.8 944.157 1166.75 943.135 1163.89C942.114 1161.02 940.488 1158.41 938.369 1156.23C936.249 1154.05 933.686 1152.34 930.851 1151.24C928.016 1150.13 924.977 1149.65 921.939 1149.82L922.721 1152.28" fill="#B59930"/>
<path d="M924.398 1159.76C924.756 1166.13 923.568 1172.49 920.933 1178.3C920.933 1182.33 923.168 1182.55 927.862 1182.55C932.555 1182.55 934.902 1178.08 934.902 1172.83C935.132 1169.73 934.176 1166.65 932.226 1164.23C930.276 1161.8 927.479 1160.21 924.398 1159.76Z" fill="#005D9B"/>
<path d="M890.649 1180.2C891.006 1180.57 891.444 1180.86 891.929 1181.03C892.413 1181.21 892.931 1181.27 893.443 1181.21C897.184 1180.66 900.581 1178.72 902.961 1175.78C905.341 1172.84 906.531 1169.12 906.294 1165.35C906.714 1162.13 906.162 1158.85 904.708 1155.95C903.255 1153.04 900.967 1150.64 898.136 1149.04C899.061 1159.96 896.435 1170.89 890.649 1180.2Z" fill="#005D9B"/>
<path d="M885.732 1186.46C885.415 1186.91 885.039 1187.33 884.615 1187.69C886.961 1190.26 889.308 1190.81 894.449 1190.81C901.01 1189.97 906.995 1186.64 911.158 1181.5C915.321 1176.36 917.341 1169.81 916.799 1163.23C917.484 1157.12 915.804 1150.99 912.104 1146.09C908.404 1141.18 902.966 1137.88 896.907 1136.86H895.79C896.319 1138.36 896.729 1139.89 897.019 1141.44C906.182 1142.34 913.111 1151.94 913.111 1165.24C913.325 1170.8 911.449 1176.25 907.852 1180.51C904.254 1184.77 899.195 1187.53 893.666 1188.25C890.96 1188.35 888.27 1187.77 885.844 1186.57" fill="#B59930"/>
<path d="M866.176 1130.39C866.846 1130.39 869.305 1130.39 870.646 1130.39C877.686 1130.39 884.168 1140.1 884.168 1152.73C884.168 1165.35 878.133 1185.23 865.617 1185.23C863.987 1185.23 862.379 1184.85 860.924 1184.11C859.657 1185.84 858.275 1187.48 856.789 1189.03C858.543 1189.83 860.448 1190.25 862.376 1190.26C882.044 1190.26 890.537 1170.71 890.537 1154.51C890.537 1136.31 882.38 1126.36 866.176 1126.36H864.276C864.947 1127.71 865.617 1129.16 866.176 1130.5" fill="#B59930"/>
<path d="M869.081 1137.31C871.567 1144.01 872.477 1151.19 871.741 1158.3C871.004 1165.41 868.641 1172.25 864.835 1178.3H865.729C873.887 1178.3 878.804 1164.57 878.804 1152.5C878.804 1144.24 876.68 1136.98 870.199 1136.98H869.081" fill="#005D9B"/>
<path d="M834.551 1178.86C841.926 1180.2 849.302 1165.24 849.302 1152.5C849.881 1148.2 849.342 1143.83 847.737 1139.8C846.132 1135.77 843.515 1132.22 840.138 1129.49C841.709 1135.66 842.46 1142.01 842.373 1148.37C842.618 1159.06 839.911 1169.61 834.551 1178.86Z" fill="#005D9B"/>
<path d="M801.584 1177.41C815.33 1177.41 823.04 1162.55 823.04 1147.81C823.146 1140.35 821.379 1132.97 817.9 1126.36C809.758 1127.15 802.113 1130.63 796.179 1136.26C790.246 1141.88 786.366 1149.33 785.157 1157.42C785.157 1165.46 789.627 1177.41 801.584 1177.41Z" fill="#005D9B"/>
<path d="M833.098 1113.63C834.387 1115.56 835.544 1117.58 836.562 1119.66C851.76 1124.24 855.895 1138.32 855.895 1152.17C855.895 1170.71 844.72 1185.68 835.78 1185.68C833.981 1185.8 832.187 1185.37 830.639 1184.45C828.961 1186.31 827.13 1188.03 825.163 1189.59C827.571 1190.88 830.255 1191.56 832.986 1191.6C850.866 1191.6 864.053 1173.39 864.053 1153.95C864.053 1134.52 854.777 1113.52 834.998 1113.52H833.768" fill="#B59930"/>
<path d="M949.542 1164.45C949.955 1166 950.291 1167.57 950.547 1169.15C959.599 1173.39 977.703 1183.44 991.783 1179.53C978.525 1178.27 965.876 1173.36 955.241 1165.35C954.011 1164.57 950.994 1163 949.542 1164.45Z" fill="#B59930"/>
<path d="M203.162 905.314C201.821 906.319 200.815 904.756 200.815 904.756C194.445 894.479 186.846 883.645 152.427 883.645C144.921 884.202 137.39 882.951 130.468 879.997C123.545 877.043 117.433 872.471 112.644 866.667C111.75 865.773 111.527 864.768 112.644 863.986C112.802 863.798 112.998 863.647 113.22 863.543C113.442 863.44 113.684 863.386 113.929 863.386C114.174 863.386 114.417 863.44 114.639 863.543C114.861 863.647 115.057 863.798 115.215 863.986C119.922 869.648 125.923 874.095 132.71 876.953C139.498 879.811 146.874 880.995 154.215 880.405C190.087 880.405 197.127 891.575 203.721 902.745C203.721 902.745 204.95 904.532 203.721 905.426" fill="#1A1918"/>
<path d="M156.115 950.552C182.823 950.552 182.712 921.398 207.185 921.398C208.749 921.398 209.867 921.398 210.09 922.739C210.314 924.079 208.638 924.526 207.073 924.526C184.723 924.526 185.841 953.568 156.115 953.568C154.774 953.568 153.545 953.568 153.656 952.115C153.768 950.663 154.886 950.663 156.115 950.663" fill="#1A1918"/>
<path d="M173.548 762.452C183.445 790.535 190.703 819.478 195.228 848.907C198.382 876.114 207.092 902.384 220.818 926.09C221.377 927.095 222.383 928.101 223.5 927.542C224.618 926.984 223.5 925.308 223.5 924.303C196.122 885.767 203.385 826.567 175.783 761.223C175.113 759.548 175.001 756.867 172.878 757.761C170.754 758.654 172.878 761 173.548 762.564" fill="#1A1918"/>
<path d="M218.919 901.74C218.919 857.842 245.068 845.109 262.278 823.551C266.147 818.999 269.414 813.968 272 808.583C272.894 806.796 272 803.78 274.123 804.004C276.246 804.227 275.799 807.243 275.241 808.918C272.77 815.375 268.962 821.238 264.066 826.12C245.403 848.46 222.048 862.757 222.048 901.293C222.048 903.415 222.048 905.426 220.371 905.537C218.695 905.649 218.36 903.192 218.36 901.516" fill="#1A1918"/>
<path d="M233.334 913.021C232.105 912.239 230.876 911.122 229.535 913.021C228.194 914.92 230.205 915.367 231.323 916.26C237.28 921.559 245.031 924.395 253.002 924.191C266.162 923.032 278.61 917.711 288.539 909C289.768 908.106 291.109 906.431 289.992 905.537C288.874 904.644 287.31 905.537 285.857 906.431C276.408 914.512 264.707 919.502 252.332 920.728C245.207 920.449 238.356 917.905 232.776 913.468" fill="#1A1918"/>
<path d="M422.975 865.103C421.41 864.321 419.622 863.427 418.616 865.103C417.611 866.778 419.622 868.23 421.298 868.9C426.805 871.455 432.775 872.861 438.843 873.033C467.675 873.033 479.855 848.236 506.675 848.236C508.128 848.236 510.14 848.236 510.14 846.784C510.14 845.332 508.016 844.997 506.34 844.997C474.491 844.997 468.122 869.236 439.29 869.236C433.794 869.386 428.357 868.075 423.533 865.438" fill="#1A1918"/>
<path d="M426.886 752.846C426.886 751.394 427.556 749.942 428.897 749.942C430.238 749.942 430.797 751.394 430.797 752.734C430.797 777.531 516.845 793.839 516.845 835.95C516.845 837.737 516.845 839.859 515.168 839.859C513.492 839.859 512.375 837.848 512.375 835.95C512.375 795.068 426.886 782.334 426.886 752.846Z" fill="#1A1918"/>
<path d="M621.331 750.835C622.672 749.607 623.79 749.048 624.795 750.054C625.801 751.059 624.795 752.399 624.013 753.516C598.087 775.856 581.213 783.786 561.768 801.435C552.253 814.053 543.663 827.342 536.066 841.199C535.172 842.428 534.389 843.768 533.048 843.21C531.707 842.651 532.043 840.417 533.048 839.189C540.306 824.692 549.111 811.022 559.31 798.419C577.972 779.765 597.305 772.617 621.108 750.835" fill="#1A1918"/>
<path d="M539.865 850.694C538.524 850.694 536.96 850.694 536.848 852.146C536.736 853.598 538.301 854.045 539.642 854.045C553.164 854.045 576.855 874.597 610.044 874.597C617.785 874.997 625.536 874.052 632.953 871.805C633.205 871.76 633.443 871.658 633.649 871.506C633.855 871.355 634.024 871.159 634.143 870.933C634.261 870.706 634.327 870.456 634.333 870.2C634.34 869.945 634.289 869.691 634.182 869.459C634.182 868.23 632.059 869.459 630.718 869.459C623.859 870.952 616.835 871.553 609.821 871.246C577.972 871.246 554.616 850.694 539.865 850.694Z" fill="#1A1918"/>
<path d="M530.59 590.995C530.59 589.32 531.372 588.203 529.696 588.203C528.02 588.203 527.684 589.208 527.237 590.772C523.225 605.953 521.679 621.679 522.656 637.35C522.656 674.769 531.372 695.322 531.372 732.517C531.372 811.934 520.868 824.78 520.868 851.811C520.868 853.151 520.868 854.938 522.432 854.938C523.997 854.938 524.555 853.374 524.555 851.922C524.555 832.822 534.836 811.376 534.836 732.07C534.836 694.986 526.343 674.434 526.343 637.35C525.808 621.824 527.197 606.292 530.478 591.107" fill="#1A1918"/>
<path d="M499.076 645.281C499.076 643.94 499.076 642.153 497.624 642.153C496.171 642.153 495.612 643.829 495.612 645.281C495.612 683.481 520.644 692.752 520.644 706.826C520.644 708.167 521.315 709.73 522.656 709.73C523.997 709.73 524.108 708.278 524.108 706.938C524.108 689.513 499.076 681.247 499.076 645.392" fill="#1A1918"/>
<path d="M577.86 635.339C575.737 635.339 575.737 637.015 575.737 638.69C575.737 663.04 538.189 702.805 538.189 712.299C538.189 713.528 538.189 714.645 539.753 714.757C541.318 714.869 541.541 713.528 541.541 712.188C541.541 708.39 579.537 661.365 579.537 638.802C579.537 637.462 579.537 635.451 577.86 635.451" fill="#1A1918"/>
<path d="M817.117 820.758C817.117 819.306 817.117 817.407 818.906 817.519C820.693 817.631 820.358 819.306 820.358 820.758C820.358 854.268 838.909 860.858 846.061 878.283C850.21 886.553 852.315 895.698 852.198 904.949C852.081 914.2 849.747 923.288 845.39 931.451C844.72 932.568 843.826 933.35 842.708 932.792C842.418 932.668 842.163 932.474 841.967 932.228C841.771 931.981 841.639 931.689 841.583 931.379C841.528 931.068 841.551 930.749 841.649 930.45C841.748 930.151 841.92 929.881 842.15 929.664C846.616 922.123 849.074 913.564 849.289 904.804C849.504 896.043 847.469 887.374 843.379 879.623C836.227 862.645 817.117 855.05 817.117 820.647" fill="#1A1918"/>
<path d="M845.502 940.499C844.72 941.393 843.826 943.291 845.502 944.073C847.178 944.855 847.849 943.291 848.631 942.398C858.649 928.35 870.486 915.693 883.832 904.756C901.154 892.357 917.357 890.346 933.673 882.416C933.948 882.331 934.199 882.181 934.404 881.978C934.608 881.776 934.761 881.527 934.849 881.253C934.937 880.979 934.957 880.687 934.908 880.404C934.859 880.12 934.742 879.852 934.567 879.623C933.896 878.506 932.444 878.953 931.215 879.623C925.627 883.756 899.366 890.123 881.821 901.963C867.893 912.833 855.653 925.706 845.502 940.164" fill="#1A1918"/>
<path d="M878.357 753.069C878.357 751.729 879.139 750.277 880.815 750.389C882.491 750.5 882.827 751.617 882.827 753.069C882.827 792.499 892.325 797.749 892.325 810.817C892.325 812.381 892.325 813.833 890.202 814.057C888.079 814.28 887.297 812.381 887.297 810.817C887.297 794.286 878.245 796.855 878.245 753.069" fill="#1A1918"/>
<path d="M950.659 757.314C950.659 755.303 950.659 754.298 952.559 754.298C954.458 754.298 954.123 755.639 954.123 757.091C952.812 764.592 948.846 771.371 942.948 776.191C931.773 788.031 919.481 791.494 907.523 804.674C903.302 808.4 899.749 812.82 897.019 817.743C897.019 818.86 897.019 820.535 894.896 820.535C892.772 820.535 893.666 818.748 894.002 817.408C896.772 811.707 900.559 806.56 905.177 802.217C917.581 788.925 928.085 786.467 939.931 774.739C945.153 770.213 948.729 764.086 950.1 757.314" fill="#1A1918"/>
<path d="M947.418 686.162C940.49 712.635 919.145 739.219 904.618 774.739C888.302 814.503 885.285 839.189 869.975 879.288C864.046 898.411 856.144 916.866 846.396 934.356C845.726 935.473 844.72 937.26 846.396 937.148C848.072 937.036 848.408 936.366 849.19 935.026C859.574 917.86 867.794 899.476 873.663 880.294C888.861 840.752 891.431 815.174 907.188 775.409C921.716 739.666 941.384 719.56 950.324 686.05C950.324 684.71 951.106 682.923 949.318 682.923C947.53 682.923 947.53 684.487 947.195 685.715" fill="#1A1918"/>
<path d="M246.968 365.923C241.829 369.053 236.356 371.601 230.652 373.519C219.477 377.54 200.815 376.2 198.357 365.365C197.67 362.556 197.788 359.61 198.697 356.864C199.606 354.119 201.269 351.684 203.497 349.839C207.923 345.883 213.652 343.695 219.589 343.695C222.271 343.695 223.836 342.914 226.518 342.914C224.283 342.02 222.83 340.568 220.371 340.456C216.435 340.139 212.481 340.812 208.871 342.411C205.26 344.011 202.107 346.487 199.698 349.615C199.698 347.828 197.463 347.381 197.574 345.594C198.245 337.105 206.961 334.424 216.907 330.85C216.183 332.408 215.694 334.064 215.454 335.765C218.871 333.874 222.724 332.911 226.629 332.972C229.475 333.036 232.281 333.643 234.899 334.76C236.463 334.76 240.039 336.323 238.587 337.105C237.134 337.887 235.569 339.116 233.558 340.233C236.445 340.463 239.156 341.713 241.204 343.76C243.252 345.807 244.503 348.517 244.733 351.403C244.3 350.742 243.7 350.208 242.993 349.855C242.286 349.502 241.498 349.342 240.71 349.392C234.787 349.392 232.44 354.754 226.518 354.754C225.476 354.689 224.431 354.689 223.389 354.754C224.332 355.629 225.384 356.379 226.518 356.988C225.05 358.404 223.287 359.479 221.355 360.135C219.423 360.792 217.37 361.014 215.343 360.785C209.755 360.785 206.626 360.785 202.938 356.541C202.156 357.981 201.746 359.593 201.746 361.232C201.746 362.871 202.156 364.483 202.938 365.923C204.726 369.721 214.113 372.514 221.377 371.508C229.377 370.418 237.022 367.515 243.727 363.019C251.431 357.338 258.15 350.433 263.619 342.578C260.854 343.577 257.952 344.142 255.014 344.254C252.05 344.254 249.208 343.077 247.112 340.982C245.016 338.888 243.839 336.047 243.839 333.084C243.784 329.872 244.75 326.725 246.597 324.096C248.445 321.467 251.078 319.491 254.12 318.452C254.12 318.452 253.114 321.244 253.114 321.579C254.244 320.355 255.633 319.399 257.179 318.78C258.726 318.162 260.392 317.897 262.054 318.005C263.473 317.94 264.888 318.186 266.201 318.727C267.513 319.267 268.692 320.088 269.653 321.132C268.312 321.803 267.418 321.132 266.077 321.132C268.536 321.132 270.1 325.042 270.1 327.499C269.998 328.862 269.468 330.158 268.585 331.201C267.702 332.244 266.511 332.981 265.183 333.308C260.49 333.308 259.149 331.855 259.149 329.51C259.149 327.164 259.149 325.6 260.49 324.818H261.384H260.043C253.896 324.818 249.762 326.606 249.762 332.637C249.788 333.514 249.994 334.376 250.369 335.169C250.744 335.962 251.279 336.669 251.94 337.246C252.601 337.823 253.374 338.257 254.21 338.521C255.047 338.785 255.929 338.873 256.802 338.781C259.497 339.123 262.234 338.792 264.77 337.817C267.305 336.843 269.559 335.255 271.33 333.196C280.812 318.382 295.538 307.691 312.565 303.261C340.726 297.117 359.053 306.835 379.615 316.106C376.941 312.277 375.534 307.707 375.592 303.037C375.59 301.234 375.955 299.449 376.665 297.791C377.375 296.133 378.415 294.637 379.721 293.393C381.028 292.15 382.574 291.185 384.266 290.558C385.958 289.931 387.759 289.654 389.561 289.745C389.561 289.745 387.997 291.309 388.555 291.309C399.73 291.309 402.189 296.112 402.189 299.798C402.189 300.692 402.189 302.479 402.189 303.484L399.842 301.585C399.842 302.926 399.842 303.484 399.842 304.824C399.875 305.65 399.734 306.472 399.43 307.24C399.125 308.007 398.664 308.703 398.074 309.281C397.485 309.86 396.781 310.309 396.008 310.599C395.234 310.89 394.409 311.015 393.584 310.968C390.567 310.968 387.661 309.739 387.661 305.495C387.661 303.149 389.002 301.362 390.902 301.362C392.802 301.362 392.69 302.591 393.584 302.926C394.478 303.261 394.478 302.926 394.143 300.803C393.808 298.681 391.349 297.899 388.891 297.899C387.104 298.169 385.476 299.075 384.305 300.45C383.134 301.825 382.501 303.577 382.521 305.383C382.316 309.651 383.628 313.854 386.225 317.248C388.823 320.641 392.538 323.007 396.713 323.925C407.968 327.912 419.868 329.768 431.803 329.398C427.33 328.955 423.114 327.105 419.76 324.115C416.406 321.124 414.088 317.146 413.141 312.755L418.505 314.989C412.582 309.069 417.275 303.819 415.711 295.442C417.387 297.676 418.84 297.452 421.298 298.569C421.298 291.309 427.668 291.197 430.574 285.277C435.826 290.862 439.625 293.99 439.625 301.585C439.895 302.648 439.895 303.762 439.625 304.824C441.316 304.03 442.693 302.693 443.537 301.027C443.537 303.819 443.537 305.383 443.537 308.064C443.517 313.707 441.361 319.135 437.502 323.255C432.92 323.255 429.791 318.563 428.897 313.537C428.194 309.847 428.194 306.057 428.897 302.367C426.649 304.861 425.208 307.976 424.763 311.303C424.788 313.939 425.428 316.532 426.63 318.878C427.833 321.224 429.565 323.258 431.691 324.819C433.816 326.38 436.276 327.424 438.875 327.87C441.474 328.316 444.141 328.151 446.666 327.388C458.274 323.823 469.035 317.932 478.291 310.074C473.679 310.298 469.112 309.088 465.216 306.612C463.751 305.712 462.482 304.528 461.483 303.13C460.485 301.731 459.777 300.147 459.402 298.47C459.027 296.793 458.992 295.058 459.3 293.368C459.607 291.677 460.251 290.066 461.193 288.628C461.193 288.628 461.193 290.639 461.975 290.304C467.228 281.48 473.15 281.48 475.721 283.267L478.85 284.942L476.279 285.501L478.961 287.064C479.662 287.452 480.273 287.982 480.754 288.621C481.236 289.26 481.578 289.994 481.757 290.774C481.936 291.553 481.949 292.362 481.795 293.147C481.64 293.932 481.322 294.676 480.861 295.33C480.576 296.022 480.139 296.642 479.584 297.144C479.028 297.645 478.368 298.017 477.65 298.231C476.933 298.445 476.176 298.496 475.437 298.381C474.697 298.266 473.992 297.986 473.374 297.564C472.519 297.174 471.852 296.463 471.517 295.585C471.183 294.707 471.207 293.733 471.586 292.873C472.703 290.974 473.486 291.979 474.156 291.421C474.827 290.862 474.156 290.639 472.703 289.857C471.251 289.075 468.904 290.75 467.675 292.761C466.935 294.527 466.832 296.494 467.382 298.328C467.932 300.161 469.102 301.747 470.692 302.814C479.632 307.17 485.219 304.713 493.042 298.458C506.686 285.783 524.486 278.515 543.106 278.017C569.814 277.235 587.806 293.878 606.245 308.511C604.419 304.208 603.989 299.442 605.016 294.883C605.394 293.123 606.126 291.458 607.167 289.989C608.209 288.52 609.538 287.278 611.074 286.338C612.61 285.398 614.321 284.779 616.104 284.52C617.886 284.261 619.702 284.367 621.443 284.831C621.443 284.831 619.655 285.947 620.102 286.171C630.606 288.405 632.394 293.655 631.277 297.341C631.277 298.234 631.277 300.021 631.277 301.027L629.824 298.793C629.824 300.133 629.824 300.58 629.154 301.92C629.013 302.742 628.701 303.526 628.237 304.219C627.773 304.911 627.168 305.499 626.461 305.942C625.754 306.384 624.962 306.673 624.135 306.789C623.309 306.904 622.468 306.844 621.666 306.612C620.895 306.556 620.146 306.33 619.472 305.951C618.799 305.572 618.217 305.05 617.769 304.42C617.32 303.791 617.016 303.07 616.879 302.31C616.741 301.549 616.773 300.768 616.973 300.021C616.973 297.676 619.208 296.224 620.996 296.559C622.784 296.894 622.449 298.234 623.231 298.681C624.013 299.128 624.125 298.681 624.237 296.671C624.348 294.66 622.113 293.208 619.655 292.761C617.841 292.646 616.046 293.194 614.607 294.304C613.168 295.414 612.181 297.01 611.832 298.793C610.739 302.932 611.15 307.325 612.992 311.19C614.833 315.055 617.986 318.143 621.89 319.904C630.514 325.564 640.434 328.946 650.721 329.733C658.727 330.179 666.757 329.654 674.636 328.169L655.527 326.494C645.581 324.483 635.076 319.569 635.076 310.409C635.118 308.567 635.343 306.734 635.747 304.936C637.423 307.617 638.205 306.723 640.552 308.399C639.738 305.798 639.361 303.081 639.435 300.357C639.288 297.14 640.366 293.987 642.452 291.532C643.316 292.55 644.101 293.633 644.799 294.772C646.398 292.486 648.52 290.615 650.989 289.313C653.457 288.011 656.2 287.317 658.991 287.288C657.86 290.95 656.964 294.681 656.309 298.458C659.55 298.458 661.226 296.671 664.467 296.447C663.844 298.156 663.358 299.911 663.014 301.697L664.467 312.867C664.334 315.598 663.129 318.166 661.114 320.015H659.103C657.539 319.545 656.084 318.767 654.824 317.728C653.564 316.689 652.524 315.409 651.764 313.963C651.005 312.518 650.541 310.936 650.401 309.309C650.26 307.682 650.445 306.044 650.945 304.489C649.972 304.898 649.137 305.58 648.542 306.452C647.948 307.324 647.618 308.349 647.592 309.404C647.592 321.356 661.226 325.042 682.123 325.042C686.174 323.992 690.166 322.724 694.081 321.244C688.858 321.886 683.568 320.828 678.994 318.228C677.184 317.251 675.589 315.919 674.305 314.312C673.021 312.705 672.074 310.856 671.521 308.875C670.969 306.894 670.821 304.822 671.087 302.782C671.354 300.743 672.028 298.778 673.072 297.006C673.072 297.006 673.742 299.351 674.077 298.904C679.777 287.735 685.252 288.628 689.946 289.745C691.262 290.228 692.534 290.826 693.745 291.532L690.728 292.426L693.969 294.213C696.651 295.665 698.104 297.899 697.768 303.149C697.502 304.095 697.034 304.972 696.397 305.72C695.76 306.469 694.968 307.07 694.077 307.484C693.185 307.898 692.214 308.114 691.231 308.118C690.248 308.121 689.276 307.912 688.381 307.505C687.297 306.952 686.45 306.025 685.998 304.895C685.546 303.765 685.519 302.51 685.923 301.362C687.152 299.016 688.493 300.245 689.275 299.463C690.058 298.681 689.275 297.341 686.705 297.341C685.436 297.315 684.192 297.69 683.149 298.412C682.106 299.134 681.317 300.166 680.894 301.362C680.057 303.311 679.922 305.49 680.513 307.527C681.104 309.564 682.384 311.333 684.135 312.532C695.31 317.558 704.362 314.431 730.399 304.489C744.391 299.51 759.519 298.657 773.982 302.032C791.233 306.77 806.047 317.866 815.441 333.084C814.91 330.223 815.462 327.266 816.991 324.789C818.519 322.311 820.914 320.491 823.711 319.68C826.382 319.032 829.12 318.695 831.869 318.675C831.127 319.357 830.343 319.991 829.522 320.574C831.993 320.924 834.302 322.005 836.154 323.676C838.006 325.348 839.315 327.535 839.915 329.957C838.749 329.503 837.555 329.13 836.339 328.84V330.627C836.532 332.426 836.025 334.231 834.922 335.666C833.819 337.102 832.205 338.057 830.416 338.334C829.024 338.674 827.553 338.456 826.321 337.725C825.088 336.994 824.191 335.809 823.823 334.424C823.617 333.876 823.534 333.289 823.579 332.705C823.624 332.12 823.796 331.553 824.083 331.042C824.371 330.531 824.766 330.09 825.243 329.748C825.719 329.406 826.264 329.172 826.84 329.063C827.739 328.821 828.686 328.817 829.588 329.052C830.489 329.287 831.314 329.753 831.98 330.403C831.862 329.487 831.637 328.587 831.31 327.723C831.31 325.935 829.298 323.366 824.158 324.707C823.089 325.097 822.113 325.704 821.29 326.489C820.467 327.274 819.815 328.22 819.374 329.269C818.934 330.317 818.714 331.445 818.73 332.582C818.745 333.719 818.995 334.841 819.464 335.877C821.064 340.313 823.491 344.407 826.616 347.94C830.881 354.28 836.462 359.627 842.98 363.617C849.498 367.607 856.8 370.146 864.388 371.062C871.54 372.067 881.15 369.274 882.827 365.477C883.609 364.037 884.019 362.424 884.019 360.785C884.019 359.147 883.609 357.534 882.827 356.094C879.139 360.339 876.01 360.338 870.422 360.338C868.395 360.567 866.342 360.345 864.41 359.688C862.478 359.032 860.715 357.957 859.247 356.541C860.38 355.93 861.431 355.18 862.376 354.307C861.334 354.238 860.289 354.238 859.247 354.307C853.325 354.307 850.978 348.945 845.055 348.945C844.265 348.883 843.473 349.037 842.764 349.392C842.055 349.746 841.456 350.287 841.032 350.956C841.24 348.062 842.484 345.34 844.536 343.288C846.589 341.237 849.312 339.994 852.207 339.786C850.196 338.781 849.525 337.999 847.178 336.658C844.832 335.318 849.302 334.76 850.866 334.313C853.484 333.196 856.29 332.59 859.136 332.526C863.357 332.212 867.581 333.103 871.316 335.095C871.068 333.396 870.579 331.741 869.864 330.18C879.809 333.308 888.526 336.435 889.196 344.924C889.196 346.711 887.073 347.158 887.073 348.945C884.792 346.221 881.936 344.037 878.708 342.55C875.481 341.063 871.964 340.309 868.411 340.345C865.545 340.671 862.752 341.463 860.141 342.69C863.304 342.474 866.478 342.474 869.64 342.69C874.516 342.839 879.184 344.698 882.827 347.94C885.263 349.808 887.1 352.346 888.113 355.243C889.125 358.14 889.269 361.27 888.526 364.248C885.956 375.418 867.852 376.423 856.118 372.402C841.568 368.008 828.754 359.183 819.464 347.158C816.807 343.856 813.447 341.185 809.63 339.339C803.708 336.547 799.573 338.222 798.455 341.35C796.108 346.376 798.455 348.387 800.355 349.28C801.205 349.751 802.104 350.126 803.037 350.397C802.469 349.594 802.12 348.657 802.022 347.678C801.924 346.7 802.081 345.712 802.478 344.812C802.688 344.225 803.026 343.69 803.466 343.248C803.906 342.805 804.439 342.465 805.026 342.251C805.613 342.038 806.24 341.957 806.862 342.013C807.484 342.07 808.086 342.263 808.625 342.578C809.999 343.19 811.076 344.32 811.62 345.722C812.164 347.124 812.132 348.684 811.53 350.062C810.938 351.855 809.681 353.352 808.018 354.245C806.355 355.139 804.412 355.361 802.59 354.865L800.802 354.195C800.899 355.509 801.086 356.816 801.361 358.105C798.987 357.137 796.944 355.505 795.477 353.405C794.01 351.304 793.182 348.825 793.091 346.265C792.354 347.02 791.57 347.729 790.744 348.387C791.196 345.512 791.984 342.701 793.091 340.009C794.388 337.227 796.671 335.024 799.5 333.827C802.328 332.63 805.499 332.525 808.401 333.531C799.393 320.761 785.98 311.77 770.741 308.287H771.412C773.016 309.236 774.358 310.571 775.314 312.171C776.271 313.771 776.812 315.584 776.887 317.446C776.301 323.65 776.301 329.896 776.887 336.1C775.439 335.772 774.07 335.158 772.861 334.295C771.652 333.432 770.628 332.337 769.847 331.074C770.291 331.912 770.593 332.818 770.741 333.754C770.741 340.456 767.053 343.695 764.93 350.062C760.348 343.919 755.878 345.929 749.397 337.552C748.794 338.495 748.122 339.391 747.385 340.233C746.234 338.307 745.617 336.109 745.597 333.866C745.407 329.224 746.407 324.61 748.503 320.462C747.05 321.244 746.38 321.914 744.703 321.914C745.416 317.856 747.681 314.235 751.018 311.817C754.356 309.398 758.503 308.373 762.583 308.957C759.762 312.852 758.272 317.553 758.337 322.361C758.337 324.595 758.337 325.824 758.337 328.058C758.337 330.292 759.901 331.297 760.795 332.861C760.537 329.739 760.537 326.6 760.795 323.478C760.612 317.565 762.782 311.821 766.83 307.505C760.589 306.337 754.185 306.337 747.944 307.505C741.038 308.929 734.349 311.257 728.053 314.43C724.005 316.158 720.41 318.795 717.548 322.138C715.725 323.491 714.462 325.465 713.999 327.687C713.535 329.909 713.903 332.223 715.032 334.192C716.162 336.161 717.974 337.647 720.127 338.37C722.28 339.092 724.622 339 726.712 338.111C728.611 337.44 728.276 336.323 728.611 335.653C727.734 335.974 726.788 336.061 725.866 335.904C724.945 335.748 724.081 335.353 723.359 334.76C721.683 333.643 721.348 331.297 723.359 327.834C725.371 324.372 729.952 325.377 732.523 327.834C733.315 328.397 733.983 329.115 734.488 329.945C734.993 330.775 735.324 331.699 735.46 332.66C735.596 333.622 735.534 334.601 735.279 335.538C735.024 336.475 734.58 337.35 733.975 338.111L732.411 339.116C733.599 339.255 734.799 339.255 735.987 339.116C733.956 341.49 731.165 343.088 728.089 343.638C725.013 344.188 721.841 343.656 719.113 342.132C719.657 342.875 720.142 343.659 720.565 344.477C717.501 344.033 714.629 342.714 712.296 340.68C709.717 338.615 708.051 335.623 707.654 332.344C707.257 329.066 708.161 325.763 710.173 323.143C690.547 332.823 668.564 336.698 646.81 334.313C638.251 333.502 629.916 331.116 622.225 327.276C615.614 323.856 609.297 319.896 603.339 315.436C599.989 312.747 596.103 310.805 591.941 309.739C585.236 308.287 581.325 310.968 580.766 314.542C579.537 320.239 582.554 321.691 584.565 322.138C585.568 322.248 586.58 322.248 587.583 322.138C586.805 321.454 586.221 320.579 585.887 319.599C585.554 318.619 585.483 317.568 585.683 316.553C585.769 315.914 585.993 315.301 586.338 314.757C586.684 314.213 587.143 313.75 587.684 313.4C588.226 313.049 588.837 312.82 589.475 312.729C590.113 312.637 590.764 312.684 591.382 312.867C592.929 313.166 594.298 314.057 595.196 315.351C596.093 316.645 596.449 318.239 596.187 319.792C595.293 323.925 592.388 327.388 588.141 326.829H586.13C586.561 328.167 587.083 329.473 587.694 330.738C584.921 330.222 582.369 328.879 580.375 326.885C578.38 324.891 577.036 322.341 576.519 319.569C575.912 320.508 575.24 321.404 574.508 322.249C574.17 319.243 574.17 316.208 574.508 313.202C575.18 310.066 576.992 307.291 579.593 305.414C582.194 303.536 585.399 302.69 588.588 303.037C578.187 293.522 565.472 286.898 551.711 283.825C549.003 283.596 546.276 283.902 543.687 284.727C541.097 285.551 538.696 286.878 536.62 288.632C534.544 290.385 532.834 292.53 531.589 294.945C530.343 297.359 529.586 299.995 529.361 302.702C529.361 309.404 534.166 313.872 541.43 316.106C539.155 314.669 537.218 312.756 535.752 310.501C534.287 308.245 533.326 305.699 532.937 303.037C532.522 300.569 532.88 298.032 533.959 295.774C535.039 293.515 536.789 291.644 538.971 290.415C547.241 291.309 548.135 299.686 554.728 304.824L548.358 305.495C549.797 306.449 550.978 307.744 551.796 309.264C552.615 310.783 553.046 312.481 553.052 314.207V318.005C553.389 320.796 554.181 323.513 555.399 326.047C547.464 324.148 540.983 325.154 535.731 319.01L533.384 326.047C530.255 319.01 523.773 318.34 520.756 311.415C519.412 312.826 517.649 313.766 515.727 314.095C520.197 310.186 518.186 305.048 520.085 299.351C520.738 296.514 522.328 293.979 524.599 292.155C526.87 290.331 529.689 289.325 532.601 289.298C537.407 287.735 536.848 283.49 543.776 282.932H542.324C527.956 283.266 514.127 288.464 503.099 297.676C497.735 301.92 492.595 305.606 492.595 313.984C492.595 317.781 493.489 319.569 495.165 320.462C499.97 323.255 502.876 320.462 503.882 319.234C504.218 318.411 504.443 317.547 504.552 316.664C503.686 317.164 502.703 317.428 501.703 317.428C500.702 317.428 499.719 317.164 498.853 316.664C498.296 316.401 497.802 316.02 497.407 315.547C497.012 315.074 496.725 314.52 496.565 313.925C496.406 313.33 496.378 312.707 496.483 312.1C496.589 311.493 496.826 310.916 497.177 310.409C497.907 309.096 499.127 308.124 500.572 307.705C502.016 307.287 503.567 307.456 504.887 308.175C506.64 308.918 508.037 310.31 508.786 312.058C509.536 313.807 509.581 315.777 508.91 317.558L508.128 319.345C509.468 319.436 510.812 319.436 512.151 319.345C510.922 321.655 509.033 323.547 506.725 324.781C504.416 326.014 501.793 326.533 499.188 326.271C499.873 327.088 500.507 327.946 501.088 328.84C498.254 328.126 495.515 327.076 492.93 325.712C490.183 324.28 488.106 321.83 487.145 318.886C486.184 315.941 486.416 312.738 487.79 309.963C473.946 322.681 456.567 330.899 437.949 333.531C417.151 335.953 396.086 332.631 377.045 323.925C373.215 322.053 369.015 321.061 364.753 321.021C358.271 321.021 355.142 324.26 355.142 327.723C355.142 333.308 358.271 334.089 360.171 334.089C361.136 334.202 362.111 334.202 363.076 334.089C362.218 333.608 361.5 332.912 360.991 332.07C360.482 331.229 360.199 330.27 360.171 329.286C360.12 328.672 360.204 328.054 360.416 327.476C360.628 326.897 360.964 326.371 361.4 325.936C361.836 325.5 362.362 325.164 362.941 324.952C363.52 324.74 364.138 324.656 364.753 324.707C365.501 324.692 366.245 324.825 366.942 325.097C367.64 325.37 368.276 325.777 368.816 326.296C369.355 326.815 369.787 327.434 370.087 328.12C370.387 328.806 370.549 329.544 370.564 330.292C370.79 332.181 370.277 334.084 369.131 335.604C367.986 337.124 366.297 338.142 364.417 338.446H362.518C363.184 339.613 363.931 340.733 364.753 341.797C362.124 341.89 359.528 341.195 357.298 339.801C355.067 338.408 353.305 336.38 352.237 333.978C351.854 334.974 351.406 335.945 350.896 336.882C350.116 334.077 349.666 331.19 349.555 328.281C349.567 325.214 350.716 322.261 352.78 319.992C354.844 317.722 357.676 316.298 360.73 315.994C351.423 311.019 341.189 308.015 330.669 307.17C328.886 307.019 327.098 307.381 325.514 308.212C323.93 309.043 322.617 310.309 321.729 311.861C328.546 316.329 326.981 325.154 330.781 332.526L325.417 330.85C325.538 333.042 326.244 335.162 327.462 336.989C328.681 338.816 330.367 340.283 332.345 341.238C331.6 342.168 330.643 342.906 329.555 343.392C328.466 343.878 327.277 344.097 326.087 344.031C324.634 344.031 323.852 342.802 322.399 342.802C323.517 346.041 322.399 347.046 324.746 349.727H319.717C315.247 349.727 313.012 347.27 310.889 343.36C306.866 345.371 306.531 345.929 305.637 348.61C303.454 346.183 302.224 343.049 302.173 339.786C302.173 336.1 304.966 334.201 304.966 330.627C302.601 331.622 300.553 333.244 299.044 335.318C298.323 330.369 299.483 325.33 302.297 321.195C305.11 317.059 309.372 314.128 314.242 312.978C314.242 312.978 315.024 312.978 314.8 312.978C312.082 316.855 310.531 321.429 310.33 326.159C310.322 328.412 310.807 330.641 311.753 332.686C312.7 334.732 314.083 336.545 315.806 337.999C314.63 334.09 314.101 330.015 314.242 325.935C314.006 322.214 314.761 318.496 316.429 315.161C318.098 311.825 320.62 308.991 323.74 306.947C321.032 307.222 318.345 307.669 315.694 308.287C307.005 310.118 298.95 314.201 292.339 320.127C288.637 322.819 285.673 326.4 283.72 330.538C281.767 334.676 280.888 339.24 281.164 343.807C281.12 345.341 281.643 346.838 282.632 348.012C283.621 349.186 285.008 349.955 286.528 350.174C287.198 350.174 289.992 350.174 290.551 348.61C289.321 347.381 286.751 348.61 286.751 344.812C286.89 343.489 287.515 342.265 288.507 341.377C289.498 340.49 290.784 340.002 292.115 340.009C294.797 340.009 297.814 341.908 297.814 344.589C297.867 345.976 297.515 347.348 296.8 348.538C296.086 349.728 295.04 350.685 293.791 351.291C295.244 351.291 296.697 350.286 298.038 350.621C295.132 353.302 293.568 355.312 290.215 355.312C287.683 355.387 285.201 354.599 283.175 353.078C283.748 354.009 284.163 355.028 284.404 356.094C281.764 355.509 279.426 353.986 277.823 351.809C276.22 349.632 275.461 346.948 275.688 344.254C275.499 341.717 275.842 339.168 276.693 336.77C268.747 348.089 258.83 357.888 247.415 365.7" fill="#B59930"/>
<path d="M272.223 304.824C360.8 282.184 451.903 270.924 543.329 271.315C634.755 270.926 725.858 282.187 814.435 304.824C848.433 313.435 881.72 324.637 914.005 338.334C915.462 337.314 916.629 335.935 917.393 334.329C918.157 332.724 918.491 330.948 918.363 329.175C918.363 324.595 917.357 322.696 908.864 319.904C876.479 306.657 843.114 295.939 809.071 287.846C634.417 245.088 452.018 245.088 277.364 287.846C243.322 295.942 209.958 306.66 177.571 319.904C169.078 322.696 168.072 324.595 168.072 329.175C167.933 330.949 168.262 332.729 169.027 334.336C169.792 335.944 170.965 337.322 172.431 338.334C204.715 324.637 238.002 313.434 272 304.824" fill="#B59930"/>
<path d="M887.632 404.012C888.689 403.107 889.55 401.997 890.165 400.749C890.78 399.501 891.134 398.141 891.208 396.752C860.626 384.947 829.261 375.28 797.338 367.822C630.375 328.039 456.395 328.039 289.433 367.822C257.614 375.259 226.358 384.926 195.898 396.752C195.763 398.151 196.003 399.56 196.592 400.836C197.181 402.111 198.098 403.208 199.251 404.012H236.575C265.132 392.887 294.448 383.817 324.299 376.87C396.155 360.549 469.642 352.492 543.329 352.855C617.016 352.495 690.503 360.552 762.36 376.87C792.214 383.806 821.53 392.877 850.084 404.012H887.52" fill="#B59930"/>
<path d="M252.332 225.072L239.481 175.478C205.705 184.685 172.62 196.256 140.47 210.104L159.244 259.475C189.118 245.189 220.241 233.673 252.22 225.072" fill="#B59930"/>
<path d="M237.581 167.547L225.512 120.076C189.442 129.34 154.255 141.749 120.355 157.159L137.676 202.621C170.096 188.556 203.483 176.835 237.581 167.547Z" fill="#B59930"/>
<path d="M223.165 111.698L208.079 53.28L185.729 59.8702L200.815 106.895L176.006 115.161L159.691 68.8061L141.252 75.1729L156.897 122.086L133.765 131.58L114.879 84.7789L104.486 89.3586L95.8816 92.9329L118.232 150.457C152.107 134.732 187.199 121.77 223.165 111.698Z" fill="#B59930"/>
<path d="M266.971 282.708L254.343 233.002C222.631 241.496 191.711 252.707 161.926 266.512L178.912 311.191C207.618 299.833 237.033 290.356 266.971 282.82" fill="#B59930"/>
<path d="M498.965 70.0348L497.847 7.81885L454.041 9.49432L456.276 60.7638L422.751 63.5563L416.27 12.2868L373.581 17.4249L379.615 68.2476L344.638 73.274L334.468 23.68L293.456 31.9457L304.631 92.0393C368.673 79.435 433.62 71.9647 498.853 69.6997" fill="#B59930"/>
<path d="M306.419 100.528L315.582 148.335C376.269 135.017 438.004 127.019 500.082 124.432L499.188 78.1887C434.412 80.1331 369.921 87.6068 306.419 100.528Z" fill="#B59930"/>
<path d="M317.035 156.378L326.646 206.977C384.185 195.243 442.616 188.405 501.311 186.536L500.194 133.033C438.58 135.5 377.297 143.311 317.035 156.378Z" fill="#B59930"/>
<path d="M338.156 266.4C392.434 256.412 447.381 250.476 502.541 248.64L501.535 195.025C443.341 196.777 385.398 203.428 328.322 214.907L338.156 266.4Z" fill="#B59930"/>
<path d="M835.221 225.072L848.072 175.478C881.847 184.685 914.933 196.256 947.083 210.104L928.309 259.475C898.396 245.19 867.236 233.674 835.221 225.072Z" fill="#B59930"/>
<path d="M849.972 167.547L862.041 120.076C898.112 129.336 933.3 141.745 967.198 157.159L949.542 202.509C917.23 188.493 883.955 176.81 849.972 167.547Z" fill="#B59930"/>
<path d="M864.276 111.698L879.474 53.28L901.824 59.8702L887.185 106.895L911.993 115.161L927.862 68.8061L946.301 75.1729L930.656 122.086L954.235 131.692L972.562 84.8906L983.067 89.3586L991.671 92.9329L969.321 150.457C935.413 134.719 900.282 121.757 864.276 111.698Z" fill="#B59930"/>
<path d="M820.582 282.708L833.21 233.002C864.921 241.497 895.842 252.708 925.627 266.512L908.641 311.191C879.936 299.832 850.52 290.355 820.582 282.82" fill="#B59930"/>
<path d="M588.588 70.0347L589.706 7.81885L633.624 9.38262L631.389 60.6521L664.914 63.4446L671.284 12.2868L713.972 17.4249L708.049 68.1359L743.027 73.1623L753.196 23.5683L794.209 31.834L783.034 91.9276C718.992 79.3224 654.044 71.8521 588.812 69.588" fill="#B59930"/>
<path d="M781.134 100.528L771.97 148.335C711.287 134.98 649.553 126.944 587.471 124.32L588.477 78.1887C653.215 80.14 717.668 87.6137 781.134 100.528Z" fill="#B59930"/>
<path d="M770.741 156.378L761.131 206.977C703.591 195.243 645.16 188.405 586.465 186.536L587.471 133.033C649.122 135.495 710.443 143.306 770.741 156.378Z" fill="#B59930"/>
<path d="M749.509 266.4C695.23 256.412 640.284 250.476 585.124 248.64L586.13 195.025C644.399 196.764 702.417 203.415 759.566 214.907L749.732 266.4" fill="#B59930"/>
</g>
<defs>
<clipPath id="clip0_14_25">
<rect width="1088" height="1670" fill="white"/>
</clipPath>
</defs>
</svg>
