<svg width="1716" height="872" viewBox="0 0 1716 872" fill="none" xmlns="http://www.w3.org/2000/svg">
<path d="M283.65 187.978C192.406 187.978 134.766 210.957 134.766 210.957H432.301C432.301 210.957 374.661 187.978 283.417 187.978H283.65ZM477.806 163.948V164.298C479.53 164.622 481.076 165.567 482.151 166.953C483.226 168.34 483.756 170.072 483.64 171.822C483.785 173.248 483.554 174.687 482.971 175.997C482.387 177.307 481.472 178.441 480.315 179.288C477.689 181.446 475.998 181.504 473.489 183.837C471.605 185.378 470.099 187.331 469.087 189.546C468.076 191.76 467.586 194.177 467.655 196.61C467.655 200.751 469.522 202.967 469.522 207.166C469.566 208.455 469.105 209.711 468.238 210.666V211.016H568V588.079C568 663.38 538.079 735.596 484.818 788.842C431.558 842.087 359.321 872 284 872C208.679 872 136.442 842.087 83.1817 788.842C29.9213 735.596 0 663.38 0 588.079V210.957H99.5283V210.607C98.6615 209.652 98.2011 208.397 98.2449 207.108C98.2449 202.967 100.112 200.751 100.112 196.551C100.181 194.118 99.6906 191.702 98.6792 189.487C97.6678 187.273 96.1621 185.32 94.2777 183.778C91.8274 181.446 90.0772 181.387 87.4519 179.229C86.2949 178.383 85.3793 177.248 84.796 175.939C84.2127 174.629 83.9819 173.19 84.1265 171.764C84.0242 169.983 84.553 168.223 85.62 166.794C86.687 165.365 88.224 164.357 89.9606 163.948L44.9219 46.0758L53.1479 42.6931L62.424 39.1353L71.8168 63.573L76.7757 61.59L68.6081 36.6857L77.0674 33.7112L85.9934 30.795L94.1027 55.0577L99.3533 53.308L92.0025 28.6953L100.753 25.9541L111.43 22.8046L143.517 146.393L157.694 143.127L172.57 139.977L148.417 13.4145L162.594 10.44C168.428 9.27349 177.704 7.64043 177.704 7.64043L182.955 33.5945L193.514 31.9615L190.481 5.83239L205.299 3.73273L220.876 1.98301L224.026 28.5204L233.886 27.7622L232.777 1.04983L248.237 0.466591L263.989 0L266.323 129.771C272.157 129.771 277.991 129.771 283.825 129.771H284.233C290.067 129.771 295.901 129.771 301.735 129.771L303.777 0L319.529 0.466591L334.989 1.10815L333.823 27.8788L343.682 28.637L346.891 1.98301L362.468 3.73273L377.286 5.83239L374.252 32.1948L384.87 33.6529L390.121 7.69875C390.121 7.69875 399.339 9.39014 405.231 10.4983L419.408 13.4728L395.196 139.977L410.073 143.185L424.25 146.451L456.337 22.863L467.013 26.0124L475.764 28.7537L468.413 53.308L473.664 55.0577L481.773 30.795L490.699 33.7112L499.159 36.6857L490.991 61.59L495.95 63.573L505.343 39.1353L514.619 42.6931L522.845 46.0758L477.806 163.948Z" fill="#1A1918"/>
<path d="M562.691 216.148V587.205C562.698 623.817 555.492 660.072 541.482 693.899C527.473 727.726 506.935 758.463 481.042 784.354C455.149 810.246 424.407 830.784 390.574 844.797C356.74 858.809 320.476 866.021 283.854 866.021C247.232 866.021 210.968 858.809 177.134 844.797C143.301 830.784 112.559 810.246 86.666 784.354C60.7729 758.463 40.2351 727.726 26.2256 693.899C12.2162 660.072 5.00948 623.817 5.0171 587.205V216.148H562.691Z" fill="#005D9B"/>
<path d="M341.932 683.322H350.041C361.709 662.151 372.619 643.837 377.111 635.613C379.97 630.364 388.779 629.081 400.447 629.081C413.399 629.081 423.783 632.056 423.783 636.313C423.783 639.404 403.189 658.885 393.213 682.972C439.885 682.972 479.09 666.117 487.782 666.117C488.366 666.117 489.007 666.117 489.007 666.992C489.007 667.866 488.132 668.45 487.607 669.383C483.614 673.546 480.181 678.212 477.398 683.264C465.73 699.42 428.975 777.924 396.83 772.033C363.137 766.074 329.053 762.585 294.851 761.593C300.513 774.78 307.388 787.412 315.387 799.328C320.871 806.969 296.251 810.993 290.359 810.993C283.125 810.993 278.691 809.943 277.232 807.319C262.881 777.749 258.039 759.202 236.394 759.202C230.56 759.202 140.425 757.452 82.0263 764.392C108.513 739.78 105.362 714.759 127.123 686.88C131.314 681.329 136.567 676.666 142.576 673.161C148.585 669.657 155.231 667.381 162.127 666.467C162.127 666.467 169.828 669.266 176.304 672.299C176.304 672.299 195.031 646.403 195.031 623.54C195.031 597.295 177.938 571.399 150.284 571.399C134.416 571.399 124.148 576.881 118.139 588.896C122.835 586.4 128.109 585.193 133.424 585.397C147.717 585.397 154.076 595.428 154.076 607.735C154.218 611.411 153.319 615.053 151.482 618.242C149.645 621.43 146.945 624.035 143.692 625.757C144.413 628.532 144.085 631.476 142.772 634.026C141.459 636.576 139.253 638.553 136.574 639.579C136.826 640.925 136.808 642.306 136.521 643.644C136.233 644.983 135.683 646.25 134.901 647.374C134.119 648.497 133.122 649.454 131.967 650.188C130.812 650.923 129.522 651.421 128.173 651.652C128.484 653.201 128.461 654.799 128.103 656.338C127.746 657.877 127.064 659.321 126.103 660.575C125.142 661.829 123.923 662.863 122.53 663.607C121.136 664.352 119.599 664.79 118.022 664.892C120.297 674.34 110.788 677.607 102.97 674.982C96.3779 682.622 96.2613 689.505 94.4527 698.895C92.9986 706.178 89.0347 712.721 83.2514 717.383C82.4346 717.383 88.0936 706.652 88.0936 700.295C88.0936 693.937 88.0936 691.488 88.0936 685.889C87.9352 680.095 89.837 674.432 93.4609 669.908C92.2854 668.884 91.3431 667.62 90.6973 666.202C90.0516 664.783 89.7174 663.243 89.7174 661.684C89.7174 660.126 90.0516 658.585 90.6973 657.167C91.3431 655.748 92.2854 654.484 93.4609 653.46C92.0226 650.906 91.5438 647.922 92.1107 645.045C92.6775 642.169 94.2528 639.59 96.553 637.771C93.3442 626.107 99.82 621.732 102.037 620.566C101.052 616.884 100.908 613.027 101.615 609.282C102.321 605.537 103.861 601.998 106.121 598.928C106.121 569.124 130.215 560.726 153.96 560.726C179.221 560.726 206.466 586.155 206.466 622.491C206.466 650.661 188.205 676.323 188.205 676.323L189.781 676.673C202.557 656.377 213.117 641.329 213.117 614.034C213.117 560.434 130.332 541.07 113.938 492.253C111.138 498.552 104.837 513.25 89.0854 513.25C71 513.25 71.9917 514.591 70.2415 517.099C69.5132 516.763 68.9019 516.217 68.4861 515.531C68.0703 514.845 67.869 514.051 67.9079 513.25C67.9297 512.423 68.0472 511.601 68.258 510.8C60.0903 512.025 58.9819 507.476 53.8479 503.568C50.2859 500.883 45.9948 499.338 41.5382 499.136C40.159 499.042 38.7752 499.042 37.396 499.136C37.8938 496.937 39.0183 494.929 40.6335 493.356C42.2487 491.782 44.2854 490.711 46.4971 490.27C46.0304 488.871 44.1051 488.987 43.055 487.937C49.8808 486.713 50.3475 484.321 55.4231 482.63C58.3829 481.487 61.5265 480.894 64.6992 480.88C68.783 480.88 71.0583 481.755 75.1421 481.755C79.2259 481.755 84.1848 480.997 84.1848 477.906C84.1848 474.815 81.2678 474.581 78.8175 474.581C69.3664 474.581 72.2834 479.539 55.0148 479.539C50.4642 479.539 47.7806 478.897 44.6302 478.897C42.8606 478.667 41.0619 478.836 39.366 479.391C37.6701 479.946 36.1199 480.873 34.829 482.105C34.5212 481.881 34.2781 481.58 34.1244 481.231C33.9707 480.883 33.9119 480.5 33.9539 480.122C33.7227 478.36 33.9142 476.568 34.5128 474.895C35.1113 473.221 36.0996 471.714 37.396 470.499C34.9106 470.189 32.5418 469.264 30.5043 467.807C28.4669 466.351 26.8252 464.409 25.728 462.158C22.2859 454.518 23.161 447.636 16.3936 442.678C17.8521 440.345 24.4445 440.812 28.0616 444.136C26.3114 439.82 24.5612 438.304 24.5612 434.513C25.0743 430.388 25.0743 426.215 24.5612 422.09C23.8733 420.346 23.403 418.524 23.161 416.666C23.143 416.355 23.143 416.043 23.161 415.732C25.728 415.732 26.4864 418.065 28.995 419.407C32.1397 420.905 35.3973 422.153 38.7378 423.14C38.8487 421.302 39.3039 419.502 40.0797 417.832C40.6047 416.199 40.6047 414.683 41.9466 413.983C43.2884 413.283 43.7551 415.791 44.5135 417.074C45.2719 418.357 47.4305 419.582 49.5891 420.748C55.5595 422.679 61.4046 424.978 67.0912 427.631C70.7964 430.106 74.1519 433.068 77.0673 436.437C79.0509 438.304 80.6844 440.228 82.9014 440.403C83.1987 440.466 83.5065 440.46 83.8011 440.385C84.0956 440.31 84.369 440.169 84.6002 439.972C84.8313 439.774 85.0141 439.527 85.1342 439.248C85.2544 438.968 85.3088 438.666 85.2933 438.362C84.7514 436.455 83.6301 434.763 82.0846 433.521C78.4675 429.788 78.1758 427.106 73.1002 425.123C65.691 422.265 59.0986 422.381 52.4478 417.949C49.7527 416.41 47.3285 414.44 45.2719 412.116C42.6946 408.857 41.0963 404.933 40.6631 400.801C39.7891 397.053 38.4976 393.414 36.8126 389.953C41.3632 389.953 43.2884 393.861 47.8389 393.861C48.4693 393.826 49.0947 393.728 49.7058 393.569C47.9556 389.662 45.0969 388.029 45.0969 383.654C45.0969 373.389 50.3475 369.832 50.3475 360.616C50.5585 358.195 50.0078 355.769 48.7724 353.676C52.5635 354.125 56.0236 356.053 58.3985 359.042C58.3458 358.518 58.3458 357.99 58.3985 357.467C58.3985 345.802 67.4996 339.678 67.4996 331.571C67.1948 329.071 66.5673 326.62 65.6327 324.281C77.3007 328.422 95.5612 341.778 95.5612 356.592C95.5612 360.675 94.8611 363.124 94.8611 366.041C94.8611 368.957 95.4445 371.873 96.7863 371.873C98.1281 371.873 98.4782 370.181 98.1281 368.082C97.1003 363.982 96.5907 359.769 96.6113 355.542C96.6113 348.427 104.604 340.67 106.646 338.628C106.55 342.834 107.887 346.947 110.438 350.293C117.03 357.7 122.864 360.208 123.856 369.248C129.69 367.907 131.615 366.974 134.241 363.008C133.774 366.799 135.466 379.105 135.466 381.671C135.466 385.987 131.79 389.72 127.94 395.611C125.081 400.043 113.063 409.375 113.063 422.381C113.063 423.839 113.705 425.414 115.163 425.414C116.489 425.267 117.707 424.616 118.565 423.595C119.423 422.574 119.855 421.262 119.772 419.932C119.668 416.524 120.452 413.147 122.048 410.133C125.182 404.67 128.63 399.393 132.374 394.328C133.634 394.989 134.61 396.088 135.116 397.419C140.308 394.094 145.792 392.286 147.659 386.396C148.319 386.652 148.922 387.037 149.432 387.527C149.943 388.018 150.351 388.604 150.634 389.253C154.601 384.004 160.435 384.762 164.403 379.513C162.419 386.162 165.686 391.178 165.686 395.552C165.779 398.337 165.505 401.122 164.869 403.834C165.873 403.417 166.936 403.161 168.02 403.076C168.849 403.024 169.678 403.197 170.417 403.576C171.157 403.956 171.78 404.529 172.22 405.234C171.462 406.634 170.295 406.109 169.128 407.859C163.703 416.257 170.412 429.672 166.269 435.854C169.22 437.525 172.378 438.8 175.662 439.645C169.828 441.395 167.145 447.402 159.502 453.351C153.96 457.609 137.683 458.367 132.607 460.35C131.617 460.613 130.723 461.154 130.03 461.908C129.338 462.662 128.876 463.599 128.698 464.608C128.768 465.589 129.17 466.516 129.838 467.237C130.506 467.959 131.401 468.43 132.374 468.574C136.749 468.574 138.208 464.433 142.35 462.275C148.188 459.936 154.343 458.482 160.61 457.959C162.793 457.597 164.821 456.603 166.444 455.101C166.918 456.004 167.271 456.965 167.495 457.959C168.222 457.371 169.126 457.042 170.062 457.026H177.937C179.395 457.014 180.838 456.737 182.196 456.209C181.146 459.359 178.521 459.884 176.712 462.625C174.904 465.366 174.67 469.215 171.987 472.015C172.685 472.574 173.258 473.273 173.67 474.066C174.082 474.86 174.323 475.73 174.379 476.623H171.695C164.636 476.623 161.194 496.044 138.325 496.044C134.643 496.469 130.925 495.648 127.765 493.711C136.224 509.167 148.942 520.832 172.162 537.163C205.882 560.901 227.235 581.897 227.235 613.742C227.235 638.296 216.384 657.018 202.149 678.773H205.357C216.027 663.915 227.538 649.68 239.836 636.138C243.512 632.114 248.529 632.406 258.389 632.406C268.248 632.406 277.524 634.389 273.615 638.996C259.664 650.897 248.187 665.423 239.836 681.748C239.836 681.748 251.504 681.748 258.389 682.214C277.991 653.869 291.234 624.707 291.234 598.753C291.234 576.531 285.4 560.667 277.524 540.429C268.619 520.884 263.796 499.728 263.348 478.256C263.517 470.416 264.395 462.607 265.973 454.926C259.089 458.892 250.163 480.705 228.402 480.705C210.9 480.705 212.592 473.065 201.39 473.065C196.681 473.208 192.125 474.774 188.322 477.556C187.983 474.387 188.836 471.207 190.714 468.632C192.931 466.066 194.039 464.025 197.306 462.8C191.472 460.7 182.605 457.901 179.804 438.129C179.104 433.638 175.546 430.08 173.97 425.064C180.855 424.539 180.563 430.897 190.072 431.48C188.785 430.442 187.764 429.113 187.094 427.601C186.424 426.09 186.125 424.44 186.222 422.79C192.056 422.79 193.164 424.831 197.54 424.831C201.915 424.831 206.116 425.531 212.592 425.531C219.589 426.157 226.382 428.222 232.544 431.596C233.477 431.596 233.769 431.13 233.769 430.488C233.769 424.656 217.55 420.923 213.117 420.923C196.198 420.923 187.155 408.5 176.012 407.684C179.032 406.038 182.274 404.839 185.638 404.126C178.205 397.443 173.717 388.092 173.154 378.114C173.317 371.16 173.005 364.203 172.22 357.292C175.901 362.506 180.81 366.732 186.513 369.598C183.124 363.208 181.135 356.17 180.679 348.952C180.744 340.095 182.734 331.358 186.513 323.347C187.395 328.191 189.452 332.744 192.503 336.608C195.554 340.473 199.508 343.529 204.016 345.511C203.965 343.181 204.468 340.872 205.482 338.773C206.496 336.675 207.993 334.846 209.85 333.437C212.242 337.928 211.95 343.586 217.317 347.144C222.894 350.648 227.909 354.974 232.194 359.975C238.941 365.793 243.509 373.732 245.145 382.488C245.145 383.596 245.962 384.646 247.071 384.646C249.404 384.646 249.229 382.021 249.229 380.097C248.637 374.692 246.624 369.54 243.395 365.166C232.311 351.168 220.643 350.585 220.643 328.655C220.332 323.21 220.923 317.751 222.393 312.499C223.781 315.027 225.444 317.393 227.352 319.556C227.006 317.633 226.889 315.675 227.002 313.724C227.372 306.924 230.071 300.458 234.644 295.41C236.061 293.766 237.221 291.918 238.086 289.928C239.37 291.269 238.67 296.752 241.178 298.268C241.249 291.669 243 285.197 246.266 279.462C249.532 273.727 254.206 268.918 259.847 265.49C260.606 268.231 260.372 270.448 261.072 273.014C266.556 255.517 276.124 250.501 288.084 243.094C291.957 240.861 294.991 237.419 296.718 233.295C298.378 235.265 299.25 237.779 299.168 240.353C299.168 248.518 293.684 252.542 293.684 262.166C293.545 264.69 294.287 267.185 295.785 269.223C299.343 261.058 306.519 264.732 309.961 259.949C307.972 263.734 307.045 267.987 307.278 272.256C307.278 276.98 308.795 278.38 308.795 284.504C308.79 286.196 308.574 287.881 308.153 289.52C309.352 288.883 310.708 288.6 312.062 288.703C315.445 288.703 315.037 289.636 317.896 289.636H321.688C319.404 292.537 318.226 296.154 318.362 299.843C318.362 305.092 322.154 309.816 321.629 317.748C326.843 314.243 331.638 310.153 335.923 305.559C335.857 310.652 335.467 315.737 334.756 320.781C334.756 323.872 335.339 325.039 335.339 328.713C335.334 330.682 335.079 332.641 334.581 334.546C335.924 333.952 337.149 333.123 338.198 332.096C338.198 352.451 330.73 356.884 317.429 364.466C312.136 366.6 307.04 369.196 302.202 372.223C298.468 375.081 294.735 379.28 294.735 381.963C294.735 382.721 294.735 385.054 295.96 385.054C300.788 383.926 305.101 381.216 308.211 377.355C311.758 373.423 315.664 369.83 319.879 366.624C333.006 356.534 340.065 357.875 346.774 345.685C347.498 346.467 348.057 347.386 348.418 348.388C348.778 349.39 348.934 350.455 348.874 351.518C348.956 353.928 348.413 356.319 347.299 358.458C355.817 357.35 369.118 351.635 371.569 347.319C371.677 349.268 371.579 351.222 371.277 353.151C371.277 355.892 371.569 357.409 371.569 360.15C371.569 368.315 366.843 371.815 362.409 376.597C363.546 377.665 364.886 378.493 366.349 379.034C367.812 379.575 369.369 379.817 370.927 379.747C373.714 379.534 376.451 378.885 379.036 377.822C370.868 383.304 371.86 402.085 355.7 409.317C356.808 410.775 360.951 410.658 360.951 411.416C360.951 413.574 358.034 413.283 356.05 414.158C351.125 418.318 344.985 420.773 338.548 421.157C331.267 420.792 323.978 421.72 317.02 423.898C311.828 425.764 303.194 432.355 303.194 435.154C303.194 435.912 303.194 437.079 304.536 437.079C310.37 437.079 315.504 424.364 340.532 424.364C344.137 424.355 347.663 423.301 350.683 421.332C350.95 422.314 351.005 423.343 350.844 424.348C350.683 425.354 350.31 426.314 349.749 427.164C355.891 427.748 362.087 427.274 368.068 425.764C361.126 433.696 362.234 440.462 353.775 447.402H356.167L361.709 446.003C360.424 449.387 358.76 452.615 356.75 455.626C352.608 462.566 351.791 470.09 344.032 472.015C345.544 473.216 346.828 474.677 347.824 476.331H343.915C338.081 476.331 327.58 485.779 315.97 485.779C292.634 485.779 284.117 463.675 280.383 457.667C278.747 463.37 277.769 469.24 277.466 475.164C277.466 510.159 292.984 536.871 302.377 568.891C305.316 578.181 306.907 587.845 307.103 597.586C307.103 633.864 296.368 654.277 280.208 683.147C291.876 683.147 303.544 683.147 313.462 683.147C315.992 658.722 322.639 634.9 333.122 612.692C339.548 597.36 348.992 583.476 360.892 571.865C370.577 562.592 381.311 555.36 394.263 543.578C408.696 531.52 420.425 516.555 428.684 499.66C425.509 501.881 421.612 502.819 417.774 502.285C387.145 502.285 390.179 483.68 372.327 483.68C373.483 481.615 375.18 479.905 377.236 478.734C379.292 477.562 381.629 476.973 383.995 477.031C380.788 473.059 379.241 468.002 379.678 462.916C379.678 457.084 376.702 450.843 372.21 450.843C372.21 450.843 369.352 450.027 369.352 449.094C371.628 447.793 374.197 447.091 376.819 447.052C382.749 446.923 388.587 448.524 393.621 451.66C392.632 450.044 392.052 448.212 391.93 446.322C391.808 444.432 392.148 442.541 392.921 440.812C396.713 447.169 398.288 446.177 404.239 448.335C407.382 449.579 410.097 451.706 412.057 454.459C412.805 455.603 413.792 456.57 414.95 457.295C416.109 458.02 417.41 458.485 418.766 458.659C419.048 458.602 419.306 458.459 419.504 458.251C419.703 458.042 419.832 457.777 419.874 457.492C418.616 452.786 415.557 448.764 411.357 446.294C407.331 443.961 394.73 439.12 394.73 427.922C394.73 418.707 393.68 414.041 388.896 410.425C392.291 410.18 395.669 411.106 398.463 413.05C398.124 411.026 397.949 408.978 397.938 406.926C397.938 402.026 398.988 401.093 398.988 397.01C398.98 390.808 397.199 384.737 393.855 379.513C396.287 379.554 398.672 380.195 400.797 381.38C400.664 380.119 400.664 378.849 400.797 377.589C400.797 370.648 405.931 368.257 405.931 359.567C409.198 369.657 417.599 369.19 423.725 378.522C426.31 376.885 428.517 374.718 430.2 372.164C430.215 374.501 430.489 376.829 431.017 379.105C433.234 386.92 438.951 389.662 440.702 397.652C441.996 403.609 441.996 409.775 440.702 415.732C440.41 418.824 443.619 427.805 446.536 427.805C449.453 427.805 450.853 422.906 450.853 418.532C450.853 403.368 439.185 394.794 439.185 376.364C439.185 362.016 447.294 357.35 448.928 344.752C453.07 345.569 453.478 348.31 453.478 351.46C453.478 352.626 451.495 362.366 456.104 365.107C456.266 361.188 457.324 357.357 459.196 353.909C463.471 348.232 468.129 342.853 473.139 337.812C474.477 335.998 475.612 334.042 476.523 331.979C478.428 333.209 479.935 334.967 480.857 337.039C481.779 339.11 482.077 341.406 481.715 343.644C481.715 334.137 502.309 322.473 503.767 312.558C505.634 322.997 514.21 327.605 514.21 342.128C514.408 347.695 513.496 353.247 511.527 358.458C514.165 358.104 516.64 356.981 518.643 355.227C520.646 353.474 522.087 351.17 522.786 348.602C522.786 357.7 527.22 361.258 527.22 370.59C527.278 375.037 526.064 379.408 523.72 383.188C528.117 383.283 532.503 382.713 536.73 381.496L529.262 398.06C524.42 407.8 525.353 415.033 519.519 420.69C514.794 425.298 510.418 425.006 501.492 425.006C490.758 425.006 481.598 428.972 481.598 432.938C481.578 433.366 481.715 433.786 481.984 434.119C482.253 434.452 482.634 434.675 483.057 434.746C487.14 434.746 489.707 429.847 502.717 429.847C508.551 429.847 520.219 430.547 528.27 421.798C528.931 423.975 529.054 426.281 528.627 428.516C528.2 430.751 527.237 432.849 525.82 434.629C526.781 434.424 527.756 434.288 528.737 434.221C531.479 434.221 532.646 434.221 535.388 434.221C537.806 434.254 540.2 433.735 542.389 432.705C533.754 441.745 535.855 453.993 527.745 459.417C532.839 462.259 538.812 463.092 544.489 461.75C537.546 473.415 531.887 484.146 521.678 484.146C520.222 484.158 518.771 483.981 517.361 483.621C518.126 484.387 519.036 484.992 520.038 485.403C521.039 485.813 522.112 486.02 523.195 486.013C519.188 488.686 514.477 490.107 509.66 490.095C497.467 490.095 483.757 480.997 472.672 480.997C470.922 480.997 468.297 482.105 468.297 483.971C468.297 485.838 469.755 486.421 472.497 486.421C475.239 486.421 477.281 487.296 480.373 487.296C495.95 487.296 494.9 493.128 505.051 495.461C503.224 497.744 501.037 499.714 498.575 501.294C502.258 503.141 505.807 505.246 509.193 507.593C503.359 507.593 501.959 517.391 490.816 517.391C491.085 520.108 492.071 522.705 493.675 524.915C485.507 524.915 484.632 528.706 477.281 528.706C475.3 528.693 473.333 528.378 471.447 527.773C471.785 529.064 471.79 530.421 471.464 531.716C471.138 533.01 470.49 534.202 469.58 535.18C466.039 530.784 461.526 527.27 456.395 524.915C453.133 523.218 450.353 520.724 448.313 517.665C446.273 514.606 445.04 511.081 444.727 507.418C444.26 504.968 443.735 501.935 441.46 501.935C439.185 501.935 438.718 503.685 437.201 506.601C427.517 524.915 420.341 538.562 401.322 554.077C389.047 563.229 377.973 573.888 368.36 585.805C348.232 611.001 338.256 633.164 329.68 683.147C346.599 589.071 395.663 570.407 413.165 570.407C416.684 570.179 420.21 570.724 423.496 572.004C426.781 573.283 429.747 575.267 432.184 577.814C435.35 577.197 438.628 577.501 441.626 578.69C444.625 579.879 447.22 581.903 449.103 584.522C452.037 584.186 455.01 584.539 457.784 585.551C460.559 586.563 463.059 588.208 465.088 590.354C467.78 590.095 470.492 590.578 472.929 591.75C475.366 592.922 477.436 594.739 478.915 597.003C481.904 596.719 484.914 597.292 487.589 598.656C490.265 600.019 492.498 602.116 494.025 604.702H495.541C500.092 604.702 507.21 614.442 525.47 615.492C512.227 623.89 496.3 614.034 496.3 614.034C496.3 617.127 495.071 620.094 492.882 622.282C490.694 624.469 487.726 625.698 484.632 625.698C483.027 625.865 481.406 625.697 479.869 625.205C478.333 624.713 476.915 623.908 475.706 622.84C473.355 624.832 470.39 625.954 467.309 626.018C464.228 626.082 461.219 625.083 458.787 623.19C456.575 624.623 454.011 625.419 451.377 625.491C448.742 625.563 446.139 624.908 443.852 623.599C441.28 625.324 438.273 626.289 435.177 626.382C432.08 626.475 429.021 625.692 426.35 624.124C423.823 625.721 420.879 626.533 417.891 626.456C415.301 626.51 412.728 626.026 410.335 625.034C407.942 624.043 405.78 622.566 403.987 620.697C402.194 618.828 400.809 616.607 399.918 614.175C399.028 611.743 398.651 609.153 398.813 606.568C398.972 601.572 400.413 596.7 402.998 592.42C405.583 588.141 409.224 584.597 413.573 582.13H412.523C403.422 582.13 353.775 600.911 341.932 683.556" fill="#1A1918"/>
<path d="M339.132 686.997H337.381C349.049 600.386 400.506 578.34 412.349 578.34C428.684 578.34 433.176 587.555 433.176 599.511C433.176 608.493 427.692 618.35 418.708 618.35C416.936 618.301 415.194 617.89 413.587 617.144C411.98 616.397 410.542 615.331 409.362 614.009C408.182 612.688 407.285 611.139 406.725 609.458C406.165 607.778 405.955 606 406.106 604.235C406.106 595.078 414.565 587.555 423.608 584.872C422.614 584.16 421.536 583.572 420.4 583.122C414.566 583.122 402.314 594.495 402.314 605.927C402.228 608.05 402.564 610.17 403.302 612.164C404.04 614.157 405.166 615.985 406.614 617.541C408.062 619.097 409.804 620.351 411.74 621.231C413.675 622.11 415.766 622.598 417.891 622.666C423.136 622.021 427.933 619.385 431.289 615.303C434.645 611.221 436.302 606.005 435.918 600.736C435.918 582.597 426.759 573.79 413.165 573.79C398.114 573.79 349.575 591.812 332.306 687.055H330.614H327.464H325.772C330.089 647.687 341.874 612.109 365.735 582.072C376.819 568.133 390.821 559.559 403.189 547.486C415.93 535.128 426.414 520.641 434.168 504.676C434.925 502.864 435.884 501.142 437.026 499.544C438.46 498.777 440.068 498.395 441.694 498.436C442.405 498.364 443.124 498.436 443.807 498.649C444.489 498.861 445.122 499.209 445.667 499.672C446.212 500.135 446.657 500.704 446.977 501.343C447.297 501.982 447.484 502.68 447.528 503.393C450.503 516.808 452.72 519.491 463.571 524.74C464.995 525.39 466.345 526.192 467.597 527.131C467.409 526.226 467.273 525.311 467.188 524.39V521.474C470.032 523.511 473.384 524.722 476.873 524.973C480.624 524.685 484.277 523.633 487.607 521.882C486.441 518.907 485.215 516.05 484.165 513.075C486.385 513.723 488.68 514.076 490.991 514.125C494.898 513.054 498.406 510.865 501.084 507.826C499.922 506.576 498.511 505.583 496.942 504.91C495.194 504.218 493.546 503.296 492.041 502.169L497.875 497.094C492.741 492.919 486.219 490.836 479.615 491.262C475.939 491.262 474.481 490.27 471.506 490.27C467.363 490.27 463.746 488.404 463.746 484.438C463.746 480.472 468.764 477.848 471.914 477.848C484.982 477.848 495.25 486.713 509.193 486.713C511.06 486.713 513.51 487.471 515.027 486.713C512.978 484.826 511.502 482.401 510.768 479.714C514.288 480.364 517.867 480.638 521.445 480.53C526.695 480.53 532.354 474.698 536.73 466.533C530.826 465.256 525.089 463.299 519.636 460.7C529.262 457.492 528.912 446.178 533.521 438.071H527.687H520.045C520.045 438.071 523.312 431.655 524.303 429.03C520.202 431.072 515.745 432.3 511.177 432.646C507.501 432.646 505.343 433.346 501.667 433.346C491.225 433.346 487.957 438.129 483.115 438.129C482.456 438.177 481.794 438.093 481.167 437.884C480.54 437.675 479.96 437.345 479.462 436.911C478.963 436.478 478.555 435.95 478.261 435.358C477.967 434.766 477.792 434.122 477.748 433.463C477.748 423.723 493.558 421.215 500.209 421.215C509.952 421.215 512.46 422.148 517.011 417.424C521.561 412.7 522.845 402.201 526.462 395.203L530.721 386.279C528.796 386.629 517.244 386.921 518.236 385.521C521.14 380.679 522.878 375.228 523.312 369.598C523.197 365.771 522.387 361.996 520.92 358.459C518.411 360.5 504.934 363.941 505.868 362.366C509.619 356.017 511.31 348.661 510.71 341.311C510.71 332.213 506.685 329.18 503.651 322.006C500.894 325.914 497.616 329.426 493.908 332.446C488.763 338.056 484.795 344.64 482.24 351.81C481.019 348.473 480.006 345.065 479.206 341.603C478.938 340.197 478.507 338.827 477.923 337.52C474.843 341.807 471.429 345.844 467.713 349.593C460.596 356.767 460.771 360.908 459.312 370.24C450.795 367.44 449.57 363.299 450.211 355.309C446.431 361.634 444.044 368.693 443.211 376.014C443.211 391.587 454.47 403.31 454.47 419.407C454.47 423.431 452.428 431.597 446.711 431.597C440.994 431.597 437.377 420.748 437.377 416.024C437.377 405.001 440.294 401.618 433.934 390.77C431.412 387.67 429.33 384.235 427.75 380.563V379.98C425.902 382.116 424.53 384.621 423.725 387.329C421.387 380.485 416.525 374.79 410.132 371.406C409.021 370.654 408.002 369.773 407.098 368.782C405.307 371.501 404.243 374.633 404.006 377.88C404.079 380.543 404.695 383.162 405.814 385.579C404.181 386.086 402.431 386.086 400.797 385.579C403.084 390.585 403.618 396.214 402.314 401.56C401.26 406.916 400.984 412.397 401.497 417.832C399.824 417.343 398.187 416.739 396.597 416.024C397.755 419.804 398.345 423.735 398.347 427.689C398.347 440.987 423.375 441.278 423.375 456.851C423.375 465.308 411.707 463.441 408.79 457.434C405.873 451.427 401.206 451.368 395.955 449.094C395.934 452.603 396.818 456.058 398.522 459.126C396.075 456.597 393.148 454.583 389.912 453.201C386.676 451.819 383.197 451.097 379.678 451.077H379.036C381.457 454.483 382.743 458.564 382.712 462.742C382.655 465.969 383.347 469.165 384.734 472.079C386.121 474.994 388.164 477.547 390.704 479.539C387.207 479.804 383.747 480.429 380.378 481.405C384.826 483.504 388.858 486.389 392.28 489.921C399.35 495.924 408.453 498.992 417.716 498.494C424.658 498.494 429.384 494.761 432.476 494.761C433.818 494.761 434.401 496.161 434.109 496.569C425.689 514.934 413.506 531.327 398.347 544.687C385.337 556.351 374.661 564.108 364.918 573.849C353.415 585.167 344.134 598.54 337.556 613.276C326.758 636.6 319.992 661.586 317.546 687.172H316.787C301.152 687.172 286.8 687.172 274.549 686.88C288.784 659.06 303.194 633.805 303.194 597.645C303.194 559.384 274.024 523.573 274.024 475.165C274.355 467.662 275.73 460.242 278.108 453.118C278.178 452.907 278.291 452.714 278.441 452.55C278.591 452.386 278.774 452.256 278.978 452.168C279.182 452.08 279.402 452.036 279.624 452.039C279.846 452.042 280.065 452.092 280.266 452.185C281.889 453.544 283.202 455.234 284.117 457.143C291.759 470.09 298.469 482.105 316.321 482.105C326.822 482.105 331.256 475.748 339.657 473.415C338.764 472.134 338.001 470.766 337.381 469.332H340.182C348.991 469.332 351.85 457.667 355.292 451.135C351.063 451.548 346.795 451.091 342.749 449.794C354.708 444.37 355.117 443.203 359.959 432.297L360.543 431.072H358.501C355.525 431.072 347.533 431.072 345.257 431.072C344.441 431.947 346.132 428.097 346.424 427.514C344.292 427.988 342.128 428.3 339.948 428.447C317.896 428.447 311.478 441.162 304.536 441.162C303.877 441.177 303.221 441.063 302.607 440.825C301.992 440.587 301.43 440.231 300.954 439.776C300.477 439.321 300.094 438.776 299.828 438.173C299.562 437.571 299.417 436.921 299.402 436.263C299.402 429.905 311.07 423.081 315.796 420.982C331.839 413.808 336.74 421.857 353.367 412.525C351.791 412.525 350.158 411.942 350.158 409.959C350.197 409.297 350.443 408.665 350.862 408.152C351.281 407.639 351.851 407.271 352.492 407.101C364.801 403.076 365.268 392.753 370.927 383.421C366.493 383.421 364.743 380.505 361.826 380.505H352.958C358.442 375.781 368.068 367.674 368.068 359.742C368.068 358.459 368.068 357.409 368.068 356.417V355.192C359.309 359.636 349.957 362.798 340.298 364.583C342.368 361.089 344.031 357.371 345.257 353.501C338.962 358.91 332.073 363.586 324.722 367.44C319.353 371.217 314.457 375.623 310.137 380.563C306.558 384.854 301.539 387.694 296.018 388.554C294.734 388.436 293.543 387.833 292.687 386.869C291.831 385.905 291.374 384.651 291.409 383.363C291.409 365.282 321.863 360.442 328.864 351.985C332.112 348.133 334.143 343.403 334.698 338.395C332.932 339.427 330.908 339.933 328.864 339.853C330.68 336.226 331.676 332.244 331.781 328.188C331.781 325.272 331.314 323.639 331.314 320.723C331.194 318.469 331.194 316.211 331.314 313.957C327.23 317.165 317.371 324.222 317.371 324.222C320.113 313.433 314.862 307.95 314.862 299.202C314.769 297 315.106 294.801 315.854 292.728C314.553 292.637 313.246 292.637 311.945 292.728C309.377 292.939 306.836 293.408 304.361 294.127C305.517 291.445 306.017 288.526 305.819 285.612C305.819 279.78 304.303 278.088 304.303 273.364C304.27 271.259 304.387 269.154 304.653 267.065C299.402 268.64 299.227 272.897 298.819 277.797C294.21 272.548 291.001 269.69 291.001 261.991C291.001 254.292 295.493 248.985 296.368 241.927C291.257 246.316 285.749 250.221 279.916 253.592C270.174 260.416 266.673 269.865 263.114 281.004C260.509 278.669 258.763 275.526 258.155 272.081C253.969 275.907 250.644 280.58 248.401 285.788C246.159 290.997 245.049 296.623 245.146 302.293L244.446 305.151C240.828 303.168 239.253 302.409 237.62 298.91C233.857 303.344 231.68 308.906 231.436 314.716C231.436 318.973 231.436 323.173 231.436 327.43C229.221 326.125 227.247 324.448 225.602 322.473C225.602 325.156 225.602 327.372 225.602 330.696C225.602 354.026 253.663 353.734 253.663 380.505C253.663 384.121 253.255 388.262 248.646 388.437C247.844 388.439 247.051 388.276 246.315 387.957C245.579 387.639 244.917 387.173 244.369 386.587C243.822 386.001 243.401 385.309 243.133 384.554C242.865 383.798 242.756 382.996 242.812 382.196C240.35 375.018 236.371 368.453 231.144 362.949C222.743 353.676 212.884 352.51 209.5 341.078C208.307 344.489 207.715 348.08 207.75 351.693C198.943 348.497 191.465 342.438 186.514 334.487C185.185 339.056 184.498 343.786 184.472 348.543C184.882 354.967 186.547 361.248 189.372 367.032C189.801 369.084 189.997 371.177 189.956 373.273C187.579 373.228 185.252 372.586 183.188 371.406L180.971 370.065C179.489 369.166 178.067 368.173 176.713 367.091L176.246 366.682C176.246 370.24 176.246 373.273 176.246 377.997C176.712 383.206 178.267 388.26 180.81 392.831C183.352 397.402 186.826 401.389 191.006 404.534C189.206 405.342 187.52 406.382 185.989 407.626C194.448 412.058 202.791 417.891 213.117 417.891C219.593 417.891 237.445 421.973 237.445 431.305C237.46 432.424 237.035 433.505 236.259 434.313C235.484 435.12 234.422 435.59 233.303 435.621C226.593 435.621 223.326 429.38 212.3 429.38C206.758 429.38 203.141 428.331 197.307 428.331C194.776 428.341 192.264 427.886 189.897 426.989C191.314 429.249 193.335 431.067 195.732 432.238C194.108 433.691 192.065 434.589 189.897 434.804C186.846 434.798 183.849 433.993 181.205 432.472C181.768 433.801 182.179 435.191 182.43 436.613C185.697 454.401 190.656 457.259 206.116 462.275C205.183 462.8 203.666 463.908 202.382 464.491H201.857C198.447 465.624 195.511 467.861 193.515 470.849C195.916 469.803 198.484 469.191 201.099 469.041C211.483 469.041 214.459 477.148 228.11 477.148C249.93 477.148 254.947 452.01 268.365 450.377C269.123 450.377 269.765 450.377 269.999 450.785C270.232 451.194 269.999 451.543 269.999 452.068C268.511 460.72 267.73 469.478 267.665 478.256C267.665 530.747 295.318 550.577 295.318 599.044C295.318 628.906 277.816 659.176 261.189 686.239C252.146 685.889 243.104 685.597 234.061 685.072C242.201 669.468 252.843 655.302 265.565 643.137C257.305 643.751 249.004 642.761 241.12 640.221C228.92 653.779 217.543 668.055 207.049 682.973L197.482 681.689C209.5 658.71 223.268 639.58 223.268 614.559C223.268 584.988 204.132 565.042 170.762 541.829C147.834 525.79 129.34 506.834 121.814 491.145L120.648 488.754C120.648 488.754 120.648 487.821 121.406 487.588C122.165 487.354 122.865 487.879 122.865 487.879C127.073 491.341 132.413 493.128 137.858 492.895C149.526 492.895 154.427 488.171 161.194 480.18C163.586 477.863 166.297 475.899 169.245 474.348C168.078 473.123 167.903 471.957 164.636 471.898C172.395 469.274 168.895 467.349 173.679 460.642C172.629 460.642 171.404 460.642 170.179 460.642C169.796 460.637 169.417 460.713 169.065 460.863C168.713 461.014 168.397 461.237 168.137 461.517L167.787 461.867C166.868 462.725 165.85 463.469 164.753 464.083C164.361 462.936 164.144 461.737 164.111 460.525C162.939 461.2 161.613 461.562 160.261 461.575C153.664 460.836 147.042 462.721 141.825 466.824C140.688 468.348 139.233 469.607 137.56 470.514C135.888 471.42 134.039 471.952 132.141 472.073C131.186 472.075 130.241 471.881 129.364 471.504C128.487 471.127 127.696 470.575 127.04 469.881C126.384 469.188 125.878 468.367 125.551 467.47C125.224 466.573 125.084 465.619 125.14 464.666C125.14 453.351 150.284 455.801 156.76 451.135C160.862 448.357 164.521 444.975 167.612 441.103C164.165 439.472 160.544 438.239 156.819 437.429C163.586 434.629 164.286 434.921 163.878 427.456C163.528 421.215 161.894 413.516 164.928 407.801C163.175 409.414 160.982 410.469 158.627 410.833C160.072 406.551 161.184 402.164 161.953 397.711C161.953 393.161 160.086 390.42 160.027 387.271C155.984 388.698 152.575 391.508 150.401 395.203L149.176 392.695L148.884 392.111C145.967 396.311 139.667 397.944 136.049 401.968L134.066 404.301C133.658 402.96 133.191 401.385 132.666 399.985C127.473 406.576 123.04 411.65 123.04 420.398C123.05 422.491 122.277 424.513 120.875 426.066C119.472 427.62 117.539 428.594 115.455 428.797C114.654 428.799 113.86 428.636 113.124 428.318C112.388 427.999 111.726 427.533 111.179 426.947C110.631 426.362 110.21 425.669 109.943 424.914C109.675 424.159 109.565 423.356 109.621 422.556C109.621 411.475 115.455 405.059 121.289 397.711C124.907 393.161 130.741 388.787 131.324 383.363C131.605 379.285 131.605 375.193 131.324 371.115C127.814 372.959 124.19 374.576 120.473 375.956V373.273C120.473 356.476 107.229 358.634 104.371 346.386C101.579 349.427 100.02 353.398 99.9953 357.525C99.9953 361.55 101.57 365.282 101.57 369.19C101.57 371.756 100.287 375.023 97.1949 375.023C94.1029 375.023 91.9443 371.115 91.9443 367.382C91.9443 363.649 92.7027 362.483 92.7027 358.4C92.7027 347.144 81.6181 335.596 71.0002 330.638C71.0002 331.046 71.0002 331.571 71.0002 332.096C71.0002 341.72 62.1325 347.844 62.1325 357.234C62.2372 361.549 62.7451 365.844 63.6493 370.065C60.7002 366.227 57.4627 362.62 53.9649 359.275C53.9649 367.615 49.356 374.789 49.356 383.071C50.3659 388.295 52.764 393.15 56.2985 397.127C51.8893 398.259 47.2453 398.076 42.9386 396.602C46.964 413.283 55.4817 415.149 74.3256 421.332C78.8771 423.12 82.7117 426.359 85.2352 430.547C87.0281 432.934 88.3362 435.648 89.0856 438.537C88.9681 440.002 88.3019 441.368 87.2203 442.363C86.1387 443.358 84.7213 443.908 83.2516 443.903C77.1259 443.903 70.9419 434.338 65.7496 431.013C60.2291 428.304 54.4918 426.06 48.5976 424.306C46.5211 423.328 44.5637 422.114 42.7635 420.69C42.4941 424.109 42.85 427.548 43.8137 430.838C39.4665 427.111 34.2826 424.49 28.7036 423.198H28.2952C28.2952 426.523 28.0035 429.847 28.0035 433.171C28.0035 439.82 33.0791 445.303 36.6378 450.669H33.3708C30.4538 450.669 26.6617 447.286 23.8613 446.003C26.3116 450.727 26.8367 456.209 29.287 461.05C32.204 466.883 39.4382 467.641 45.0972 468.749C41.8538 470.429 39.2812 473.166 37.8046 476.506C39.3186 475.965 40.9243 475.727 42.5302 475.806H45.2138C48.3642 475.806 52.2147 476.506 56.8819 476.506C64.9912 476.506 71.1169 471.315 79.2262 471.315C84.6518 471.315 87.9188 474.29 87.9188 478.022C87.9188 483.855 81.5598 485.488 77.1259 485.488C72.6921 485.488 69.4834 484.321 65.4579 484.321C60.1852 484.338 55.0629 486.079 50.8728 489.279C51.446 490.284 51.8779 491.364 52.1563 492.487C49.0048 493.02 46.0139 494.256 43.4053 496.103C48.2058 496.78 52.7165 498.802 56.4152 501.935C63.2993 508.409 64.7578 509.809 73.3338 506.076C71.7728 508.184 70.7694 510.651 70.4168 513.25C69.4833 513.25 74.6173 509.809 89.494 509.809C101.162 509.809 105.188 500.244 109.446 491.554C110.321 489.804 111.838 487.063 113.18 487.063C113.647 487.063 114.755 488.521 115.105 489.687C144.275 547.661 217.201 558.509 217.201 614.092C217.201 643.254 205.533 658.885 191.589 680.581C187.155 679.706 184.764 679.123 184.764 679.123L183.48 678.715C183.48 678.715 202.849 648.095 202.849 622.607C202.849 589.129 177.471 564.633 154.252 564.633C125.548 564.633 109.738 576.298 109.738 599.103C109.533 602.383 109.988 605.671 111.075 608.773C112.162 611.875 113.859 614.728 116.067 617.163C118.275 619.598 120.948 621.567 123.929 622.953C126.91 624.339 130.139 625.114 133.424 625.232C138.015 625.072 142.375 623.178 145.623 619.93C148.871 616.683 150.767 612.324 150.926 607.735C150.926 597.12 145.092 589.013 133.833 589.013C128.044 588.949 122.385 590.726 117.672 594.087V598.17C121.883 594.578 127.313 592.74 132.841 593.037C134.766 592.938 136.691 593.253 138.484 593.961C140.278 594.669 141.898 595.753 143.236 597.141C144.575 598.528 145.6 600.187 146.242 602.005C146.884 603.822 147.129 605.756 146.959 607.676C147.04 609.363 146.772 611.048 146.17 612.626C145.569 614.204 144.647 615.641 143.464 616.846C142.281 618.051 140.861 618.998 139.294 619.628C137.727 620.258 136.046 620.558 134.358 620.508C117.906 620.508 113.939 608.843 113.939 597.586C113.939 580.906 128.057 567.55 150.926 567.55C180.68 567.55 199.115 593.329 199.115 623.482C197.728 642.949 190.625 661.574 178.696 677.023L177.879 676.615C172.045 673.641 164.111 670.783 162.419 670.083C149.643 671.191 139.492 679.998 131.732 689.68C110.613 715.925 111.138 740.013 92.1193 760.018C153.727 752.495 230.794 755.294 236.453 755.294C259.206 755.294 264.34 768.825 271.457 783.873C273.849 788.889 276.241 794.429 278.866 800.437C287.151 793.496 301.561 794.604 310.078 796.296C303.198 786.064 297.336 775.183 292.576 763.809C291.293 761.593 291.759 757.977 295.085 757.977C325.744 758.31 356.329 761.04 386.562 766.142C385.199 763.321 384.349 760.28 384.054 757.16C384.054 743.104 392.63 727.999 414.857 711.376C429.034 700.586 478.448 671.599 478.448 671.599C469.814 673.991 465.963 675.624 457.212 677.898C435.496 683.547 413.144 686.389 390.704 686.355H388.079C395.456 670.209 404.994 655.14 416.432 641.563C411.642 642.488 406.783 643.015 401.906 643.137C394.173 643.742 386.419 642.272 379.445 638.88C369.803 654.256 361.076 670.186 353.308 686.589H338.257H339.132" fill="#B59930"/>
<path d="M95.8529 661.043C95.8271 659.911 96.1311 658.796 96.728 657.835C96.3511 657.267 95.9421 656.722 95.5029 656.202C94.8928 656.804 94.4085 657.521 94.078 658.312C93.7475 659.103 93.5774 659.952 93.5776 660.809C93.5776 667.75 99.4117 672.124 109.038 672.124C113.647 672.124 114.872 670.374 115.455 667.633C115.671 666.851 115.671 666.024 115.455 665.242H112.538C112.071 668.158 110.438 669.441 106.704 669.441C101.687 669.441 95.6779 665.475 95.6779 661.217" fill="#B59930"/>
<path d="M89.6689 705.135C92.0616 700.086 93.2973 694.567 93.286 688.98C93.6066 683.282 95.64 677.814 99.1201 673.29C98.0316 672.839 96.9949 672.272 96.028 671.599C92.703 675.409 90.8964 680.308 90.9524 685.364C90.9524 688.746 90.9524 689.446 90.9524 692.829C90.7564 696.969 90.3475 701.096 89.7273 705.194" fill="#B59930"/>
<path d="M99.8785 660.868L99.0034 660.226C97.3699 665.359 108.221 670.433 108.396 665.534L107.229 665.184C104.385 664.431 101.789 662.942 99.7035 660.868" fill="#005D9B"/>
<path d="M119.131 652.761C113.115 651.992 107.456 649.477 102.854 645.529C100.229 646.753 102.854 656.143 114.172 656.143C115.124 656.119 116.059 655.881 116.908 655.447C117.756 655.013 118.496 654.394 119.072 653.636C119.072 653.227 119.072 652.936 119.072 652.761" fill="#005D9B"/>
<path d="M104.837 659.876C117.672 665.709 125.84 658.768 124.79 652.586H122.923C122.923 652.586 122.923 652.936 122.923 653.111C122.923 656.727 118.08 659.41 113.997 659.41C110.316 659.785 106.637 658.69 103.762 656.362C100.887 654.034 99.0502 650.664 98.6532 646.987C98.6628 645.64 99.1842 644.347 100.112 643.371L99.5283 642.612C99.0615 642.029 98.5365 641.271 98.0698 640.513C93.5776 643.779 94.3943 655.21 104.779 659.76" fill="#B59930"/>
<path d="M126.656 641.212C126.073 641.737 115.863 641.212 106.296 630.306C106.023 631.098 105.847 631.921 105.771 632.756C105.771 637.071 112.48 643.604 122.689 643.604C123.039 643.604 126.715 642.846 126.715 641.271" fill="#005D9B"/>
<path d="M130.157 641.562V641.971C130.157 644.537 125.84 646.17 123.098 646.17C113.238 646.17 102.679 639.696 102.679 632.522C102.77 630.615 103.488 628.79 104.721 627.331C104.721 627.331 105.071 627.915 104.721 626.865C104.15 625.836 103.663 624.763 103.262 623.657C100.987 624.707 99.7617 627.448 99.7617 631.531C99.7617 640.221 108.863 649.436 123.098 649.436C129.515 649.436 134.182 645.12 133.307 641.037L130.157 641.504" fill="#B59930"/>
<path d="M128.932 638.18C130.411 638.374 131.915 638.245 133.34 637.803C134.764 637.361 136.076 636.615 137.185 635.618C138.294 634.62 139.173 633.394 139.763 632.024C140.352 630.654 140.638 629.172 140.6 627.681C139.508 628.073 138.371 628.327 137.216 628.439C136.75 632.989 132.316 634.272 128.465 634.272C123.27 634.354 118.244 632.419 114.447 628.873C110.649 625.327 108.376 620.446 108.105 615.258C108.04 613.624 108.237 611.99 108.688 610.417C108.119 608.929 107.632 607.41 107.229 605.868C105.825 608.435 105.177 611.347 105.363 614.267C105.378 620.594 107.895 626.659 112.365 631.138C116.835 635.618 122.895 638.149 129.224 638.18" fill="#B59930"/>
<path d="M133.307 628.615C128.821 628.547 124.432 627.292 120.589 624.976C116.745 622.661 113.585 619.368 111.43 615.433V616.017C111.878 620.13 113.84 623.93 116.934 626.679C120.029 629.427 124.034 630.928 128.173 630.889C129.632 630.889 133.074 630.889 133.541 628.615" fill="#005D9B"/>
<path d="M117.847 602.252C117.63 604.302 117.879 606.374 118.574 608.314C119.269 610.255 120.393 612.013 121.862 613.459C123.331 614.905 125.107 616.002 127.058 616.667C129.01 617.332 131.086 617.548 133.132 617.3C134.403 617.397 135.679 617.229 136.881 616.805C138.082 616.381 139.182 615.712 140.11 614.839C141.038 613.966 141.773 612.909 142.27 611.736C142.766 610.563 143.012 609.3 142.992 608.026C143.184 606.509 143.039 604.967 142.566 603.513C142.093 602.058 141.304 600.726 140.256 599.611C139.208 598.497 137.927 597.627 136.504 597.066C135.081 596.504 133.551 596.263 132.024 596.361C129.389 596.321 126.773 596.818 124.336 597.821C121.899 598.823 119.691 600.311 117.847 602.194" fill="#005D9B"/>
<path d="M309.903 799.97C305.433 798.77 300.821 798.181 296.193 798.22C289.075 798.22 280.324 800.962 280.324 805.044C280.324 807.96 287.559 808.252 288.784 808.252C296.633 808.67 304.446 806.914 311.361 803.178C313.812 802.07 313.695 800.728 309.903 799.97Z" fill="#B59930"/>
<path d="M389.071 757.335C388.942 758.588 389.061 759.854 389.423 761.06C389.785 762.267 390.381 763.39 391.178 764.365C391.974 765.341 392.956 766.149 394.066 766.744C395.176 767.339 396.393 767.71 397.647 767.834C429.15 769.35 460.888 695.22 479.323 674.515C450.153 696.037 388.837 724.849 388.837 757.277" fill="#B59930"/>
<path d="M382.128 634.447C380.553 635.322 380.553 635.905 382.128 636.78C388.837 640.629 412.932 640.979 419.758 637.422C421.391 636.605 421.391 636.022 419.758 635.089C412.873 631.123 389.071 630.598 382.128 634.447Z" fill="#B59930"/>
<path d="M243.045 637.771C243.045 637.771 244.97 639.929 254.713 641.329C262.297 642.379 268.948 643.196 270.873 639.404C274.315 633.572 242.928 633.572 242.928 637.771" fill="#B59930"/>
<path d="M481.715 601.844C482.141 601.79 482.572 601.79 482.998 601.844C485.407 602.374 487.562 603.708 489.111 605.627C490.659 607.546 491.507 609.935 491.516 612.4C491.547 613.882 491.156 615.342 490.389 616.61C489.622 617.878 488.51 618.902 487.183 619.562C485.856 620.222 484.369 620.492 482.894 620.339C481.42 620.186 480.02 619.618 478.856 618.699L478.098 619.633C479.439 621.149 480.665 621.791 484.223 621.791C485.424 621.777 486.609 621.52 487.706 621.035C488.804 620.55 489.792 619.847 490.61 618.969C491.429 618.091 492.06 617.056 492.466 615.927C492.873 614.798 493.046 613.598 492.974 612.4C493.111 610.818 492.905 609.225 492.372 607.729C491.839 606.234 490.99 604.87 489.884 603.73C488.777 602.591 487.439 601.703 485.959 601.126C484.479 600.549 482.892 600.296 481.306 600.386L481.715 601.669" fill="#B59930"/>
<path d="M482.59 605.577C482.777 608.903 482.157 612.224 480.781 615.258C480.781 617.358 481.948 617.475 484.399 617.475C486.849 617.475 488.074 615.142 488.074 612.401C488.194 610.78 487.695 609.175 486.677 607.908C485.659 606.642 484.199 605.809 482.59 605.577Z" fill="#005D9B"/>
<path d="M464.971 616.25C465.158 616.443 465.386 616.592 465.639 616.683C465.892 616.774 466.163 616.805 466.43 616.775C468.383 616.486 470.156 615.475 471.399 613.941C472.641 612.407 473.262 610.463 473.139 608.493C473.358 606.811 473.07 605.102 472.311 603.585C471.552 602.067 470.357 600.811 468.88 599.978C469.362 605.681 467.992 611.388 464.971 616.25Z" fill="#005D9B"/>
<path d="M462.404 619.516C462.239 619.754 462.042 619.97 461.821 620.157C463.046 621.499 464.271 621.791 466.955 621.791C470.38 621.352 473.505 619.61 475.678 616.926C477.851 614.243 478.906 610.826 478.623 607.385C478.981 604.198 478.103 600.995 476.172 598.435C474.241 595.875 471.401 594.152 468.238 593.62H467.655C467.931 594.399 468.146 595.199 468.297 596.011C473.08 596.478 476.698 601.494 476.698 608.434C476.809 611.342 475.83 614.186 473.952 616.409C472.074 618.632 469.433 620.073 466.546 620.449C465.133 620.503 463.729 620.203 462.463 619.574" fill="#B59930"/>
<path d="M452.195 590.237C452.545 590.237 453.828 590.237 454.528 590.237C458.204 590.237 461.588 595.312 461.588 601.902C461.588 608.493 458.437 618.874 451.903 618.874C451.052 618.875 450.212 618.675 449.453 618.291C448.791 619.194 448.07 620.051 447.294 620.857C448.21 621.275 449.204 621.494 450.211 621.499C460.479 621.499 464.913 611.292 464.913 602.835C464.913 593.329 460.654 588.138 452.195 588.138H451.203C451.553 588.838 451.903 589.596 452.195 590.296" fill="#B59930"/>
<path d="M453.712 593.854C455.009 597.352 455.484 601.103 455.1 604.815C454.716 608.526 453.482 612.1 451.495 615.259H451.961C456.22 615.259 458.787 608.085 458.787 601.786C458.787 597.47 457.679 593.679 454.295 593.679H453.712" fill="#005D9B"/>
<path d="M435.685 615.55C439.535 616.25 443.385 608.434 443.385 601.785C443.688 599.541 443.407 597.256 442.569 595.151C441.731 593.047 440.364 591.194 438.602 589.771C439.422 592.991 439.814 596.305 439.768 599.627C439.896 605.209 438.483 610.718 435.685 615.55Z" fill="#005D9B"/>
<path d="M418.474 614.792C425.65 614.792 429.675 607.035 429.675 599.336C429.731 595.438 428.808 591.588 426.992 588.138C422.742 588.546 418.75 590.364 415.653 593.302C412.555 596.241 410.529 600.13 409.898 604.352C409.898 608.551 412.232 614.792 418.474 614.792Z" fill="#005D9B"/>
<path d="M434.926 581.489C435.599 582.497 436.203 583.549 436.735 584.638C444.669 587.03 446.827 594.379 446.827 601.611C446.827 611.292 440.993 619.108 436.326 619.108C435.387 619.173 434.451 618.949 433.643 618.466C432.767 619.439 431.81 620.337 430.784 621.149C432.041 621.822 433.442 622.182 434.868 622.199C444.202 622.199 451.086 612.692 451.086 602.544C451.086 592.396 446.244 581.431 435.918 581.431H435.276" fill="#B59930"/>
<path d="M495.717 608.026C495.932 608.833 496.108 609.651 496.242 610.476C500.967 612.692 510.418 617.941 517.769 615.9C510.848 615.24 504.244 612.676 498.692 608.493C498.05 608.084 496.475 607.268 495.717 608.026Z" fill="#B59930"/>
<path d="M106.063 472.715C105.363 473.24 104.838 472.423 104.838 472.423C101.512 467.057 97.545 461.4 79.5762 461.4C75.6574 461.691 71.726 461.038 68.1121 459.495C64.4981 457.953 61.3071 455.566 58.8071 452.535C58.3404 452.068 58.2237 451.543 58.8071 451.135C58.8892 451.037 58.9919 450.958 59.1078 450.904C59.2237 450.85 59.3501 450.822 59.478 450.822C59.606 450.822 59.7323 450.85 59.8482 450.904C59.9642 450.958 60.0668 451.037 60.1489 451.135C62.6065 454.091 65.7391 456.414 69.2827 457.906C72.8263 459.398 76.6769 460.016 80.5097 459.709C99.2369 459.709 102.912 465.541 106.354 471.373C106.354 471.373 106.996 472.307 106.354 472.773" fill="#1A1918"/>
<path d="M81.501 496.336C95.4443 496.336 95.386 481.114 108.163 481.114C108.979 481.114 109.563 481.114 109.679 481.813C109.796 482.513 108.921 482.747 108.104 482.747C96.4361 482.747 97.0195 497.911 81.501 497.911C80.801 497.911 80.1592 497.911 80.2176 497.153C80.2759 496.394 80.8593 496.394 81.501 496.394" fill="#1A1918"/>
<path d="M90.6021 398.119C95.7691 412.782 99.5582 427.895 101.92 443.261C103.567 457.468 108.114 471.185 115.28 483.563C115.572 484.088 116.097 484.613 116.68 484.321C117.264 484.03 116.68 483.155 116.68 482.63C102.387 462.508 106.179 431.596 91.7689 397.477C91.4189 396.602 91.3605 395.202 90.2521 395.669C89.1436 396.136 90.2521 397.36 90.6021 398.177" fill="#1A1918"/>
<path d="M114.288 470.849C114.288 447.927 127.94 441.278 136.924 430.022C138.944 427.645 140.65 425.018 142 422.207C142.467 421.273 142 419.699 143.108 419.815C144.217 419.932 143.983 421.507 143.692 422.381C142.402 425.753 140.414 428.814 137.858 431.363C128.115 443.028 115.922 450.494 115.922 470.615C115.922 471.723 115.922 472.773 115.047 472.832C114.172 472.89 113.997 471.607 113.997 470.732" fill="#1A1918"/>
<path d="M121.814 476.739C121.173 476.331 120.531 475.748 119.831 476.739C119.131 477.731 120.181 477.964 120.764 478.431C123.874 481.197 127.92 482.678 132.082 482.572C138.952 481.967 145.451 479.188 150.634 474.639C151.276 474.173 151.976 473.298 151.393 472.831C150.809 472.365 149.993 472.831 149.234 473.298C144.301 477.518 138.193 480.123 131.732 480.764C128.012 480.617 124.436 479.289 121.523 476.972" fill="#1A1918"/>
<path d="M220.818 451.718C220.001 451.31 219.067 450.843 218.542 451.718C218.017 452.593 219.067 453.351 219.943 453.701C222.817 455.035 225.934 455.769 229.102 455.859C244.154 455.859 250.513 442.911 264.514 442.911C265.273 442.911 266.323 442.911 266.323 442.153C266.323 441.395 265.215 441.22 264.339 441.22C247.712 441.22 244.387 453.876 229.335 453.876C226.466 453.955 223.627 453.27 221.109 451.893" fill="#1A1918"/>
<path d="M222.859 393.103C222.859 392.345 223.209 391.586 223.91 391.586C224.61 391.586 224.901 392.345 224.901 393.045C224.901 405.992 269.823 414.508 269.823 436.496C269.823 437.429 269.823 438.537 268.948 438.537C268.073 438.537 267.49 437.487 267.49 436.496C267.49 415.149 222.859 408.5 222.859 393.103Z" fill="#1A1918"/>
<path d="M324.371 392.053C325.071 391.411 325.655 391.12 326.18 391.645C326.705 392.17 326.18 392.87 325.771 393.453C312.237 405.118 303.427 409.259 293.276 418.474C288.308 425.062 283.824 432.002 279.858 439.237C279.391 439.879 278.983 440.578 278.283 440.287C277.582 439.995 277.757 438.829 278.283 438.187C282.071 430.618 286.668 423.48 291.992 416.899C301.735 407.159 311.828 403.426 324.255 392.053" fill="#1A1918"/>
<path d="M281.841 444.195C281.141 444.195 280.324 444.195 280.266 444.953C280.208 445.711 281.025 445.944 281.725 445.944C288.784 445.944 301.152 456.676 318.479 456.676C322.52 456.885 326.566 456.391 330.439 455.218C330.57 455.194 330.694 455.141 330.802 455.062C330.91 454.983 330.998 454.881 331.06 454.763C331.122 454.644 331.156 454.514 331.159 454.38C331.163 454.247 331.136 454.114 331.08 453.993C331.08 453.351 329.972 453.993 329.272 453.993C325.691 454.773 322.024 455.086 318.362 454.926C301.735 454.926 289.542 444.195 281.841 444.195Z" fill="#1A1918"/>
<path d="M276.999 308.592C276.999 307.717 277.408 307.134 276.532 307.134C275.657 307.134 275.482 307.658 275.249 308.475C273.155 316.402 272.347 324.613 272.857 332.796C272.857 352.335 277.408 363.066 277.408 382.488C277.408 423.956 271.924 430.663 271.924 444.778C271.924 445.478 271.924 446.411 272.74 446.411C273.557 446.411 273.849 445.594 273.849 444.836C273.849 434.863 279.216 423.665 279.216 382.255C279.216 362.891 274.782 352.16 274.782 332.796C274.503 324.689 275.228 316.579 276.941 308.65" fill="#1A1918"/>
<path d="M260.547 336.937C260.547 336.237 260.547 335.304 259.789 335.304C259.03 335.304 258.739 336.179 258.739 336.937C258.739 356.884 271.807 361.725 271.807 369.073C271.807 369.773 272.157 370.59 272.857 370.59C273.557 370.59 273.616 369.832 273.616 369.132C273.616 360.033 260.547 355.717 260.547 336.995" fill="#1A1918"/>
<path d="M301.677 331.746C300.569 331.746 300.569 332.621 300.569 333.496C300.569 346.21 280.966 366.974 280.966 371.931C280.966 372.573 280.966 373.156 281.783 373.214C282.6 373.273 282.717 372.573 282.717 371.873C282.717 369.89 302.552 345.336 302.552 333.554C302.552 332.854 302.552 331.804 301.677 331.804" fill="#1A1918"/>
<path d="M426.583 428.564C426.583 427.806 426.584 426.814 427.517 426.872C428.45 426.931 428.275 427.806 428.275 428.564C428.275 446.061 437.96 449.502 441.694 458.601C443.86 462.919 444.958 467.694 444.898 472.524C444.837 477.355 443.618 482.1 441.344 486.363C440.994 486.946 440.527 487.354 439.943 487.063C439.792 486.998 439.659 486.897 439.556 486.768C439.454 486.639 439.385 486.487 439.356 486.325C439.327 486.163 439.339 485.996 439.391 485.84C439.442 485.683 439.532 485.542 439.652 485.43C441.983 481.492 443.267 477.023 443.379 472.449C443.491 467.874 442.429 463.348 440.293 459.3C436.56 450.435 426.583 446.469 426.583 428.505" fill="#1A1918"/>
<path d="M441.402 491.087C440.993 491.553 440.527 492.545 441.402 492.953C442.277 493.361 442.627 492.545 443.035 492.078C448.265 484.743 454.445 478.134 461.413 472.423C470.455 465.949 478.915 464.899 487.432 460.758C487.576 460.714 487.707 460.636 487.814 460.53C487.921 460.424 488 460.294 488.046 460.151C488.092 460.008 488.102 459.856 488.077 459.708C488.051 459.56 487.99 459.42 487.899 459.3C487.549 458.717 486.79 458.95 486.149 459.3C483.232 461.458 469.522 464.783 460.362 470.965C453.091 476.641 446.701 483.363 441.402 490.912" fill="#1A1918"/>
<path d="M458.554 393.219C458.554 392.519 458.962 391.761 459.837 391.82C460.713 391.878 460.888 392.461 460.888 393.219C460.888 413.808 465.846 416.549 465.846 423.373C465.846 424.189 465.846 424.948 464.738 425.064C463.63 425.181 463.221 424.189 463.221 423.373C463.221 414.741 458.496 416.082 458.496 393.219" fill="#1A1918"/>
<path d="M496.3 395.436C496.3 394.386 496.3 393.861 497.292 393.861C498.283 393.861 498.108 394.561 498.108 395.319C497.424 399.236 495.353 402.776 492.274 405.293C486.44 411.475 480.023 413.283 473.781 420.165C471.577 422.111 469.722 424.419 468.297 426.989C468.297 427.572 468.297 428.447 467.188 428.447C466.08 428.447 466.546 427.514 466.721 426.814C468.168 423.838 470.145 421.15 472.555 418.882C479.031 411.942 484.515 410.658 490.699 404.534C493.425 402.171 495.292 398.972 496.008 395.436" fill="#1A1918"/>
<path d="M494.608 358.283C490.991 372.106 479.848 385.987 472.264 404.534C463.746 425.298 462.171 438.187 454.178 459.125C451.083 469.111 446.957 478.747 441.869 487.879C441.519 488.462 440.993 489.395 441.869 489.337C442.744 489.279 442.919 488.929 443.327 488.229C448.748 479.266 453.04 469.667 456.104 459.65C464.038 439.004 465.38 425.647 473.606 404.884C481.19 386.221 491.458 375.722 496.125 358.225C496.125 357.525 496.533 356.592 495.6 356.592C494.666 356.592 494.666 357.409 494.491 358.05" fill="#1A1918"/>
<path d="M128.932 191.069C126.249 192.703 123.392 194.033 120.414 195.035C114.58 197.135 104.838 196.435 103.554 190.777C103.196 189.31 103.257 187.772 103.732 186.339C104.206 184.905 105.075 183.634 106.238 182.67C108.548 180.605 111.539 179.463 114.639 179.463C116.039 179.463 116.856 179.054 118.256 179.054C117.089 178.588 116.331 177.83 115.047 177.771C112.992 177.606 110.928 177.957 109.043 178.792C107.158 179.627 105.512 180.92 104.254 182.554C104.254 181.621 103.087 181.387 103.146 180.454C103.496 176.021 108.046 174.622 113.239 172.755C112.861 173.569 112.605 174.433 112.48 175.322C114.264 174.334 116.275 173.832 118.314 173.863C119.799 173.897 121.265 174.214 122.631 174.797C123.448 174.797 125.315 175.613 124.557 176.021C123.798 176.43 122.981 177.071 121.931 177.655C123.438 177.775 124.854 178.428 125.923 179.496C126.992 180.565 127.645 181.98 127.765 183.487C127.539 183.142 127.226 182.863 126.857 182.679C126.488 182.494 126.077 182.411 125.665 182.437C122.573 182.437 121.348 185.237 118.256 185.237C117.712 185.203 117.166 185.203 116.622 185.237C117.115 185.694 117.664 186.086 118.256 186.403C117.489 187.143 116.569 187.704 115.561 188.047C114.552 188.389 113.48 188.505 112.422 188.386C109.505 188.386 107.871 188.386 105.946 186.17C105.538 186.922 105.324 187.764 105.324 188.619C105.324 189.475 105.538 190.317 105.946 191.069C106.879 193.052 111.78 194.51 115.572 193.985C119.749 193.416 123.74 191.9 127.24 189.553C131.262 186.586 134.77 182.98 137.625 178.879C136.181 179.401 134.666 179.696 133.133 179.754C131.585 179.754 130.101 179.14 129.007 178.046C127.913 176.952 127.299 175.469 127.299 173.922C127.27 172.245 127.774 170.601 128.739 169.229C129.703 167.856 131.078 166.824 132.666 166.281C132.666 166.281 132.141 167.739 132.141 167.914C132.73 167.275 133.455 166.776 134.263 166.453C135.071 166.13 135.94 165.992 136.808 166.048C137.548 166.014 138.287 166.143 138.973 166.425C139.658 166.707 140.273 167.136 140.775 167.681C140.075 168.031 139.608 167.681 138.908 167.681C140.192 167.681 141.008 169.722 141.008 171.006C140.955 171.717 140.678 172.394 140.217 172.938C139.756 173.483 139.135 173.868 138.441 174.038C135.991 174.038 135.291 173.28 135.291 172.055C135.291 170.831 135.291 170.014 135.991 169.606H136.458H135.758C132.549 169.606 130.391 170.539 130.391 173.689C130.404 174.146 130.512 174.596 130.708 175.01C130.903 175.424 131.182 175.794 131.528 176.095C131.873 176.396 132.276 176.623 132.713 176.761C133.15 176.899 133.61 176.945 134.066 176.896C135.473 177.075 136.902 176.902 138.225 176.393C139.549 175.884 140.726 175.055 141.65 173.98C146.601 166.245 154.289 160.663 163.178 158.349C177.879 155.142 187.447 160.216 198.182 165.057C196.786 163.057 196.051 160.671 196.082 158.233C196.08 157.291 196.271 156.359 196.641 155.493C197.012 154.628 197.555 153.846 198.237 153.197C198.919 152.548 199.727 152.044 200.61 151.717C201.493 151.389 202.433 151.245 203.374 151.292C203.374 151.292 202.557 152.109 202.849 152.109C208.683 152.109 209.967 154.617 209.967 156.541C209.967 157.008 209.967 157.941 209.967 158.466L208.741 157.474C208.741 158.174 208.741 158.466 208.741 159.166C208.758 159.597 208.685 160.026 208.526 160.427C208.367 160.828 208.126 161.191 207.818 161.493C207.511 161.795 207.143 162.03 206.74 162.181C206.336 162.333 205.905 162.398 205.474 162.374C203.899 162.374 202.382 161.732 202.382 159.516C202.382 158.291 203.082 157.358 204.074 157.358C205.066 157.358 205.008 157.999 205.474 158.174C205.941 158.349 205.941 158.174 205.766 157.066C205.591 155.958 204.308 155.55 203.024 155.55C202.091 155.69 201.241 156.164 200.63 156.882C200.019 157.6 199.688 158.515 199.699 159.458C199.591 161.686 200.277 163.881 201.633 165.653C202.989 167.425 204.928 168.66 207.108 169.139C212.984 171.221 219.196 172.191 225.427 171.997C223.092 171.766 220.89 170.8 219.14 169.238C217.389 167.677 216.179 165.6 215.684 163.307L218.484 164.473C215.392 161.382 217.842 158.641 217.026 154.267C217.901 155.433 218.659 155.317 219.943 155.9C219.943 152.109 223.268 152.05 224.785 148.959C227.527 151.875 229.511 153.508 229.511 157.474C229.651 158.03 229.651 158.611 229.511 159.166C230.393 158.751 231.112 158.053 231.552 157.183C231.552 158.641 231.552 159.457 231.552 160.857C231.542 163.804 230.417 166.638 228.402 168.789C226.01 168.789 224.377 166.34 223.91 163.715C223.542 161.788 223.542 159.81 223.91 157.883C222.736 159.185 221.984 160.811 221.751 162.549C221.765 163.925 222.099 165.279 222.726 166.504C223.354 167.729 224.259 168.791 225.368 169.606C226.478 170.421 227.762 170.966 229.119 171.199C230.476 171.432 231.868 171.346 233.186 170.947C239.246 169.086 244.864 166.01 249.696 161.907C247.289 162.024 244.904 161.392 242.87 160.099C242.106 159.629 241.443 159.011 240.922 158.281C240.4 157.551 240.031 156.723 239.835 155.848C239.639 154.972 239.621 154.066 239.782 153.184C239.942 152.301 240.278 151.459 240.77 150.709C240.77 150.709 240.77 151.759 241.179 151.584C243.921 146.976 247.013 146.976 248.354 147.909L249.988 148.784L248.646 149.076L250.046 149.892C250.412 150.095 250.731 150.372 250.982 150.705C251.234 151.039 251.412 151.422 251.506 151.829C251.599 152.236 251.606 152.659 251.525 153.069C251.445 153.478 251.279 153.867 251.038 154.208C250.889 154.57 250.661 154.893 250.371 155.155C250.081 155.417 249.736 155.611 249.362 155.723C248.987 155.835 248.592 155.862 248.206 155.801C247.82 155.741 247.452 155.595 247.129 155.375C246.683 155.171 246.335 154.8 246.16 154.341C245.985 153.883 245.998 153.374 246.196 152.925C246.779 151.934 247.188 152.459 247.538 152.167C247.888 151.875 247.538 151.759 246.779 151.35C246.021 150.942 244.796 151.817 244.154 152.867C243.768 153.789 243.714 154.816 244.001 155.773C244.288 156.731 244.899 157.559 245.729 158.116C250.396 160.391 253.313 159.108 257.397 155.841C264.52 149.223 273.813 145.428 283.534 145.168C297.477 144.76 306.87 153.45 316.496 161.091C315.543 158.844 315.318 156.356 315.854 153.975C316.051 153.056 316.434 152.187 316.977 151.419C317.521 150.652 318.215 150.004 319.017 149.513C319.819 149.022 320.712 148.699 321.643 148.564C322.573 148.429 323.521 148.484 324.43 148.726C324.43 148.726 323.497 149.309 323.73 149.426C329.214 150.592 330.147 153.333 329.564 155.258C329.564 155.725 329.564 156.658 329.564 157.183L328.806 156.016C328.806 156.716 328.806 156.95 328.455 157.649C328.382 158.079 328.219 158.488 327.977 158.849C327.735 159.211 327.419 159.518 327.05 159.749C326.681 159.98 326.267 160.131 325.836 160.191C325.404 160.252 324.965 160.22 324.547 160.099C324.144 160.07 323.753 159.952 323.401 159.754C323.05 159.556 322.746 159.283 322.512 158.955C322.278 158.626 322.119 158.25 322.047 157.853C321.976 157.456 321.992 157.048 322.096 156.658C322.096 155.433 323.263 154.675 324.197 154.85C325.13 155.025 324.955 155.725 325.363 155.958C325.772 156.191 325.83 155.958 325.888 154.908C325.947 153.858 324.78 153.1 323.497 152.867C322.549 152.807 321.613 153.093 320.861 153.673C320.11 154.252 319.595 155.085 319.413 156.016C318.842 158.178 319.057 160.471 320.018 162.49C320.979 164.508 322.625 166.12 324.663 167.04C329.166 169.995 334.345 171.761 339.715 172.172C343.894 172.405 348.087 172.131 352.2 171.356L342.224 170.481C337.031 169.431 331.547 166.865 331.547 162.082C331.569 161.12 331.686 160.163 331.898 159.224C332.773 160.624 333.181 160.157 334.406 161.032C333.981 159.674 333.784 158.255 333.823 156.833C333.746 155.153 334.309 153.507 335.398 152.225C335.849 152.757 336.259 153.322 336.623 153.917C337.458 152.723 338.566 151.746 339.855 151.066C341.143 150.387 342.575 150.024 344.032 150.009C343.442 151.921 342.974 153.869 342.632 155.841C344.324 155.841 345.199 154.908 346.891 154.792C346.566 155.684 346.312 156.6 346.133 157.533L346.891 163.365C346.822 164.791 346.193 166.132 345.141 167.098H344.091C343.274 166.852 342.515 166.446 341.857 165.903C341.199 165.361 340.656 164.693 340.26 163.938C339.863 163.183 339.621 162.357 339.548 161.507C339.474 160.658 339.571 159.803 339.832 158.991C339.324 159.204 338.888 159.56 338.578 160.016C338.267 160.471 338.095 161.006 338.082 161.557C338.082 167.798 345.199 169.722 356.109 169.722C358.224 169.174 360.308 168.512 362.351 167.739C359.625 168.075 356.863 167.522 354.475 166.165C353.53 165.655 352.697 164.959 352.027 164.12C351.357 163.281 350.863 162.315 350.574 161.281C350.285 160.246 350.208 159.164 350.347 158.1C350.486 157.035 350.839 156.009 351.383 155.083C351.383 155.083 351.733 156.308 351.908 156.075C354.884 150.242 357.742 150.709 360.193 151.292C360.88 151.544 361.544 151.856 362.176 152.225L360.601 152.692L362.293 153.625C363.693 154.383 364.451 155.55 364.276 158.291C364.137 158.785 363.893 159.243 363.561 159.634C363.228 160.024 362.815 160.339 362.349 160.555C361.884 160.771 361.377 160.884 360.864 160.885C360.35 160.887 359.843 160.778 359.376 160.566C358.81 160.277 358.368 159.793 358.132 159.203C357.896 158.613 357.882 157.957 358.092 157.358C358.734 156.133 359.434 156.775 359.842 156.366C360.251 155.958 359.842 155.258 358.501 155.258C357.838 155.245 357.189 155.441 356.644 155.818C356.1 156.194 355.688 156.733 355.467 157.358C355.03 158.375 354.96 159.513 355.268 160.577C355.577 161.641 356.245 162.564 357.159 163.19C362.993 165.815 367.718 164.182 381.312 158.991C388.616 156.391 396.514 155.946 404.064 157.708C413.07 160.182 420.804 165.975 425.709 173.922C425.431 172.428 425.72 170.884 426.517 169.59C427.315 168.297 428.566 167.346 430.026 166.923C431.42 166.584 432.849 166.408 434.285 166.398C433.897 166.754 433.488 167.085 433.059 167.39C434.349 167.572 435.555 168.137 436.522 169.01C437.489 169.882 438.172 171.024 438.485 172.289C437.877 172.052 437.253 171.857 436.618 171.706V172.639C436.719 173.578 436.454 174.521 435.879 175.27C435.303 176.02 434.46 176.518 433.526 176.663C432.799 176.841 432.032 176.727 431.388 176.345C430.745 175.963 430.276 175.345 430.084 174.622C429.977 174.335 429.933 174.029 429.957 173.724C429.98 173.419 430.07 173.122 430.22 172.856C430.37 172.589 430.577 172.358 430.825 172.18C431.074 172.001 431.359 171.879 431.659 171.822C432.129 171.696 432.623 171.694 433.094 171.817C433.564 171.939 433.995 172.182 434.343 172.522C434.281 172.043 434.164 171.574 433.993 171.122C433.993 170.189 432.943 168.848 430.259 169.548C429.701 169.751 429.192 170.068 428.762 170.478C428.332 170.888 427.992 171.382 427.762 171.93C427.532 172.477 427.417 173.066 427.425 173.66C427.433 174.253 427.564 174.839 427.809 175.38C428.644 177.697 429.911 179.834 431.543 181.679C433.769 184.989 436.683 187.781 440.085 189.865C443.488 191.948 447.3 193.274 451.262 193.752C454.995 194.277 460.013 192.819 460.888 190.836C461.296 190.084 461.51 189.242 461.51 188.386C461.51 187.53 461.296 186.688 460.888 185.937C458.962 188.153 457.329 188.153 454.412 188.153C453.353 188.272 452.282 188.156 451.273 187.813C450.265 187.471 449.344 186.909 448.578 186.17C449.169 185.851 449.718 185.459 450.211 185.003C449.667 184.967 449.122 184.967 448.578 185.003C445.486 185.003 444.261 182.204 441.169 182.204C440.756 182.171 440.343 182.252 439.973 182.437C439.603 182.622 439.29 182.904 439.068 183.254C439.177 181.743 439.826 180.321 440.898 179.25C441.969 178.179 443.391 177.53 444.902 177.421C443.852 176.896 443.502 176.488 442.277 175.788C441.052 175.088 443.386 174.797 444.202 174.563C445.569 173.98 447.034 173.664 448.52 173.63C450.724 173.466 452.929 173.931 454.879 174.972C454.749 174.085 454.494 173.221 454.12 172.405C459.312 174.038 463.863 175.672 464.213 180.104C464.213 181.037 463.105 181.271 463.105 182.204C461.914 180.782 460.422 179.641 458.738 178.864C457.053 178.088 455.217 177.695 453.362 177.713C451.866 177.883 450.407 178.297 449.045 178.938C450.696 178.825 452.352 178.825 454.004 178.938C456.549 179.016 458.986 179.986 460.888 181.679C462.16 182.654 463.119 183.98 463.647 185.492C464.176 187.005 464.251 188.639 463.863 190.194C462.521 196.027 453.07 196.551 446.944 194.452C439.348 192.158 432.659 187.549 427.809 181.271C426.421 179.546 424.668 178.152 422.675 177.188C419.583 175.73 417.424 176.605 416.841 178.238C415.616 180.862 416.841 181.912 417.833 182.379C418.276 182.625 418.746 182.82 419.233 182.962C418.936 182.542 418.754 182.053 418.703 181.542C418.652 181.031 418.734 180.516 418.941 180.046C419.051 179.739 419.227 179.46 419.457 179.229C419.687 178.998 419.965 178.82 420.271 178.709C420.578 178.597 420.905 178.555 421.23 178.584C421.554 178.614 421.869 178.715 422.15 178.879C422.867 179.199 423.43 179.789 423.714 180.521C423.998 181.253 423.981 182.067 423.667 182.787C423.358 183.723 422.701 184.505 421.833 184.971C420.965 185.438 419.951 185.554 418.999 185.295L418.066 184.945C418.117 185.631 418.214 186.313 418.358 186.986C417.119 186.481 416.052 185.629 415.286 184.532C414.52 183.436 414.088 182.141 414.04 180.804C413.656 181.199 413.246 181.569 412.815 181.912C413.051 180.411 413.462 178.943 414.04 177.538C414.717 176.085 415.91 174.935 417.386 174.31C418.863 173.685 420.518 173.63 422.033 174.155C417.33 167.487 410.328 162.793 402.372 160.974H402.723C403.56 161.469 404.261 162.167 404.76 163.002C405.259 163.837 405.542 164.784 405.581 165.756C405.275 168.996 405.275 172.257 405.581 175.497C404.825 175.325 404.11 175.005 403.479 174.554C402.848 174.104 402.313 173.532 401.906 172.872C402.137 173.31 402.295 173.783 402.372 174.272C402.372 177.771 400.447 179.463 399.339 182.787C396.947 179.579 394.613 180.629 391.229 176.255C390.915 176.747 390.564 177.215 390.179 177.655C389.578 176.649 389.256 175.501 389.246 174.33C389.147 171.906 389.669 169.497 390.763 167.331C390.004 167.739 389.654 168.089 388.779 168.089C389.151 165.971 390.334 164.08 392.076 162.817C393.818 161.554 395.984 161.019 398.114 161.324C396.64 163.357 395.863 165.812 395.897 168.323C395.897 169.489 395.897 170.131 395.897 171.297C395.897 172.464 396.713 172.989 397.18 173.805C397.045 172.175 397.045 170.536 397.18 168.906C397.084 165.819 398.217 162.819 400.331 160.566C397.072 159.956 393.729 159.956 390.471 160.566C386.865 161.309 383.374 162.525 380.087 164.182C377.973 165.084 376.097 166.461 374.603 168.206C373.651 168.913 372.992 169.944 372.75 171.104C372.507 172.264 372.699 173.472 373.289 174.5C373.879 175.528 374.825 176.305 375.949 176.682C377.073 177.059 378.296 177.011 379.386 176.546C380.378 176.196 380.203 175.613 380.378 175.263C379.92 175.431 379.426 175.476 378.945 175.394C378.464 175.313 378.013 175.107 377.636 174.797C376.761 174.213 376.586 172.989 377.636 171.181C378.686 169.373 381.078 169.897 382.42 171.181C382.834 171.474 383.183 171.849 383.446 172.283C383.71 172.716 383.883 173.198 383.954 173.7C384.025 174.203 383.992 174.714 383.859 175.203C383.726 175.692 383.494 176.15 383.179 176.546L382.362 177.071C382.982 177.144 383.609 177.144 384.229 177.071C383.169 178.311 381.712 179.145 380.105 179.433C378.499 179.72 376.844 179.442 375.419 178.646C375.703 179.034 375.957 179.444 376.178 179.871C374.578 179.639 373.079 178.95 371.861 177.888C370.514 176.81 369.644 175.247 369.437 173.536C369.23 171.824 369.702 170.099 370.752 168.731C360.507 173.785 349.03 175.809 337.673 174.563C333.205 174.14 328.854 172.894 324.838 170.889C321.387 169.103 318.089 167.036 314.979 164.707C313.23 163.303 311.201 162.289 309.028 161.732C305.528 160.974 303.486 162.374 303.194 164.24C302.552 167.215 304.128 167.973 305.178 168.206C305.701 168.264 306.229 168.264 306.753 168.206C306.347 167.849 306.042 167.392 305.868 166.88C305.694 166.369 305.657 165.82 305.761 165.29C305.806 164.956 305.923 164.636 306.103 164.352C306.284 164.068 306.523 163.826 306.806 163.643C307.089 163.461 307.408 163.341 307.741 163.293C308.074 163.245 308.414 163.27 308.736 163.365C309.544 163.521 310.259 163.987 310.727 164.663C311.196 165.338 311.382 166.17 311.245 166.981C310.778 169.139 309.262 170.947 307.045 170.656H305.994C306.219 171.354 306.492 172.036 306.811 172.697C305.363 172.427 304.031 171.726 302.99 170.685C301.949 169.644 301.247 168.312 300.977 166.865C300.66 167.355 300.309 167.823 299.927 168.264C299.751 166.695 299.751 165.11 299.927 163.54C300.278 161.903 301.224 160.454 302.582 159.474C303.94 158.493 305.613 158.051 307.278 158.233C301.848 153.264 295.21 149.806 288.026 148.201C286.612 148.081 285.188 148.241 283.837 148.672C282.485 149.102 281.231 149.795 280.147 150.711C279.064 151.626 278.171 152.746 277.521 154.007C276.871 155.268 276.475 156.644 276.358 158.058C276.358 161.557 278.866 163.89 282.658 165.057C281.471 164.306 280.46 163.308 279.695 162.13C278.929 160.952 278.428 159.622 278.225 158.233C278.008 156.944 278.195 155.619 278.758 154.44C279.322 153.261 280.236 152.284 281.375 151.642C285.692 152.109 286.159 156.483 289.601 159.166L286.276 159.516C287.026 160.014 287.643 160.69 288.07 161.484C288.498 162.277 288.723 163.164 288.726 164.065V166.048C288.902 167.505 289.315 168.924 289.951 170.247C285.809 169.256 282.425 169.781 279.683 166.573L278.458 170.247C276.824 166.573 273.441 166.223 271.865 162.607C271.164 163.344 270.243 163.835 269.24 164.007C271.574 161.965 270.524 159.283 271.515 156.308C271.856 154.826 272.686 153.503 273.872 152.55C275.057 151.598 276.529 151.073 278.05 151.059C280.558 150.242 280.266 148.026 283.884 147.734H283.125C275.624 147.909 268.405 150.623 262.648 155.433C259.847 157.649 257.164 159.574 257.164 163.948C257.164 165.931 257.63 166.865 258.506 167.331C261.014 168.789 262.531 167.331 263.056 166.69C263.232 166.26 263.349 165.809 263.406 165.348C262.954 165.609 262.441 165.747 261.918 165.747C261.396 165.747 260.883 165.609 260.431 165.348C260.14 165.211 259.882 165.012 259.676 164.765C259.47 164.518 259.32 164.229 259.236 163.918C259.153 163.607 259.139 163.282 259.194 162.965C259.249 162.648 259.372 162.347 259.556 162.082C259.937 161.396 260.574 160.889 261.328 160.67C262.082 160.452 262.892 160.54 263.581 160.916C264.496 161.304 265.225 162.03 265.617 162.943C266.008 163.856 266.031 164.885 265.681 165.815L265.273 166.748C265.972 166.795 266.674 166.795 267.373 166.748C266.732 167.954 265.745 168.942 264.54 169.586C263.335 170.23 261.965 170.501 260.606 170.364C260.963 170.791 261.294 171.239 261.598 171.706C260.118 171.333 258.688 170.785 257.339 170.072C255.905 169.325 254.82 168.045 254.319 166.508C253.817 164.971 253.938 163.298 254.655 161.849C247.428 168.49 238.355 172.781 228.635 174.155C217.778 175.42 206.781 173.685 196.84 169.139C194.841 168.162 192.648 167.644 190.423 167.623C187.039 167.623 185.405 169.314 185.405 171.122C185.405 174.038 187.039 174.447 188.031 174.447C188.535 174.506 189.044 174.506 189.547 174.447C189.1 174.195 188.724 173.832 188.459 173.392C188.193 172.953 188.045 172.452 188.031 171.939C188.004 171.618 188.048 171.295 188.159 170.993C188.269 170.691 188.445 170.417 188.672 170.189C188.9 169.962 189.175 169.786 189.477 169.676C189.779 169.565 190.102 169.521 190.423 169.548C190.813 169.54 191.202 169.609 191.566 169.751C191.93 169.894 192.262 170.107 192.544 170.377C192.825 170.648 193.051 170.972 193.208 171.33C193.364 171.688 193.449 172.073 193.456 172.464C193.574 173.45 193.306 174.444 192.708 175.238C192.11 176.031 191.229 176.563 190.248 176.721H189.256C189.604 177.331 189.993 177.916 190.423 178.471C189.05 178.52 187.695 178.157 186.531 177.429C185.366 176.702 184.446 175.643 183.888 174.388C183.689 174.909 183.455 175.415 183.188 175.905C182.782 174.44 182.547 172.933 182.488 171.414C182.495 169.813 183.095 168.27 184.172 167.086C185.25 165.901 186.728 165.157 188.322 164.998C183.464 162.4 178.121 160.832 172.629 160.391C171.698 160.312 170.765 160.501 169.938 160.935C169.111 161.369 168.425 162.03 167.962 162.84C171.52 165.173 170.704 169.781 172.687 173.63L169.887 172.755C169.95 173.9 170.319 175.007 170.955 175.961C171.591 176.915 172.471 177.681 173.504 178.179C173.115 178.665 172.615 179.051 172.047 179.304C171.479 179.558 170.858 179.672 170.237 179.638C169.478 179.638 169.07 178.996 168.312 178.996C168.895 180.687 168.312 181.212 169.537 182.612H166.912C164.578 182.612 163.411 181.329 162.303 179.288C160.202 180.337 160.027 180.629 159.561 182.029C158.421 180.762 157.779 179.125 157.752 177.421C157.752 175.497 159.211 174.505 159.211 172.639C157.976 173.158 156.907 174.005 156.119 175.088C155.742 172.504 156.348 169.873 157.817 167.714C159.286 165.554 161.511 164.024 164.053 163.424C164.053 163.424 164.461 163.424 164.345 163.424C162.925 165.448 162.116 167.836 162.011 170.306C162.006 171.482 162.26 172.646 162.754 173.714C163.248 174.782 163.97 175.729 164.87 176.488C164.255 174.447 163.98 172.319 164.053 170.189C163.93 168.246 164.324 166.305 165.195 164.563C166.066 162.821 167.383 161.342 169.012 160.274C167.598 160.418 166.195 160.651 164.811 160.974C160.275 161.93 156.07 164.062 152.618 167.156C150.686 168.562 149.138 170.431 148.119 172.592C147.099 174.753 146.64 177.136 146.784 179.521C146.762 180.322 147.035 181.103 147.551 181.716C148.067 182.329 148.791 182.731 149.584 182.845C149.935 182.845 151.393 182.845 151.685 182.029C151.043 181.387 149.701 182.029 149.701 180.046C149.774 179.355 150.1 178.716 150.618 178.252C151.135 177.789 151.807 177.534 152.501 177.538C153.902 177.538 155.477 178.529 155.477 179.929C155.504 180.653 155.32 181.37 154.947 181.991C154.574 182.613 154.029 183.112 153.377 183.429C154.135 183.429 154.893 182.904 155.594 183.079C154.077 184.478 153.26 185.528 151.51 185.528C150.188 185.567 148.892 185.156 147.834 184.362C148.133 184.848 148.35 185.38 148.476 185.937C147.098 185.631 145.877 184.836 145.04 183.699C144.203 182.562 143.807 181.161 143.925 179.754C143.827 178.429 144.006 177.098 144.451 175.847C140.302 181.757 135.125 186.873 129.165 190.952" fill="#B59930"/>
<path d="M142.117 159.166C188.359 147.344 235.92 141.464 283.65 141.669C331.38 141.466 378.941 147.346 425.183 159.166C442.932 163.662 460.31 169.511 477.165 176.663C477.925 176.131 478.535 175.41 478.933 174.572C479.332 173.734 479.507 172.806 479.44 171.88C479.44 169.489 478.915 168.498 474.481 167.04C457.574 160.123 440.156 154.526 422.383 150.301C331.203 127.974 235.98 127.974 144.801 150.301C127.029 154.528 109.611 160.124 92.7028 167.04C88.2689 168.498 87.7438 169.489 87.7438 171.88C87.671 172.807 87.8429 173.736 88.2422 174.576C88.6415 175.415 89.2542 176.135 90.0191 176.663C106.873 169.511 124.251 163.661 142 159.166" fill="#B59930"/>
<path d="M463.396 210.958C463.948 210.485 464.398 209.905 464.719 209.253C465.04 208.602 465.225 207.892 465.263 207.166C449.298 201.002 432.923 195.955 416.257 192.061C329.093 171.288 238.265 171.288 151.101 192.061C134.49 195.944 118.173 200.992 102.271 207.166C102.2 207.897 102.325 208.633 102.633 209.299C102.94 209.965 103.419 210.537 104.021 210.958H123.506C138.415 205.149 153.719 200.412 169.303 196.785C206.817 188.263 245.181 184.056 283.65 184.245C322.119 184.057 360.483 188.264 397.997 196.785C413.582 200.407 428.887 205.143 443.794 210.958H463.338" fill="#B59930"/>
<path d="M131.732 117.523L125.023 91.6267C107.39 96.4342 90.1178 102.476 73.3335 109.707L83.1346 135.486C98.7307 128.027 114.979 122.014 131.674 117.523" fill="#B59930"/>
<path d="M124.031 87.4859L117.731 62.6982C98.9002 67.536 80.5305 74.0153 62.8325 82.0618L71.8752 105.8C88.8002 98.4559 106.23 92.3356 124.031 87.4859Z" fill="#B59930"/>
<path d="M116.505 58.3239L108.629 27.8206L96.9612 31.2617L104.837 55.816L91.8856 60.132L83.3679 35.9276L73.7418 39.252L81.9094 63.7481L69.833 68.7056L59.9735 44.2679L54.5479 46.6592L50.0557 48.5255L61.7237 78.5623C79.4087 70.351 97.7288 63.5828 116.505 58.3239Z" fill="#B59930"/>
<path d="M139.375 147.618L132.782 121.664C116.227 126.099 100.085 131.953 84.5352 139.161L93.4029 162.49C108.389 156.559 123.745 151.611 139.375 147.676" fill="#B59930"/>
<path d="M260.489 36.5692L259.906 4.08276L237.036 4.95762L238.203 31.7283L220.701 33.1864L217.317 6.41572L195.031 9.09862L198.182 35.636L179.921 38.2605L174.612 12.3648L153.201 16.6807L159.035 48.059C192.469 41.4776 226.375 37.5769 260.431 36.3942" fill="#B59930"/>
<path d="M159.969 52.4914L164.753 77.454C196.435 70.5 228.664 66.3237 261.072 64.9727L260.606 40.8267C226.789 41.8419 193.121 45.7444 159.969 52.4914Z" fill="#B59930"/>
<path d="M165.511 81.6533L170.528 108.074C200.567 101.947 231.072 98.3766 261.714 97.4007L261.131 69.4636C228.964 70.752 196.971 74.8306 165.511 81.6533Z" fill="#B59930"/>
<path d="M176.537 139.102C204.874 133.887 233.559 130.787 262.356 129.829L261.831 101.833C231.45 102.748 201.2 106.221 171.403 112.215L176.537 139.102Z" fill="#B59930"/>
<path d="M436.034 117.523L442.744 91.6267C460.376 96.4342 477.649 102.476 494.433 109.707L484.632 135.486C469.015 128.027 452.748 122.014 436.034 117.523Z" fill="#B59930"/>
<path d="M443.735 87.4859L450.036 62.6982C468.867 67.5337 487.237 74.0131 504.934 82.0618L495.716 105.741C478.848 98.4231 461.476 92.3223 443.735 87.4859Z" fill="#B59930"/>
<path d="M451.203 58.3239L459.137 27.8206L470.805 31.2617L463.163 55.816L476.114 60.132L484.398 35.9276L494.025 39.252L485.857 63.7481L498.167 68.7639L507.735 44.3262L513.219 46.6592L517.711 48.5255L506.043 78.5623C488.34 70.3445 470 63.5762 451.203 58.3239Z" fill="#B59930"/>
<path d="M428.392 147.618L434.985 121.664C451.54 126.099 467.682 131.953 483.232 139.161L474.364 162.49C459.378 156.559 444.022 151.611 428.392 147.676" fill="#B59930"/>
<path d="M307.278 36.5692L307.861 4.08276L330.789 4.8993L329.622 31.6699L347.124 33.128L350.45 6.41572L372.736 9.09862L369.643 35.5776L387.904 38.2022L393.213 12.3064L414.624 16.6224L408.79 48.0006C375.356 41.4188 341.45 37.5181 307.395 36.3359" fill="#B59930"/>
<path d="M407.798 52.4914L403.014 77.454C371.334 70.4803 339.105 66.2845 306.694 64.9144L307.219 40.8267C341.017 41.8455 374.665 45.748 407.798 52.4914Z" fill="#B59930"/>
<path d="M402.372 81.6533L397.355 108.074C367.316 101.947 336.811 98.3766 306.169 97.4007L306.694 69.4636C338.88 70.7492 370.893 74.8278 402.372 81.6533Z" fill="#B59930"/>
<path d="M391.288 139.102C362.951 133.887 334.266 130.787 305.469 129.829L305.994 101.833C336.414 102.741 366.703 106.214 396.538 112.215L391.404 139.102" fill="#B59930"/>
<path d="M780.893 326.79C780.893 305.327 798.294 287.951 827.977 287.951C856.636 287.951 870.966 306.349 870.966 306.349L856.636 320.658C856.636 320.658 847.424 308.393 827.977 308.393C812.624 308.393 803.412 317.592 803.412 326.79C803.412 359.497 879.154 339.055 879.154 392.204C879.154 416.734 860.73 435.131 827.977 435.131C793.176 435.131 776.799 412.645 776.799 412.645L791.129 398.336C791.129 398.336 802.388 414.69 827.977 414.69C846.401 414.69 856.636 404.469 856.636 392.204C856.585 359.497 780.893 379.939 780.893 326.79Z" fill="black"/>
<path d="M916.002 302.26H934.426V334.967H954.897V353.364H934.426V404.264C934.426 411.623 939.544 416.734 946.709 416.734C951.827 416.734 956.944 414.689 956.944 414.689V433.087C956.944 433.087 950.803 435.131 942.615 435.131C924.191 435.131 913.955 424.91 913.955 404.469V353.364H895.531V334.967H905.767C911.908 334.967 916.002 330.879 916.002 322.702V302.26Z" fill="black"/>
<path d="M1040.82 433.087V422.866C1040.82 422.866 1029.56 435.131 1011.14 435.131C990.67 435.131 976.34 420.822 976.34 406.513C976.34 390.16 987.599 378.917 1005 375.85L1040.82 369.718C1040.82 359.497 1032.64 351.32 1020.35 351.32C1002.95 351.32 994.764 364.607 994.764 364.607L981.458 351.32C981.458 351.32 994.764 332.923 1020.35 332.923C1044.92 332.923 1061.3 349.276 1061.3 369.718V433.087H1040.82ZM1040.82 388.115V386.071L1009.09 391.182C1001.93 392.408 996.811 397.314 996.811 404.469C996.811 410.601 1002.95 416.734 1014.21 416.734C1030.59 416.734 1040.82 406.513 1040.82 388.115Z" fill="black"/>
<path d="M1118.61 433.087L1078.7 334.967H1100.19L1128.85 406.513L1157.51 334.967H1179L1139.09 433.087H1118.61Z" fill="black"/>
<path d="M1254.75 433.087V422.866C1254.75 422.866 1243.49 435.131 1225.06 435.131C1204.59 435.131 1190.26 420.822 1190.26 406.513C1190.26 390.16 1201.52 378.917 1218.92 375.85L1254.75 369.718C1254.75 359.497 1246.56 351.32 1234.28 351.32C1216.87 351.32 1208.69 364.607 1208.69 364.607L1195.38 351.32C1195.38 351.32 1208.69 332.923 1234.28 332.923C1258.84 332.923 1275.22 349.276 1275.22 369.718V433.087H1254.75ZM1254.75 388.115V386.071L1223.02 391.182C1215.85 392.408 1210.73 397.314 1210.73 404.469C1210.73 410.601 1216.87 416.734 1228.13 416.734C1244.51 416.734 1254.75 406.513 1254.75 388.115Z" fill="black"/>
<path d="M1325.37 345.188C1325.37 345.188 1336.63 332.923 1355.05 332.923C1378.6 332.923 1394.97 349.276 1394.97 375.85V433.087H1374.5V375.85C1374.5 361.541 1364.27 351.32 1350.96 351.32C1335.61 351.32 1325.37 361.541 1325.37 379.939V433.087H1304.9V334.967H1325.37V345.188Z" fill="black"/>
<path d="M1494.26 418.778C1494.26 418.778 1483 431.043 1464.57 431.043C1440.01 431.043 1418.51 409.579 1418.51 381.983C1418.51 354.387 1440.01 332.923 1464.57 332.923C1483 332.923 1494.26 345.188 1494.26 345.188V334.967H1514.73V426.955C1514.73 454.551 1493.23 476.015 1465.6 476.015C1435.91 476.015 1421.58 455.573 1421.58 455.573L1434.89 442.286C1434.89 442.286 1446.15 457.617 1465.6 457.617C1481.97 457.617 1494.26 445.352 1494.26 427.159V418.778ZM1466.62 412.645C1480.95 412.645 1494.26 399.358 1494.26 381.983C1494.26 364.607 1480.95 351.32 1466.62 351.32C1452.29 351.32 1438.99 364.607 1438.99 381.983C1438.99 399.358 1452.29 412.645 1466.62 412.645Z" fill="black"/>
<path d="M1558.74 391.182C1560.79 404.469 1573.07 416.734 1589.45 416.734C1608.89 416.734 1619.13 401.402 1619.13 401.402L1632.44 414.69C1632.44 414.69 1617.08 435.131 1589.45 435.131C1561.81 435.131 1538.27 411.623 1538.27 383.005C1538.27 355.409 1560.79 332.923 1588.42 332.923C1616.06 332.923 1636.53 353.365 1636.53 380.961C1636.53 387.093 1635.51 391.182 1635.51 391.182H1558.74ZM1559.56 373.806H1616.47C1614.01 360.519 1603.78 350.298 1588.42 350.298C1573.07 350.298 1562.83 360.519 1559.56 373.806Z" fill="black"/>
<path d="M1706.13 351.32C1690.78 351.32 1680.54 361.541 1680.54 379.939V433.087H1660.07V334.967H1680.54V345.188C1680.54 345.188 1691.8 332.923 1710.23 332.923H1715.34V352.342C1715.34 352.342 1711.25 351.32 1706.13 351.32Z" fill="black"/>
<path d="M833.043 631.371L873.985 688.608H851.467L819.737 644.658L804.384 661.012V688.608H783.913V545.567H804.384V634.489L846.35 590.539H870.915L833.043 631.371Z" fill="black"/>
<path d="M936.422 588.444C964.058 588.444 987.599 611.952 987.599 639.548C987.599 667.144 964.058 690.652 936.422 690.652C908.786 690.652 885.244 667.144 885.244 639.548C885.244 611.952 908.837 588.444 936.422 588.444ZM936.422 606.841C920.045 606.841 905.715 621.15 905.715 639.548C905.715 657.945 920.045 672.254 936.422 672.254C952.799 672.254 967.128 657.945 967.128 639.548C967.128 621.15 952.799 606.841 936.422 606.841Z" fill="black"/>
<path d="M1138.06 631.371C1138.06 615.018 1129.87 606.841 1117.59 606.841C1105.31 606.841 1095.07 617.062 1095.07 635.459V688.608H1074.6V631.371C1074.6 615.018 1066.41 606.841 1054.13 606.841C1041.85 606.841 1031.61 617.062 1031.61 635.459V688.608H1011.14V590.488H1031.61V600.709C1031.61 600.709 1041.85 588.444 1058.22 588.444C1079.72 588.444 1087.91 604.797 1087.91 604.797C1087.91 604.797 1099.17 588.444 1121.68 588.444C1144.2 588.444 1158.53 602.753 1158.53 631.371V688.608H1138.06V631.371Z" fill="black"/>
<path d="M1315.14 631.371C1315.14 615.018 1306.95 606.841 1294.66 606.841C1282.38 606.841 1272.15 617.062 1272.15 635.459V688.608H1251.68V631.371C1251.68 615.018 1243.49 606.841 1231.2 606.841C1218.92 606.841 1208.69 617.062 1208.69 635.459V688.608H1188.22V590.488H1208.69V600.709C1208.69 600.709 1218.92 588.444 1235.3 588.444C1256.79 588.444 1264.98 604.797 1264.98 604.797C1264.98 604.797 1276.24 588.444 1298.76 588.444C1321.28 588.444 1335.61 602.753 1335.61 631.371V688.608H1315.14V631.371Z" fill="black"/>
<path d="M1434.89 678.387C1434.89 678.387 1423.63 690.652 1405.21 690.652C1381.67 690.652 1365.29 674.299 1365.29 647.724V590.488H1385.76V647.724C1385.76 662.034 1396 672.254 1409.3 672.254C1424.66 672.254 1434.89 662.034 1434.89 643.636V590.488H1455.36V688.608H1434.89V678.387Z" fill="black"/>
<path d="M1506.54 600.709C1506.54 600.709 1517.8 588.444 1536.22 588.444C1559.76 588.444 1576.14 604.797 1576.14 631.371V688.608H1555.67V631.371C1555.67 617.062 1545.43 606.841 1532.13 606.841C1516.78 606.841 1506.54 617.062 1506.54 635.459V688.608H1486.07V590.488H1506.54V600.709Z" fill="black"/>
<path d="M1620.15 646.702C1622.2 659.989 1634.48 672.254 1650.86 672.254C1670.31 672.254 1680.54 656.923 1680.54 656.923L1693.85 670.21C1693.85 670.21 1678.5 690.652 1650.86 690.652C1623.22 690.652 1599.68 667.144 1599.68 638.526C1599.68 610.929 1622.2 588.444 1649.84 588.444C1677.47 588.444 1697.94 608.885 1697.94 636.482C1697.94 642.614 1696.92 646.702 1696.92 646.702H1620.15ZM1620.97 629.327H1677.88C1675.43 616.04 1665.19 605.819 1649.84 605.819C1634.48 605.819 1624.25 616.04 1620.97 629.327Z" fill="black"/>
</svg>
