<svg xmlns="http://www.w3.org/2000/svg" width="337" height="44" viewBox="0 0 337 44">
    <g fill="none" fill-rule="evenodd">
        <g>
            <g>
                <path fill="#231F20" fill-rule="nonzero" d="M336.072 4.438L336.072 7 328.566 7 328.566 11.122 335.617 11.122 335.617 13.684 328.566 13.684 328.566 18.361 336.307 18.361 336.307 20.922 325.184 20.922 325.184 4.438zM313.721 4.438L319.662 16.972 319.662 4.438 322.772 4.438 322.772 20.922 317.953 20.922 312.012 8.158 312.012 20.922 308.902 20.922 308.902 4.438zM295.973 4.438v9.222l.024.902c.06 2.75 1.21 4.126 3.45 4.126 2.3-.016 3.473-1.269 3.528-3.763L303 13.66V4.438h3.382v9.19c0 .678-.016 1.27-.048 1.776-.044.81-.207 1.548-.492 2.21-.499 1.194-1.37 2.116-2.619 2.77-1.106.578-2.355.867-3.74.867-1.462-.01-2.772-.32-3.933-.935-1.31-.686-2.156-1.7-2.54-3.04-.247-.819-.383-1.716-.407-2.69l-.012-.958v-9.19h3.382zM284.653 4.438L290.29 4.438 290.29 20.922 287.18 20.922 287.18 5.887 282.956 20.922 279.424 20.922 275.2 5.851 275.2 20.922 272.088 20.922 272.088 4.438 277.726 4.438 281.199 17.343 281.203 17.343zM263.875 4.438L269.512 4.438 269.512 20.922 266.402 20.922 266.402 5.887 262.178 20.922 258.645 20.922 254.421 5.851 254.421 20.922 251.31 20.922 251.31 4.438 256.948 4.438 260.421 17.343 260.425 17.343zM229.537 4.438L233.198 4.438 227.98 11.932 234.005 20.922 229.912 20.922 224.495 12.515 224.495 20.922 221.113 20.922 221.113 4.438 224.495 4.438 224.495 11.696zM175.907 4.438L175.907 7 170.841 7 170.841 20.922 167.459 20.922 167.459 7 162.393 7 162.393 4.438zM151.604 15.695l.06.738c.188 1.48 1.23 2.23 3.134 2.255.82.008 1.517-.156 2.104-.49.74-.412 1.107-1.006 1.098-1.777 0-.562-.315-.993-.946-1.296-.547-.26-1.09-.47-1.637-.643l-2.563-.806c-.655-.196-1.226-.415-1.721-.658-1.605-.723-2.411-1.964-2.42-3.716.017-1.676.68-2.984 1.99-3.93 1.144-.834 2.594-1.253 4.34-1.26 1.085.007 2.107.199 3.077.573.583.232 1.086.555 1.51.97.802.794 1.221 1.795 1.26 3.005v.443h-3.38c-.148-1.613-.999-2.422-2.548-2.43-.718.008-1.346.176-1.884.503-.664.402-.99.93-.983 1.576 0 .702.411 1.237 1.238 1.6.431.204.839.363 1.23.483l3.238.97c.83.255 1.525.59 2.096 1.005 1.006.77 1.5 1.856 1.485 3.248 0 .647-.112 1.246-.331 1.796-.224.55-.567 1.057-1.026 1.524-.583.603-1.214 1.026-1.885 1.277-1.042.404-2.156.603-3.334.595-4.256.024-6.448-1.68-6.572-5.112l-.011-.443h3.381zM143.254 4.438L146.915 4.438 141.697 11.932 147.721 20.922 143.629 20.922 138.212 12.515 138.212 20.922 134.829 20.922 134.829 4.438 138.212 4.438 138.212 11.696zM128.063 20.922L131.445 20.922 131.445 4.438 128.063 4.438zM94.114 4.438L94.114 7 86.608 7 86.608 11.122 93.659 11.122 93.659 13.684 86.608 13.684 86.608 18.361 94.35 18.361 94.35 20.922 83.226 20.922 83.226 4.438zM55.579 4.438L66.235 4.438 66.235 7 58.96 7 58.96 11.242 65.792 11.242 65.792 13.804 58.96 13.804 58.96 20.922 55.579 20.922zM71.66 11.649h2.048l.77-.048c1.98-.148 2.975-.945 2.983-2.394 0-.24-.036-.471-.103-.686C77.038 7.507 76.059 7 74.43 7H71.66v4.649zm1.121-7.21h1.406c1.685.007 2.89.115 3.626.326 1.34.4 2.243 1.154 2.702 2.267.22.53.327 1.09.327 1.672-.007 1.097-.335 1.996-.981 2.69-.5.534-1.358.965-2.576 1.284 1.545.212 2.46.882 2.751 2.011.148.572.276 1.23.383 1.976.128 1.014.256 1.883.388 2.61.08.474.183.87.315 1.18l.223.468h-3.637l-.14-.468c-.135-.562-.263-1.408-.387-2.537-.195-1.871-.507-2.97-.938-3.296-.311-.236-.858-.367-1.637-.4l-1.213-.011H71.66v6.712h-3.382V4.438h4.503zM99.822 18.36h2.188c.67.009 1.302-.055 1.893-.187 2.355-.482 3.54-2.302 3.557-5.46 0-.713-.08-1.411-.236-2.09-.2-.866-.534-1.564-1.006-2.09-.786-.882-1.912-1.377-3.377-1.485-.416-.032-.894-.048-1.442-.048h-1.577v11.36zm.092-13.922h2.176c1.194.016 2.276.104 3.242.267 1.84.316 3.25 1.273 4.235 2.877.852 1.397 1.275 3.086 1.275 5.064 0 5.3-2.839 8.045-8.517 8.24l-2.563.036H96.44V4.438h3.473zM115.661 11.649h2.048l.771-.048c1.98-.148 2.975-.945 2.983-2.394 0-.24-.036-.471-.105-.686-.32-1.014-1.297-1.521-2.926-1.521h-2.771v4.649zm1.122-7.21h1.406c1.684.007 2.89.115 3.625.326 1.341.4 2.244 1.154 2.703 2.267.22.53.327 1.09.327 1.672-.008 1.097-.335 1.996-.982 2.69-.5.534-1.358.965-2.575 1.284 1.545.212 2.46.882 2.75 2.011.148.572.276 1.23.384 1.976.128 1.014.255 1.883.387 2.61.08.474.184.87.315 1.18l.224.468h-3.637l-.14-.468c-.135-.562-.263-1.408-.387-2.537-.196-1.871-.507-2.97-.939-3.296-.31-.236-.857-.367-1.637-.4l-1.213-.011h-1.733v6.712h-3.382V4.438h4.504zM180.231 14.833v-.004h5.322v.004l-2.68-7.893-2.642 7.893zm.571-10.395h4.352l6.153 16.485h-3.698l-1.285-3.532H179.4l-1.162 3.532h-3.59l6.153-16.485zM197 18.36h2.188c.67.009 1.301-.055 1.892-.187 2.356-.482 3.541-2.302 3.557-5.46 0-.713-.08-1.411-.235-2.09-.2-.866-.535-1.564-1.006-2.09-.787-.882-1.913-1.377-3.378-1.485-.415-.032-.893-.048-1.44-.048H197v11.36zm.091-13.922h2.177c1.193.016 2.276.104 3.241.267 1.841.316 3.25 1.273 4.236 2.877.851 1.397 1.275 3.086 1.275 5.064 0 5.3-2.839 8.045-8.517 8.24l-2.563.036h-3.322V4.438h3.473zM237.388 12.587c-.024 4.082 1.41 6.117 4.304 6.101 2.815.032 4.232-1.979 4.257-6.03 0-1.444-.232-2.72-.691-3.834-.568-1.425-1.753-2.144-3.554-2.152-.63 0-1.23.108-1.788.328-1.71.646-2.552 2.51-2.528 5.587m-3.381.187c0-1.644.256-3.144.77-4.5.3-.82.787-1.55 1.465-2.188.623-.606 1.314-1.061 2.068-1.357 1.039-.403 2.168-.61 3.394-.618 2.276.015 4.073.67 5.39 1.963.695.686 1.202 1.445 1.521 2.271.475 1.253.715 2.657.715 4.206-.024 5.778-2.56 8.675-7.602 8.699-5.146-.024-7.721-2.85-7.721-8.476" transform="translate(-30 -36) translate(30 36)"/>
                <path fill="#EC1C24" fill-rule="nonzero" d="M39.027.262c.664 34.758-19.418 43.29-19.418 43.29C4.382 34.43-.08 17.502.21.262h38.816z" transform="translate(-30 -36) translate(30 36)"/>
                <path stroke="#EC1C24" stroke-width=".262" d="M39.027.262c.664 34.758-19.418 43.29-19.418 43.29C4.382 34.43-.08 17.502.21.262h38.816z" transform="translate(-30 -36) translate(30 36)"/>
                <path fill="#FFD420" fill-rule="nonzero" d="M10.913 19.911c-1.389.111-3-.083-4.056 1.917l-1.139.222c.056-.445-.194-.972-.194-.972s.11-.722.11-.945c0-.721-.61-.721-.61-.721s-.361-.267-.445-.278c-.156-.02-.408.044-.64.222l.64.278v.5s-.75-.195-.917.444c0 0 1.14-.084.945.639 0 0-.508-.348-.667.083l-.25.445s.75-.25.833.055c.105.384-.027.722.167 1.472l1.628.255c.677-.367 4.54.384 4.54.384l.055-4z" transform="translate(-30 -36) translate(30 36)"/>
                <path stroke="#EC1C24" stroke-width=".262" d="M6.317 23.527c.679-.366 4.541.383 4.541.383m-6.168-.638l1.627.255M3.69 21.744s.75-.25.833.056c.105.383-.028.722.167 1.472M3.94 21.3l-.25.444m.89-1.61s-.752-.195-.918.444c0 0 1.139-.083.945.638 0 0-.508-.346-.668.084m0-1.944l.64.278v.5m1.139 1.916c.055-.444-.194-.972-.194-.972s.11-.723.11-.944c0-.723-.61-.723-.61-.723s-.361-.266-.445-.277c-.156-.02-.407.044-.64.222m2.918 2.472l-1.14.222m5.196-2.139c-1.389.112-3-.083-4.056 1.917" transform="translate(-30 -36) translate(30 36)"/>
                <path fill="#FFD420" fill-rule="nonzero" d="M8.621 11.252c.225-.508.426-.676.426-.676S8.325 9.9 7.352 9.335c0 0-1.083-1.24-1.805-1.796 0 0 .194-2.75-.64-3.527 0 0-.715-.09-1.271-.09-.363 0-.319.004-.5.403l.855.131.083.473-.722-.167c-.25.14-.445.722-.445.722.1-.106.306-.21.375-.215.084-.007.403.132.542.042 0 0-.042.242.097.569 0 0-.722.076-.945.472 0 0 .292.27.96.076 0 0 .666.517.666.833 0 .361-.375.835-.361.916.11.64 1.93 3.018 1.93 3.018.272-.013 2.45.057 2.45.057" transform="translate(-30 -36) translate(30 36)"/>
                <path stroke="#EC1C24" stroke-width=".262" d="M8.621 11.252c.225-.508.426-.676.426-.676S8.325 9.9 7.352 9.335c0 0-1.083-1.24-1.805-1.796 0 0 .194-2.75-.64-3.527 0 0-.715-.09-1.271-.09-.363 0-.319.004-.5.403l.855.131.083.473-.722-.167c-.25.14-.445.722-.445.722.1-.106.306-.21.375-.215.084-.007.403.132.542.042 0 0-.042.242.097.569 0 0-.722.076-.945.472 0 0 .292.27.96.076 0 0 .666.517.666.833 0 .361-.375.835-.361.916.11.64 1.93 3.018 1.93 3.018.272-.013 2.45.057 2.45.057z" transform="translate(-30 -36) translate(30 36)"/>
                <path fill="#FFD420" fill-rule="nonzero" d="M9.691 16.135c.694.75 1.528 2.804 1.528 2.804s-.297.449-.389 1.305c-.305 2.861.028 3.667.028 3.667.416 1.582 1 1.86 1.862 2.998l.304 2.222-.992-.47c-.61-.155-1.174-.141-1.841.886v.806l.695-.611.277.805.529-.75.222.75.472-.527c2.433.149 2.223-.139 2.223-.139-.084-1.306.071-2.534.556-3.582.5-1.083.444-2.334.444-2.334l-.278-1.22.278 1.22s.69.23.611-1.332c-.14-2.722-1.584-6.304-1.167-10.108.04-.369.39-.5.39-.5s1.129-3.693 0-6.276l.333-.25-.167-.389c.111-.5.028-.61.028-.61-.111-.112-.695-.186-.695-.186s-.216.069-.277.352c-.024.105-.724-.5-.89-.528-1.105-.184-2.89.556-2.89.556v.416s-.75.111-1.556.777c0 0-.193.084.112.306l.306-.222-.167.14s-.056.999.139.86c0 0 .11.389 1.694-.111 0 0 .39.055.917.333 0 0 .25.583.222.833 0 0-.241-.064-.305.14 0 0-.355-.462-.555-.529-.303-.1-1.667.333-1.667.333s.25.417.944.195c0 0 .472.14.528.277l-.084.306c-2.227 1.593-2.46 1.752-2.785 2.506 0 0 3.625.13 3.977.13.224 0 .695-.944.695-.944s-.471.945-.695.945c-.351 0-3.977-.13-3.977-.13-2.24-.073-4.57-.127-4.8-.035v-1.167c.07-1.222-.09-1.222-1.214-1.375 0 0-.328.153-.696.417 0 0 .445-.11.556-.006 0 0 .403.228.383.582 0 0-.89.105-.973.632 0 0 1.139-.472.862.473 0 0-.473-.028-.78.61 0 0 .64-.258.696.028.042.22.277.445.277.445.778-.334.473.388.028.5 0 0 .139.332.445.388.305.056.639-.25.639-.25s.334.277.528.222c0 0 .694.444.861.306 0 0 .445.416 1.39.472 0 0 .666.361 1.5.61.833.25.861.14.861.14l.099-.115c.528-.5 1.095-.052 1.095-.052h-.002s-.567-.448-1.095.052l-.097.114s.446 1.83.5 1.889" transform="translate(-30 -36) translate(30 36)"/>
                <path stroke="#EC1C24" stroke-width=".262" d="M9.691 16.135c.694.75 1.528 2.804 1.528 2.804s-.297.449-.389 1.305c-.305 2.861.028 3.667.028 3.667.416 1.582 1 1.86 1.862 2.998l.304 2.222-.992-.47c-.61-.155-1.174-.141-1.841.886v.806l.695-.611.277.805.529-.75.222.75.472-.527c2.433.149 2.223-.139 2.223-.139-.084-1.306.071-2.534.556-3.582.5-1.083.444-2.334.444-2.334l-.278-1.22.278 1.22s.69.23.611-1.332c-.14-2.722-1.584-6.304-1.167-10.108.04-.369.39-.5.39-.5s1.129-3.693 0-6.276l.333-.25-.167-.389c.111-.5.028-.61.028-.61-.111-.112-.695-.186-.695-.186s-.216.069-.277.352c-.024.105-.724-.5-.89-.528-1.105-.184-2.89.556-2.89.556v.416s-.75.111-1.556.777c0 0-.193.084.112.306l.306-.222-.167.14s-.056.999.139.86c0 0 .11.389 1.694-.111 0 0 .39.055.917.333 0 0 .25.583.222.833 0 0-.241-.064-.305.14 0 0-.355-.462-.555-.529-.303-.1-1.667.333-1.667.333s.25.417.944.195c0 0 .472.14.528.277l-.084.306c-2.227 1.593-2.46 1.752-2.785 2.506 0 0 3.625.13 3.977.13.224 0 .695-.944.695-.944s-.471.945-.695.945c-.351 0-3.977-.13-3.977-.13-2.24-.073-4.57-.127-4.8-.035v-1.167c.07-1.222-.09-1.222-1.214-1.375 0 0-.328.153-.696.417 0 0 .445-.11.556-.006 0 0 .403.228.383.582 0 0-.89.105-.973.632 0 0 1.139-.472.862.473 0 0-.473-.028-.78.61 0 0 .64-.258.696.028.042.22.277.445.277.445.778-.334.473.388.028.5 0 0 .139.332.445.388.305.056.639-.25.639-.25s.334.277.528.222c0 0 .694.444.861.306 0 0 .445.416 1.39.472 0 0 .666.361 1.5.61.833.25.861.14.861.14l.099-.115c.528-.5 1.095-.052 1.095-.052h-.002s-.567-.448-1.095.052l-.097.114s.446 1.83.5 1.889z" transform="translate(-30 -36) translate(30 36)"/>
                <path fill="#FFD420" fill-rule="nonzero" d="M11.247 5.277c.89.139 1.389-.056 1.389-.056l.028.417-.583.056-.028-.362-.806-.055z" transform="translate(-30 -36) translate(30 36)"/>
                <path stroke="#EC1C24" stroke-width=".262" d="M12.636 5.221l.028.678-.583.089-.028-.586m-.806-.09c.89.225 1.389-.09 1.389-.09" transform="translate(-30 -36) translate(30 36)"/>
                <path fill="#FFD420" fill-rule="nonzero" d="M14.856 5.256c.114-.09.072-.313.195-.361.072-.028.208.027.278.055.075.03 0 .098.013.167.014.069-.333.292-.333.292s-.216-.103-.153-.153" transform="translate(-30 -36) translate(30 36)"/>
                <path stroke="#EC1C24" stroke-width=".262" d="M14.856 5.256c.114-.09.072-.313.195-.361.072-.028.208.027.278.055.075.03 0 .098.013.167.014.069-.333.292-.333.292s-.216-.103-.153-.153z" transform="translate(-30 -36) translate(30 36)"/>
                <path fill="#FFD420" fill-rule="nonzero" d="M16.798 11.161L16.798 14.774 18.031 14.774 18.031 30.049 31.258 30.049 31.258 14.774 32.53 14.774 32.53 11.12 30.887 11.12 30.887 13.542 29.819 13.542 29.819 11.119 28.217 11.119 28.217 14.774 29.41 14.774 29.41 20.851 27.067 20.851 27.067 9.108 30.765 9.108 30.765 4.304 28.176 4.304 28.176 7.22 26.491 7.22 26.491 4.304 22.877 4.304 22.877 7.219 21.151 7.219 21.151 4.304 18.563 4.304 18.563 9.108 22.261 9.108 22.261 20.851 19.919 20.851 19.919 14.815 21.152 14.815 21.152 11.16 19.55 11.16 19.55 13.542 18.399 13.542 18.399 11.161zM15.36 5.741c.742 1.777.635 3.916 0 6.283-.426.19-.466.574-.452.985-.01 2.176.202 4.352.74 6.528.47 2.302.768 4.33.04 4.434l-.287-1.232c-.068.028-.1.055-.168.082.328.947.395 1.799.127 2.628-.842 2.287-.943 3.555-.811 4.517h-2.27l-.33.534-.245-.822-.493.657-.288-.657-.616.493-.04-.574c.504-1.087 1.434-1.26 2.875-.33l-.329-2.38c-1.655-1.73-2.326-3.386-2.013-4.969-.03-1.331.121-2.363.534-2.956-.374-.937-.834-1.886-1.602-2.874l-.452-1.847c.38-.31.737-.323 1.068-.042h.329c-.583-.552-1.117-.538-1.603.042-.83-.274-1.583-.548-2.218-.822-.479-.028-.957-.178-1.438-.452-.256-.016-.556-.163-.862-.328-.226-.038-.365-.118-.493-.205-.333.222-.66.37-.945 0 .353-.468.552-.771-.182-.647-.131-.358-.336-.67-.762-.585.194-.221.413-.345.657-.37.2-.6-.104-.785-.74-.698.072-.229.446-.33.863-.41-.071-.457-.29-.717-.657-.78l.328-.123c.737-.05 1.21.132 1.11.82l.04 1.725.411-.082c2.877.012 5.681.097 8.504.164l.698-.944-.246-.041c-.068.287-.27.575-.534.862l-3.82-.164c.27-.748 1.455-1.544 2.67-2.34.04-.124.081-.247.123-.37l-.575-.328c-.367.033-.703.041-.822-.124l1.15-.287c.342-.103.685.226 1.027.616-.1-.156-.005-.238.288-.246l-.247-.986-.986-.329c-.72.214-1.475.462-1.643.124l-.123.124c.013-.288.028-.576.04-.864.042-.04.083-.081.124-.123l-.123-.081-.246.204-.124-.163c.396-.357.96-.612 1.602-.821l.041-.452c.67-.207 1.314-.439 2.137-.493.219-.01.438.003.657.042.262.112.59.356.904.574l.246-.493.698.164c-.048.429-.058.796.041 1.026-.095.07-.192.138-.287.206" transform="translate(-30 -36) translate(30 36)"/>
                <path fill="#FFD420" fill-rule="nonzero" d="M10.718 23.803l-3.23-.46c-.443-.025-.836 0-1.18.073l-1.551-.203c-.043-.436-.085-.873-.13-1.31.005-.374-.297-.412-.737-.294.13-.486.381-.578.757-.277.237-.615-.17-.824-.867-.85.085-.195.368-.294.848-.294l.019-.59c-.172-.087-.345-.172-.517-.258.32-.197.59-.148.812.148.425.049.627.295.609.737l-.111.885c.167.345.204.689.221 1.033l1.255-.24c.648-1.34 1.9-2.014 3.875-1.88-.203 1.372-.264 2.654-.073 3.78M8.577 11.15c-.8-.011-1.599-.024-2.399-.036-.77-1.058-1.49-2.09-1.864-2.951.487-.588.542-1.19-.35-1.826-.345.08-.64.086-.886.018.197-.227.517-.356.96-.387-.117-.255-.173-.526-.093-.83-.135.08-.282.142-.517.074l-.331.037.24-.388.848.167c-.043-.215-.085-.431-.13-.646l-.792-.13.147-.258 1.458.093c.62.705.615 2.085.59 3.486.72.588 1.323 1.206 1.846 1.844.587.364 1.135.748 1.623 1.162l-.35.572M10.006 7.185h.277l-.037.517c-.127-.125-.207-.297-.24-.517M11.026 7.075L10.472 7.185 10.841 7.517zM11.481 7.511L11.171 7.179 10.983 7.603zM10.38 7.388L10.38 7.794 10.73 7.702z" transform="translate(-30 -36) translate(30 36)"/>
                <path fill="#EC202A" fill-rule="nonzero" d="M12.544 5.468l.038.36-.407.059v-.359l.37-.06zm-1.273-.24c.504.17.984.14 1.44-.09l.055.93c-.259.139-.499.129-.794.119-.005-.3.006-.3 0-.6-.246-.03-.492-.059-.737-.09l.036-.27zM15.051 5.614c.17-.107.35-.18.522-.287v-.173c-.192-.104-.33-.119-.346.066-.056.143-.12.25-.176.394m.118.295c.268-.15.506-.329.675-.575.006-.15.035-.3-.116-.432-.321-.125-.57-.133-.714.03l-.153.459c-.039.049-.074.096-.111.145.095.188.246.299.419.373" transform="translate(-30 -36) translate(30 36)"/>
            </g>
        </g>
    </g>
</svg>