<svg width="32" height="47" viewBox="0 0 32 47" fill="none" xmlns="http://www.w3.org/2000/svg">
<path d="M29.167 0H2.43C1.78543 0.000265145 1.16735 0.256507 0.71167 0.712379C0.255985 1.16825 -5.45342e-08 1.78643 0 2.431V18.831C2.1 17.231 4.725 15.002 9.462 16.171C13.545 17.178 14.435 20.325 20.892 23.9C24.845 26.089 28.554 24.4 31.597 22.632V2.431C31.597 1.78626 31.3409 1.16793 30.885 0.712025C30.4291 0.256124 29.8107 0 29.166 0" fill="#00973D"/>
<path d="M22.98 31.211C21.7652 31.0594 20.6042 30.6195 19.594 29.928C17.331 28.528 15.162 26.248 10.549 23.853C6.874 22.067 3.289 23.429 0.0039978 25.301V43.684C0.00426282 44.3284 0.26037 44.9463 0.716026 45.402C1.17168 45.8576 1.7896 46.1137 2.434 46.114H29.17C29.8146 46.114 30.4328 45.858 30.8886 45.4023C31.3445 44.9466 31.6007 44.3286 31.601 43.684V28.698C28.747 30.334 26.007 31.663 22.983 31.211" fill="#00509C"/>
<path d="M20.892 23.895C14.434 20.32 13.544 17.173 9.462 16.166C4.725 14.997 2.098 17.229 0 18.826V22.134V25.3C3.285 23.428 6.91901 21.97 10.545 23.852C15.159 26.247 17.328 28.53 19.59 29.927C20.6157 30.5885 21.7695 31.0257 22.976 31.21C26.001 31.662 28.741 30.333 31.594 28.697L31.587 25.772L31.594 22.627C28.551 24.395 24.842 26.084 20.889 23.895" fill="white"/>
</svg>
