<svg width="1138" height="298" viewBox="0 0 1138 298" fill="none" xmlns="http://www.w3.org/2000/svg">
<g filter="url(#filter0_d_86_162)">
<path fill-rule="evenodd" clip-rule="evenodd" d="M46.4564 0.212402H1.48535L76.434 130.079L98.9195 91.1523L46.4564 0.212402Z" fill="#00AFBA"/>
<path fill-rule="evenodd" clip-rule="evenodd" d="M224.659 0.212402L135.558 154.636L113.072 193.341L171.993 295.317L342.279 0.212402H224.659Z" fill="#00AFBA"/>
<path fill-rule="evenodd" clip-rule="evenodd" d="M469.487 123.208V85.953H433.68V123.208H420.35V39.7581H433.68V74.7136H469.487V39.7581H482.809V123.208H469.487Z" fill="black"/>
<path fill-rule="evenodd" clip-rule="evenodd" d="M494.049 119.88L502.793 111.139C500.086 106.352 498.629 100.108 498.629 93.2403C498.629 74.7177 509.038 62.0224 526.526 62.0224C534.02 62.0224 540.474 64.728 545.054 69.0985L553.381 60.9818L559.418 67.0173L550.258 75.9664C552.965 80.7532 554.214 86.5805 554.214 93.2403C554.214 111.763 543.596 124.458 526.526 124.458C519.031 124.458 512.785 122.169 508.205 118.007L500.086 125.915C498.005 123.626 495.923 121.753 494.049 119.88ZM512.369 101.565L536.518 77.4233C533.812 74.5096 530.481 73.0528 525.901 73.0528C516.741 73.0528 510.912 80.545 510.912 93.2403C511.12 96.3621 511.536 99.0677 512.369 101.565ZM540.474 85.748L516.325 109.682C518.823 112.387 522.362 113.636 526.317 113.636C535.477 113.636 541.515 106.352 541.515 93.2403C541.515 90.5348 541.306 87.8292 540.474 85.748ZM621.873 120.712C621.873 138.61 610.007 147.768 594.185 147.768C580.653 147.768 570.66 141.94 568.162 132.159L580.653 128.621C581.902 133.407 587.731 136.945 594.185 136.945C604.178 136.945 608.966 130.286 608.966 120.712V116.133C606.676 120.504 599.181 124.25 592.103 124.25C577.114 124.25 565.664 111.555 565.664 93.0322C565.664 74.7177 576.489 61.8143 592.103 61.8143C600.014 61.8143 606.884 66.6011 608.966 70.7634L610.215 63.063H621.873V120.712ZM594.185 73.0528C584.817 73.0528 578.571 80.3369 578.571 93.2403C578.571 106.352 584.817 113.636 594.185 113.636C603.345 113.636 608.966 106.352 608.966 93.2403C608.966 80.1288 603.553 73.0528 594.185 73.0528ZM634.78 105.519C638.944 104.687 643.108 103.854 647.271 103.23C648.104 108.017 651.019 113.636 660.595 113.636C662.677 113.636 673.294 112.804 673.294 105.311C673.294 90.951 636.654 105.727 636.654 80.1288C636.654 69.931 646.855 62.2305 659.554 62.2305C672.253 62.2305 683.287 67.6416 684.952 80.9613C680.789 81.5856 676.625 82.4181 672.461 83.2506C671.629 75.7583 667.049 73.0528 659.97 73.0528C653.725 73.0528 649.353 76.3827 649.353 80.1288C649.353 84.9156 653.933 86.3724 661.011 86.9967C674.543 88.4536 685.993 91.3672 685.993 105.311C685.993 117.798 674.96 124.458 660.595 124.458C645.19 124.458 636.446 116.342 634.78 105.519ZM735.957 63.2711H753.444L727.422 87.8292C731.793 93.4484 751.571 117.798 755.943 123.21H740.745L718.886 96.154L713.057 101.773V123.21H700.15V39.7537H713.057V85.3318L735.957 63.2711ZM775.72 95.9459C775.72 108.225 779.884 113.428 789.252 113.636C798.204 113.636 802.575 107.809 802.575 95.9459V63.2711H815.275V123.21H803.825L802.575 116.758C800.494 120.296 794.248 124.25 786.129 124.25C769.474 124.25 762.813 115.093 762.813 95.7378V63.063H775.512V95.9459H775.72Z" fill="black"/>
<path fill-rule="evenodd" clip-rule="evenodd" d="M845.672 39.7581V123.208H832.969V39.7581H845.672Z" fill="black"/>
<path fill-rule="evenodd" clip-rule="evenodd" d="M903.128 102.398C907.083 103.438 911.039 104.687 914.786 105.936C912.079 114.677 903.96 124.458 887.514 124.458C871.067 124.458 859.409 111.763 859.409 93.2404C859.409 74.7177 870.235 62.0225 887.098 62.0225C903.752 62.0225 914.161 73.0528 914.161 91.3673C914.161 93.2404 914.161 95.1134 913.953 96.9865H872.941C873.149 105.728 879.187 113.636 887.93 113.636C893.759 113.636 900.005 110.722 903.128 102.398ZM900.421 87.413C900.005 78.4639 895.841 72.8447 887.098 72.8447C878.562 72.8447 873.774 79.9207 873.357 87.413H900.421ZM969.121 90.7429C969.121 78.4639 964.958 73.0528 955.59 73.0528C946.638 73.0528 942.266 78.8801 942.266 90.7429V123.418H929.567V63.4793H941.225L942.474 69.931C944.556 66.1848 950.801 62.2306 958.296 62.2306C975.575 62.4387 982.029 71.596 982.029 90.7429V123.418H969.33V90.7429H969.121ZM420.353 193.554H432.011L433.26 201.046C435.342 197.716 442.004 192.305 450.747 192.305C465.736 192.305 476.354 205 476.354 223.523C476.354 242.046 466.777 254.741 450.747 254.741C442.628 254.741 435.758 249.954 433.26 246.416V277.01H420.353V193.554ZM448.041 203.335C438.673 203.335 433.26 210.62 433.26 223.523C433.26 236.635 438.673 243.919 448.041 243.919C457.201 243.919 463.238 236.635 463.238 223.523C463.238 210.412 457.409 203.335 448.041 203.335ZM501.544 214.158C497.38 213.533 493.216 212.493 488.845 211.868C490.094 198.549 501.127 192.513 513.618 192.513C530.481 192.513 539.225 200.838 539.225 217.071V237.883C539.225 241.421 539.849 243.502 542.347 243.502C543.388 243.502 544.846 243.294 545.47 243.086V253.492C541.723 254.533 539.433 254.533 537.976 254.533C531.73 254.533 528.399 250.787 527.566 246C525.276 248.914 518.823 254.741 508.83 254.949C494.882 254.949 486.763 247.249 486.763 235.802C486.763 226.437 495.506 217.904 511.12 217.904H526.526V214.366C526.526 209.787 524.652 203.544 513.618 203.544C506.332 203.335 501.752 206.873 501.544 214.158ZM526.526 230.183V227.269H512.369C501.752 227.269 499.67 232.68 499.67 235.594C499.67 239.548 502.376 243.919 510.287 243.919C520.696 243.919 526.526 236.843 526.526 230.183ZM513.826 166.498C520.072 166.498 525.276 171.493 525.276 177.529C525.276 183.772 520.28 188.767 513.826 188.767C507.581 188.767 502.376 183.98 502.376 177.529C502.376 171.493 507.581 166.498 513.826 166.498ZM513.826 183.148C516.949 183.148 519.447 180.65 519.447 177.529C519.447 174.407 516.949 171.909 513.826 171.909C510.704 171.909 508.206 174.615 508.206 177.529C507.997 180.65 510.704 183.148 513.826 183.148Z" fill="black"/>
<path fill-rule="evenodd" clip-rule="evenodd" d="M618.544 170.04H632.494L602.303 253.49H589.601L559.836 170.04H573.573L596.059 234.133L618.544 170.04Z" fill="black"/>
<path fill-rule="evenodd" clip-rule="evenodd" d="M674.752 232.68C678.707 233.721 682.662 234.97 686.41 236.01C683.703 244.751 675.584 254.533 659.138 254.533C642.691 254.533 631.033 241.838 631.033 223.315C631.033 204.792 641.859 192.097 658.721 192.097C675.376 192.097 685.785 203.127 685.785 221.442C685.785 223.315 685.785 225.188 685.577 227.061H644.565C644.773 235.802 650.811 243.711 659.554 243.711C665.591 243.919 671.629 241.005 674.752 232.68ZM672.045 217.696C671.629 208.747 667.465 203.127 658.721 203.127C650.186 203.127 645.398 210.203 644.981 217.696H672.045ZM696.402 235.802C700.566 234.97 704.73 234.137 708.893 233.513C709.726 238.3 712.641 243.919 722.217 243.919C724.299 243.919 734.916 243.086 734.916 235.594C734.916 221.234 698.276 236.01 698.276 210.412C698.276 200.214 708.477 192.513 721.176 192.513C733.875 192.513 744.909 197.924 746.574 211.244C742.411 211.868 738.247 212.701 734.084 213.533C733.251 206.041 728.671 203.336 721.593 203.336C715.347 203.336 710.975 206.665 710.975 210.412C710.975 215.198 715.555 216.655 722.633 217.28C736.165 218.736 747.615 221.65 747.615 235.594C747.615 248.081 736.582 254.741 722.217 254.741C706.812 254.741 698.068 246.624 696.402 235.802ZM755.526 203.336V193.554H765.935V176.28H778.635V193.554H791.125V203.336H778.635V237.259C778.635 242.046 780.092 243.503 784.255 243.503C786.129 243.503 788.003 243.294 789.876 243.294V253.7L782.382 254.117H780.925C769.683 254.117 765.935 248.081 765.935 236.635V203.544H755.526V203.336Z" fill="black"/>
<path fill-rule="evenodd" clip-rule="evenodd" d="M818.401 170.04V253.49H805.698V170.04H818.401Z" fill="black"/>
<path fill-rule="evenodd" clip-rule="evenodd" d="M846.71 214.158C842.546 213.533 838.383 212.493 834.011 211.868C835.26 198.549 846.294 192.513 858.785 192.513C875.647 192.513 884.391 200.838 884.391 217.071V237.883C884.391 241.421 885.016 243.502 887.514 243.502C888.555 243.502 890.012 243.294 890.637 243.086V253.492C886.889 254.533 884.599 254.533 883.142 254.533C876.897 254.533 873.566 250.787 872.733 246C870.443 248.914 863.989 254.741 853.997 254.949C840.048 254.949 831.929 247.249 831.929 235.802C831.929 226.437 840.673 217.904 856.287 217.904H871.692V214.366C871.692 209.787 869.818 203.544 858.785 203.544C851.498 203.335 846.918 206.873 846.71 214.158ZM871.692 230.183V227.269H857.536C846.918 227.269 844.837 232.68 844.837 235.594C844.837 239.548 847.543 243.919 855.454 243.919C865.863 243.919 871.692 236.843 871.692 230.183ZM942.058 221.026C942.058 208.747 937.894 203.335 928.526 203.335C919.574 203.335 915.202 209.163 915.202 221.026V253.7H902.503V193.554H914.161L915.41 200.006C917.492 196.259 923.738 192.305 931.232 192.305C948.511 192.513 954.965 201.671 954.965 220.817V253.492H942.266V221.026H942.058ZM1024.29 253.492H1012.63L1011.38 246C1009.3 249.33 1002.64 254.741 994.103 254.741C979.114 254.741 968.08 242.046 968.08 223.523C968.08 205 977.865 192.305 994.103 192.305C1002.22 192.305 1009.09 197.3 1011.38 200.63V170.036H1024.29V253.492ZM996.601 243.919C1005.76 243.919 1011.38 236.635 1011.38 223.523C1011.38 210.412 1005.76 203.335 996.601 203.335C987.441 203.335 981.196 210.62 981.196 223.523C981.196 236.635 987.233 243.919 996.601 243.919ZM1081.96 232.68C1085.91 233.721 1089.87 234.97 1093.61 236.01C1090.91 244.751 1082.79 254.533 1066.34 254.533C1049.9 254.533 1038.24 241.838 1038.24 223.315C1038.24 204.792 1049.06 192.097 1065.93 192.097C1082.58 192.097 1092.99 203.127 1092.99 221.442C1092.99 223.315 1092.99 225.188 1092.78 227.061H1051.77C1051.98 235.802 1058.02 243.711 1066.76 243.711C1072.59 243.919 1078.83 241.005 1081.96 232.68ZM1079.04 217.696C1078.63 208.747 1074.46 203.127 1065.72 203.127C1057.18 203.127 1052.39 210.203 1051.98 217.696H1079.04ZM1101.11 203.335V193.554H1111.52V176.28H1124.22V193.554H1136.71V203.335H1124.22V237.259C1124.22 242.046 1125.67 243.502 1129.84 243.502C1131.71 243.502 1133.59 243.294 1135.46 243.294V253.7L1127.96 254.117H1126.51C1115.27 254.117 1111.52 248.081 1111.52 236.635V203.544H1101.11V203.335Z" fill="black"/>
</g>
<defs>
<filter id="filter0_d_86_162" x="0.485352" y="0.212402" width="1137.22" height="297.104" filterUnits="userSpaceOnUse" color-interpolation-filters="sRGB">
<feFlood flood-opacity="0" result="BackgroundImageFix"/>
<feColorMatrix in="SourceAlpha" type="matrix" values="0 0 0 0 0 0 0 0 0 0 0 0 0 0 0 0 0 0 127 0" result="hardAlpha"/>
<feOffset dy="1"/>
<feGaussianBlur stdDeviation="0.5"/>
<feColorMatrix type="matrix" values="0 0 0 0 0 0 0 0 0 0 0 0 0 0 0 0 0 0 0.08 0"/>
<feBlend mode="normal" in2="BackgroundImageFix" result="effect1_dropShadow_86_162"/>
<feBlend mode="normal" in="SourceGraphic" in2="effect1_dropShadow_86_162" result="shape"/>
</filter>
</defs>
</svg>
