<svg width="2920" height="760" viewBox="0 0 2920 760" fill="none" xmlns="http://www.w3.org/2000/svg">
<mask id="mask0_64_268" style="mask-type:luminance" maskUnits="userSpaceOnUse" x="0" y="0" width="2920" height="760">
<path d="M2919.37 0.0703125H0.486328V759.402H2919.37V0.0703125Z" fill="white"/>
</mask>
<g mask="url(#mask0_64_268)">
<path d="M157.006 692.307C157.006 692.307 159.617 696.579 159.617 703.859C159.617 704.413 159.617 704.966 159.538 705.521C159.538 704.966 159.617 704.413 159.617 703.859C159.617 696.579 157.006 692.307 157.006 692.307C157.006 692.307 156.927 691.436 157.323 691.199C157.48 691.121 157.719 691.041 157.956 691.121C157.719 691.121 157.56 691.121 157.323 691.199C156.927 691.436 156.769 691.911 157.006 692.307Z" fill="black"/>
<path d="M369.408 188.571C376.451 204.554 365.215 215.236 358.805 215.315C365.215 215.315 376.531 204.554 369.408 188.571C367.193 183.587 364.107 181.846 360.783 182.005C364.027 181.925 367.114 183.587 369.329 188.571H369.408Z" fill="black"/>
<path d="M133.271 679.6C132.956 679.205 133.034 678.731 133.429 678.415C133.587 678.258 133.825 678.258 133.982 678.258C133.745 678.258 133.587 678.258 133.35 678.415C133.034 678.731 132.956 679.205 133.193 679.6H133.271Z" fill="black"/>
<path d="M191.749 723.782C191.749 723.782 191.749 722.911 192.145 722.673C191.749 722.911 191.591 723.386 191.749 723.782Z" fill="black"/>
<path d="M188.903 736.434C184.945 736.434 182.571 735.643 182.571 735.723C182.097 735.564 181.701 735.801 181.542 736.276C181.385 736.671 181.622 737.146 182.097 737.304C181.701 737.146 181.464 736.751 181.542 736.276C181.701 735.801 182.097 735.564 182.571 735.723C182.571 735.723 184.945 736.513 188.903 736.513C190.169 736.513 191.672 736.356 193.255 736.118C180.356 726.94 168.881 716.97 159.623 708.029C168.961 716.97 180.356 726.86 193.255 736.118C191.672 736.356 190.169 736.434 188.903 736.434Z" fill="black"/>
<path d="M340.763 204.803C348.913 233.603 369.725 233.524 376.611 233.524C369.646 233.524 348.913 233.524 340.763 204.803Z" fill="black"/>
<path d="M394.571 215.192C400.903 215.192 410.715 203.482 410.794 203.323C410.794 203.323 400.981 215.112 394.571 215.192Z" fill="black"/>
<path d="M180.749 705.836C190.166 708.051 209.633 715.964 215.963 743.182C216.676 746.188 218.337 748.72 220.395 750.857C218.417 748.72 216.754 746.188 215.963 743.182C209.711 715.964 190.166 708.051 180.749 705.836Z" fill="black"/>
<path d="M410.084 193.23C407.947 191.093 399.797 182.154 392.517 181.995C399.797 182.232 407.947 191.252 410.084 193.23Z" fill="black"/>
<path d="M157.964 706.475H157.805C148.784 706.475 146.489 704.892 146.41 704.972C146.014 704.733 145.54 704.892 145.302 705.287C145.065 705.683 145.222 706.158 145.54 706.395C145.54 706.395 145.618 706.395 145.777 706.475C145.698 706.475 145.618 706.395 145.618 706.395C145.222 706.158 145.144 705.683 145.381 705.287C145.618 704.892 146.093 704.813 146.489 704.972C146.489 704.972 148.784 706.475 157.884 706.475H158.042C142.611 691.441 133.274 679.573 133.274 679.573C133.274 679.573 142.691 691.521 158.042 706.475H157.964Z" fill="black"/>
<path d="M65.4607 576.219C66.6476 575.586 67.7555 575.349 68.7842 575.349C72.187 575.19 75.3523 578.038 77.7262 581.125C75.2732 578.118 72.1078 575.19 68.7842 575.349C67.7555 575.349 66.6476 575.586 65.4607 576.219C62.1371 577.959 61.1084 580.807 61.1084 584.288C61.1084 580.807 62.1371 577.881 65.4607 576.219Z" fill="black"/>
<path d="M213.281 751.635C211.223 751.635 209.008 751.715 206.634 751.953C204.893 752.11 203.231 752.19 201.569 752.19C192.232 752.19 184.635 749.499 178.542 745.781C184.556 749.499 192.232 752.19 201.569 752.19C203.231 752.19 204.893 752.11 206.634 751.953C209.008 751.715 211.223 751.635 213.281 751.635C215.338 751.635 217.158 751.794 218.899 751.953C210.59 747.6 202.677 742.694 195.239 737.473C202.677 742.694 210.67 747.6 218.899 751.953C217.158 751.794 215.338 751.635 213.281 751.635Z" fill="black"/>
<path d="M64.5001 596.89L64.4209 597.365V596.89H64.5001Z" fill="black"/>
<path d="M107.789 625.224C107.789 625.224 132.4 631.87 135.881 665.023C132.4 631.792 107.789 625.224 107.789 625.224Z" fill="black"/>
<path d="M174.427 703.798C171.658 682.672 158.047 676.739 150.055 675.077C157.968 676.739 171.658 682.672 174.348 703.798H174.427Z" fill="black"/>
<path d="M158.441 723.62C153.06 722.672 148.707 720.851 145.146 718.556C148.707 720.851 153.138 722.672 158.519 723.62H159.231V723.7L158.519 723.542L158.441 723.62Z" fill="black"/>
<path d="M140.641 671.593C139.929 670.96 139.137 670.327 138.188 669.694C136.685 668.587 134.944 667.479 133.123 666.688C134.864 667.479 136.605 668.587 138.188 669.694C139.137 670.407 139.929 671.04 140.641 671.673V671.593Z" fill="black"/>
<path d="M144.04 674.684L143.408 674.052C143.408 674.052 143.251 673.895 143.171 673.816C143.251 673.816 143.408 674.052 143.408 674.052L144.04 674.762V674.684Z" fill="black"/>
<path d="M82.3937 588.519L83.106 588.676C83.106 588.676 106.767 592.474 106.846 623.886C106.846 592.474 83.1851 588.756 83.106 588.676L82.3937 588.519L82.0773 587.886C82.0773 587.886 81.9981 587.648 81.9189 587.568C81.9189 587.727 82.0773 587.886 82.0773 587.886L82.3937 588.519Z" fill="black"/>
<path d="M95.8448 204.803C103.995 233.602 124.807 233.524 131.693 233.524C124.728 233.524 104.075 233.524 95.8448 204.803L97.5065 203.378L95.7656 204.803H95.8448Z" fill="black"/>
<path d="M124.492 188.571C131.535 204.554 120.298 215.236 113.889 215.315C120.219 215.315 131.615 204.554 124.492 188.571C122.277 183.587 119.191 181.846 115.867 182.005C119.191 181.925 122.198 183.587 124.413 188.571H124.492Z" fill="black"/>
<path d="M107.953 174.505C109.061 168.096 108.19 159.076 90.9395 159.076C108.111 159.076 109.061 168.096 107.953 174.505Z" fill="black"/>
<path d="M165.168 193.23C163.031 191.093 154.881 182.154 147.601 181.995C154.881 182.232 163.031 191.252 165.088 193.23H165.168Z" fill="black"/>
<path d="M149.657 215.192C156.066 215.192 165.8 203.482 165.878 203.323C165.878 203.323 156.066 215.112 149.657 215.192Z" fill="black"/>
<path d="M352.87 174.505C351.841 180.914 341.949 190.408 341.949 190.408C341.949 190.408 351.761 180.914 352.87 174.505Z" fill="black"/>
<path d="M262.422 157.143C261.791 156.986 261 156.906 260.29 156.828C261 156.906 261.712 157.065 262.344 157.143H262.422Z" fill="black"/>
<path d="M128.526 131.739C106.448 133.242 98.2975 138.068 98.0601 142.025C97.8227 145.19 98.2975 150.096 99.3262 156.504V157.217C103.204 158.166 106.132 159.749 108.11 162.122C109.93 164.337 110.88 167.107 111.038 170.35C121.958 163.783 137.785 156.742 160.337 151.203C159.308 145.032 158.201 136.803 158.438 130.236C155.115 130.315 144.591 130.631 128.605 131.66L128.526 131.739Z" fill="black"/>
<path d="M417.437 159.076C425.113 159.076 429.624 160.895 432.078 163.506L410.79 252.598H410.87L432.156 163.506C429.702 160.895 425.272 159.076 417.517 159.076H417.437Z" fill="black"/>
<path d="M264.4 122.176C261.156 123.125 257.833 123.837 254.271 123.837C257.912 123.837 261.393 123.204 264.717 122.176C264.717 122.176 264.48 122.176 264.4 122.176Z" fill="black"/>
<path d="M206.158 188.571C213.281 204.554 201.965 215.236 195.555 215.315C201.965 215.315 213.281 204.554 206.158 188.571C203.943 183.587 200.857 181.846 197.533 182.005C200.777 181.925 203.864 183.587 206.079 188.571H206.158Z" fill="black"/>
<path d="M259.098 204.803C267.248 233.603 288.06 233.524 294.944 233.524C287.98 233.524 267.248 233.524 259.098 204.803Z" fill="black"/>
<path d="M287.743 188.571C294.785 204.554 283.549 215.236 277.139 215.315C283.549 215.315 294.865 204.554 287.743 188.571C285.527 183.587 282.441 181.846 279.117 182.005C282.361 181.925 285.448 183.587 287.663 188.571H287.743Z" fill="black"/>
<path d="M328.418 193.23C326.281 191.093 318.131 182.154 310.851 181.995C318.131 182.232 326.281 191.252 328.338 193.23H328.418Z" fill="black"/>
<path d="M312.906 215.192C319.236 215.192 328.97 203.482 329.127 203.323C329.127 203.323 319.316 215.112 312.906 215.192Z" fill="black"/>
<path d="M177.513 204.803C185.663 233.603 206.475 233.524 213.361 233.524C206.396 233.524 185.663 233.524 177.513 204.803Z" fill="black"/>
<path d="M231.322 215.192C237.654 215.192 247.386 203.482 247.545 203.323C247.545 203.323 237.732 215.112 231.322 215.192Z" fill="black"/>
<path d="M271.213 174.505C272.322 168.096 271.371 159.076 254.121 159.076C271.293 159.076 272.242 168.096 271.134 174.505H271.213Z" fill="black"/>
<path d="M246.754 193.23C244.617 191.093 236.467 182.154 229.267 181.995C236.547 182.232 244.697 191.252 246.754 193.23Z" fill="black"/>
<path d="M120.851 665.528C119.269 663.946 117.686 662.205 116.103 660.385C109.456 659.277 101.701 656.982 101.701 656.982C101.701 656.982 109.456 659.356 116.103 660.385C117.686 662.205 119.269 663.866 120.851 665.528Z" fill="black"/>
<path d="M36.332 404.438C36.332 404.438 36.332 404.518 36.2529 404.675C36.2529 404.518 36.332 404.438 36.332 404.438Z" fill="black"/>
<path d="M18.7645 406.606C18.6853 406.369 18.6853 406.21 18.7645 405.973C18.7645 406.21 18.6853 406.369 18.7645 406.606Z" fill="black"/>
<path d="M28.34 414.422C26.2034 394.324 25.4912 381.902 25.4912 381.745C25.4912 381.506 25.4912 381.349 25.7286 381.19C25.5704 381.349 25.4912 381.586 25.4912 381.745C25.4912 381.902 26.2034 394.324 28.34 414.343V414.422Z" fill="black"/>
<path d="M62.8496 564.545C64.1157 561.697 64.7489 559.086 65.2236 557.028C64.828 559.086 64.1157 561.777 62.8496 564.545Z" fill="black"/>
<path d="M24.4668 452.974C24.4668 452.974 28.1861 458.354 34.5959 461.994C34.9914 464.605 35.4662 467.295 35.862 470.063C35.387 467.295 34.9914 464.683 34.5959 461.994C28.2651 458.433 24.546 453.053 24.4668 452.974C24.2294 452.657 24.3086 452.182 24.625 451.865C24.2294 452.104 24.1503 452.657 24.4668 452.974Z" fill="black"/>
<path d="M65.7695 552.976C65.7695 552.976 65.8486 552.581 66.0065 552.423C65.8486 552.581 65.7695 552.739 65.7695 552.976Z" fill="black"/>
<path d="M25.8219 363.889C25.8219 363.889 26.4548 363.811 26.8506 363.811C31.0447 363.811 33.5769 367.846 35.0012 372.515C36.4257 377.182 36.5839 381.85 36.5839 381.85V382.483L37.1378 382.879C37.1378 382.879 47.6625 390.396 47.5833 405.507C47.5833 411.126 46.159 417.772 42.1231 425.604L41.6483 426.475L42.4397 427.188C42.4397 427.188 54.1514 438.107 54.1514 457.254C54.1514 463.188 52.9643 469.913 49.9573 477.351C52.9643 469.913 54.1514 463.108 54.1514 457.254C54.1514 438.027 42.4397 427.188 42.4397 427.188L41.6483 426.475L42.1231 425.604C46.159 417.772 47.5833 411.126 47.5833 405.507C47.5833 390.396 37.1378 382.879 37.1378 382.879L36.5839 382.483V381.85C36.5839 381.85 36.3465 377.182 34.922 372.515C33.4977 367.766 30.9655 363.732 26.7714 363.811C26.4548 363.811 26.1384 363.811 25.7427 363.889C22.7357 364.207 20.6782 366.026 19.2539 368.479C20.5991 366.026 22.6565 364.207 25.6636 363.889H25.8219Z" fill="black"/>
<path d="M53.3486 510.428C53.3486 510.428 53.5066 510.033 53.6645 509.876C53.5066 510.033 53.4275 510.192 53.3486 510.428Z" fill="black"/>
<path d="M36.1846 461.663C38.0838 459.685 39.429 457.549 40.4577 455.649C39.429 457.549 38.0046 459.685 36.1846 461.663Z" fill="black"/>
<path d="M12.0412 296.933C12.0412 296.933 12.0412 296.063 12.3577 295.826C12.5161 295.746 12.7535 295.746 12.9117 295.826C12.6743 295.826 12.5161 295.826 12.2786 295.826C11.883 296.063 11.7247 296.537 11.9621 296.933H12.0412Z" fill="black"/>
<path d="M21.0696 272.664C21.0696 272.664 20.5156 279.23 20.5156 292.207C20.5156 296.005 20.5156 300.356 20.6738 305.262C20.5156 300.356 20.5156 295.925 20.5156 292.127C20.5156 279.152 21.0696 272.584 21.0696 272.584C21.0696 272.11 21.4652 271.794 21.9399 271.872C21.4652 271.872 21.0696 272.188 21.0696 272.584V272.664Z" fill="black"/>
<path d="M14.2696 341.26C14.2696 341.26 17.1976 347.273 23.3699 351.625C23.6863 354.79 23.9237 358.112 24.3195 361.515C18.4637 363.098 15.8523 368.241 14.8236 373.147C15.8523 368.241 18.4637 363.018 24.3195 361.436C24.0029 358.034 23.6863 354.711 23.3699 351.546C17.1976 347.193 14.2696 341.26 14.2696 341.18C14.1114 340.786 14.2696 340.31 14.6653 340.073C14.9027 339.994 15.0609 339.994 15.2983 340.073C15.1401 340.073 14.9027 340.073 14.6653 340.073C14.2696 340.231 14.1114 340.786 14.2696 341.18V341.26Z" fill="black"/>
<path d="M28.907 295.778C28.907 295.778 26.0582 301.791 22.3389 305.43C26.0582 301.791 28.986 295.778 28.986 295.778C28.986 295.778 29.2234 295.46 29.4608 295.382C29.2234 295.382 29.0652 295.619 28.986 295.778H28.907Z" fill="black"/>
<path d="M31.98 270.633C31.98 272.611 31.8217 273.877 31.8217 273.877V274.51L32.1383 274.984C32.1383 274.984 39.8933 283.53 39.8933 297.218C39.8933 303.311 38.3106 310.432 33.8001 318.344L33.3253 319.214L34.0375 319.926C34.0375 319.926 43.296 329.816 43.296 346.511C43.296 353.316 41.5551 361.387 37.1237 370.326C41.6342 361.387 43.296 353.316 43.296 346.511C43.296 329.816 34.0375 319.926 34.0375 319.926L33.3253 319.214L33.8001 318.344C38.3106 310.432 39.8933 303.311 39.8933 297.218C39.8933 283.53 32.1383 274.984 32.1383 274.984L31.7427 274.51V273.877C31.7427 273.877 31.98 272.611 31.98 270.633C31.98 264.937 30.6348 255.6 23.0381 255.521C30.6348 255.521 31.98 264.857 31.98 270.554V270.633Z" fill="black"/>
<path d="M30.889 339.256C30.889 339.256 28.8315 344.636 24.875 349.226C28.9107 344.636 30.9682 339.256 30.9682 339.177C31.1264 338.781 31.6012 338.544 31.9969 338.703C31.6012 338.544 31.1264 338.703 30.9682 339.177L30.889 339.256Z" fill="black"/>
<path d="M92.5229 613.504C92.5229 616.193 92.3645 619.676 91.6523 623.315C92.2855 619.676 92.5229 616.193 92.5229 613.504Z" fill="black"/>
<path d="M39.2636 472.108C46.623 471.634 50.7379 486.51 50.7379 486.51V487.063L51.3709 487.38C51.3709 487.38 66.1688 496.162 66.1688 516.734C66.1688 520.848 65.5357 525.437 64.1113 530.501L63.874 531.371L64.5861 531.926C64.5861 531.926 81.2831 545.059 81.2039 568.083C81.2039 571.566 80.65 575.443 79.7796 579.398C80.65 575.363 81.2039 571.566 81.2039 568.083C81.2039 545.059 64.5069 531.926 64.5069 531.926L63.7948 531.371L64.0322 530.501C65.4565 525.437 66.0896 520.848 66.0896 516.734C66.0896 496.241 51.2919 487.38 51.2919 487.38L50.817 487.063V486.51C50.817 486.51 46.623 471.634 39.1846 472.108C38.4724 472.108 37.6811 472.267 36.8105 472.504C37.6811 472.188 38.3932 472.108 39.1846 472.108H39.2636Z" fill="black"/>
<path d="M58.3389 584.301C58.3389 585.567 58.4971 586.913 58.7345 588.099C58.4971 586.833 58.3389 585.567 58.3389 584.301Z" fill="black"/>
<path d="M246.03 157.12C246.503 157.041 247.056 156.961 247.529 156.882C246.978 156.961 246.425 157.041 245.95 157.12H246.03Z" fill="black"/>
<path d="M71.3153 590.942C71.3153 590.942 71.2364 590.547 71.3153 590.31C71.3153 590.547 71.3153 590.706 71.3153 590.942Z" fill="black"/>
<path d="M40.2158 489.069C40.2158 489.069 40.2158 488.596 40.3738 488.437C40.2158 488.596 40.2158 488.831 40.2158 489.069Z" fill="black"/>
<path d="M76.2133 619.844C76.2133 619.844 75.8974 619.528 75.8184 619.37C75.8184 619.607 75.9763 619.765 76.2133 619.844Z" fill="black"/>
<path d="M90.2224 624.057C80.4891 622.078 76.295 619.863 76.2158 619.863C76.2158 619.863 80.4099 622.078 90.2224 624.057Z" fill="black"/>
<path d="M53.6641 562.018C53.6641 562.018 54.1379 562.413 54.4537 562.65C54.1379 562.413 53.9009 562.255 53.6641 562.018Z" fill="black"/>
<path d="M57.3926 564.705C57.3926 564.705 57.7875 564.942 57.9454 565.021C57.7875 564.942 57.5505 564.784 57.3926 564.705Z" fill="black"/>
<path d="M50.8125 559.551C50.8125 559.551 51.3653 560.104 52.155 560.735C51.3653 560.025 50.8125 559.551 50.8125 559.551Z" fill="black"/>
<path d="M62.1407 567.222C62.0615 567.222 61.9825 567.142 61.9033 567.063C61.9825 567.063 62.0615 567.142 62.1407 567.222Z" fill="black"/>
<path d="M53.3541 510.423C53.3541 510.423 52.6419 516.121 49.3184 521.342C52.6419 516.121 53.3541 510.503 53.3541 510.423Z" fill="black"/>
<path d="M50.817 559.615C50.5011 559.3 50.5011 558.825 50.817 558.509C50.5011 558.825 50.5011 559.3 50.817 559.694V559.615Z" fill="black"/>
<path d="M47.7295 521.687C42.4277 501.986 40.1328 489.009 40.1328 488.931C40.1328 488.931 42.4277 501.906 47.7295 521.687Z" fill="black"/>
<path d="M37.1349 515.857C37.1349 515.857 41.8037 520.841 48.2927 523.848C51.537 535.717 55.8101 549.8 61.2703 564.913C55.8101 549.721 51.537 535.637 48.2927 523.769C41.8037 520.683 37.1349 515.778 37.1349 515.698C37.1349 515.698 36.8183 514.907 37.1349 514.591C36.8183 514.907 36.8183 515.382 37.1349 515.778V515.857Z" fill="black"/>
<path d="M115.708 657.3C115.55 649.783 114.917 644.641 114.917 644.482C114.917 644.482 115.55 649.783 115.708 657.3Z" fill="black"/>
<path d="M85.5578 156.65C83.342 148.421 80.7306 135.05 85.8742 129.907C80.7306 135.05 83.342 148.5 85.5578 156.65Z" fill="black"/>
<path d="M470.137 514.664C470.137 514.664 466.179 518.778 460.72 521.706C466.258 518.778 470.137 514.664 470.137 514.664C470.137 514.664 470.927 514.346 471.244 514.664C470.927 514.346 470.374 514.346 470.137 514.664Z" fill="black"/>
<path d="M91.0215 156.335C92.9998 156.335 94.8198 156.492 96.5607 156.651C94.8198 156.414 93.0789 156.335 91.0215 156.335Z" fill="black"/>
<path d="M447.202 564.912C452.503 562.222 456.539 558.423 456.539 558.345C456.539 558.345 452.503 562.143 447.202 564.832V564.912Z" fill="black"/>
<path d="M350.577 706.458C352.718 706.458 354.464 706.378 355.892 706.219C354.464 706.378 352.718 706.458 350.497 706.458H350.577Z" fill="black"/>
<path d="M470.608 404.947C470.608 404.947 473.061 411.752 478.284 416.025C476.938 428.21 475.119 443.005 472.586 459.542C475.119 442.925 476.938 428.13 478.284 415.945C473.061 411.673 470.608 404.947 470.608 404.869C470.45 404.473 470.608 403.998 471.083 403.84C471.32 403.761 471.479 403.84 471.716 403.84C471.557 403.761 471.32 403.761 471.083 403.84C470.687 403.998 470.45 404.473 470.608 404.869V404.947Z" fill="black"/>
<path d="M432.245 619.82C432.641 619.583 432.8 619.108 432.562 618.712C432.8 619.108 432.562 619.583 432.245 619.82C432.245 619.82 428.052 622.035 418.318 624.013C411.117 635.723 402.571 648.382 394.024 658.431C402.571 648.304 411.037 635.644 418.318 624.013C428.052 621.956 432.245 619.82 432.325 619.82H432.245Z" fill="black"/>
<path d="M241.285 128.176L240.811 121.292C235.43 119.71 222.057 116.545 199.503 114.883C221.977 116.545 235.43 119.789 240.811 121.292L241.285 128.097V128.176Z" fill="black"/>
<path d="M443.871 573.696C443.95 573.696 444.107 573.696 444.187 573.855C444.107 573.855 443.95 573.855 443.871 573.696Z" fill="black"/>
<path d="M477.108 491.843L477.266 491.29C477.266 491.29 478.136 488.045 478.136 484.168C478.136 480.291 477.187 476.336 474.259 473.962C477.187 476.336 478.057 480.291 478.136 484.168C478.136 488.045 477.266 491.29 477.266 491.29L477.108 491.843L477.346 492.318C477.346 492.318 481.856 500.23 481.856 510.596C481.856 519.22 478.849 529.347 467.453 538.367L466.741 538.921L467.058 539.792C467.058 539.792 468.958 545.488 468.958 553.4C468.958 564.003 465.475 578.166 449.807 588.134C465.475 578.166 468.958 563.923 468.958 553.321C468.958 545.33 467.058 539.712 467.058 539.712L466.741 538.841L467.453 538.288C478.769 529.269 481.856 519.14 481.856 510.516C481.856 500.151 477.346 492.239 477.346 492.239L477.108 491.765V491.843Z" fill="black"/>
<path d="M284.736 98.9829C280.463 111.801 268.435 121.058 254.19 121.058C239.947 121.058 227.919 111.801 223.646 98.9829C227.839 111.801 239.947 121.058 254.19 121.058C268.435 121.058 280.541 111.801 284.736 98.9829Z" fill="black"/>
<path d="M162.714 122.56C161.764 123.905 161.289 126.437 161.131 129.601C161.289 126.516 161.685 123.984 162.714 122.56Z" fill="black"/>
<path d="M465.554 449.942C465.554 449.942 467.295 456.51 472.282 461.731C467.295 456.588 465.634 450.021 465.554 449.942C465.476 449.546 465.713 449.072 466.109 448.993C466.346 448.993 466.505 448.993 466.742 449.072C466.583 448.993 466.346 448.913 466.109 448.993C465.713 449.072 465.396 449.546 465.554 449.942Z" fill="black"/>
<path d="M456.455 558.417C456.455 558.417 457.245 558.101 457.561 558.417C457.245 558.101 456.771 558.101 456.455 558.417Z" fill="black"/>
<path d="M315.277 723.063C315.277 723.063 315.515 722.747 315.752 722.668C315.515 722.668 315.356 722.906 315.277 723.063Z" fill="black"/>
<path d="M361.958 704.951C361.958 704.951 362.352 704.792 362.511 704.872C362.352 704.872 362.117 704.872 361.958 704.951Z" fill="black"/>
<path d="M380.646 665.317C382.466 665.317 384.127 665.87 385.711 667.454C387.293 669.116 387.847 670.856 387.926 672.912C388.004 679.796 380.012 688.5 380.091 688.5L379.775 688.816V689.37C379.775 689.37 378.746 718.566 350.18 723.709L349.468 723.867L349.151 724.5C349.151 724.5 336.885 752.351 307.053 752.273C336.885 752.273 349.151 724.5 349.151 724.5L349.468 723.867L350.18 723.709C378.746 718.566 379.697 689.449 379.775 689.37V688.816L380.171 688.5C380.171 688.5 388.163 679.796 388.004 672.912C388.004 670.856 387.371 669.116 385.789 667.454C384.286 665.87 382.624 665.317 380.724 665.317H380.646Z" fill="black"/>
<path d="M400.661 625.225L402.006 624.83L401.61 623.642C401.769 592.39 425.35 588.75 425.35 588.67L426.062 588.512L426.379 587.879C426.379 587.879 432.631 575.141 439.674 575.458C440.701 575.458 441.81 575.695 442.997 576.328C443.867 576.803 444.5 577.277 445.055 577.832C444.5 577.277 443.788 576.723 442.997 576.328C441.81 575.695 440.701 575.537 439.674 575.458C432.631 575.141 426.379 587.8 426.379 587.879L426.062 588.512L425.35 588.67C425.35 588.67 401.769 592.469 401.61 623.642L402.006 624.83L400.661 625.225C400.661 625.225 376.051 631.872 372.569 665.023C376.051 631.872 400.661 625.304 400.661 625.225Z" fill="black"/>
<path d="M441.092 553.044C441.092 553.044 441.408 559.77 444.811 566.653C444.019 568.79 443.228 570.926 442.357 573.141C441.486 572.904 440.537 572.745 439.667 572.745C434.998 572.904 431.279 576.069 428.668 579.313C431.358 576.069 434.998 572.824 439.746 572.745C440.616 572.745 441.486 572.904 442.437 573.141C443.307 570.926 444.099 568.79 444.889 566.653C441.486 559.848 441.17 553.281 441.17 553.044C441.17 552.569 441.486 552.253 441.962 552.173C442.199 552.173 442.357 552.173 442.515 552.332C442.357 552.173 442.119 552.095 441.962 552.095C441.486 552.095 441.17 552.491 441.17 552.885L441.092 553.044Z" fill="black"/>
<path d="M393.382 643.878C393.382 643.878 393.539 644.274 393.539 644.511C393.539 644.511 392.828 649.813 392.749 657.408C392.828 649.813 393.539 644.591 393.539 644.591C393.539 644.354 393.539 644.116 393.382 643.958V643.878Z" fill="black"/>
<path d="M436.825 589.817C436.825 589.817 437.38 590.529 437.221 590.925C437.38 590.529 437.221 590.055 436.825 589.817Z" fill="black"/>
<path d="M388.633 680.268C389.662 677.973 390.454 675.442 390.532 672.91C390.532 670.299 389.662 667.688 387.525 665.552C389.108 663.969 390.691 662.228 392.273 660.409C398.92 659.3 406.596 657.007 406.675 657.007C407.071 656.848 407.388 656.452 407.23 655.978C407.23 655.741 406.992 655.582 406.834 655.503C406.992 655.582 407.15 655.741 407.23 655.978C407.388 656.374 407.151 656.848 406.675 657.007C406.675 657.007 398.92 659.3 392.273 660.409C390.691 662.228 389.108 663.969 387.525 665.552C389.662 667.688 390.532 670.299 390.532 672.91C390.532 675.442 389.741 677.974 388.633 680.348V680.268Z" fill="black"/>
<path d="M289.56 751.936C291.3 751.777 293.12 751.619 295.178 751.619C293.12 751.619 291.3 751.777 289.638 751.936H289.56Z" fill="black"/>
<path d="M417.759 608.598C417.759 608.598 417.759 608.123 417.6 607.965C417.759 608.123 417.759 608.361 417.759 608.519C417.759 608.519 417.521 610.497 417.521 613.425C417.521 610.418 417.759 608.519 417.759 608.519V608.598Z" fill="black"/>
<path d="M453.526 510.582C453.526 510.582 454.316 517.466 458.589 523.4C455.345 535.268 451.072 549.272 445.612 564.385C451.072 549.272 455.345 535.189 458.589 523.32C454.316 517.387 453.526 510.502 453.526 510.502C453.526 510.108 453.763 509.712 454.237 509.632C454.475 509.632 454.633 509.632 454.792 509.79C454.633 509.632 454.396 509.553 454.159 509.632C453.763 509.632 453.446 510.108 453.446 510.502L453.526 510.582Z" fill="black"/>
<path d="M350.016 691.537C350.016 691.537 347.167 696.285 347.167 703.96C347.167 704.988 347.167 706.017 347.326 707.203C337.988 716.145 326.671 725.956 313.852 735.054C326.671 725.956 338.066 716.066 347.404 707.125C347.246 705.937 347.246 704.908 347.246 703.881C347.246 696.206 350.016 691.537 350.096 691.459C350.096 691.459 350.411 691.142 350.57 691.142C350.333 691.142 350.174 691.3 350.016 691.537Z" fill="black"/>
<path d="M315.279 723.077C315.279 723.077 312.588 728.932 312.193 736.291C304.676 741.591 296.604 746.497 288.216 750.848C296.604 746.497 304.676 741.513 312.272 736.211C312.668 728.853 315.279 723.156 315.357 722.999L315.279 723.077Z" fill="black"/>
<path d="M319.472 738.106C317.653 738.106 315.516 737.868 313.221 737.473C315.516 737.947 317.653 738.106 319.472 738.106Z" fill="black"/>
<path d="M348.989 705.633C364.577 690.521 373.916 678.574 373.994 678.574C374.153 678.415 374.311 678.336 374.549 678.258C374.311 678.258 374.153 678.336 373.994 678.574C373.994 678.574 364.577 690.6 349.068 705.633H348.989Z" fill="black"/>
<path d="M466.661 488.698C466.661 488.303 467.136 487.986 467.61 488.065C467.847 488.065 468.006 488.223 468.085 488.382C468.006 488.223 467.769 488.065 467.531 488.065C467.136 488.065 466.661 488.303 466.581 488.698H466.661Z" fill="black"/>
<path d="M494.996 296.161C494.996 296.161 495.233 295.845 495.472 295.767C495.233 295.767 495.076 295.924 494.996 296.161Z" fill="black"/>
<path d="M492.697 340.519C492.776 340.282 492.935 340.202 493.172 340.123C492.935 340.123 492.776 340.36 492.697 340.519Z" fill="black"/>
<path d="M332.769 156.398C333.324 153.312 335.223 141.681 334.431 135.589C333.561 128.547 333.482 126.253 313.936 124.908C298.03 123.879 275.082 126.965 267.09 128.073C275.003 126.886 298.03 123.879 313.936 124.908C333.482 126.253 333.561 128.468 334.431 135.589C335.143 141.681 333.324 153.233 332.769 156.398H332.849C333.798 156.398 334.827 156.318 335.856 156.318C336.331 156.318 336.805 156.318 337.28 156.318C336.805 156.318 336.409 156.24 335.856 156.24C334.749 156.24 333.798 156.24 332.769 156.318V156.398Z" fill="black"/>
<path d="M481.297 381.653C481.297 381.653 480.585 393.996 478.527 414.013C480.664 393.996 481.376 381.653 481.376 381.653C481.376 381.178 481.772 380.862 482.247 380.862C481.852 380.862 481.456 381.178 481.376 381.653H481.297Z" fill="black"/>
<path d="M260.043 70.0031L263.842 58.2139C275.317 61.7744 283.863 71.5854 285.841 83.691C283.863 71.5854 275.317 61.7744 263.842 58.1348L260.043 69.9239V70.0031Z" fill="black"/>
<path d="M201.718 127.549C199.266 127.549 196.892 127.549 194.677 127.786C177.584 128.973 177.504 130.16 176.792 135.778C176.476 138.388 176.713 142.661 177.266 147.646C195.23 144.401 216.675 142.186 242.234 141.633L241.522 130.951C234.479 129.923 216.516 127.549 201.718 127.549Z" fill="black"/>
<path d="M313.785 127.786C311.569 127.628 309.195 127.549 306.742 127.549C291.865 127.549 273.981 129.923 266.938 130.951L266.227 141.79C291.707 142.661 313.152 145.193 331.114 148.595C331.669 144.244 332.065 139.18 331.669 135.936C330.957 130.081 330.798 128.894 313.785 127.707V127.786Z" fill="black"/>
<path d="M380.086 128.978C399.631 130.243 412.608 134.437 413.163 141.875C413.479 146.148 412.688 152.239 411.975 156.749C412.688 152.318 413.479 146.148 413.163 141.875C412.688 134.437 399.631 130.323 380.165 128.978H380.086Z" fill="black"/>
<path d="M243.66 122.23C246.984 123.259 250.546 123.892 254.186 123.892C250.703 123.892 247.38 123.259 244.215 122.23C244.056 122.23 243.819 122.23 243.66 122.23Z" fill="black"/>
<path d="M498.229 320.243L497.755 319.452L498.309 318.74C503.532 312.014 505.272 305.21 505.272 298.959C505.272 285.588 497.202 274.747 497.202 274.747L496.963 274.432V274.036C496.963 274.036 496.806 269.21 495.222 264.542C496.806 269.289 496.963 274.036 496.963 274.036V274.432L497.202 274.747C497.202 274.747 505.272 285.588 505.272 298.959C505.272 305.21 503.532 312.014 498.309 318.74L497.755 319.452L498.229 320.243C498.229 320.243 504.165 330.212 504.165 343.9C504.165 352.683 501.712 362.89 493.719 373.176C501.712 362.89 504.165 352.604 504.165 343.822C504.165 330.133 498.309 320.243 498.309 320.243H498.229Z" fill="black"/>
<path d="M417.439 156.335C419.343 156.335 421.247 156.494 422.913 156.652C421.247 156.414 419.422 156.335 417.439 156.335Z" fill="black"/>
<path d="M379.929 131.715C363.945 130.607 353.421 130.37 350.097 130.291C350.334 137.174 349.069 145.878 347.96 152.444C370.751 158.3 386.576 165.658 397.418 172.463C397.181 168.349 398.13 164.866 400.267 162.256C402.246 159.882 405.173 158.3 408.972 157.35V156.638C410.158 150.151 410.554 145.324 410.317 142.158C410.079 138.123 401.929 133.297 379.851 131.873L379.929 131.715Z" fill="black"/>
<path d="M476.082 339.835C476.082 339.835 478.536 346.324 483.521 351.467C478.614 346.324 476.16 339.915 476.082 339.835C476.082 339.835 476.082 338.965 476.556 338.808C476.162 338.965 475.923 339.441 476.082 339.835Z" fill="black"/>
<path d="M471.33 370.27C472.992 365.682 475.999 361.329 481.617 361.013C475.999 361.329 472.992 365.602 471.33 370.192V370.27Z" fill="black"/>
<path d="M491.666 382.854V382.458C491.666 382.458 491.666 381.905 491.666 380.955C491.666 377.078 490.874 367.425 485.177 364.577C490.796 367.425 491.666 376.999 491.587 380.955C491.587 381.905 491.587 382.458 491.587 382.458V382.854L491.825 383.25C491.825 383.25 498.313 393.298 498.313 405.721C498.313 412.921 496.176 420.753 489.451 428.191L488.738 428.903L489.292 429.773C489.292 429.773 494.594 438.793 494.594 451.295C494.594 460.711 491.507 472.024 480.667 482.943C491.429 472.024 494.594 460.711 494.594 451.215C494.594 438.793 489.292 429.695 489.292 429.695L488.738 428.824L489.451 428.111C496.255 420.675 498.313 412.841 498.313 405.642C498.313 393.22 491.825 383.171 491.825 383.171L491.587 382.775L491.666 382.854Z" fill="black"/>
<path d="M482.635 452.017C482.635 452.017 483.348 451.542 483.742 451.78C483.348 451.542 482.872 451.622 482.635 452.017Z" fill="black"/>
<path d="M488.254 405.884C488.254 405.884 485.96 410.632 480.104 414.351C485.96 410.632 488.254 405.806 488.254 405.806C488.254 405.806 488.887 405.251 489.283 405.41C488.887 405.173 488.413 405.41 488.175 405.806L488.254 405.884Z" fill="black"/>
<path d="M478.06 296.384C478.06 296.384 481.463 303.663 486.054 307.462C481.463 303.663 478.06 296.464 478.06 296.384C477.823 295.99 478.06 295.514 478.456 295.277C478.615 295.198 478.852 295.198 479.089 295.277C478.852 295.277 478.694 295.277 478.456 295.277C478.06 295.435 477.902 295.91 478.06 296.384Z" fill="black"/>
<path d="M485.735 272.73C485.735 272.73 486.289 279.298 486.289 292.116C486.289 295.993 486.289 300.344 486.131 305.328C486.289 300.344 486.289 295.914 486.289 292.116C486.289 279.298 485.735 272.889 485.735 272.73C485.735 272.256 486.052 271.94 486.448 271.86C486.052 271.86 485.656 272.336 485.735 272.73Z" fill="black"/>
<path d="M244.46 58.2993C236.863 60.6729 230.533 65.895 226.497 72.6203C230.453 65.895 236.784 60.6729 244.46 58.2993Z" fill="black"/>
<path d="M277.546 316.082L258.871 314.737H258.316C258.791 317.665 259.661 320.276 260.453 322.886C266.863 323.124 273.036 323.915 279.287 323.994C278.654 321.383 278.574 318.614 277.546 316.162V316.082ZM262.59 320.434L261.639 317.665C265.993 317.665 270.503 318.298 274.855 318.376C275.488 319.168 275.647 320.197 275.725 321.067C271.532 321.146 266.863 320.83 262.59 320.434Z" fill="black"/>
<path d="M260.449 302.469C261.952 301.756 263.536 300.411 265.355 300.49C266.068 302.706 265.988 305.08 267.651 306.899C270.103 307.691 272.477 307.295 275.089 306.82C276.434 305.633 276.987 303.814 277.226 302.152C280.945 303.102 284.664 304.21 288.304 305.317L288.541 305.158V302.469C280.233 300.648 272.082 298.592 263.852 297.246L259.263 300.648V301.123C259.42 301.677 259.816 302.389 260.449 302.548V302.469ZM268.758 300.411C270.816 300.57 272.557 301.044 274.456 301.519C274.614 302.548 274.614 303.814 273.98 304.605C272.636 305.396 271.132 305.317 269.55 304.843C268.521 303.655 268.204 302.232 268.204 300.886L268.758 300.411Z" fill="black"/>
<path d="M246.988 364.249C241.292 364.802 235.674 365.593 230.054 366.542C226.257 367.018 222.458 367.888 219.925 371.289L207.66 390.438C208.372 390.912 209.085 391.624 210.034 391.704C213.833 385.453 217.789 379.281 221.903 373.188C223.091 371.922 224.277 370.658 225.861 370.262C232.508 368.521 239.551 367.967 246.355 366.938L247.068 364.723V364.249H246.988Z" fill="black"/>
<path d="M142.935 466.78C142.935 470.657 142.619 473.98 142.778 478.015C145.942 476.116 148.949 474.297 152.115 472.476C152.115 471.685 152.193 470.814 152.115 470.024C152.115 469.154 151.878 468.362 151.56 467.651C148.792 467.175 145.864 467.017 142.935 466.78Z" fill="black"/>
<path d="M366.168 627.902C399.245 584.701 446.486 521.325 450.997 252.627H413.646L434.775 164.169L435.17 162.744L434.142 161.637C432.163 159.58 429.236 158.156 425.674 157.285C429.632 142.568 429.236 132.678 424.567 127.931C416.971 120.335 401.856 118.832 389.59 117.566L385.633 117.171C381.281 116.696 374.951 116.458 366.801 116.458C357.384 116.458 348.124 116.775 346.146 116.854H344.168C339.183 113.214 331.744 111.632 320.665 111.632C317.105 111.632 313.148 111.79 308.796 112.107C293.681 113.214 282.682 115.034 275.402 116.617C283.79 110.208 289.25 100.239 289.25 88.9241C289.25 73.0997 278.646 59.6491 264.085 55.3764V36.0708H280.467V18.5057H264.085V0.0703125H244.54V18.5057H228.16V36.0708H244.54V55.3764C230.059 59.6491 219.376 73.0207 219.376 88.9241C219.376 100.239 224.916 110.208 233.224 116.617C225.943 115.034 214.944 113.294 199.909 112.107C195.558 111.79 191.522 111.632 188.04 111.632C176.882 111.632 169.444 113.214 164.459 116.933H162.479C160.501 116.775 151.243 116.379 141.826 116.379C133.675 116.379 127.266 116.617 122.992 117.091L119.036 117.487C106.849 118.674 91.6559 120.256 84.1383 127.852C78.2825 133.707 80.2608 146.921 83.0305 157.127C79.4696 157.997 76.5416 159.422 74.5634 161.479L73.5346 162.587L73.851 164.01L95.0587 252.469H57.708C62.2186 521.167 109.461 584.544 142.538 627.744C175.616 670.945 216.765 709.081 254.431 732.184C292.099 709.001 333.248 670.945 366.325 627.744L366.168 627.902ZM251.028 684.87C251.504 682.101 251.899 679.094 252.849 676.403C252.612 675.612 252.137 674.9 251.504 674.426C250.871 673.871 250.158 673.475 249.368 673.318L248.735 673.475C245.648 676.562 242.641 679.884 239.08 682.497C237.656 682.258 236.389 681.546 235.203 680.755C234.015 679.884 232.986 678.936 231.957 677.985C229.821 678.224 227.843 679.014 225.943 679.964C227.368 677.195 229.979 674.663 232.353 672.289C233.541 671.102 235.36 670.945 236.785 670.469L248.417 668.571C249.209 667.462 249.13 666.039 249.209 664.693L248.417 663.823C245.094 662.399 241.77 661.133 238.685 659.313C238.367 659.156 238.051 658.917 237.734 658.68C237.022 658.285 236.311 657.889 235.678 657.335C235.203 653.933 236.389 650.53 237.181 647.286C235.598 645.23 233.778 643.251 231.8 641.51C231.8 641.353 231.879 641.036 232.275 641.115C236.468 641.748 240.029 644.121 243.511 646.575C243.987 646.891 244.381 647.208 244.857 647.445C247.943 652.351 250.238 657.176 253.324 662.003L253.957 662.558C257.834 662.558 261.316 661.053 264.561 659.313C265.352 657.415 265.352 654.961 265.352 652.666C266.065 638.821 264.799 624.182 262.662 610.733L260.288 596.965C259.418 594.828 257.597 593.009 256.252 591.189L234.015 567.057C229.505 562.31 225.786 557.563 222.542 552.183C219.851 544.508 220.009 535.804 219.455 527.576L219.851 524.964C227.843 513.096 241.296 505.264 248.655 493.236C250.079 490.625 251.742 488.094 252.295 485.008C252.295 485.008 252.295 485.008 252.216 485.008C251.346 484.533 250.317 484.929 249.368 484.692C244.381 501.544 225.786 509.378 216.844 524.173C216.289 532.876 217.477 541.264 218.822 549.651C220.088 555.031 224.045 559.304 227.052 563.814C223.807 569.431 219.614 574.652 216.765 580.35C216.289 582.565 216.289 584.86 216.289 587.155C212.333 589.685 207.901 591.031 203.471 592.535H202.838C200.305 590.873 197.931 588.736 195.636 586.679C183.291 584.385 171.343 581.141 159.315 578.213C154.724 577.343 150.214 575.998 145.545 577.185C147.524 575.128 151.084 572.753 150.61 569.509C149.106 565.395 147.207 561.519 144.833 557.8L144.437 557.483C140.481 557.958 137.316 560.965 133.201 560.807C129.64 560.648 126.633 560.252 123.546 559.145V558.749C124.971 558.196 127.107 558.749 127.978 557.246L129.64 552.183C133.597 551.154 137.949 551.311 142.142 551.074C142.934 549.729 143.488 548.385 143.963 546.801C139.689 543.795 134.467 543.005 130.035 540.235C130.035 537.782 131.301 535.883 132.646 534.142V533.905C130.906 532.086 128.769 530.661 126.87 529.158C128.453 528.683 130.51 529.316 132.331 529.395C135.02 530.265 137.316 531.848 139.768 533.509C142.855 537.466 146.337 541.501 148.552 546.011C149.977 546.486 151.48 545.615 152.905 545.457C154.013 541.264 153.458 536.674 154.646 532.56C156.94 531.848 159.552 531.373 161.767 531.215C162.638 529.395 163.034 527.259 163.745 525.281C165.329 529.949 164.696 535.488 163.271 539.998C160.738 543.795 157.89 547.593 154.566 550.917C155.991 555.347 157.02 560.094 158.127 564.684C172.213 566.028 185.745 567.453 200.225 568.639V568.323C198.959 564.762 197.218 561.36 196.507 557.563C197.536 542.45 200.701 527.259 205.608 513.413C215.815 506.767 227.131 502.651 238.13 497.984C238.685 494.582 237.577 491.495 237.26 488.252C235.915 482.397 235.044 476.542 233.145 470.845C229.901 465.306 224.916 460.718 220.721 455.812C219.218 451.855 216.844 448.216 216.211 443.786L236.152 420.84L242.403 413.718C241.929 412.928 241.296 412.058 240.425 411.662L239.318 412.77L217.951 437.06L195.24 463.644L175.22 486.59C174.746 485.719 175.22 484.612 174.903 483.504C174.507 481.527 173.4 479.39 171.739 478.283C171.184 477.887 170.551 477.65 169.839 477.491C166.911 476.225 164.063 474.959 160.976 474.169C157.257 479.153 154.171 484.692 148.948 488.647C146.891 488.647 144.912 487.856 142.934 487.461C142.538 496.481 142.775 505.738 142.301 514.679L135.971 514.521C135.971 512.621 136.049 511.118 136.049 509.14C136.049 502.257 136.208 495.768 136.208 488.726C133.834 489.359 131.855 490.705 129.956 492.366C130.906 488.489 133.991 485.404 136.604 482.397L136.761 466.019C135.733 465.386 134.309 465.465 133.121 464.99C131.46 461.984 130.985 458.501 129.165 455.575C127.503 455.02 125.92 455.1 124.1 455.02C124.021 454.942 124.1 454.783 123.942 454.625C125.683 453.754 127.582 453.28 129.481 452.647C132.093 452.488 134.546 452.884 137.157 452.725C137.711 447.345 137.394 441.965 137.711 436.348L138.345 396.866C138.502 388.637 138.66 380.805 138.819 372.259L138.66 372.101L131.855 376.532C129.719 375.662 127.503 374.791 125.604 373.208C123.784 373.921 122.043 375.187 120.618 376.532C120.381 376.532 120.302 376.453 120.144 376.295C121.41 373.051 123.784 370.123 125.683 367.116C129.481 363.794 134.467 362.369 138.978 360.154L139.135 359.441V353.745C135.495 353.349 131.697 353.349 128.294 351.925C126.633 349.473 125.683 346.623 125.366 343.617L124.733 343.142L118.244 341.876C123.309 339.028 129.64 340.294 135.1 341.56C135.733 341.956 136.445 342.272 137.157 342.668C137.87 343.064 138.502 343.459 139.135 344.012C139.452 343.617 139.611 342.984 139.611 342.431C139.611 334.993 139.689 326.606 140.085 319.405H146.337C146.415 328.742 145.941 338.236 145.941 347.415C146.021 347.889 146.337 348.048 146.732 348.048C147.128 348.048 147.524 348.048 147.84 348.126C149.265 348.602 149.502 346.862 150.055 346.07L154.013 336.97C156.149 335.073 160.185 336.97 161.452 333.727C162.163 332.382 162.875 331.037 163.508 329.613C164.774 332.541 163.667 336.18 163.508 339.503L162.401 342.668C159.789 346.229 157.178 350.184 154.171 353.508C153.933 354.061 154.25 354.457 154.724 354.694L162.401 359.045L167.386 359.284L168.889 362.685C179.018 368.304 189.464 372.814 199.514 378.431C198.089 385.63 197.377 393.464 196.348 400.743H195.952L182.263 389.983L161.213 373.604C159.156 373.051 157.02 373.604 154.962 373.367C154.883 373.367 154.803 373.208 154.646 373.208C154.487 373.051 154.329 372.971 154.171 372.892C153.933 372.734 153.695 372.496 153.538 372.259C154.091 370.44 155.12 369.015 155.675 367.195C153.538 365.454 151.084 364.427 148.632 363.239C147.444 363.872 146.337 364.821 145.625 365.93C145.388 396.471 144.359 423.926 143.963 454.783L144.121 455.179C147.207 456.92 150.055 459.135 153.221 460.481L156.149 458.186C154.883 454.387 153.38 450.748 152.192 446.871C152.746 443.944 154.566 441.491 156.702 439.276C156.782 437.06 155.912 434.766 155.436 432.787C159.076 435.162 160.58 439.354 162.163 442.994C162.242 449.166 162.638 456.208 162.638 462.458C165.723 464.436 168.889 466.098 171.976 467.997C174.113 465.386 175.773 462.38 177.673 459.61L193.262 435.003L209.089 409.604L208.693 409.447C204.894 409.842 201.254 410.396 197.218 410.317C199.909 399.24 199.909 386.976 203.708 375.977C210.118 366.405 220.325 359.758 229.109 353.032C236.311 347.573 243.987 342.984 252.691 341.402C258.785 340.216 264.799 339.424 270.733 338.079C272.395 335.863 272.712 333.174 273.424 330.641C273.424 330.641 273.424 330.641 273.345 330.641C269.784 330.167 266.777 330.167 263.058 329.93C260.288 329.534 257.122 329.93 254.431 329.138C255.223 327.08 256.805 325.181 257.756 323.045C257.834 322.492 258.705 321.78 257.834 321.226L252.057 312.918C252.216 311.81 251.267 310.623 252.057 309.674C253.324 308.882 254.511 307.933 255.46 306.983C255.223 306.667 254.827 305.797 254.353 305.56C254.194 305.48 253.957 305.401 253.72 305.56C252.928 306.193 252.216 306.983 251.267 307.222L251.108 303.977C255.302 300.337 259.892 296.936 264.323 293.612L300.249 301.524C301.516 301.209 302.782 300.813 303.968 300.18H303.89L302.782 299.705L264.719 291.397C264.244 285.463 263.848 279.134 263.69 272.962C264.403 273.199 265.114 273.595 265.669 274.069C266.302 274.544 266.855 275.177 267.41 275.731C268.359 274.544 269.942 273.991 271.524 274.385C271.999 274.465 272.316 274.702 272.712 274.939C273.028 275.255 273.345 275.573 273.661 275.968C274.057 276.839 274.453 278.025 274.057 279.054C273.345 280.161 272.236 281.664 270.813 281.586C269.705 282.06 268.676 279.845 268.121 281.744C268.359 283.959 268.992 286.174 270.417 287.995C274.294 289.419 278.33 290.447 282.841 290.368C284.977 289.181 286.639 287.044 288.459 285.304C288.537 284.751 288.459 284.196 287.984 283.959C287.114 284.671 285.53 284.671 284.503 284.277C283.236 283.643 282.445 282.297 282.366 280.794C282.366 279.687 283.156 278.816 284.027 278.025C285.214 277.234 286.559 277.63 287.667 278.262C287.984 278.501 288.38 278.658 288.617 278.895C289.725 277.472 291.228 276.206 293.206 276.127C293.998 276.284 294.869 276.68 295.58 277.234C296.293 277.867 296.847 278.658 297.005 279.528C297.005 280.082 297.084 280.32 297.321 280.398C297.876 280.794 299.22 280.004 299.934 280.398C301.437 281.111 302.227 282.535 302.227 284.118C301.99 285.384 301.278 286.65 300.091 287.124C299.3 287.599 298.191 287.836 297.321 287.599C297.005 287.362 296.609 287.203 296.293 286.887C295.976 286.57 295.66 286.254 295.502 285.78C295.264 285.541 294.79 285.78 294.631 285.937C293.84 287.916 295.184 289.894 295.58 291.713C295.818 292.505 296.293 293.059 296.768 293.453C297.797 294.324 299.379 294.562 300.804 294.878C300.961 294.878 301.12 294.878 301.278 294.957C301.674 295.037 302.07 295.115 302.465 295.274C304.523 295.353 306.738 296.381 308.875 295.986C310.774 295.115 312.436 293.612 314.098 292.187C314.255 291.793 314.098 291.554 313.94 291.397C313.544 291.001 312.119 291.397 311.566 290.923C311.17 290.764 310.853 290.527 310.615 290.21C310.615 290.21 310.615 290.21 310.537 290.21C310.221 289.814 309.982 289.419 309.825 288.944C309.588 287.915 309.745 286.57 310.299 285.7C311.248 284.751 312.673 284.038 314.018 284.038C314.414 284.038 314.81 284.196 315.126 284.434C316.155 285.067 316.868 286.254 317.421 287.203C318.291 287.44 318.766 286.333 319.716 286.333C320.587 286.017 321.773 285.7 322.802 286.017C319.558 291.16 316.235 296.856 312.199 301.209C308.955 301.92 305.868 302.79 302.941 303.977C303.335 304.768 303.89 305.48 304.681 305.797C307.608 305.638 309.982 303.424 313.069 304.215C313.94 304.452 314.731 304.927 315.522 305.48C316.313 306.034 317.025 306.589 317.817 307.063C318.291 309.437 318.45 312.365 316.629 314.184C315.126 316.242 313.069 317.902 311.566 319.96C311.566 339.503 305.868 357.305 296.768 373.367C292.653 380.883 287.747 388.004 284.423 395.916C283.394 398.844 282.523 401.772 282.523 405.095L277.222 402.642L276.905 402.88C276.035 429.86 276.113 457.711 275.402 484.849C279.279 488.726 282.286 493.157 284.503 497.747C295.66 521.087 305.156 545.141 320.191 566.82C321.932 569.272 323.99 571.33 326.205 573.07C332.931 578.135 341.714 579.875 350.498 578.372C360.391 576.473 370.994 568.719 373.605 558.353C375.189 549.967 372.972 541.501 369.965 534.063C361.657 517.369 351.29 501.544 342.427 485.008C335.939 472.348 329.766 457.868 333.96 442.757C336.651 432.787 344.09 424.717 352.24 417.913C369.253 402.721 388.72 390.932 405.496 374.95C413.409 366.72 420.294 357.622 421.56 346.307C423.379 334.281 421.718 321.542 412.302 313.392C411.431 312.602 410.481 311.81 409.532 311.099C402.805 306.351 393.784 304.768 385.95 307.459C379.303 309.753 372.419 314.975 370.598 322.175C369.649 325.418 370.282 328.584 370.757 331.749C371.548 332.303 372.656 332.303 373.605 332.303C373.764 332.303 373.922 332.303 374.08 332.303C374.318 332.303 374.634 332.303 374.871 332.382C377.641 332.856 380.489 333.094 383.102 334.201C384.367 335.467 385.159 337.05 386.109 338.632C387.928 342.113 389.906 345.674 390.698 349.63C390.777 356.435 389.432 362.685 388.324 369.094L387.691 371.468C387.691 371.468 387.454 371.548 387.295 371.548C387.217 363.635 384.051 356.672 379.066 350.739C378.116 350.659 377.087 350.501 376.059 350.58C376.849 357.385 379.936 367.116 373.289 372.259C364.821 380.409 355.247 386.659 346.226 393.464C340.369 398.132 334.673 402.801 330.162 408.893C330.004 408.893 329.766 409.13 329.608 408.971C334.91 392.119 347.65 378.272 358.411 363.714C360.311 362.211 359.52 359.678 359.599 357.779C359.282 355.882 359.045 353.824 358.649 352.005C356.988 352.399 355.563 353.745 354.06 354.616C350.974 357.068 347.65 359.996 344.96 363.081C344.88 363.081 344.723 363.081 344.643 362.844C348.046 353.349 352.24 344.171 359.203 336.18C358.017 324.944 360.944 314.658 369.728 307.538C379.936 298.518 395.604 296.381 408.028 301.84C410.324 302.79 412.617 303.977 414.675 305.56C421.085 310.148 426.308 317.19 427.89 324.47C430.581 335.151 431.055 347.811 427.099 358.018C421.481 375.74 406.762 389.824 393.468 403.513C387.928 409.209 382.547 414.431 378.749 421.156L378.907 421.315H379.066C382.389 420.682 386.109 420.286 389.353 419.812C395.763 420.365 401.856 421.868 407.791 422.977L400.907 426.379L369.016 441.412C368.066 443.864 367.117 446.396 366.958 449.007C366.958 449.007 367.038 449.007 367.117 449.007C367.117 449.007 367.117 449.086 367.117 449.166C369.016 449.166 370.994 448.454 372.893 448.058C376.533 447.504 380.095 446.318 383.892 446.318C389.59 447.583 394.971 448.533 400.589 449.958L399.719 450.511L365.613 466.81C365.534 468.946 365.534 471.082 366.088 473.14H366.246V473.219H366.642C369.649 473.14 372.419 471.874 375.346 472.586C380.489 473.93 385.792 475.039 391.094 476.067C383.496 479.865 375.742 483.346 368.224 487.303C370.598 505.975 380.332 521.72 383.181 540.235C385.633 556.138 379.066 572.359 365.217 580.983C352.793 588.578 335.384 589.844 322.643 581.932C322.09 581.616 321.536 581.141 320.903 580.824C314.177 576.631 308.479 570.301 303.968 563.814L284.107 534.618C283.315 533.826 284.027 532.481 283.632 531.373C283.474 520.454 283.236 509.219 278.726 499.725L278.33 499.566C277.538 500.674 277.38 501.94 276.827 503.127C279.438 509.378 279.992 516.42 280.467 523.382L281.178 551.866C281.257 559.304 281.337 566.583 282.366 573.941C283.474 579.954 283.078 586.759 286.797 591.902L290.437 596.333C290.833 600.604 290.041 605.353 289.25 609.467C287.984 611.286 286.481 612.789 284.977 614.451C283.315 627.981 282.603 641.906 281.337 655.753C280.941 662.003 281.496 667.542 282.049 673.475C279.992 672.131 278.013 670.232 275.876 668.887C275.164 668.412 274.373 668.017 273.582 667.621C272.079 666.909 270.733 668.095 269.388 668.728L261 675.059C260.683 676.482 261.237 677.985 261.712 679.251C262.503 681.942 263.69 684.474 264.165 687.401C261.87 689.537 259.259 690.803 256.648 692.307C256.648 695.076 256.885 697.925 256.805 700.377C254.035 695.709 250.475 690.962 251.82 685.027L251.028 684.87ZM248.735 317.269C249.368 318.219 250.317 319.168 251.028 320.118C244.699 319.723 237.734 319.011 230.93 318.378C228.793 317.665 226.577 316.479 224.757 314.975C224.677 314.184 224.677 313.629 225.31 313.076C225.786 312.68 226.498 312.68 226.894 313.076L230.138 315.133C236.231 316.479 242.325 316.399 248.655 317.19L248.735 317.269ZM145.782 292.267L145.625 297.569H138.978C139.215 295.748 138.819 293.691 139.215 291.95L145.782 292.187V292.267ZM80.8939 276.284C95.5335 286.491 109.777 298.676 128.057 299.942C134.309 300.258 140.956 300.258 146.811 300.417C148.077 300.654 149.185 300.576 150.373 300.576C150.451 305.797 150.135 310.781 150.135 316.242C142.775 316.479 134.942 316.242 127.82 316.242C117.611 316.32 110.331 323.758 103.368 330.641L95.7708 339.107C86.4331 322.412 80.9731 304.057 80.6565 283.801C80.5773 282.535 80.5773 281.19 80.5773 279.924C80.5773 278.658 80.7357 277.392 80.8147 276.206L80.8939 276.284ZM432.163 163.536L410.877 252.627H97.7491L76.3834 163.536C78.8365 160.925 83.2679 159.106 91.0228 159.106C108.274 159.106 109.144 168.126 108.036 174.533C106.929 180.942 97.1161 190.438 97.1161 190.438L98.3822 193.207C100.44 191.228 108.669 182.208 115.871 181.971C119.194 181.892 122.28 183.554 124.496 188.539C131.617 204.52 120.223 215.282 113.892 215.282C107.482 215.282 97.5909 203.413 97.5909 203.413L95.929 204.838C104.08 233.559 124.813 233.559 131.776 233.559C138.74 233.559 159.552 233.559 167.703 204.838L165.962 203.413C165.803 203.572 156.149 215.282 149.739 215.282C143.33 215.282 132.093 204.52 139.135 188.539C141.352 183.554 144.437 181.892 147.681 181.971C154.883 182.208 163.112 191.071 165.249 193.207L166.515 190.438C166.515 190.438 156.702 180.942 155.595 174.533C154.487 168.126 155.436 159.106 172.609 159.106C189.781 159.106 190.808 168.126 189.622 174.533C188.515 180.942 178.702 190.438 178.702 190.438L179.968 193.207C182.025 191.228 190.255 182.208 197.456 181.971C200.78 181.892 203.865 183.554 206.082 188.539C213.204 204.52 201.887 215.282 195.478 215.282C189.068 215.282 179.256 203.413 179.256 203.413L177.514 204.838C185.665 233.559 206.398 233.559 213.362 233.559C220.247 233.559 241.058 233.559 249.209 204.838L247.468 203.413C247.31 203.572 237.577 215.282 231.246 215.282C224.836 215.282 213.52 204.52 220.643 188.539C222.858 183.554 225.943 181.892 229.189 181.971C236.389 182.208 244.62 191.071 246.677 193.207L247.943 190.438C247.943 190.438 238.13 180.942 237.022 174.533C235.915 168.126 236.864 159.106 254.035 159.106C271.208 159.106 272.236 168.126 271.128 174.533C270.021 180.942 260.208 190.438 260.208 190.438L261.474 193.207C263.532 191.228 271.762 182.208 278.963 181.971C282.286 181.892 285.373 183.554 287.588 188.539C294.71 204.52 283.394 215.282 276.984 215.282C270.575 215.282 260.763 203.413 260.763 203.413L259.022 204.838C267.172 233.559 287.904 233.559 294.869 233.559C301.832 233.559 322.565 233.559 330.795 204.838L329.053 203.413C328.896 203.572 319.162 215.282 312.832 215.282C306.422 215.282 295.106 204.52 302.227 188.539C304.444 183.554 307.53 181.892 310.774 181.971C317.976 182.208 326.205 191.071 328.341 193.207L329.608 190.438C329.608 190.438 319.795 180.942 318.687 174.533C317.58 168.126 318.529 159.106 335.7 159.106C352.952 159.106 353.901 168.126 352.715 174.533C351.686 180.942 341.794 190.438 341.794 190.438L343.061 193.207C345.117 191.228 353.348 182.208 360.548 181.971C363.872 181.892 366.958 183.554 369.175 188.539C376.296 204.52 364.98 215.282 358.57 215.282C352.16 215.282 342.347 203.413 342.347 203.413L340.607 204.838C348.757 233.559 369.49 233.559 376.455 233.559C383.418 233.559 404.151 233.559 412.302 204.838L410.561 203.413C410.402 203.572 400.669 215.282 394.338 215.282C387.928 215.282 376.612 204.52 383.735 188.539C385.95 183.554 389.036 181.892 392.28 181.971C399.482 182.208 407.711 191.071 409.848 193.207L411.114 190.438C411.114 190.438 401.301 180.942 400.194 174.533C399.086 168.126 400.036 159.106 417.208 159.106C424.963 159.106 429.393 160.925 431.847 163.536H432.163ZM123.546 213.303C123.546 213.303 123.863 212.909 124.021 212.67C123.863 212.829 123.705 213.066 123.546 213.303ZM111.043 170.341C110.885 167.097 109.936 164.327 108.116 162.112C106.137 159.737 103.209 158.156 99.411 157.207V156.494C98.2239 150.006 97.8283 145.18 98.0657 142.015C98.3822 137.98 106.533 133.232 128.532 131.729C144.517 130.621 154.962 130.384 158.365 130.305C158.127 136.872 159.235 145.1 160.264 151.272C137.711 156.731 121.885 163.853 110.964 170.419L111.043 170.341ZM254.194 123.817C254.194 123.817 254.194 123.817 254.274 123.817C257.834 123.817 261.158 123.105 264.403 122.155C264.481 122.155 264.64 122.155 264.719 122.155L262.425 157.127C261.792 156.969 261.078 156.889 260.367 156.811C259.892 156.811 259.496 156.652 259.022 156.574C258.785 156.574 258.546 156.574 258.23 156.574C256.964 156.494 255.698 156.415 254.353 156.415C253.008 156.415 251.742 156.415 250.554 156.574C250.317 156.574 250.001 156.574 249.764 156.574C249.764 156.574 249.684 156.574 249.605 156.574C248.972 156.652 248.339 156.811 247.784 156.889C247.31 156.969 246.755 157.048 246.281 157.127L243.907 122.155C243.907 122.155 244.303 122.155 244.461 122.155C247.627 123.105 250.95 123.817 254.431 123.817H254.194ZM331.111 148.661C313.148 145.18 291.783 142.727 266.222 141.857L266.935 131.017C273.977 129.988 291.862 127.615 306.738 127.615C309.192 127.615 311.566 127.615 313.781 127.852C330.874 129.039 330.953 130.226 331.666 136.081C332.06 139.324 331.666 144.389 331.111 148.74V148.661ZM177.277 147.632C176.724 142.568 176.487 138.376 176.802 135.764C177.514 130.147 177.673 128.96 194.687 127.773C196.902 127.615 199.276 127.536 201.729 127.536C216.527 127.536 234.49 129.909 241.533 130.938L242.245 141.619C216.685 142.174 195.24 144.389 177.277 147.632ZM409.136 156.494V157.207C405.259 158.156 402.33 159.737 400.352 162.112C398.137 164.723 397.187 168.204 397.504 172.318C386.662 165.513 370.835 158.156 348.046 152.301C349.153 145.733 350.419 137.03 350.182 130.147C353.505 130.226 364.031 130.542 380.015 131.571C402.093 133.074 410.244 137.901 410.481 141.857C410.718 145.022 410.324 149.927 409.295 156.336L409.136 156.494ZM365.139 119.228C366.721 119.228 368.304 119.228 369.886 119.228C374.634 119.228 379.382 119.386 382.943 119.703C383.735 119.703 384.525 119.861 385.159 119.94C397.741 121.285 414.754 122.234 422.43 129.909C427.574 135.052 424.963 148.424 422.747 156.652C421.085 156.415 419.265 156.336 417.287 156.336C415.309 156.336 413.488 156.494 411.747 156.652C412.46 152.221 413.251 146.051 412.935 141.778C412.46 134.34 399.403 130.226 379.856 128.881C363.792 127.773 349.786 127.377 349.786 127.377C349.47 123.738 348.124 121.206 346.858 119.544C346.858 119.544 355.404 119.228 364.901 119.228H365.139ZM345.75 122.551C349.708 128.089 345.276 151.984 344.247 157.207C343.139 156.969 341.953 156.811 340.765 156.574C340.528 156.574 340.291 156.574 339.974 156.574C339.183 156.494 338.233 156.494 337.362 156.415C336.888 156.415 336.492 156.415 335.939 156.415C334.91 156.415 333.881 156.415 332.931 156.494H332.852C333.406 153.33 335.306 141.778 334.514 135.685C333.644 128.643 333.564 126.349 314.018 125.004C298.113 123.975 275.164 127.061 267.172 128.169L267.568 121.285C272.949 119.703 286.322 116.538 308.875 114.876C332.615 113.056 341.32 116.3 345.75 122.551ZM285.848 83.7021C286.085 84.968 286.243 86.3131 286.322 87.6582H260.049V70.0139L263.848 58.2248C275.323 61.7853 283.948 71.6756 285.848 83.7812V83.7021ZM230.85 33.3014V21.2749H247.231V2.83957H261.237V21.2749H277.617V33.3014H261.237V54.5853C260.129 54.3478 259.022 54.1896 257.834 54.1105C256.727 53.9523 255.619 53.9523 254.431 53.9523C254.431 53.9523 254.353 53.9523 254.274 53.9523H254.115C253.008 53.9523 251.82 53.9523 250.713 54.1105C249.525 54.1896 248.417 54.427 247.388 54.5853V33.3014H231.008H230.85ZM244.461 58.2248L247.151 66.6908L248.18 70.0139V87.6582H222.066C222.303 82.1988 223.887 77.0558 226.498 72.625C230.454 65.8206 236.785 60.6776 244.461 58.2248ZM222.146 90.4274H251.028V69.2227L247.231 57.4336C249.446 56.9589 251.82 56.6425 254.194 56.6425C256.568 56.6425 258.863 56.9589 261.078 57.3545L257.281 69.1437V90.3483H286.322C286.243 92.3263 286.006 94.2253 285.53 96.1242H222.936C222.542 94.3044 222.225 92.3263 222.146 90.3483V90.4274ZM223.728 98.9726H284.819C280.624 111.79 268.517 121.047 254.274 121.047C240.029 121.047 227.923 111.79 223.728 98.9726ZM162.716 122.551C167.148 116.3 175.853 113.056 199.592 114.876C222.066 116.538 235.519 119.782 240.9 121.285L241.374 128.169C233.461 126.982 210.434 123.896 194.529 125.004C174.983 126.349 174.903 128.643 174.033 135.685C173.954 136.476 173.874 137.267 173.874 138.217C173.717 144.547 175.22 153.724 175.695 156.494C174.824 156.494 173.874 156.494 172.925 156.415C172.846 156.415 172.766 156.415 172.688 156.415C171.263 156.415 169.918 156.494 168.652 156.652C168.652 156.652 168.573 156.652 168.493 156.652C168.336 156.652 168.256 156.652 168.099 156.652C168.099 156.652 167.94 156.652 167.86 156.652C166.595 156.811 165.408 156.969 164.22 157.285C163.508 153.883 161.452 142.568 161.134 133.549V133.391C161.134 132.125 161.134 130.859 161.134 129.672C161.293 126.586 161.689 124.054 162.716 122.63V122.551ZM85.8793 129.909C93.5552 122.234 110.569 121.285 123.151 119.94C123.863 119.861 124.575 119.782 125.446 119.703C130.273 119.307 136.998 119.228 143.33 119.228C152.825 119.228 161.372 119.544 161.372 119.544C160.105 121.206 158.76 123.738 158.443 127.377C158.443 127.377 144.517 127.773 128.373 128.881C108.828 130.147 95.85 134.34 95.3752 141.778C95.0587 146.051 95.85 152.142 96.5622 156.652C94.8213 156.415 93.0803 156.336 91.0228 156.336C89.1237 156.336 87.3828 156.494 85.721 156.652C85.721 156.652 85.6418 156.652 85.5628 156.652C83.347 148.424 80.7357 135.052 85.8793 129.909Z" fill="black"/>
<path d="M234.092 171.202C234.092 170.808 234.17 170.492 234.17 170.096L234.092 171.202Z" fill="black"/>
<path d="M124.097 212.754C124.097 212.754 123.781 213.149 123.623 213.386L124.097 212.754Z" fill="black"/>
<path d="M238.604 659.205C238.604 659.205 237.972 658.81 237.656 658.573L238.604 659.205Z" fill="black"/>
<path d="M309.264 311.249C309.344 312.436 309.581 313.781 310.134 314.73C311.876 313.385 313.458 311.723 313.221 309.43C312.429 308.321 311.163 308.084 309.977 307.609C308.711 308.005 307.444 308.321 306.257 308.797C307.127 309.746 308.236 310.457 309.264 311.249Z" fill="black"/>
<path d="M501.012 319.717C506.156 312.753 507.975 305.554 507.975 298.987C507.975 285.853 501.012 275.408 499.668 273.509C499.429 270.424 498.401 253.333 485.501 252.78C474.898 253.017 473.791 264.885 473.791 270.503C473.791 271.849 473.791 272.876 473.869 273.509C472.207 275.567 465.799 284.191 465.799 297.087C465.799 303.418 467.381 310.776 471.813 318.688C469.596 321.379 462.474 331.269 462.474 346.302C462.474 354.293 464.533 363.63 470.229 374.073C469.596 377.081 469.359 379.691 469.28 380.878C467.064 382.698 458.123 390.768 458.123 405.326C458.123 411.182 459.626 417.985 463.503 425.819C460.812 428.667 451.633 439.666 451.633 457.151C451.633 464.035 453.136 471.868 456.935 480.571C456.143 482.55 455.59 484.29 455.353 485.161C452.82 486.901 439.763 496.633 439.685 516.493C439.685 520.607 440.238 525.197 441.584 530.181C438.339 533.029 424.57 546.243 424.57 567.843C424.57 572.273 425.203 577.02 426.548 582.085C425.52 583.746 424.728 585.17 424.333 585.961C420.296 586.912 399.406 593.399 399.01 622.754C394.025 624.494 372.185 634.225 369.731 666.586C366.804 668.564 364.587 670.622 363.717 671.492C359.919 671.492 335.862 673.55 331.669 702.191C325.812 702.904 297.878 708.284 289.965 742.386C288.857 747.528 283.714 751.484 279.678 753.937C275.959 755.282 274.138 756.707 274.06 756.864C273.585 757.34 273.348 757.893 273.585 758.447C273.823 759 274.297 759.239 274.852 759.239C275.009 759.239 275.167 759.239 275.326 759.159C275.722 759 276.038 758.843 276.355 758.684C276.592 758.606 276.83 758.447 277.225 758.289C279.203 757.418 281.181 756.548 283.159 755.599C286.168 754.808 290.124 754.175 295.189 754.096C297.167 754.096 299.303 754.253 301.597 754.49C303.418 754.649 305.237 754.728 306.9 754.728C335.942 754.728 349.078 730.359 351.214 726.006C379.069 720.389 381.997 693.726 382.313 689.769C383.105 688.899 385.083 686.525 386.982 683.518C420.771 674.261 424.254 645.462 424.65 639.923C444.274 631.615 447.281 613.338 447.202 603.527C447.202 600.361 446.885 598.068 446.806 597.198C447.202 596.406 448.073 594.348 448.864 591.816C467.54 581.293 471.654 564.915 471.654 553.285C471.654 546.796 470.466 541.653 469.913 539.675C481.387 530.34 484.631 519.421 484.631 510.401C484.631 500.748 481.071 493.23 480.042 491.252C480.201 490.462 480.516 488.72 480.754 486.664C493.732 474.638 497.451 461.661 497.451 451.059C497.451 440.14 493.573 431.754 492.229 429.063C498.954 421.388 501.171 413.001 501.171 405.485C501.171 393.537 495.71 383.884 494.524 381.906C494.524 381.669 494.524 381.273 494.524 380.72C494.524 379.77 494.524 378.267 494.285 376.605C503.939 365.212 506.946 353.501 506.946 343.611C506.946 331.426 502.516 322.09 501.091 319.4L501.012 319.717ZM380.018 688.504L379.702 688.899V689.453C379.702 689.453 378.673 718.649 350.107 723.792L349.393 723.95L349.077 724.583C349.077 724.583 336.812 752.434 306.98 752.354C305.317 752.354 303.655 752.276 301.914 752.117C299.541 751.88 297.325 751.801 295.267 751.801C293.209 751.801 291.39 751.96 289.649 752.117C297.959 747.766 305.87 742.86 313.309 737.638C315.605 738.113 317.741 738.271 319.561 738.271C323.755 738.271 326.366 737.401 326.445 737.401C326.841 737.243 327.078 736.768 327 736.372C326.841 735.976 326.366 735.739 325.97 735.818C325.97 735.818 323.597 736.531 319.641 736.531C318.374 736.531 316.871 736.372 315.287 736.214C328.187 727.035 339.661 717.067 348.919 708.126H350.66C359.919 708.126 362.689 706.544 362.846 706.385C363.242 706.148 363.321 705.673 363.164 705.278C363.005 705.04 362.846 704.96 362.609 704.882C362.45 704.882 362.213 704.882 362.056 704.96C362.056 704.96 361.66 705.198 360.868 705.436C360.868 705.436 360.71 705.436 360.631 705.436C360.394 705.436 360.157 705.593 359.761 705.673C359.523 705.673 359.286 705.752 359.049 705.831C358.81 705.831 358.573 705.911 358.257 705.989C358.02 705.989 357.783 705.989 357.545 706.068C357.15 706.068 356.754 706.148 356.199 706.226C356.199 706.226 356.04 706.226 355.962 706.226C354.537 706.385 352.796 706.464 350.66 706.464H350.581C366.012 691.431 375.27 679.642 375.35 679.563C375.587 679.167 375.587 678.693 375.192 678.455C375.033 678.297 374.796 678.297 374.558 678.297C374.321 678.297 374.163 678.455 374.004 678.613C374.004 678.613 364.587 690.639 348.999 705.673C348.999 705.119 348.919 704.486 348.919 703.931C348.919 696.654 351.53 692.381 351.53 692.381C351.769 691.985 351.61 691.511 351.214 691.272C350.977 691.193 350.818 691.115 350.581 691.193C350.422 691.193 350.185 691.352 350.107 691.589C350.107 691.589 347.258 696.336 347.258 704.011C347.258 704.96 347.258 706.068 347.415 707.255C338.079 716.196 326.684 726.008 313.864 735.185C314.417 728.856 316.712 723.95 316.712 723.95C316.871 723.554 316.712 723.08 316.316 722.843C316.079 722.763 315.92 722.763 315.683 722.843C315.525 722.843 315.287 723.08 315.209 723.238C315.209 723.396 312.518 729.093 312.123 736.451C304.526 741.752 296.534 746.658 288.066 751.089C290.045 748.953 291.706 746.421 292.419 743.414C300.807 707.097 332.698 705.277 332.776 705.197H333.884L334.043 704.011C337.683 675.449 361.343 674.736 363.875 674.579L364.508 674.736L365.063 674.183C365.063 674.183 373.767 665.4 380.494 665.557C382.313 665.557 383.975 666.112 385.557 667.694C387.141 669.356 387.694 671.096 387.774 673.154C387.853 680.037 379.861 688.741 379.939 688.741L380.018 688.504ZM387.535 665.557C389.119 663.976 390.701 662.235 392.285 660.415C398.932 659.307 406.606 657.014 406.686 657.014C407.082 656.855 407.398 656.459 407.239 655.985C407.239 655.747 407.002 655.589 406.844 655.51C406.686 655.43 406.449 655.352 406.212 655.51C406.212 655.51 399.959 657.408 394.025 658.517C402.572 648.388 411.117 635.729 418.319 624.098C428.051 622.041 432.246 619.904 432.246 619.904C432.642 619.667 432.8 619.193 432.562 618.797C432.325 618.401 431.85 618.244 431.454 618.481C431.454 618.481 427.894 620.3 419.426 622.199C429.793 605.267 437.152 591.026 437.152 591.026C437.311 590.63 437.152 590.156 436.756 589.918C436.361 589.68 435.886 589.918 435.649 590.234C435.649 590.234 428.29 604.397 418.081 621.17C417.685 618.401 417.527 615.711 417.527 613.575C417.527 610.569 417.764 608.669 417.764 608.669C417.764 608.432 417.764 608.274 417.607 608.115C417.448 607.958 417.289 607.878 417.052 607.799C416.656 607.799 416.182 608.036 416.182 608.511C416.182 608.511 415.945 610.569 415.945 613.654C415.945 616.345 416.103 619.826 416.815 623.465C409.613 635.017 401.226 647.518 392.838 657.488C392.918 649.891 393.629 644.67 393.629 644.591C393.629 644.354 393.629 644.195 393.471 643.958C393.312 643.8 393.155 643.641 392.918 643.641C392.442 643.641 392.046 643.878 392.046 644.354C392.046 644.354 391.256 650.683 391.256 659.387C389.672 661.206 388.011 663.027 386.428 664.609C384.687 663.343 382.709 662.709 380.731 662.709C377.961 662.709 375.192 663.738 372.738 665.083C376.221 631.932 400.83 625.364 400.83 625.286L402.176 624.89L401.78 623.702C401.939 592.449 425.52 588.809 425.52 588.731L426.232 588.572L426.548 587.939C426.548 587.939 432.879 575.201 439.842 575.517C440.871 575.517 441.979 575.754 443.166 576.387C444.037 576.783 444.67 577.338 445.224 577.891C446.885 579.632 447.44 581.847 447.518 584.458C447.518 590.234 444.274 596.643 444.274 596.643L444.115 597.039V597.513C444.115 597.513 444.591 599.966 444.591 603.844C444.591 613.338 441.9 630.507 422.908 638.102L422.037 638.42V639.29C422.037 639.29 421.721 669.989 388.723 680.433C389.752 678.06 390.542 675.606 390.622 672.995C390.622 670.385 389.752 667.774 387.615 665.637L387.535 665.557ZM481.861 510.558C481.861 519.183 478.776 529.311 467.46 538.33L466.748 538.883L467.064 539.754C467.064 539.754 468.963 545.451 468.963 553.363C468.963 563.965 465.482 578.208 449.813 588.176C450.051 586.912 450.209 585.646 450.209 584.38C450.209 580.423 448.784 576.071 444.353 573.856C444.274 573.856 444.115 573.856 444.037 573.698C444.828 571.562 445.699 569.347 446.489 567.21C452.899 564.441 457.727 559.535 457.805 559.535C458.123 559.218 458.123 558.665 457.805 558.428C457.49 558.11 457.015 558.11 456.698 558.428C456.698 558.428 452.662 562.305 447.361 564.994C452.82 549.882 457.094 535.798 460.338 523.931C466.826 520.844 471.495 515.938 471.574 515.86C471.891 515.544 471.891 515.068 471.574 514.752C471.258 514.435 470.784 514.435 470.467 514.752C470.467 514.752 466.511 518.866 461.05 521.794C466.352 502.093 468.567 489.116 468.567 489.116C468.567 488.879 468.567 488.642 468.41 488.483C468.251 488.326 468.093 488.167 467.934 488.167C467.54 488.087 467.064 488.405 466.985 488.8C466.985 488.8 464.69 501.776 459.468 521.398C456.143 516.175 455.512 510.479 455.512 510.479C455.512 510.242 455.353 510.084 455.194 509.925C455.036 509.846 454.798 509.768 454.64 509.768C454.245 509.768 453.928 510.242 453.928 510.638C453.928 510.638 454.72 517.522 458.993 523.455C455.749 535.324 451.475 549.328 446.015 564.519C443.403 558.506 443.166 553.048 443.166 553.048C443.166 552.809 443.088 552.652 442.849 552.493C442.692 552.334 442.533 552.256 442.296 552.335C441.821 552.335 441.504 552.73 441.504 553.205C441.504 553.442 441.821 559.931 445.224 566.814C444.433 568.951 443.641 571.087 442.77 573.302C441.9 573.065 440.951 572.906 440.081 572.906C435.412 573.065 431.691 576.23 429.002 579.474C428.131 575.517 427.577 571.72 427.577 568.159C427.577 545.135 444.274 532.159 444.274 532L444.986 531.447L444.748 530.577C443.325 525.512 442.692 520.844 442.692 516.808C442.692 496.317 457.568 487.613 457.49 487.454L457.964 487.138L458.123 486.584C458.123 486.584 462.237 471.71 469.596 472.184C470.309 472.184 471.1 472.264 471.97 472.58C473.079 472.897 473.869 473.45 474.581 474.083C477.509 476.457 478.46 480.414 478.46 484.29C478.46 488.167 477.59 491.411 477.59 491.411L477.431 491.966L477.668 492.44C477.668 492.44 482.179 500.352 482.179 510.717L481.861 510.558ZM498.401 405.722C498.401 412.923 496.265 420.755 489.537 428.193L488.826 428.904L489.38 429.775C489.38 429.775 494.681 438.794 494.681 451.297C494.681 460.712 491.515 472.027 480.754 483.024C480.597 479.385 479.567 475.191 476.48 472.421C475.847 471.868 474.977 471.472 474.107 471.077C473.632 470.839 473.236 470.444 472.683 470.206C473.158 467.437 473.554 464.826 473.949 462.135C480.279 458.576 483.998 453.196 484.078 453.116C484.315 452.72 484.237 452.245 483.919 452.008C483.523 451.771 483.049 451.85 482.812 452.245C482.812 452.245 479.646 456.755 474.344 460.079C476.876 443.622 478.697 428.904 480.042 416.719C487.085 412.685 489.855 406.909 489.855 406.829C490.012 406.434 489.855 405.959 489.459 405.722C489.063 405.485 488.588 405.722 488.43 406.118C488.43 406.118 486.135 410.945 480.279 414.663C482.416 394.487 483.128 382.065 483.128 382.065C483.128 381.828 483.128 381.591 482.89 381.511C482.733 381.352 482.575 381.273 482.337 381.273C481.941 381.273 481.546 381.591 481.467 382.065C481.467 382.065 480.754 394.407 478.617 414.426C474.344 410.469 472.287 404.773 472.207 404.773C472.129 404.536 471.97 404.377 471.813 404.299C471.654 404.219 471.417 404.219 471.18 404.299C470.784 404.456 470.547 404.93 470.704 405.326C470.704 405.326 473.158 412.131 478.38 416.404C477.035 428.589 475.214 443.384 472.683 459.999C468.726 455.332 467.302 449.952 467.222 449.952C467.222 449.713 466.985 449.556 466.826 449.476C466.669 449.397 466.43 449.319 466.193 449.397C465.799 449.476 465.482 449.952 465.64 450.346C465.64 450.346 467.381 456.914 472.366 462.135C471.97 464.748 471.574 467.437 471.1 470.128C470.467 469.969 469.833 469.811 469.28 469.811C464.137 470.048 460.734 473.846 458.597 477.801C455.669 470.365 454.402 463.639 454.402 457.706C454.402 438.557 466.193 427.718 466.193 427.638L466.906 426.927L466.43 425.978C462.396 418.144 460.971 411.498 460.971 405.881C460.971 390.768 471.496 383.331 471.496 383.251L472.05 382.855V382.224C472.05 382.224 472.287 377.555 473.632 372.887C475.057 368.14 477.668 364.104 481.783 364.183C482.1 364.183 482.416 364.183 482.733 364.183C483.761 364.263 484.631 364.578 485.423 364.974C491.041 367.822 491.911 377.475 491.911 381.352C491.911 382.302 491.911 382.855 491.911 382.855V383.251L492.149 383.647C492.149 383.647 498.638 393.696 498.638 406.118L498.401 405.722ZM493.652 373.202C492.625 368.298 490.012 363.075 484.157 361.493C484.474 358.091 484.79 354.767 485.027 351.603C491.2 347.251 494.128 341.317 494.128 341.237C494.285 340.842 494.128 340.367 493.732 340.13C493.495 340.051 493.258 340.051 493.099 340.13C492.94 340.13 492.703 340.367 492.625 340.526C492.625 340.526 490.171 345.432 485.186 349.387C486.611 332.772 487.322 318.847 487.638 307.532C488.747 306.583 493.415 302.31 496.343 296.93C496.581 296.534 496.343 296.059 496.027 295.821C495.789 295.743 495.632 295.664 495.394 295.821C495.236 295.821 494.998 295.98 494.918 296.217C492.782 300.174 489.538 303.576 487.718 305.317C487.877 300.411 487.877 295.98 487.877 292.182C487.877 279.207 487.322 272.719 487.322 272.639C487.322 272.165 486.926 271.849 486.452 271.849C486.056 271.849 485.74 272.323 485.74 272.719C485.74 272.876 486.293 279.285 486.293 292.103C486.293 295.98 486.293 300.331 486.135 305.317C482.416 301.677 479.568 295.664 479.568 295.664C479.488 295.427 479.25 295.347 479.093 295.268C478.934 295.268 478.697 295.268 478.46 295.268C478.064 295.427 477.905 295.901 478.064 296.376C478.064 296.376 481.467 303.655 486.056 307.453C485.74 318.688 485.027 332.614 483.604 349.23C479.567 344.64 477.59 339.26 477.59 339.26C477.431 338.864 476.956 338.627 476.561 338.785C476.165 338.944 475.927 339.418 476.086 339.814C476.086 339.814 478.539 346.302 483.523 351.445C483.286 354.53 482.97 357.774 482.653 361.097C482.337 361.097 482.02 361.097 481.704 361.097C476.086 361.413 473.078 365.766 471.417 370.354C466.985 361.413 465.244 353.422 465.244 346.539C465.244 329.844 474.583 320.033 474.502 319.954L475.214 319.242L474.74 318.372C470.229 310.46 468.647 303.338 468.647 297.246C468.647 283.558 476.48 275.092 476.48 275.012L476.876 274.538V273.905C476.876 273.905 476.639 272.639 476.639 270.661C476.639 264.964 477.984 255.628 485.581 255.628C490.884 255.628 493.732 259.821 495.394 264.648C496.976 269.395 497.135 274.142 497.135 274.142V274.538L497.372 274.855C497.372 274.855 505.443 285.694 505.443 299.067C505.443 305.317 503.702 312.12 498.48 318.847L497.925 319.558L498.401 320.35C498.401 320.35 504.335 330.319 504.257 343.928C504.257 352.711 501.803 362.997 493.811 373.202H493.652Z" fill="black"/>
<path d="M358.158 706C358.158 706 357.685 706 357.447 706.079L358.158 706Z" fill="black"/>
<path d="M359.679 705.672C359.679 705.672 359.206 705.75 358.969 705.829L359.679 705.672Z" fill="black"/>
<path d="M234.565 756.999C234.565 756.999 232.665 755.495 228.867 754.071C224.752 751.619 219.687 747.662 218.579 742.519C210.746 708.417 182.811 703.037 176.877 702.326C172.604 673.683 148.705 671.627 144.828 671.627C143.957 670.756 141.662 668.62 138.814 666.721C136.361 634.28 114.441 624.549 109.456 622.887C109.06 593.533 88.1692 587.045 84.1335 586.096C83.7379 585.304 82.9465 583.88 81.9178 582.218C83.2629 577.155 83.8961 572.408 83.8961 567.977C83.8961 546.376 70.2061 533.164 66.8825 530.314C68.2278 525.33 68.7818 520.741 68.7818 516.626C68.7818 496.767 55.7249 486.956 53.1135 485.294C52.8761 484.424 52.3222 482.683 51.5308 480.705C55.3292 472.002 56.8327 464.169 56.8327 457.286C56.8327 439.799 47.6533 428.802 44.9629 425.952C48.8404 418.199 50.2647 411.315 50.2647 405.461C50.2647 390.902 41.3228 382.753 39.1071 381.012C39.0279 379.825 38.7905 377.135 38.1574 374.207C43.855 363.843 45.9124 354.427 45.9124 346.515C45.9124 331.482 38.7905 321.591 36.5747 318.823C41.0062 310.91 42.5097 303.551 42.5097 297.222C42.5097 284.326 36.1 275.622 34.4382 273.564C34.4382 272.931 34.5173 271.903 34.5173 270.637C34.5173 265.019 33.4095 253.072 22.8849 252.835C9.98623 253.309 8.87833 270.4 8.64094 273.485C7.29579 275.384 0.332063 285.907 0.25293 298.963C0.25293 305.529 2.07298 312.73 7.21662 319.693C5.79215 322.382 1.36079 331.719 1.36079 343.904C1.36079 353.714 4.28868 365.503 14.022 376.818C13.8637 378.48 13.7846 379.983 13.7846 380.932C13.7846 381.408 13.7846 381.802 13.7846 382.12C12.5976 384.097 7.13744 393.75 7.13744 405.698C7.13744 413.136 9.35324 421.523 16.1586 429.276C14.8133 431.966 10.9358 440.274 10.9358 451.271C10.9358 461.874 14.6551 474.85 27.6328 486.797C27.7911 488.934 28.1867 490.596 28.3449 491.387C27.3163 493.365 23.7553 500.881 23.7553 510.534C23.7553 519.554 26.9998 530.473 38.474 539.81C37.92 541.788 36.7331 546.85 36.7331 553.339C36.7331 564.97 40.7688 581.348 59.4441 591.871C60.2354 594.403 61.1059 596.461 61.5015 597.252C61.3433 598.201 61.1059 600.496 61.1059 603.581C61.1059 613.393 63.9547 631.669 83.6587 639.977C84.0543 645.436 87.5362 674.316 121.326 683.573C123.146 686.66 125.203 688.953 125.995 689.825C126.311 693.78 129.239 720.524 157.093 726.063C159.23 730.414 172.367 754.704 201.408 754.784C203.148 754.784 204.889 754.704 206.71 754.545C209.005 754.308 211.142 754.229 213.12 754.229C218.342 754.229 222.299 754.941 225.306 755.811C227.126 756.681 229.025 757.473 230.846 758.265C232.111 758.898 232.983 759.214 232.983 759.214C233.14 759.214 233.298 759.294 233.457 759.294C234.01 759.294 234.486 758.976 234.723 758.423C234.961 757.869 234.723 757.314 234.247 756.999H234.565ZM12.9142 265.573C12.9142 265.573 13.1516 264.861 13.2306 264.465C14.8925 259.718 17.7413 255.446 23.0431 255.446C30.7189 255.446 31.9851 264.781 31.9851 270.557C31.9851 272.536 31.8268 273.801 31.8268 273.801V274.434L32.1434 274.91C32.1434 274.91 39.8983 283.454 39.8983 297.142C39.8983 303.235 38.3158 310.356 33.8051 318.268L33.3303 319.139L34.0425 319.85C34.0425 319.85 43.301 329.74 43.301 346.435C43.301 353.24 41.5601 361.311 37.1287 370.251C35.467 365.662 32.4598 361.311 26.8414 361.074C26.525 361.074 26.2084 361.074 25.8919 361.074C25.5753 357.75 25.2589 354.506 25.0214 351.421C30.0068 346.278 32.3808 339.789 32.4598 339.789C32.6182 339.393 32.4598 338.919 31.9851 338.761C31.5895 338.603 31.1147 338.761 30.9563 339.236C30.9563 339.236 28.8989 344.616 24.8632 349.284C23.4388 332.668 22.7265 318.821 22.4101 307.587C26.9998 303.788 30.4024 296.509 30.4024 296.509C30.5607 296.115 30.4024 295.639 30.0068 295.402C29.7694 295.323 29.6112 295.323 29.3737 295.402C29.2154 295.402 28.9781 295.639 28.8989 295.797C28.8989 295.797 25.9711 301.889 22.2518 305.45C22.0935 300.466 22.0935 296.035 22.0935 292.236C22.0935 279.34 22.6475 272.852 22.6475 272.852C22.6475 272.378 22.3309 271.982 21.9352 271.982C21.4604 271.982 21.0648 272.298 21.0648 272.694C21.0648 272.694 20.5109 279.261 20.5109 292.236C20.5109 296.035 20.5109 300.466 20.6691 305.372C18.849 303.631 15.6046 300.229 13.468 296.272C13.389 296.035 13.1516 295.956 12.9932 295.876C12.835 295.876 12.5976 295.876 12.4393 295.876C12.0437 296.115 11.8855 296.589 12.1229 296.985C15.0507 302.285 19.6404 306.558 20.8274 307.587C21.144 318.901 21.8562 332.827 23.2805 349.442C18.2952 345.486 15.9212 340.58 15.842 340.58C15.763 340.343 15.5255 340.265 15.3672 340.185C15.209 340.185 14.9716 340.185 14.7343 340.185C14.3385 340.343 14.1803 340.898 14.3385 341.292C14.3385 341.292 17.2665 347.305 23.4388 351.658C23.7553 354.822 23.9926 358.146 24.3884 361.548C18.5326 363.13 15.9212 368.353 14.8925 373.257C6.90005 363.051 4.44695 352.765 4.44695 344.061C4.44695 330.373 10.3818 320.483 10.3818 320.405L10.8567 319.613L10.3028 318.901C5.07999 312.255 3.33909 305.45 3.33909 299.2C3.33909 285.829 11.4106 275.067 11.4106 274.989L11.6481 274.673V274.277C11.6481 274.277 11.8063 270.953 12.7558 267.155C12.835 266.68 12.9932 266.285 13.1516 265.81L12.9142 265.573ZM27.7911 482.842C17.0291 471.923 13.9429 460.608 13.8637 451.193C13.8637 438.77 19.2448 429.751 19.1656 429.672L19.6404 428.802L19.0074 428.089C12.2019 420.731 10.0654 412.819 10.0654 405.618C10.0654 393.196 16.5542 383.149 16.5542 383.149L16.7917 382.753V382.278C16.7917 382.278 16.7917 381.724 16.7917 380.854C16.7917 379.746 16.7917 378.163 17.0291 376.422C17.3455 373.812 18.0578 370.726 19.4821 368.353C20.8274 365.899 22.8849 364.08 25.9711 363.763C26.2876 363.763 26.604 363.684 26.9998 363.684C31.1937 363.684 33.7261 367.72 35.1504 372.387C36.5747 377.055 36.7331 381.724 36.7331 381.724V382.357L37.287 382.753C37.287 382.753 47.8117 390.269 47.7325 405.381C47.7325 410.999 46.3082 417.646 42.2723 425.478L41.7975 426.348L42.5889 427.061C42.5889 427.061 54.3004 437.979 54.3004 457.127C54.3004 463.06 53.1135 469.787 50.1065 477.224C47.8907 473.268 44.5671 469.469 39.3445 469.232C38.7905 469.232 38.1574 469.391 37.5244 469.549C37.1287 466.859 36.6539 464.169 36.2583 461.557C38.1574 459.579 39.5027 457.443 40.5314 455.544C42.2723 452.38 42.9054 449.768 42.9054 449.768C42.9845 449.294 42.7471 448.898 42.3515 448.819C41.9557 448.66 41.481 448.978 41.4019 449.374C41.4019 449.374 40.294 453.566 37.3661 457.68C36.9705 458.235 36.4957 458.868 36.0209 459.422C33.4886 442.806 31.6686 428.01 30.3233 415.904C32.3016 414.322 33.8843 412.344 35.0712 410.524C37.0496 407.517 37.9992 404.828 37.9992 404.828C38.1574 404.432 37.92 403.957 37.5244 403.799C37.1287 403.64 36.6539 403.799 36.4957 404.273C36.4957 404.273 36.4957 404.353 36.4165 404.51C35.9417 405.698 33.8843 410.445 30.165 413.926C28.0285 393.909 27.3163 381.565 27.3163 381.487C27.3163 381.012 26.9206 380.695 26.4458 380.695C26.2084 380.695 26.0501 380.854 25.8919 381.012C25.7337 381.169 25.6545 381.328 25.6545 381.565C25.6545 381.724 26.3667 394.146 28.5033 414.243C22.6475 410.524 20.4317 405.698 20.3527 405.698C20.1153 405.302 19.6404 405.144 19.2448 405.302C19.0074 405.381 18.9282 405.539 18.849 405.777C18.849 405.935 18.849 406.172 18.849 406.41C18.849 406.49 21.6188 412.264 28.6615 416.3C30.0068 428.406 31.8268 443.202 34.3591 459.659C29.0572 456.336 25.9711 451.826 25.8919 451.826C25.6545 451.43 25.1005 451.351 24.784 451.588C24.4676 451.826 24.3884 452.3 24.6258 452.696C24.6258 452.696 28.3449 458.076 34.7548 461.716C35.1504 464.326 35.6252 467.017 36.0209 469.787C34.4382 470.34 33.1721 471.131 32.1434 472.082C29.0572 474.85 28.0285 479.044 27.8702 482.683L27.7911 482.842ZM58.7319 588.152C43.0636 578.184 39.6609 564.021 39.5819 553.339C39.5819 545.427 41.481 539.73 41.481 539.73L41.7975 538.86L41.0854 538.307C29.6902 529.285 26.6832 519.158 26.6832 510.613C26.6832 500.248 31.1937 492.415 31.1937 492.336L31.4311 491.862L31.2729 491.307C31.2729 491.307 30.4024 488.063 30.4024 484.187C30.4024 480.547 31.1147 476.749 33.7261 474.296C34.5965 473.505 35.6252 472.872 36.9705 472.476C37.8408 472.16 38.5531 472.082 39.3445 472.082C46.7038 471.606 50.8187 486.481 50.8187 486.481V487.034L51.4517 487.352C51.4517 487.352 66.2495 496.213 66.2495 516.706C66.2495 520.82 65.6956 525.409 64.1921 530.473L63.9547 531.343L64.6669 531.898C64.6669 531.898 81.3638 545.031 81.3638 568.055C81.3638 571.538 80.8099 575.414 79.9394 579.37C77.2489 576.126 73.5296 572.961 68.8609 572.804C67.9904 572.804 67.1199 572.961 66.1704 573.198C65.379 571.062 64.5086 568.847 63.7173 566.71C67.1991 559.748 67.4365 553.181 67.4365 553.102C67.4365 552.626 67.1199 552.311 66.6451 552.311C66.4077 552.311 66.2495 552.311 66.0912 552.548C65.933 552.706 65.8538 552.864 65.8538 553.102C65.8538 553.102 65.8538 553.418 65.8538 554.051C65.8538 554.606 65.6956 555.396 65.5374 556.346C65.5374 556.425 65.5374 556.503 65.5374 556.583C65.5374 556.742 65.5374 556.899 65.4582 557.058C65.0625 559.115 64.3503 561.805 63.0842 564.574C57.624 549.463 53.3509 535.379 50.1065 523.511C54.3796 517.576 55.171 510.693 55.171 510.613C55.171 510.138 54.8544 509.822 54.4588 509.742C54.2214 509.742 53.984 509.743 53.8257 509.901C53.6675 510.06 53.5883 510.218 53.5091 510.456C53.5091 510.456 52.7969 516.152 49.4734 521.374C44.2507 501.752 41.9557 488.775 41.9557 488.775C41.8767 488.301 41.481 488.063 41.0062 488.142C40.7688 488.142 40.6106 488.301 40.4522 488.459C40.3732 488.618 40.294 488.855 40.294 489.092C40.294 489.092 42.5889 502.147 47.8907 521.849C42.4307 518.921 38.474 514.807 38.474 514.807C38.1574 514.49 37.6826 514.49 37.3661 514.807C37.0496 515.123 37.0496 515.598 37.3661 515.914C37.3661 515.914 42.0349 520.899 48.5238 523.905C51.7682 535.774 56.0415 549.857 61.5015 565.049C56.1997 562.359 52.164 558.482 52.164 558.482C51.8474 558.165 51.3726 558.165 51.0561 558.482C50.7395 558.798 50.7395 559.273 51.0561 559.59C51.0561 559.59 51.61 560.064 52.4013 560.776C52.7969 561.172 53.3509 561.568 53.9048 562.042C54.1422 562.279 54.3796 562.438 54.6962 562.675C55.5666 563.308 56.5162 564.021 57.624 564.733C57.7824 564.811 58.0197 564.97 58.1779 565.049C59.365 565.762 60.7102 566.473 62.1346 567.106C62.2138 567.106 62.2928 567.185 62.372 567.265C63.1634 569.401 63.9547 571.538 64.8251 573.753C64.6669 573.753 64.5877 573.753 64.4295 573.911C63.3216 574.464 62.372 575.177 61.6599 575.889C59.365 578.184 58.5737 581.348 58.5737 584.354C58.5737 585.62 58.7319 586.966 58.9693 588.152H58.7319ZM86.5075 639.107V638.237L85.637 637.92C66.6451 630.403 63.9547 613.234 63.9547 603.74C63.9547 599.863 64.4295 597.409 64.4295 597.409V596.935H64.5087L64.2711 596.539C64.2711 596.539 61.0267 590.13 61.0267 584.354C61.0267 580.873 62.0555 577.947 65.379 576.285C66.5661 575.652 67.6739 575.414 68.7026 575.414C72.1053 575.256 75.2707 578.104 77.6445 581.19C79.8604 583.96 81.3638 586.728 81.8386 587.519C81.8386 587.678 81.9968 587.837 81.9968 587.837L82.3134 588.47L83.0256 588.627C83.0256 588.627 106.686 592.425 106.765 623.837V624.945L107.794 625.26C107.794 625.26 132.404 631.907 135.887 665.059C133.433 663.714 130.663 662.764 127.815 662.686C125.836 662.686 123.858 663.239 122.117 664.505C120.534 662.923 118.952 661.182 117.29 659.362C117.29 650.659 116.499 644.329 116.499 644.329C116.499 643.854 116.024 643.617 115.628 643.617C115.153 643.617 114.837 644.092 114.916 644.487C114.916 644.566 115.549 649.789 115.707 657.305C115.707 657.305 115.707 657.305 115.707 657.384C107.319 647.415 98.8522 634.913 91.7301 623.361C92.3633 619.722 92.6007 616.241 92.6007 613.551C92.6007 610.465 92.3633 608.487 92.3633 608.408C92.3633 607.932 91.8885 607.617 91.4927 607.695C91.018 607.695 90.7014 608.171 90.7806 608.566C90.7806 608.566 91.018 610.545 91.018 613.471C91.018 615.608 90.8598 618.298 90.464 621.068C80.2559 604.293 72.8967 590.13 72.8967 590.13C72.6593 589.736 72.1845 589.577 71.7888 589.814C71.5514 589.893 71.4722 590.13 71.3932 590.289C71.3932 590.526 71.3932 590.685 71.3932 590.922C71.3932 590.922 78.7524 605.165 89.1189 622.097C80.6517 620.197 77.0907 618.298 77.0907 618.377C76.695 618.14 76.2202 618.377 75.9828 618.694C75.9037 618.931 75.9037 619.089 75.9828 619.327C75.9828 619.484 76.1411 619.722 76.3784 619.802C76.3784 619.802 80.5725 622.017 90.385 623.994C97.5861 635.705 106.132 648.364 114.679 658.491C108.665 657.305 102.413 655.485 102.413 655.485C102.017 655.328 101.543 655.644 101.384 656.039C101.226 656.435 101.543 656.91 101.938 657.068C101.938 657.068 109.693 659.362 116.341 660.471C117.923 662.29 119.506 664.03 121.088 665.614C118.952 667.75 118.081 670.361 118.16 672.971C118.16 675.504 118.952 678.034 119.98 680.409C111.751 677.797 105.499 673.92 100.91 669.569C86.9031 656.514 86.7449 639.266 86.7449 639.266L86.5075 639.107ZM220.4 750.905C219.055 750.194 217.789 749.404 216.523 748.691C211.932 746.158 207.58 743.548 203.228 740.778C200.933 739.275 198.559 737.852 196.344 736.268C195.948 728.91 193.257 723.135 193.257 723.056C193.178 722.817 192.941 722.66 192.783 722.66C192.624 722.66 192.387 722.66 192.149 722.66C191.754 722.897 191.595 723.372 191.754 723.768C191.754 723.768 193.97 728.673 194.602 735.002C181.784 725.904 170.387 716.014 161.129 707.073C161.209 705.965 161.288 704.858 161.288 703.908C161.288 696.232 158.518 691.565 158.518 691.485C158.439 691.328 158.202 691.17 158.043 691.09C157.806 691.09 157.648 691.09 157.41 691.17C157.014 691.407 156.856 691.881 157.093 692.277C157.093 692.277 159.706 696.55 159.706 703.829C159.706 704.382 159.706 704.936 159.626 705.491C144.116 690.378 134.699 678.51 134.699 678.43C134.541 678.273 134.383 678.114 134.145 678.114C133.907 678.114 133.75 678.114 133.592 678.273C133.274 678.589 133.196 679.063 133.433 679.459C133.433 679.459 142.771 691.327 158.202 706.361H158.043C149.022 706.361 146.727 704.778 146.649 704.858C146.253 704.621 145.778 704.778 145.541 705.174C145.302 705.569 145.461 706.044 145.778 706.281C145.778 706.281 145.857 706.281 145.935 706.361C146.727 706.756 149.814 707.943 157.965 707.943C158.518 707.943 159.151 707.943 159.706 707.943C169.042 716.884 180.437 726.853 193.337 736.031C191.754 736.268 190.25 736.427 188.984 736.427C185.028 736.427 182.654 735.635 182.654 735.635C182.179 735.478 181.784 735.715 181.625 736.19C181.466 736.586 181.704 737.06 182.179 737.219C182.179 737.219 184.869 738.089 188.984 738.089C190.805 738.089 192.941 737.93 195.235 737.456C202.674 742.677 210.666 747.583 218.897 751.934C217.156 751.777 215.335 751.619 213.278 751.619C211.22 751.619 209.005 751.697 206.631 751.934C204.889 752.093 203.228 752.172 201.566 752.172C192.228 752.172 184.632 749.482 178.539 745.764C165.245 737.534 159.468 724.401 159.388 724.401L159.072 723.768L158.359 723.689C152.978 722.739 148.627 720.92 144.986 718.625C129.397 708.655 128.764 689.429 128.764 689.349V688.796L128.369 688.4C128.369 688.4 125.757 685.552 123.621 681.833C121.959 679.063 120.534 675.819 120.614 672.813C120.614 670.756 121.168 669.015 122.829 667.354C124.333 665.771 125.995 665.218 127.894 665.218C129.556 665.218 131.376 665.692 133.196 666.484C135.015 667.274 136.757 668.381 138.261 669.49C139.21 670.202 140.001 670.835 140.713 671.388C141.979 672.417 142.85 673.287 143.167 673.604C143.246 673.683 143.404 673.842 143.404 673.842L144.037 674.475L144.671 674.237C145.461 674.237 147.439 674.396 150.051 674.949C157.965 676.611 171.654 682.546 174.423 703.67L174.582 704.778H175.69C175.69 704.778 177.668 704.936 180.833 705.648C190.25 707.864 209.717 715.777 216.048 742.995C216.76 746.001 218.422 748.532 220.479 750.668L220.4 750.905Z" fill="black"/>
<path d="M65.7016 553.904C65.7016 554.457 65.5437 555.246 65.3857 556.193L65.7016 553.904Z" fill="black"/>
<path d="M65.2996 556.481C65.2996 556.481 65.2996 556.797 65.2207 556.954L65.2996 556.481Z" fill="black"/>
<path d="M810.662 306.345V514.198H750.759V306.345H684.921V259.031H876.5V306.345H810.662Z" fill="black"/>
<path d="M1025.5 518.63C949.694 518.63 890.107 469.417 890.107 386.972C890.107 304.527 949.694 254.918 1025.5 254.918C1101.31 254.918 1160.9 304.448 1160.9 386.972C1160.9 469.496 1101.31 518.63 1025.5 518.63ZM1025.5 306.03C982.93 306.03 950.802 336.73 950.802 385.549C950.802 434.366 983.009 465.461 1025.5 465.461C1068 465.461 1100.2 434.366 1100.2 385.549C1100.2 336.73 1068 306.03 1025.5 306.03Z" fill="black"/>
<path d="M1212.96 514.198V259.031H1272.55V464.668H1360.94V514.198H1212.96Z" fill="black"/>
<path d="M1406.44 514.198V259.031H1466.03V464.668H1554.41V514.198H1406.44Z" fill="black"/>
<path d="M1599.84 514.198V259.031H1765.16V306.74H1659.35V358.883H1744.27V406.592H1659.35V465.775H1768.48V514.198H1599.84Z" fill="black"/>
<path d="M1927.85 306.345V514.198H1867.95V306.345H1802.11V259.031H1993.69V306.345H1927.85Z" fill="black"/>
<path d="M2175.69 514.21L2157.57 462.781H2066.57L2048.45 514.21H1986.33L2082.48 258.646H2144.6L2240.73 514.21H2175.61H2175.69ZM2112.07 324.475L2080.26 416.178H2143.88L2112.07 324.475Z" fill="black"/>
<path d="M2355.41 306.345V514.198H2295.51V306.345H2229.67V259.031H2421.25V306.345H2355.41Z" fill="black"/>
<path d="M2464.43 514.198V259.031H2629.75V306.74H2523.94V358.883H2608.86V406.592H2523.94V465.775H2633.07V514.198H2464.43Z" fill="black"/>
<path d="M2857.97 514.223L2745.91 341.104C2745.91 341.104 2747.02 371.803 2747.02 398.784V514.143H2688.54V258.976H2752.57L2862 430.59C2862 430.59 2860.89 401.712 2860.89 374.731V258.976H2919.37V514.143H2857.97V514.223Z" fill="black"/>
<path d="M793.799 732.039L713.954 621.743C713.954 621.743 714.35 640.416 714.35 658.455V732.039H695.12V593.655H715.616L794.037 702.368C794.037 702.368 793.878 685.279 793.878 667.08V593.655H812.949V732.039H793.878H793.799Z" fill="black"/>
<path d="M913.212 734.441C874.278 734.441 841.754 707.382 841.754 662.994C841.754 618.607 874.278 591.626 913.212 591.626C952.144 591.626 984.589 618.686 984.589 662.994C984.589 707.303 952.065 734.441 913.212 734.441ZM913.212 608.479C884.882 608.479 861.617 628.734 861.617 662.599C861.617 696.463 885.12 716.797 913.212 716.797C941.304 716.797 964.726 696.384 964.726 662.599C964.726 628.813 941.462 608.479 913.212 608.479Z" fill="black"/>
<path d="M1083.74 732.039L1047.66 672.461H1032.78V732.039H1013.31V593.655H1052.4C1077.09 593.655 1099.17 605.048 1099.17 632.583C1099.17 656.873 1082.32 667.713 1067.68 670.483L1107.16 732.039H1083.66H1083.74ZM1070.29 614.464C1064.04 609.875 1056.68 609.479 1047.02 609.479H1032.78V656.399H1047.02C1056.68 656.399 1064.11 656.003 1070.29 651.572C1076.54 646.983 1079.15 641.366 1079.15 632.899C1079.15 624.434 1076.54 618.895 1070.29 614.464Z" fill="black"/>
<path d="M1259.89 732.222H1240.82L1207.5 620.264L1174.43 732.222H1155.36L1115.47 593.6H1135.97L1165.88 702.709L1197.77 593.6H1217.63L1249.52 702.709L1279.44 593.6H1299.93L1260.05 732.222H1259.89Z" fill="black"/>
<path d="M1326.12 732.039V593.655H1407.15V609.875H1345.58V651.177H1403.74V667.633H1345.58V715.582H1408.81V732.039H1326.12Z" fill="black"/>
<path d="M1501.48 734.441C1462 734.441 1430.89 705.957 1430.89 662.836C1430.89 619.715 1462 591.626 1501.32 591.626C1536.85 591.626 1552.04 610.299 1557.26 615.679L1544.05 627.943C1535.83 618.29 1523.01 608.241 1501.32 608.241C1472.84 608.241 1450.99 628.734 1450.99 662.836C1450.99 696.937 1473.71 717.43 1502.51 717.43C1531.32 717.43 1541.44 704.771 1541.44 704.771V674.07H1504.09V658.247H1560.28V711.97C1557.67 714.581 1540.81 734.441 1501.48 734.441Z" fill="black"/>
<path d="M1592.56 732.039V593.655H1612.03V732.039H1592.56Z" fill="black"/>
<path d="M1745.84 732.05L1731.59 695.971H1672.25L1658 732.05H1637.51L1693.86 593.271H1710.87L1767.45 732.05H1745.76H1745.84ZM1701.93 617.483L1677.63 679.672H1726.21L1701.93 617.483Z" fill="black"/>
<path d="M1891.91 732.039L1812.06 621.743C1812.06 621.743 1812.47 640.416 1812.47 658.455V732.039H1793.23V593.655H1813.73L1892.15 702.368C1892.15 702.368 1891.91 685.279 1891.91 667.08V593.655H1910.99V732.039H1891.91Z" fill="black"/>
<path d="M2064.44 734.441C2024.08 734.441 1993.85 706.194 1993.85 662.994C1993.85 619.793 2024.95 591.626 2064.68 591.626C2090.55 591.626 2106.22 602.465 2113.81 609.903L2105.59 625.569C2100.21 618.764 2084.7 608.717 2065.46 608.717C2035.56 608.717 2013.96 630.159 2013.96 662.677C2013.96 695.197 2035.79 716.639 2065.46 716.639C2083.74 716.639 2097.75 709.596 2106.78 699.785L2115.16 714.028C2106.54 723.681 2090.7 734.521 2064.44 734.521V734.441Z" fill="black"/>
<path d="M2234.4 717.559C2224.98 728.4 2211.14 734.413 2192.86 734.413C2174.58 734.413 2160.57 728.4 2151.31 717.559C2141.66 706.325 2140.08 692.715 2140.08 675.467V593.655H2159.7V673.727C2159.7 685.357 2159.86 696.592 2166.1 704.821C2171.73 712.416 2180.75 717.085 2192.78 717.085C2204.81 717.085 2213.67 712.496 2219.45 704.821C2225.61 696.592 2225.85 685.12 2225.85 673.727V593.655H2245.32V675.467C2245.32 692.715 2243.74 706.325 2234.32 717.559H2234.4Z" fill="black"/>
<path d="M2316.23 734.393C2291.94 734.393 2278.09 718.726 2271.52 711.131L2283 698.075C2290.03 707.491 2303.09 717.935 2318.12 717.935C2333.16 717.935 2345.19 709.311 2345.19 694.673C2345.19 680.036 2329.76 674.656 2322.72 671.808C2315.51 669.038 2305.87 665.161 2300.65 662.549C2286.4 655.903 2277.78 644.906 2277.78 628.685C2277.78 603.999 2300.24 591.736 2322.32 591.736C2344.4 591.736 2358.25 605.583 2362.05 609.617L2351.84 622.831C2345.04 615.63 2334.98 607.956 2321.37 607.956C2307.76 607.956 2297.32 614.365 2297.32 627.182C2297.32 640 2306.74 644.827 2315.2 648.229L2340.68 658.831C2354.93 665.477 2364.73 676.871 2364.73 693.328C2364.73 720.229 2340.68 734.234 2316.38 734.234L2316.23 734.393Z" fill="black"/>
<path d="M2443.87 609.875V732.039H2424.39V609.875H2385.31V593.655H2482.79V609.875H2443.87Z" fill="black"/>
<path d="M2560.2 734.441C2521.27 734.441 2488.75 707.382 2488.75 662.994C2488.75 618.607 2521.27 591.626 2560.2 591.626C2599.13 591.626 2631.57 618.686 2631.57 662.994C2631.57 707.303 2599.06 734.441 2560.2 734.441ZM2560.2 608.479C2531.87 608.479 2508.61 628.734 2508.61 662.599C2508.61 696.463 2532.11 716.797 2560.2 716.797C2588.29 716.797 2611.72 696.384 2611.72 662.599C2611.72 628.813 2588.45 608.479 2560.2 608.479Z" fill="black"/>
<path d="M2784.14 732.039L2775.11 622.693H2774.48L2732.14 733.225H2721.15L2678.81 622.693H2678.18L2669.32 732.039H2650.09L2662.51 593.655H2686.57L2726.53 700.549H2726.92L2766.8 593.655H2790.71L2803.37 732.039H2784.14Z" fill="black"/>
<path d="M2871.02 734.393C2846.72 734.393 2832.88 718.726 2826.31 711.131L2837.78 698.075C2844.83 707.491 2857.88 717.935 2872.92 717.935C2887.95 717.935 2899.98 709.311 2899.98 694.673C2899.98 680.036 2884.54 674.656 2877.51 671.808C2870.31 669.038 2860.65 665.161 2855.43 662.549C2841.18 655.903 2832.56 644.906 2832.56 628.685C2832.56 603.999 2855.03 591.736 2877.11 591.736C2899.18 591.736 2913.04 605.583 2916.83 609.617L2906.62 622.831C2899.81 615.63 2889.78 607.956 2876.16 607.956C2862.54 607.956 2852.1 614.365 2852.1 627.182C2852.1 640 2861.52 644.827 2869.98 648.229L2895.46 658.831C2909.71 665.477 2919.52 676.871 2919.52 693.328C2919.52 720.229 2895.46 734.234 2871.18 734.234L2871.02 734.393Z" fill="black"/>
</g>
</svg>
