<svg width="3646" height="666" viewBox="0 0 3646 666" fill="none" xmlns="http://www.w3.org/2000/svg">
<path d="M859.94 263.47L883.44 234.4C898.26 251.73 917.28 259.28 932.94 259.28C951.96 259.28 961.48 250.62 961.48 238.32C961.48 223.78 950.84 218.47 926.8 210.37C896.86 199.74 866.94 185.77 866.94 148.33C866.94 116.47 894.91 92.1599 930.72 91.5999C955.33 91.3099 978.27 100.54 997.57 116.75L974.91 146.38C958.41 132.68 943.86 126.81 931.55 126.81C917.84 126.81 907.78 134.08 907.78 146.66C907.49 158.95 918.41 164.27 941.07 173.21C975.48 186.62 1002.61 195.56 1002.61 233.85C1002.61 277.17 964.84 294.77 932.4 294.77C906.67 294.77 880.65 284.99 859.95 263.47H859.94Z" fill="#274247"/>
<path d="M1038.1 249.5V186.35H1021.88V156.17H1038.1V111.46L1074.47 107.55V156.18H1111.67V186.36H1074.47V244.48C1074.47 256.22 1078.11 261.81 1086.49 261.81C1090.97 261.81 1097.68 260.14 1103.84 257.06L1113.35 286.4C1104.4 291.15 1095.45 294.79 1076.99 294.79C1053.49 294.79 1038.1 280.25 1038.1 249.51V249.5Z" fill="#274247"/>
<path d="M1269.69 156.16V292.54H1235V276.05H1234.17C1224.93 288.06 1210.95 294.78 1193.33 294.78C1155.56 294.78 1128.15 266.83 1128.15 224.64C1128.15 182.45 1155.84 153.94 1192.48 153.94C1208.71 153.94 1222.68 159.8 1232.48 171.54H1233.31V156.17H1269.69V156.16ZM1234.72 224.91C1234.72 203.11 1220.17 186.62 1200.31 186.62C1180.45 186.62 1165.06 201.43 1165.06 224.91C1165.06 246.98 1179.61 262.08 1200.03 262.08C1219.05 262.08 1234.71 247.27 1234.71 224.91H1234.72Z" fill="#274247"/>
<path d="M1311.9 249.5V186.35H1295.67V156.17H1311.9V111.46L1348.26 107.55V156.18H1385.45V186.36H1348.26V244.48C1348.26 256.22 1351.89 261.81 1360.29 261.81C1364.75 261.81 1371.47 260.14 1377.62 257.06L1387.14 286.4C1378.2 291.15 1369.24 294.79 1350.78 294.79C1327.29 294.79 1311.9 280.25 1311.9 249.51V249.5Z" fill="#274247"/>
<path d="M1412.84 114.53C1412.84 102.23 1423.19 92.1699 1435.5 92.1699C1447.81 92.1699 1458.44 102.23 1458.44 114.53C1458.44 126.83 1448.09 136.88 1435.5 136.88C1422.91 136.88 1412.84 126.82 1412.84 114.53ZM1417.04 156.16H1453.68V292.54H1417.04V156.16Z" fill="#274247"/>
<path d="M1483.88 274.93L1501.78 249.5C1512.96 260.13 1524.72 265.43 1539.55 265.43C1550.18 265.43 1556.32 260.95 1556.32 254.25C1556.32 247.55 1549.32 244.75 1531.42 239.16C1509.05 231.61 1489.47 221 1489.47 194.72C1489.47 170.13 1510.72 153.93 1538.7 153.93C1557.73 153.93 1573.11 158.95 1588.5 170.97L1570.88 197.8C1560.25 187.74 1548.22 183.26 1538.15 183.26C1532.28 183.26 1524.73 186.34 1524.73 193.61C1524.73 199.2 1532.01 203.11 1545.43 208.14C1575.09 219.03 1592.42 225.47 1592.42 252.29C1592.42 276.61 1575.09 294.77 1539.29 294.77C1517.46 294.77 1499.01 287.78 1483.9 274.92L1483.88 274.93Z" fill="#274247"/>
<path d="M1626.8 249.5V186.35H1610.57V156.17H1626.8V111.46L1663.16 107.55V156.18H1700.35V186.36H1663.16V244.48C1663.16 256.22 1666.79 261.81 1675.19 261.81C1679.65 261.81 1686.37 260.14 1692.52 257.06L1702.04 286.4C1693.1 291.15 1684.14 294.79 1665.68 294.79C1642.19 294.79 1626.8 280.25 1626.8 249.51V249.5Z" fill="#274247"/>
<path d="M1727.74 114.53C1727.74 102.23 1738.09 92.1699 1750.4 92.1699C1762.71 92.1699 1773.34 102.23 1773.34 114.53C1773.34 126.83 1762.99 136.88 1750.4 136.88C1737.81 136.88 1727.74 126.82 1727.74 114.53ZM1731.94 156.16H1768.58V292.54H1731.94V156.16Z" fill="#274247"/>
<path d="M1798.79 274.93L1816.69 249.5C1827.87 260.13 1839.63 265.43 1854.46 265.43C1865.09 265.43 1871.23 260.95 1871.23 254.25C1871.23 247.55 1864.23 244.75 1846.33 239.16C1823.96 231.61 1804.38 221 1804.38 194.72C1804.38 170.13 1825.63 153.93 1853.61 153.93C1872.64 153.93 1888.02 158.95 1903.41 170.97L1885.79 197.8C1875.16 187.74 1863.13 183.26 1853.06 183.26C1847.19 183.26 1839.64 186.34 1839.64 193.61C1839.64 199.2 1846.92 203.11 1860.34 208.14C1890 219.03 1907.33 225.47 1907.33 252.29C1907.33 276.61 1890 294.77 1854.2 294.77C1832.37 294.77 1813.92 287.78 1798.81 274.92L1798.79 274.93Z" fill="#274247"/>
<path d="M1993.74 238.33L1974.73 259.84V292.54H1938.08V86.86H1974.73V211.22H1975.01L2023.96 156.17H2066.76L2018.64 210.39L2067.59 292.55H2026.75L1994.3 238.34H1993.74V238.33Z" fill="#274247"/>
<path d="M2156.77 274.93L2174.67 249.5C2185.85 260.13 2197.61 265.43 2212.44 265.43C2223.07 265.43 2229.21 260.95 2229.21 254.25C2229.21 247.55 2222.21 244.75 2204.31 239.16C2181.94 231.61 2162.36 221 2162.36 194.72C2162.36 170.13 2183.61 153.93 2211.59 153.93C2230.62 153.93 2246 158.95 2261.39 170.97L2243.77 197.8C2233.14 187.74 2221.11 183.26 2211.04 183.26C2205.17 183.26 2197.62 186.34 2197.62 193.61C2197.62 199.2 2204.9 203.11 2218.32 208.14C2247.98 219.03 2265.31 225.47 2265.31 252.29C2265.31 276.61 2247.98 294.77 2212.18 294.77C2190.35 294.77 2171.9 287.78 2156.79 274.92L2156.77 274.93Z" fill="#274247"/>
<path d="M2421.37 236.09H2325.42C2329.9 252.29 2342.77 262.35 2360.39 262.35C2374.94 262.64 2385.57 256.21 2393.12 246.98L2416.89 269.06C2405.14 283.87 2385.29 294.77 2357.87 294.77C2317.86 294.77 2287.65 266.82 2287.65 224.06C2287.65 181.3 2316.47 153.92 2355.35 153.92C2394.23 153.92 2422.2 182.98 2422.2 222.95C2422.2 227.42 2422.2 233.84 2421.37 236.08V236.09ZM2325.7 209.82H2385.85C2382.2 195.57 2372.43 186.07 2356.47 186.07C2341.64 186.07 2329.9 194.17 2325.7 209.82Z" fill="#274247"/>
<path d="M2584.97 211.5V292.54H2548.33V220.72C2548.33 194.73 2539.09 186.62 2522.04 186.62C2503.57 186.62 2490.99 199.47 2490.99 223.79V292.54H2454.34V156.16H2490.99V173.77H2491.55C2502.73 160.64 2518.4 153.93 2535.19 153.93C2564.55 153.93 2584.97 169.58 2584.97 211.5Z" fill="#274247"/>
<path d="M2626.35 249.5V186.35H2610.12V156.17H2626.35V111.46L2662.71 107.55V156.18H2699.9V186.36H2662.71V244.48C2662.71 256.22 2666.34 261.81 2674.74 261.81C2679.2 261.81 2685.92 260.14 2692.07 257.06L2701.59 286.4C2692.65 291.15 2683.69 294.79 2665.23 294.79C2641.74 294.79 2626.35 280.25 2626.35 249.51V249.5Z" fill="#274247"/>
<path d="M2810.93 154.21V193.89C2807.3 193.61 2803.38 193.61 2801.41 193.61C2778.75 193.61 2766.46 208.98 2766.46 229.09V292.53H2729.81V156.15H2766.46V176.27H2766.74C2777.09 161.74 2791.9 153.92 2808.14 153.92C2809.25 153.92 2810.38 153.92 2810.94 154.2L2810.93 154.21Z" fill="#274247"/>
<path d="M2968.4 156.16V292.54H2933.71V276.05H2932.88C2923.64 288.06 2909.66 294.78 2892.04 294.78C2854.27 294.78 2826.86 266.83 2826.86 224.64C2826.86 182.45 2854.56 153.94 2891.19 153.94C2907.42 153.94 2921.4 159.8 2931.2 171.54H2932.03V156.17H2968.41L2968.4 156.16ZM2933.43 224.91C2933.43 203.11 2918.88 186.62 2899.02 186.62C2879.16 186.62 2863.79 201.43 2863.79 224.91C2863.79 246.98 2878.32 262.08 2898.74 262.08C2917.77 262.08 2933.43 247.27 2933.43 224.91Z" fill="#274247"/>
<path d="M3008.66 86.86H3045.3V292.54H3008.66V86.86Z" fill="#274247"/>
<path d="M3229.61 224.63C3229.61 266.83 3202.19 294.77 3164.16 294.77C3145.96 294.77 3131.99 288.06 3122.47 276.04H3121.64V292.53H3086.67V86.85H3123.32V171.52H3124.15C3134.22 159.78 3148.48 153.92 3165.27 153.92C3201.91 153.92 3229.6 183.26 3229.6 224.62L3229.61 224.63ZM3192.42 224.91C3192.42 201.44 3177.04 186.62 3157.45 186.62C3136.47 186.62 3121.65 203.11 3121.65 224.91C3121.65 246.71 3137.59 262.08 3157.45 262.08C3177.31 262.08 3192.42 246.99 3192.42 224.91Z" fill="#274247"/>
<path d="M3380.92 156.16L3307.35 347.87H3269.88L3293.93 284.15L3239.67 156.16H3277.71L3311.27 240.56H3311.55L3342.87 156.16H3380.91H3380.92Z" fill="#274247"/>
<path d="M3488.03 154.21V193.89C3484.4 193.61 3480.48 193.61 3478.51 193.61C3455.85 193.61 3443.56 208.98 3443.56 229.09V292.53H3406.91V156.15H3443.56V176.27H3443.84C3454.19 161.74 3469.02 153.92 3485.24 153.92C3486.35 153.92 3487.48 153.92 3488.04 154.2L3488.03 154.21Z" fill="#274247"/>
<path d="M3645.5 156.16V292.54H3610.81V276.05H3609.98C3600.74 288.06 3586.76 294.78 3569.14 294.78C3531.37 294.78 3503.96 266.83 3503.96 224.64C3503.96 182.45 3531.66 153.94 3568.29 153.94C3584.52 153.94 3598.5 159.8 3608.3 171.54H3609.13V156.17H3645.51L3645.5 156.16ZM3610.53 224.91C3610.53 203.11 3595.98 186.62 3576.12 186.62C3556.26 186.62 3540.89 201.43 3540.89 224.91C3540.89 246.98 3555.42 262.08 3575.84 262.08C3594.87 262.08 3610.53 247.27 3610.53 224.91ZM3547.31 114.53C3547.31 98.6 3559.9 85.1899 3577.25 85.1899C3594.6 85.1899 3607.74 97.48 3607.74 114.53C3607.74 130.46 3595.43 143.59 3577.25 143.59C3561.03 143.59 3547.31 131.3 3547.31 114.53ZM3566.9 114.24C3566.9 120.11 3571.38 124.59 3577.25 124.59C3583.12 124.59 3587.88 119.84 3587.88 113.96C3587.88 108.08 3583.12 103.62 3577.25 103.62C3571.38 103.62 3566.9 108.65 3566.9 114.24Z" fill="#274247"/>
<path d="M865.43 565.41L877.15 551.6C887.83 564.78 903.96 571.27 918.42 571.27C936.64 571.27 948.79 562.69 948.79 548.46C948.79 531.72 935.38 527.32 915.49 519.79C893.49 511.62 871.08 502.21 871.08 476.47C871.08 454.29 891.19 437.33 916.54 437.13C933.09 437.13 949.43 443.2 963.67 454.5L952.57 468.73C940.83 458.9 927.64 454.08 916.54 454.08C902.72 454.08 890.14 461.62 890.14 475.64C889.94 489.87 903.34 494.89 921.78 502.21C946.92 511.84 967.86 518.75 967.86 546.58C967.86 574.41 943.77 588.43 918.22 588.43C899.57 588.43 880.31 581.31 865.44 565.41H865.43Z" fill="#274247"/>
<path d="M999.14 556.83V499.91H986.15V485.27H999.14V450.53L1016.11 448.64V485.27H1050.04V499.91H1016.11V554.33C1016.11 566.47 1019.04 572.53 1028.67 572.53C1034.74 572.53 1041.03 570.02 1045.84 567.3L1050.45 582.16C1044.79 585.3 1037.67 588.44 1025.73 588.44C1007.51 588.44 999.13 577.35 999.13 556.83H999.14Z" fill="#274247"/>
<path d="M1168.02 485.27V587.18H1151.68V571.07H1151.48C1143.31 581.95 1130.74 588.44 1115.86 588.44C1087.58 588.44 1065.8 568.14 1065.8 536.96C1065.8 505.78 1086.75 484.01 1115.66 484.01C1129.7 484.01 1142.26 489.87 1150.85 500.54H1151.05V485.27H1168.02ZM1151.68 536.96C1151.68 516.04 1137.23 499.71 1117.54 499.71C1097.85 499.71 1082.98 514.35 1082.98 536.96C1082.98 557.47 1096.6 572.96 1117.34 572.96C1135.77 572.96 1151.69 558.51 1151.69 536.96H1151.68Z" fill="#274247"/>
<path d="M1204.74 556.83V499.91H1191.75V485.27H1204.74V450.53L1221.7 448.64V485.27H1255.64V499.91H1221.7V554.33C1221.7 566.47 1224.64 572.53 1234.27 572.53C1240.35 572.53 1246.63 570.02 1251.45 567.3L1256.06 582.16C1250.4 585.3 1243.28 588.44 1231.34 588.44C1213.11 588.44 1204.73 577.35 1204.73 556.83H1204.74Z" fill="#274247"/>
<path d="M1278.5 454.5C1278.5 448.01 1283.75 442.57 1290.66 442.57C1297.57 442.57 1302.81 448.01 1302.81 454.5C1302.81 460.99 1297.37 466.42 1290.66 466.42C1283.95 466.42 1278.5 461.19 1278.5 454.5ZM1282.06 485.26H1299.03V587.17H1282.06V485.26Z" fill="#274247"/>
<path d="M1327.34 573.79L1336.15 561.03C1344.1 568.36 1352.91 573.17 1367.36 573.17C1379.51 573.17 1386.62 566.89 1386.62 559.57C1386.62 550.77 1377.2 547.84 1362.33 542.83C1345.78 536.97 1331.74 530.06 1331.74 511.44C1331.74 495.74 1346 484.02 1365.47 484.02C1377.62 484.02 1389.14 487.37 1400.46 496.57L1391.66 509.96C1382.65 502.22 1373.22 499.5 1364.64 499.5C1356.89 499.5 1348.93 504.11 1348.93 511.43C1348.93 519.38 1357.32 523.15 1368.21 527.33C1389.79 535.7 1404.03 539.26 1403.82 559.35C1403.82 575.25 1391.89 588.44 1367.38 588.44C1350.62 588.44 1337.41 582.79 1327.36 573.79H1327.34Z" fill="#274247"/>
<path d="M1434.01 556.83V499.91H1421.03V485.27H1434.01V450.53L1450.98 448.64V485.27H1484.92V499.91H1450.98V554.33C1450.98 566.47 1453.92 572.53 1463.55 572.53C1469.63 572.53 1475.91 570.02 1480.73 567.3L1485.34 582.16C1479.68 585.3 1472.56 588.44 1460.62 588.44C1442.39 588.44 1434 577.35 1434 556.83H1434.01Z" fill="#274247"/>
<path d="M1507.78 454.5C1507.78 448.01 1513.03 442.57 1519.94 442.57C1526.85 442.57 1532.09 448.01 1532.09 454.5C1532.09 460.99 1526.65 466.42 1519.94 466.42C1513.23 466.42 1507.78 461.19 1507.78 454.5ZM1511.34 485.26H1528.31V587.17H1511.34V485.26Z" fill="#274247"/>
<path d="M1559.13 536.32C1559.13 505.56 1580.29 484 1610.24 484C1625.54 484 1641.25 490.28 1651.31 502.2L1639.57 512.46C1633.29 504.72 1623.24 499.7 1611.09 499.7C1590.56 499.7 1576.32 514.77 1576.32 536.32C1576.32 557.87 1590.56 572.95 1611.09 572.95C1623.02 572.95 1633.7 567.72 1640 560.81L1651.72 571.27C1643.14 580.9 1627.85 588.44 1609.62 588.44C1580.29 588.44 1559.13 567.3 1559.13 536.33V536.32Z" fill="#274247"/>
<path d="M1669.18 573.79L1677.99 561.03C1685.94 568.36 1694.75 573.17 1709.2 573.17C1721.35 573.17 1728.46 566.89 1728.46 559.57C1728.46 550.77 1719.04 547.84 1704.17 542.83C1687.62 536.97 1673.6 530.06 1673.6 511.44C1673.6 495.74 1687.84 484.02 1707.31 484.02C1719.46 484.02 1730.98 487.37 1742.3 496.57L1733.5 509.96C1724.49 502.22 1715.06 499.5 1706.48 499.5C1698.73 499.5 1690.77 504.11 1690.77 511.43C1690.77 519.38 1699.16 523.15 1710.05 527.33C1731.63 535.7 1745.87 539.26 1745.66 559.35C1745.66 575.25 1733.73 588.44 1709.22 588.44C1692.46 588.44 1679.25 582.79 1669.2 573.79H1669.18Z" fill="#274247"/>
<path d="M1957.69 438.59V587.18H1939.05L1855.67 469.99H1855.26V587.18H1837.03V438.59H1855.05L1939.05 557.04H1939.46V438.59H1957.69Z" fill="#274247"/>
<path d="M1989.62 536.32C1989.62 507.03 2010.56 484 2042.41 484C2072.36 484 2094.78 505.35 2094.78 536.32C2094.78 567.29 2072.37 588.43 2042.41 588.43C2010.56 588.43 1989.62 565.62 1989.62 536.32ZM2077.59 536.32C2077.59 514.56 2062.09 499.7 2042.41 499.7C2021.04 499.7 2006.8 516.03 2006.8 536.32C2006.8 556.61 2021.25 572.95 2042.41 572.95C2062.09 572.95 2077.59 557.87 2077.59 536.32Z" fill="#274247"/>
<path d="M2178.84 484.21V503.05C2176.53 502.84 2173.8 502.63 2172.14 502.63C2152.86 502.63 2141.13 517.49 2141.13 537.99V587.17H2124.18V485.26H2141.13V503.25H2141.34C2148.88 491.11 2160.83 484 2174.64 484C2176.32 484 2177.8 484 2178.84 484.2V484.21Z" fill="#274247"/>
<path d="M2340.78 485.27L2305.38 587.18H2289.46L2266.42 512.89H2266.21L2242.96 587.18H2227.46L2192.06 485.27H2209.23L2235.21 561.44H2235.64L2258.89 485.27H2273.56L2297.22 561.44H2297.65L2323.63 485.27H2340.8H2340.78Z" fill="#274247"/>
<path d="M2455.67 485.27V587.18H2439.32V571.07H2439.11C2430.95 581.95 2418.38 588.44 2403.5 588.44C2375.23 588.44 2353.44 568.14 2353.44 536.96C2353.44 505.78 2374.38 484.01 2403.29 484.01C2417.33 484.01 2429.91 489.87 2438.49 500.54H2438.7V485.27H2455.67ZM2439.32 536.96C2439.32 516.04 2424.87 499.71 2405.18 499.71C2385.49 499.71 2370.62 514.35 2370.62 536.96C2370.62 557.47 2384.22 572.96 2404.97 572.96C2423.4 572.96 2439.32 558.51 2439.32 536.96Z" fill="#274247"/>
<path d="M2579.33 485.27L2521.72 628.62H2503.7L2521.93 583L2478.78 485.27H2496.99L2530.1 562.91H2530.51L2561.31 485.27H2579.33Z" fill="#274247"/>
<path d="M366.4 389.84L649.43 226.57C604.95 94.92 480.6 -0.0100098 333.81 -0.0100098C149.73 -0.0100098 0.5 149.08 0.5 332.99C0.5 358.32 3.58001 382.9 8.95001 406.61L322.46 226.05L366.4 389.83V389.84Z" fill="#274247"/>
<path d="M345.6 439.98L301.66 276.17L18.1899 439.42C62.6699 571.07 187.02 666 333.81 666C517.89 666 667.12 516.91 667.12 333C667.12 307.67 664.04 283.11 658.68 259.4L345.6 439.98Z" fill="#274247"/>
</svg>
