<svg width="45" height="45" viewBox="0 0 45 45" fill="none" xmlns="http://www.w3.org/2000/svg">
<path d="M22.31 0C11.745 0 2.90002 7.34 0.595023 17.197C5.08117 17.1635 9.49254 18.3464 13.36 20.62C14.396 15.643 18.542 13.205 22.303 13.205C26.34 13.205 30.779 16.048 31.376 21.495C35.4151 19.5368 39.9097 18.7108 44.381 19.105C42.838 8.304 33.544 0 22.31 0ZM44.608 22.284L44.607 22.096C31.529 20.571 19.851 31.332 20.327 44.482C33.277 45.692 44.677 35.294 44.608 22.284ZM17.335 43.887C17.3286 39.7784 18.3459 35.7329 20.295 32.116C16.581 24.689 8.43402 19.826 0.111023 20.163C-1.02698 31.378 6.71402 41.676 17.336 44.012V43.887H17.335Z" fill="#054449"/>
</svg>
