<svg width="300" height="300" viewBox="0 0 300 300" fill="none" xmlns="http://www.w3.org/2000/svg">
<path d="M0 0H300V300H0V0Z" fill="#C8102E"/>
<path d="M140.68 46.4599C140.68 51.3899 144.76 55.3799 149.8 55.3799C149.87 55.3799 149.93 55.3999 150 55.3899C150.07 55.3899 150.13 55.3799 150.2 55.3799C155.24 55.3799 159.32 51.3899 159.32 46.4599C159.32 42.2699 156.36 38.7599 152.16 37.7999V31.9199H157.74V27.9299H152.16V22.6799H147.92V27.9299H142.27V31.9199H147.92V37.7999C143.65 38.7499 140.69 42.2599 140.69 46.4599H140.68Z" fill="white"/>
<path d="M149.93 115.98C170.71 115.98 186.4 117.03 201.91 119.23L212.09 78.2799C211.49 78.0999 210.82 77.9899 210.08 77.9899C206.9 77.9899 203.8 79.8499 203.16 82.1399C202.42 84.7699 203.32 87.2199 204.43 89.0999C203.09 87.6099 201.03 86.2099 198.82 86.2099C196.61 86.2099 194.71 88.9399 193.76 92.2999C192.82 95.6599 193.96 98.3899 196.13 98.3899C198.3 98.3899 200.25 97.0699 202.41 95.6099C202.04 96.8999 199.77 106.31 194.96 106.31L187.31 105.38C182.41 105.38 180.44 95.5899 180.13 94.4899C180.13 94.4899 183.9 97.4699 186.13 97.4699C188.36 97.4699 190.5 95.0999 191.04 91.7399C191.58 88.3799 190.26 85.0199 188.09 85.0199C185.92 85.0199 183.22 86.5099 181.21 88.0299C183.11 86.1699 185.28 83.1899 185.71 80.5399C186.08 78.2499 183.8 76.3899 180.62 76.3899C177.44 76.3899 174.56 78.2499 174.2 80.5399C173.78 83.1699 175.03 86.1699 176.36 88.0499C174.84 86.5499 172.62 83.8499 170.4 83.8499C168.18 83.8499 166.03 87.3299 165.49 90.6999C164.95 94.0599 166.66 96.1999 168.83 96.1999C171 96.1999 173.24 95.9599 175.24 94.4599L175.1 95.0899C174.42 97.1699 171.85 104.24 167.52 104.24L159.87 103.95C155.27 103.95 152.99 94.9699 152.47 93.2799L152.45 92.8899C154.21 94.3999 156.68 95.8099 158.91 95.8099C161.14 95.8099 162.84 93.0799 162.84 89.7199C162.84 86.3599 161.08 83.5999 158.91 83.5999C156.74 83.5999 154.27 85.0599 152.5 86.5699C154.1 84.6999 155.79 81.7299 155.79 79.0799C155.79 76.7899 153.21 74.9299 150.03 74.9299C150.01 74.9299 150 74.9299 149.98 74.9299C149.96 74.9299 149.95 74.9299 149.93 74.9299C146.75 74.9299 144.17 76.7899 144.17 79.0799C144.17 81.7299 145.86 84.7099 147.47 86.5699C145.7 85.0499 143.25 83.5999 141.06 83.5999C138.87 83.5999 137.13 86.3599 137.13 89.7199C137.13 93.0799 138.89 95.8099 141.06 95.8099C143.23 95.8099 145.76 94.3899 147.52 92.8899L147.5 93.2799C146.98 94.9699 144.71 103.95 140.1 103.95L132.45 104.24C128.11 104.24 125.27 96.9599 124.59 94.8799L124.45 94.2499C126.45 95.7499 128.56 96.0199 130.72 96.0199C132.88 96.0199 134.75 93.8499 134.21 90.4799C133.67 87.1199 131.47 83.8499 129.3 83.8499C127.13 83.8499 124.86 86.3399 123.34 87.8399C124.67 85.9599 125.92 82.9599 125.5 80.3299C125.13 78.0399 122.25 76.1799 119.08 76.1799C115.91 76.1799 113.62 78.0399 113.99 80.3299C114.42 82.9899 116.58 85.9599 118.49 87.8199C116.48 86.2999 113.79 84.9599 111.61 84.9599C109.43 84.9599 108.12 88.1699 108.66 91.5299C109.2 94.8899 111.4 97.5499 113.57 97.5499C115.74 97.5499 119.57 94.2799 119.57 94.2799C119.26 95.3699 117.57 105.38 112.67 105.38L105.02 106.31C100.21 106.31 97.9401 96.8999 97.5701 95.6099C99.7301 97.0699 101.77 98.3899 103.88 98.3899C105.99 98.3899 107.19 95.6599 106.25 92.2999C105.31 88.9399 103.33 86.2099 101.16 86.2099C98.9901 86.2099 96.8901 87.6099 95.5501 89.0999C96.6601 87.2199 97.5501 84.7699 96.8201 82.1399C96.1801 79.8399 93.0801 77.9899 89.9001 77.9899C89.1601 77.9899 88.4901 78.0999 87.8901 78.2799L98.1101 119.37C113.96 117.07 128.7 115.97 149.91 115.97L149.93 115.98Z" fill="white"/>
<path d="M200.56 60.36C197.33 60.27 191.42 59.95 186.21 61.07C183.52 56.01 173.86 55.72 170.85 55.83C167.07 55.96 155.66 57.09 149.98 59.09C144.31 57.09 132.98 55.99 129.21 55.86C126.2 55.75 116.54 56.15 113.85 61.24C108.63 60.11 102.69 60.43 99.4498 60.52C95.7798 60.62 83.3798 62.15 86.1398 72.34L87.1798 75.63C88.8798 74.97 90.7998 74.9 93.3398 75.94L92.4798 73.36C92.4798 73.36 91.0598 69.02 95.4698 67.78C99.6698 66.6 105.55 66.79 113.74 67.78L115.18 74.36C116.97 73.8 119.77 73.14 122.32 74.38L120.74 67.18C120.74 67.18 120.01 63.28 124.63 62.39C128.65 61.61 135.37 62.74 143.59 64.2C143.59 64.2 145.54 64.45 145.66 65.92C145.8 67.6 145.98 73.29 145.98 73.29C146.67 72.76 148.8 72.25 150.03 72.26C151.26 72.26 153.15 72.73 153.85 73.26L154.34 65.92C154.52 64.61 156.32 64.45 156.32 64.45C164.86 62.98 171.32 61.58 175.44 62.37C180.06 63.26 179.33 66.99 179.33 66.99L177.68 74.39C180.23 73.15 183.04 73.83 184.83 74.39L186.32 67.63C194.49 66.63 200.36 66.44 204.55 67.63C208.96 68.87 207.54 73.21 207.54 73.21L206.83 75.79C209.38 74.75 211.29 74.82 212.99 75.48L213.88 72.19C216.64 62 204.24 60.47 200.57 60.37L200.56 60.36Z" fill="white"/>
<path d="M178.61 246.1C179.93 246.15 180.85 246.14 181.91 246.12L183.42 246.1C187.33 246.23 191.81 244.99 195.41 244C197.64 243.38 199.57 242.85 200.8 242.8C200.94 242.85 201.85 243.35 203.01 243.99C209.41 247.5 226.41 256.82 232.61 256.9C234.29 256.81 246.64 252.58 248.33 250.54L248.43 250.42L248.31 250.32C248.23 250.25 238.54 243.58 236.81 243.69C235.95 243.63 235.62 244.03 235.14 244.63C234.71 245.16 233.87 246.08 232.87 246.68C232.87 246.68 230.79 247.15 231.07 246.68C231.14 246.55 231.16 246.52 231.21 246.43C231.51 245.87 231.97 245.03 232.18 244.17L232.2 244.07L232.12 244.01C231.52 243.57 230.49 243.38 229.06 243.11C226.25 242.57 222.01 241.76 217.12 238.32C212.4 235.23 211.13 232.44 210.2 230.4C209.31 228.44 208.72 227.14 205.62 227.19C203.89 227.14 202.98 227.64 202.11 228.12C201.28 228.58 200.5 229.01 199.03 228.99C197.75 229.01 196.5 228.49 195.51 227.52C194.64 226.67 194.09 225.57 194.08 224.64C194.08 223.34 194.46 221.79 195.01 220.23C195.89 217.75 197.23 215.11 198.25 213.11C198.77 212.09 199.22 211.2 199.47 210.6C202.55 203.72 203.43 199.06 203.96 196.27C204.39 193.99 204.59 192.95 205.54 192.91C207.48 192.95 207.71 194.16 208.32 197.38C208.92 200.56 209.44 202.45 212.39 210.64C214.14 215.51 218.34 218.46 222.63 220.25H222.68C228.68 222.75 234.86 222.97 234.86 222.97C234.93 222.97 235.24 221.85 235.65 220.23C236.7 216.05 238.4 208.56 238.39 208.36V208.21H238.37C238.19 207.44 236.3 207.16 233.52 206.73C228.94 206.04 222.3 204.93 220.54 200.58C216.79 191.35 213.3 187.84 206.43 187.8C204.15 187.83 203 189.05 202.45 189.64C202.36 189.73 202.26 189.84 202.21 189.88C186.26 183.85 179.41 182.81 161.73 190.14C147.4 196.08 137.72 192.86 133.08 190.99C133.41 188.53 133.67 186.17 133.88 183.87C133.96 182.96 134.84 182.35 135.71 182.61C138.37 183.39 141.77 184.07 145.83 184.07C150.66 184.07 156.4 183.12 162.94 180.41C171.37 176.91 176.96 175.5 182.11 175.5C184.23 175.5 186.35 175.75 188.62 176.22L190.14 170.1C187.44 169.52 184.82 169.19 182.11 169.19C175.74 169.19 169.27 170.95 160.53 174.58C154.72 176.99 149.84 177.75 145.84 177.76C141.62 177.76 138.38 176.91 135.97 176.06C135.08 175.75 134.52 174.89 134.55 173.94C134.63 171.91 134.68 169.94 134.69 168.05C134.69 167.06 135.6 166.35 136.55 166.61C139.07 167.29 142.18 167.84 145.83 167.83C150.66 167.83 156.4 166.88 162.93 164.17C171.36 160.68 176.95 159.27 182.09 159.27C185.34 159.27 188.58 159.85 192.39 160.96L193.91 154.84C189.81 153.66 186.04 152.97 182.09 152.97C175.72 152.97 169.25 154.73 160.51 158.35C154.7 160.76 149.83 161.53 145.82 161.53C141.5 161.53 138.2 160.64 135.78 159.77C134.97 159.48 134.41 158.73 134.36 157.87C134.21 155.6 134.02 153.48 133.8 151.52C133.7 150.63 134.52 149.93 135.37 150.19C138.18 151.07 141.88 151.87 146.36 151.86C151.32 151.86 157.24 150.88 163.96 148.09C172.66 144.49 178.43 143.02 183.76 143.03C187.64 143.03 191.51 143.83 196.27 145.35L197.79 139.22C192.83 137.65 188.41 136.73 183.75 136.73C177.2 136.73 170.54 138.54 161.54 142.27C155.53 144.76 150.49 145.55 146.35 145.56C140.92 145.56 137.03 144.2 134.46 143.17L132.33 142.12C131.25 136.83 130.2 134.04 130.2 134.04C131.09 132.95 134.31 129.03 134.31 129.03C134.31 129.03 104.98 129.03 85.0901 136.48C80.4401 138.22 75.7601 139.59 72.8701 141.5L75.7201 153.4C75.8201 153.8 76.2201 154.05 76.6201 153.96L87.4001 151.57C94.4301 153.27 101.68 155.47 101.66 156.21C101.66 156.93 101.35 157.32 100.66 158.19C99.1101 160.12 95.8801 164.15 90.5701 178.36C83.4401 197.45 85.4001 213.19 85.4701 214.24C85.1501 214.81 80.8201 216.28 76.8001 217.17C73.1001 217.99 68.7101 218.96 64.6401 220.2C57.6501 222.32 51.5801 225.21 51.5601 229.41C51.5801 233.51 53.1801 236.95 56.5901 240.23C59.6501 243.17 64.1401 245.99 71.1501 249.36C81.2001 254.2 87.6901 256.63 91.3601 257.81C95.2101 259.05 97.2101 259.33 97.6201 259.28C101 259.37 113.42 254 114.19 253.56L114.32 253.48L114.25 253.35C114.04 252.96 105.93 247.11 104.22 246.97H104.21H104.2C103.06 247.07 102.52 247.52 101.64 248.26C101.31 248.54 100.9 248.88 100.39 249.27L100.03 248.26C99.7601 247.51 99.7301 247.11 99.7001 246.95C99.7101 246.7 99.6601 246.32 99.4701 246.17L98.5101 246.06H98.4701L98.4401 246.08C98.0001 246.32 97.6401 246.55 97.3101 246.76C96.4301 247.33 95.7301 247.78 94.0001 247.87C91.0701 247.82 85.1201 245.75 73.4801 236.15C73.2201 235.94 73.0601 235.81 72.9501 235.72C73.5501 235.19 73.9901 234.81 74.8201 234.69H101.2C102.31 234.78 103.51 233.94 104.48 233.27C104.99 232.91 105.48 232.58 105.7 232.58C105.7 232.58 109.92 235.91 116.92 235.91C128.34 236.18 151.45 231.56 151.45 231.56C154.22 231.55 155.17 233.47 156.07 234.82C157.43 236.86 158.24 240.12 163.26 242.32C167.74 244.29 169.66 245.15 174.01 245.69C176.04 245.94 178.13 246.09 178.59 246.07L178.61 246.1Z" fill="white"/>
</svg>
