<svg width="790" height="647" viewBox="0 0 790 647" fill="none" xmlns="http://www.w3.org/2000/svg">
<path d="M215.315 0.391846H0V72.1582H215.315V0.391846Z" fill="#010202"/>
<path d="M502.499 0.391846H287.143V72.1582H502.499V0.391846Z" fill="#010202"/>
<path d="M789.642 0.391846H574.285V72.1582H789.642V0.391846Z" fill="#010202"/>
<path d="M215.315 143.946H0V215.754H215.315V143.946Z" fill="#010202"/>
<path d="M502.499 143.946H287.143V215.754H502.499V143.946Z" fill="#010202"/>
<path d="M789.642 143.946H574.285V215.754H789.642V143.946Z" fill="#010202"/>
<path d="M215.315 287.541H0V359.328H215.315V287.541Z" fill="#010202"/>
<path d="M502.499 287.541H287.143V359.328H502.499V287.541Z" fill="#010202"/>
<path d="M215.315 431.094H0V502.861H215.315V431.094Z" fill="#010202"/>
<path d="M502.499 431.094H287.143V502.861H502.499V431.094Z" fill="#010202"/>
<path d="M215.315 574.689H0V646.456H215.315V574.689Z" fill="#010202"/>
<path d="M502.499 574.689H287.143V646.456H502.499V574.689Z" fill="#010202"/>
</svg>
